<svg version="1.1" id="Layer_1" xmlns="http://www.w3.org/2000/svg" xmlns:xlink="http://www.w3.org/1999/xlink" x="0px" y="0px"
	 width="100%" viewBox="0 0 225 225" enable-background="new 0 0 225 225" xml:space="preserve">
<path fill="#FFFEFE" opacity="1.000000" stroke="none" 
	d="
M1.000000,89.000000 
	C1.000000,59.333340 1.000000,30.166677 1.000000,1.000012 
	C75.999977,1.000008 150.999954,1.000008 225.999954,1.000004 
	C225.999969,75.999969 225.999969,150.999939 225.999985,225.999939 
	C151.000046,225.999954 76.000092,225.999954 1.000068,225.999969 
	C1.000000,180.500000 1.000000,135.000000 1.000000,89.000000 
M62.083443,94.077965 
	C62.083443,94.077965 62.119900,94.162193 62.695732,93.853333 
	C62.972347,93.265289 63.248959,92.677246 63.954353,91.611511 
	C64.687279,89.793205 65.420204,87.974907 66.135857,86.126213 
	C66.135857,86.126213 66.102890,86.122452 66.590134,85.763252 
	C66.718346,85.178940 66.846558,84.594620 67.554024,83.677750 
	C67.843987,82.847832 68.133949,82.017914 68.789543,80.620926 
	C70.582176,76.758102 72.374809,72.895287 74.688293,68.590019 
	C76.204140,65.094482 77.719986,61.598942 79.738647,57.632355 
	C80.658348,55.437279 81.578056,53.242203 82.926155,50.574070 
	C84.013451,48.075741 85.100746,45.577412 86.686447,42.636971 
	C87.721649,40.637741 88.756844,38.638512 90.257736,37.293762 
	C95.932220,39.702885 93.017784,31.775026 96.775955,31.877821 
	C96.547188,29.992050 96.342789,28.102560 96.056381,26.225584 
	C96.023483,26.010010 95.539444,25.853027 95.253578,25.687910 
	C92.735870,24.233698 82.017441,28.362389 81.042160,31.191801 
	C80.887543,31.640366 80.989876,32.177498 80.479050,32.950928 
	C80.109840,33.023754 79.740623,33.096581 78.482735,33.071648 
	C76.717384,33.197517 74.947235,33.277279 73.187881,33.460651 
	C70.867920,33.702454 70.230522,34.990097 70.998688,37.074310 
	C70.998688,37.074310 71.083054,37.080982 70.432388,36.976509 
	C69.492256,36.815224 68.552124,36.653942 67.611992,36.492661 
	C67.715981,37.240604 67.819969,37.988544 67.230965,38.947968 
	C65.076836,40.114983 62.922707,41.281998 60.065277,42.653515 
	C57.349010,44.046726 54.632744,45.439941 51.169338,46.824875 
	C47.746693,48.383400 44.324051,49.941921 40.177170,51.718296 
	C31.367708,55.552635 31.363600,55.552937 32.053089,64.931740 
	C32.100426,65.575661 32.276386,66.210136 32.278904,67.619286 
	C32.518288,69.410934 32.757671,71.202576 32.887943,73.918045 
	C33.382057,81.912178 33.876167,89.906319 34.228172,98.686989 
	C34.504116,100.792000 34.780060,102.897003 34.939693,105.894272 
	C35.174641,109.312943 35.409592,112.731613 35.586956,117.039291 
	C35.776447,120.026672 35.965939,123.014053 36.039383,126.897659 
	C36.480267,133.222672 36.921154,139.547684 37.362038,145.872711 
	C37.776588,145.945435 38.191139,146.018173 38.605686,146.090897 
	C42.138950,138.091736 45.672215,130.092560 49.765377,121.797287 
	C50.243893,120.641624 50.722408,119.485962 51.722946,117.859810 
	C51.753414,116.710251 51.419186,115.383316 51.877178,114.441704 
	C53.910355,110.261551 56.170673,106.191872 58.951088,101.755127 
	C59.696106,99.547783 60.441120,97.340431 61.103870,95.076126 
	C61.103870,95.076126 61.077049,95.172523 61.607239,95.000114 
	C61.796555,94.691963 61.985870,94.383812 62.083443,94.077965 
M144.997559,32.003586 
	C144.997559,32.003586 144.986084,32.001049 144.914673,31.379519 
	C144.514130,29.946747 144.113602,28.513975 143.472595,26.221027 
	C141.662460,26.805014 139.262848,27.579178 136.387772,28.198254 
	C136.253769,28.099085 136.119766,27.999918 135.666016,27.459835 
	C135.326370,27.350733 134.986740,27.241632 134.301712,27.201067 
	C134.301712,27.201067 133.981537,27.054523 134.301910,26.533995 
	C132.618622,23.834627 130.922195,24.752663 129.231476,26.125322 
	C130.242996,27.803612 131.954742,29.335449 131.753586,30.550646 
	C131.100815,34.494213 133.568924,33.960110 136.062149,34.737118 
	C135.907013,35.194679 135.751877,35.652245 134.875870,36.262989 
	C134.300659,37.588551 133.725433,38.914116 133.150223,40.239677 
	C133.641769,40.397171 134.133316,40.554661 134.624863,40.712151 
	C134.950989,39.223625 135.277100,37.735100 136.459732,36.023888 
	C138.265762,39.333916 140.042923,42.660103 141.885788,45.949497 
	C143.794281,49.356071 145.766479,52.726959 147.847183,56.749474 
	C148.525223,58.061611 149.203262,59.373749 149.374344,60.990364 
	C149.538315,61.466576 149.702286,61.942787 149.831100,62.735405 
	C149.831100,62.735405 150.008636,62.999657 150.066681,63.553116 
	C150.356033,63.770775 150.645386,63.988434 151.079651,64.629982 
	C151.259369,64.898743 151.510544,65.043640 152.109299,65.667648 
	C153.796310,70.334442 155.483322,75.001228 156.862656,80.364830 
	C156.182999,81.262672 155.330032,82.079636 154.864456,83.077370 
	C154.171249,84.562836 153.751617,86.175957 153.215561,87.734756 
	C154.501160,88.156876 155.763550,88.691757 157.080231,88.963013 
	C158.018280,89.156273 159.029419,88.994896 160.595291,89.280182 
	C160.920059,91.147057 161.852890,93.151688 161.466461,94.857445 
	C159.589264,103.143608 161.341644,105.613441 169.247910,105.030304 
	C170.456223,107.377060 171.664536,109.723816 172.973419,112.791420 
	C175.686447,118.532814 178.399475,124.274208 181.194763,130.721268 
	C183.799728,136.213730 186.404678,141.706192 189.354034,147.924820 
	C189.900925,141.422760 190.530884,136.036621 190.736542,130.634338 
	C190.845535,127.771057 190.217438,124.879715 190.331741,121.336693 
	C190.738144,120.119888 191.427063,118.921371 191.507202,117.683449 
	C192.298141,105.463829 192.988083,93.237679 193.933228,80.161224 
	C193.931381,78.109489 193.929550,76.057762 194.129150,73.184120 
	C194.376526,69.123360 194.623901,65.062592 195.030960,60.176609 
	C195.923141,56.418346 194.220261,54.446808 190.689224,53.413429 
	C187.105606,52.364670 183.609283,51.017735 179.958069,49.113705 
	C175.962463,47.133484 171.966858,45.153267 167.433563,42.768421 
	C164.329727,41.433964 161.225906,40.099506 157.714188,38.266766 
	C153.802155,36.423367 149.890106,34.579964 145.744629,32.386265 
	C145.541183,32.175694 145.294296,32.051365 144.997559,32.003586 
M122.072792,154.932587 
	C118.713318,154.990479 115.353836,155.048370 111.069870,154.945099 
	C101.046906,155.000916 91.023941,155.056732 80.269348,154.981186 
	C78.539497,158.658752 76.809654,162.336334 74.720566,166.579117 
	C74.564720,166.992477 74.408875,167.405838 73.947617,168.208954 
	C73.718887,168.809616 73.490166,169.410278 72.986443,170.602219 
	C72.697937,171.403351 72.409424,172.204483 71.765327,173.599564 
	C72.426872,174.923386 72.734482,176.849243 73.804489,177.478271 
	C85.044037,184.085831 96.597771,190.178360 107.645950,197.083221 
	C112.603394,200.181534 116.272865,199.847321 120.611183,196.079483 
	C120.914223,196.003708 121.125671,195.821594 121.926613,195.298843 
	C125.607704,193.143066 129.288803,190.987289 133.542404,188.754745 
	C134.014313,188.421234 134.486221,188.087723 135.602402,187.585907 
	C138.076279,186.067856 140.550171,184.549789 143.669189,182.950974 
	C144.561890,182.359100 145.454575,181.767227 146.991592,181.068192 
	C148.302704,180.282547 149.613831,179.496902 151.605881,178.468048 
	C152.775177,176.978546 155.243164,175.021179 154.902542,174.075623 
	C152.724960,168.031097 151.974396,161.142029 145.881683,156.257309 
	C142.918442,156.209351 139.955185,156.161377 136.201553,155.953110 
	C135.132217,156.007278 134.062866,156.061462 132.296829,155.938919 
	C131.196548,155.657547 130.096252,155.376160 128.147675,154.931473 
	C126.423424,154.984192 124.699173,155.036926 122.072792,154.932587 
M105.540779,92.498985 
	C104.800362,94.368935 104.059944,96.238892 102.988213,98.766304 
	C101.550446,102.458801 100.112679,106.151291 98.166954,110.320557 
	C96.651016,114.770561 95.240768,119.260506 93.579979,123.655777 
	C92.563133,126.346878 93.314301,127.332596 96.989525,127.205421 
	C106.593307,127.215767 116.197525,127.274490 125.800407,127.186333 
	C127.307335,127.172501 128.808136,126.492111 130.890381,126.290367 
	C132.171753,126.671852 133.453140,127.053345 136.077698,127.834717 
	C134.231628,126.361794 132.927505,125.715332 132.999649,125.320259 
	C134.267853,118.376900 129.717117,113.429993 127.141960,107.924454 
	C127.141960,107.924454 127.254791,107.896042 127.215805,107.257828 
	C127.103615,106.851845 126.991432,106.445869 126.804092,105.319847 
	C123.905457,98.281853 120.885368,91.290451 118.159897,84.186028 
	C116.815498,80.681595 115.096359,79.700089 111.319489,82.231712 
	C111.314514,83.011040 111.309540,83.790375 111.668549,84.363930 
	C111.668549,84.363930 111.376312,84.064896 110.679260,84.056084 
	C109.117584,86.706314 107.555901,89.356552 105.540779,92.498985 
z"/>
<path fill="#F50945" opacity="1.000000" stroke="none" 
	d="
M120.179771,196.078369 
	C116.272865,199.847321 112.603394,200.181534 107.645950,197.083221 
	C96.597771,190.178360 85.044037,184.085831 73.804489,177.478271 
	C72.734482,176.849243 72.426872,174.923386 72.328148,173.302948 
	C76.489090,173.337585 80.084091,173.708664 83.686096,173.990295 
	C88.453957,174.363068 93.227295,174.665894 98.149315,175.342590 
	C99.317963,176.784821 100.345032,178.823318 101.351486,178.813187 
	C105.015800,178.776291 106.297897,180.823273 107.097130,183.811234 
	C107.938103,186.955276 108.890816,190.069443 110.026901,194.000000 
	C112.340309,194.000000 115.170303,194.000000 118.000153,194.000000 
	C118.000000,194.000000 118.000008,194.000000 118.132080,194.281708 
	C118.902695,195.068405 119.541237,195.573380 120.179771,196.078369 
z"/>
<path fill="#F631BD" opacity="1.000000" stroke="none" 
	d="
M74.167442,69.032463 
	C72.374809,72.895287 70.582176,76.758102 68.267761,80.756660 
	C67.204262,79.238884 66.662544,77.585373 66.274879,76.402107 
	C64.356216,75.648186 62.497780,74.973770 60.687149,74.189049 
	C59.198299,73.543808 57.808144,72.660828 56.301319,72.068840 
	C51.026745,69.996582 45.779877,67.823914 40.400906,66.060165 
	C37.796253,65.206116 34.588459,62.091984 32.392529,66.848999 
	C32.276386,66.210136 32.100426,65.575661 32.053089,64.931740 
	C31.363600,55.552937 31.367708,55.552635 40.529785,52.003483 
	C39.209820,53.359489 37.537247,54.430309 36.718697,54.954361 
	C40.556950,56.353714 44.974239,57.908848 49.348804,59.576088 
	C53.023979,60.976768 56.664173,62.472782 60.291485,63.994232 
	C62.601334,64.963097 64.808327,66.195267 67.155266,67.052452 
	C69.430244,67.883347 71.825188,68.385773 74.167442,69.032463 
z"/>
<path fill="#F632C7" opacity="1.000000" stroke="none" 
	d="
M74.427872,68.811241 
	C71.825188,68.385773 69.430244,67.883347 67.155266,67.052452 
	C64.808327,66.195267 62.601334,64.963097 60.291485,63.994232 
	C56.664173,62.472782 53.023979,60.976768 49.348804,59.576088 
	C44.974239,57.908848 40.556950,56.353714 36.718697,54.954361 
	C37.537247,54.430309 39.209820,53.359489 40.891899,51.894558 
	C44.324051,49.941921 47.746693,48.383400 51.770874,47.129402 
	C56.977673,47.998550 59.994923,50.949577 62.801743,54.280956 
	C65.499329,57.482693 68.783394,58.647419 73.044464,57.657658 
	C74.969856,57.210430 77.163750,57.919125 79.235825,58.103397 
	C77.719986,61.598942 76.204140,65.094482 74.427872,68.811241 
z"/>
<path fill="#F52DA7" opacity="1.000000" stroke="none" 
	d="
M34.370277,97.900452 
	C33.876167,89.906319 33.382057,81.912178 33.306023,73.525757 
	C34.704472,78.583282 39.244717,79.037613 43.398426,79.972771 
	C45.808441,80.515350 48.303642,80.727036 50.671062,81.401573 
	C55.861958,82.880577 60.995918,84.559380 66.153130,86.156601 
	C65.420204,87.974907 64.687279,89.793205 63.397331,91.950264 
	C62.600170,92.913406 62.360035,93.537804 62.119900,94.162193 
	C62.119900,94.162193 62.083443,94.077965 61.865330,94.165771 
	C61.457161,94.559898 61.267109,94.866211 61.077049,95.172523 
	C61.077049,95.172523 61.103870,95.076126 60.748089,95.025719 
	C53.315052,93.533134 46.237793,92.090965 39.000458,90.616173 
	C39.000458,92.445595 39.000458,94.724930 38.751156,97.006470 
	C38.501854,97.008667 38.003239,97.009529 37.721748,96.739159 
	C37.182312,94.347534 36.924362,92.226273 36.692142,90.316620 
	C35.929806,92.806625 35.150043,95.353539 34.370277,97.900452 
z"/>
<path fill="#F62EB2" opacity="1.000000" stroke="none" 
	d="
M66.144493,86.141403 
	C60.995918,84.559380 55.861958,82.880577 50.671062,81.401573 
	C48.303642,80.727036 45.808441,80.515350 43.398426,79.972771 
	C39.244717,79.037613 34.704472,78.583282 33.360580,73.063843 
	C32.757671,71.202576 32.518288,69.410934 32.335716,67.234146 
	C34.588459,62.091984 37.796253,65.206116 40.400906,66.060165 
	C45.779877,67.823914 51.026745,69.996582 56.301319,72.068840 
	C57.808144,72.660828 59.198299,73.543808 60.687149,74.189049 
	C62.497780,74.973770 64.356216,75.648186 66.274879,76.402107 
	C66.662544,77.585373 67.204262,79.238884 68.084946,81.040192 
	C68.133949,82.017914 67.843987,82.847832 67.020973,84.027466 
	C66.359573,84.958939 66.231232,85.540695 66.102890,86.122452 
	C66.102890,86.122452 66.135857,86.126213 66.144493,86.141403 
z"/>
<path fill="#CB2FF1" opacity="1.000000" stroke="none" 
	d="
M133.981537,27.054523 
	C133.981537,27.054523 134.301712,27.201067 134.637238,27.387373 
	C135.310425,27.682703 135.648102,27.791725 135.985779,27.900749 
	C136.119766,27.999918 136.253769,28.099085 136.867584,28.506348 
	C139.893631,29.876642 142.439850,30.938847 144.986084,32.001049 
	C144.986084,32.001049 144.997559,32.003586 145.090393,32.219002 
	C145.183228,32.434418 145.520706,32.743195 145.520706,32.743195 
	C145.520706,32.743195 145.978073,32.736565 145.978073,32.736565 
	C149.890106,34.579964 153.802155,36.423367 157.698914,38.823875 
	C157.250763,39.611229 156.431107,39.860188 156.441208,40.069008 
	C156.746429,46.379112 147.202148,48.211887 149.416718,55.407612 
	C149.433670,55.462677 148.304703,55.870399 147.710800,56.113457 
	C145.766479,52.726959 143.794281,49.356071 141.885788,45.949497 
	C140.042923,42.660103 138.265762,39.333916 136.004425,36.138237 
	C135.549103,36.252590 135.596741,36.109810 135.596741,36.109810 
	C135.751877,35.652245 135.907013,35.194679 136.005463,34.094055 
	C135.293015,31.318834 134.637283,29.186680 133.981537,27.054523 
z"/>
<path fill="#B828F6" opacity="1.000000" stroke="none" 
	d="
M167.971252,43.173050 
	C171.966858,45.153267 175.962463,47.133484 179.988846,49.848309 
	C178.679550,54.721889 177.339462,58.860867 175.572037,62.999691 
	C171.763535,63.999081 168.382370,64.998619 165.000870,65.557472 
	C164.000336,61.078178 163.000168,57.039574 162.000580,52.620567 
	C163.991196,49.217796 165.981232,46.195423 167.971252,43.173050 
z"/>
<path fill="#D521B8" opacity="1.000000" stroke="none" 
	d="
M112.007278,82.153603 
	C115.096359,79.700089 116.815498,80.681595 118.159897,84.186028 
	C120.885368,91.290451 123.905457,98.281853 126.628830,105.847237 
	C126.720642,106.881767 126.987717,107.388901 127.254791,107.896042 
	C127.254791,107.896042 127.141960,107.924454 127.101120,108.226151 
	C127.218742,109.764290 127.377190,111.000732 127.642845,113.073738 
	C125.044167,111.479965 123.019920,110.238495 120.995705,108.618576 
	C119.115944,105.549332 117.404129,102.718063 115.306419,100.209488 
	C113.423843,97.958176 111.116959,96.061668 108.998299,93.628311 
	C109.338623,91.711464 107.768227,88.553055 111.700241,90.067856 
	C111.592262,88.066872 111.484283,86.065880 111.376312,84.064896 
	C111.376312,84.064896 111.668549,84.363930 111.715759,84.099670 
	C111.844398,83.274811 111.925842,82.714211 112.007278,82.153603 
M115.242744,90.177505 
	C115.411713,90.121361 115.580673,90.065224 115.749634,90.009071 
	C115.579681,89.954445 115.409721,89.899826 115.242744,90.177505 
z"/>
<path fill="#C02BF0" opacity="1.000000" stroke="none" 
	d="
M167.702423,42.970737 
	C165.981232,46.195423 163.991196,49.217796 161.736740,52.829445 
	C158.981628,57.275257 156.490967,61.131790 153.638885,64.994522 
	C152.796036,65.022034 152.314606,65.043358 151.833160,65.064674 
	C151.510544,65.043640 151.259369,64.898743 150.933548,64.162277 
	C150.527847,63.462929 150.268234,63.231293 150.008636,62.999657 
	C150.008636,62.999657 149.831100,62.735405 149.873001,62.143513 
	C149.903717,61.263042 149.892517,60.974461 149.881317,60.685883 
	C149.203262,59.373749 148.525223,58.061611 147.778992,56.431465 
	C148.304703,55.870399 149.433670,55.462677 149.416718,55.407612 
	C147.202148,48.211887 156.746429,46.379112 156.441208,40.069008 
	C156.431107,39.860188 157.250763,39.611229 157.902847,39.073013 
	C161.225906,40.099506 164.329727,41.433964 167.702423,42.970737 
z"/>
<path fill="#F00452" opacity="1.000000" stroke="none" 
	d="
M132.969894,188.831497 
	C129.288803,190.987289 125.607704,193.143066 121.397369,195.076813 
	C119.912079,194.569855 118.956039,194.284927 118.000008,194.000000 
	C118.000008,194.000000 118.000000,194.000000 118.157761,193.638611 
	C119.461739,189.986511 118.541924,187.366760 117.076309,184.108231 
	C114.817337,179.085785 111.668365,175.531189 107.247108,172.617142 
	C106.171440,171.908173 105.732979,170.232437 105.338440,168.850479 
	C108.116692,168.133362 110.558037,167.566986 113.264587,167.210388 
	C115.119591,169.479263 116.362541,172.009872 118.376961,173.491760 
	C121.761871,175.981842 124.282402,178.342789 124.172516,183.096710 
	C124.089508,186.687286 127.864021,188.941818 131.280884,188.012878 
	C132.032227,188.294006 132.501053,188.562759 132.969894,188.831497 
z"/>
<path fill="#AD26F9" opacity="1.000000" stroke="none" 
	d="
M175.999390,62.999847 
	C177.339462,58.860867 178.679550,54.721889 180.047180,50.192154 
	C183.609283,51.017735 187.105606,52.364670 190.689224,53.413429 
	C194.220261,54.446808 195.923141,56.418346 194.600266,60.631527 
	C191.908035,62.632458 189.793259,65.165306 187.355743,65.527771 
	C181.519135,66.395699 179.941895,70.231216 178.749847,74.998482 
	C178.332932,74.998955 178.166153,74.998863 177.999664,74.559814 
	C177.333084,70.413841 176.666245,66.706841 175.999390,62.999847 
M183.564407,56.941044 
	C183.708450,56.860023 183.892761,56.808239 183.980972,56.686703 
	C184.031693,56.616798 183.955307,56.336262 183.887680,56.316509 
	C182.810028,56.001846 181.724548,55.714039 180.640839,55.420097 
	C180.562134,55.757214 180.483444,56.094330 180.404739,56.431442 
	C181.257599,56.616798 182.110474,56.802155 183.564407,56.941044 
z"/>
<path fill="#F333D0" opacity="1.000000" stroke="none" 
	d="
M79.487236,57.867874 
	C77.163750,57.919125 74.969856,57.210430 73.044464,57.657658 
	C68.783394,58.647419 65.499329,57.482693 62.801743,54.280956 
	C59.994923,50.949577 56.977673,47.998550 52.144444,47.133541 
	C54.632744,45.439941 57.349010,44.046726 60.602913,42.912262 
	C65.650749,45.068626 70.160950,46.966244 74.671150,48.863865 
	C74.737404,48.836014 74.803658,48.808163 74.869911,48.780312 
	C76.712875,49.782253 78.555847,50.784195 80.828072,52.019505 
	C80.851654,52.005772 81.674706,51.526451 82.497765,51.047127 
	C81.578056,53.242203 80.658348,55.437279 79.487236,57.867874 
M58.304054,46.953163 
	C57.871258,46.682861 57.438461,46.412556 57.005672,46.142250 
	C56.905254,46.415306 56.804840,46.688362 56.704418,46.961418 
	C57.127094,47.083241 57.549770,47.205063 58.304054,46.953163 
z"/>
<path fill="#991DEF" opacity="1.000000" stroke="none" 
	d="
M181.112518,130.015594 
	C178.399475,124.274208 175.686447,118.532814 173.169342,112.273361 
	C173.939392,110.435280 174.465408,108.946114 176.030365,111.274185 
	C176.122833,111.696838 176.147491,111.894203 176.259247,111.993156 
	C176.365067,112.086853 176.638336,112.163025 176.708405,112.100876 
	C180.396637,108.828629 183.255295,105.050339 184.377869,100.078911 
	C186.167679,105.438240 187.580795,110.721107 188.580994,116.018822 
	C187.445587,117.406128 186.346390,118.711090 186.085678,120.166283 
	C185.655350,122.568192 185.766541,125.067131 185.649490,127.525185 
	C185.284546,127.525261 184.919601,127.525345 184.554642,127.525421 
	C184.230804,126.258690 183.906952,124.991959 183.583099,123.725227 
	C182.575623,124.942451 182.765701,126.103226 182.520706,127.163460 
	C182.288345,128.168945 181.600220,129.069107 181.112518,130.015594 
z"/>
<path fill="#F32990" opacity="1.000000" stroke="none" 
	d="
M38.003242,97.009529 
	C38.003239,97.009529 38.501854,97.008667 38.750557,97.436760 
	C39.585964,99.212036 40.102272,101.687866 40.770405,101.729538 
	C46.614479,102.094048 52.485687,102.023628 58.348839,102.082245 
	C56.170673,106.191872 53.910355,110.261551 51.877178,114.441704 
	C51.419186,115.383316 51.753414,116.710251 51.291885,117.839081 
	C50.000641,115.723488 49.140453,113.628632 47.993431,110.835228 
	C45.703499,111.131371 42.607548,111.531754 39.420704,111.943893 
	C39.103210,111.302399 38.651859,110.390450 38.012592,109.098808 
	C37.097469,111.823814 36.371006,113.987053 35.644543,116.150284 
	C35.409592,112.731613 35.174641,109.312943 35.361153,105.370941 
	C36.522820,102.234924 37.263031,99.622223 38.003242,97.009529 
z"/>
<path fill="#B425EA" opacity="1.000000" stroke="none" 
	d="
M151.971222,65.366165 
	C152.314606,65.043358 152.796036,65.022034 153.999542,65.037979 
	C156.841385,66.471680 158.961166,67.868111 161.394196,69.470909 
	C162.004242,69.222229 163.501511,68.611877 164.999710,68.401726 
	C166.000824,72.201385 167.001022,75.600845 168.000854,79.333382 
	C168.000320,80.110565 168.000168,80.554672 167.999374,81.248795 
	C167.998764,81.665497 167.998764,81.832176 167.678421,82.170464 
	C167.574051,85.561890 167.790024,88.781700 168.004791,92.251823 
	C168.002182,92.669006 168.000778,92.835876 167.667664,92.859329 
	C166.410080,92.522034 165.484222,92.328140 164.275665,91.942535 
	C162.695404,89.795853 161.397842,87.840889 160.072418,85.903641 
	C160.044571,85.921364 160.097336,85.960098 160.066528,85.716995 
	C160.035736,85.473892 159.788498,85.050728 159.752563,84.717819 
	C158.867844,82.812622 158.019089,81.240326 157.170334,79.668022 
	C155.483322,75.001228 153.796310,70.334442 151.971222,65.366165 
z"/>
<path fill="#F234DA" opacity="1.000000" stroke="none" 
	d="
M82.711960,50.810600 
	C81.674706,51.526451 80.851654,52.005772 80.828072,52.019505 
	C78.555847,50.784195 76.712875,49.782253 74.869911,48.780312 
	C74.803658,48.808163 74.737404,48.836014 74.671150,48.863865 
	C70.160950,46.966244 65.650749,45.068626 60.954567,42.810013 
	C62.922707,41.281998 65.076836,40.114983 67.880890,38.794319 
	C69.381569,38.120773 70.232315,37.600880 71.083054,37.080986 
	C71.083054,37.080982 70.998688,37.074310 71.373932,37.051994 
	C72.800018,36.671211 73.850861,36.312748 75.115814,36.107250 
	C76.217712,36.836956 77.105499,37.413692 77.996841,37.995422 
	C78.000397,38.000412 78.010071,38.009937 78.069687,38.354187 
	C79.853111,38.934723 81.576920,39.171013 83.791138,39.474525 
	C84.262016,40.182655 85.225029,41.630871 86.188042,43.079086 
	C85.100746,45.577412 84.013451,48.075741 82.711960,50.810600 
z"/>
<path fill="#F42899" opacity="1.000000" stroke="none" 
	d="
M58.649963,101.918686 
	C52.485687,102.023628 46.614479,102.094048 40.770405,101.729538 
	C40.102272,101.687866 39.585964,99.212036 38.999855,97.434563 
	C39.000458,94.724930 39.000458,92.445595 39.000458,90.616173 
	C46.237793,92.090965 53.315052,93.533134 60.789223,95.054199 
	C60.441120,97.340431 59.696106,99.547783 58.649963,101.918686 
z"/>
<path fill="#A925F8" opacity="1.000000" stroke="none" 
	d="
M179.000000,74.997925 
	C179.941895,70.231216 181.519135,66.395699 187.355743,65.527771 
	C189.793259,65.165306 191.908035,62.632458 194.520416,61.044136 
	C194.623901,65.062592 194.376526,69.123360 193.671692,73.634399 
	C186.384384,76.474030 185.004593,78.150002 186.139816,82.189949 
	C184.048172,83.146965 182.024094,84.073082 179.720978,84.750008 
	C179.294647,81.333191 179.147324,78.165558 179.000000,74.997925 
z"/>
<path fill="#9920F7" opacity="1.000000" stroke="none" 
	d="
M188.993927,116.003967 
	C187.580795,110.721107 186.167679,105.438240 184.238708,99.758087 
	C183.482101,98.240776 183.241364,97.120766 183.369980,95.961243 
	C185.698090,93.987801 187.656845,92.053871 189.618454,90.117142 
	C189.777054,90.603058 190.142563,91.722847 190.265274,92.098770 
	C191.323547,88.689812 192.515091,84.851593 193.706635,81.013374 
	C192.988083,93.237679 192.298141,105.463829 191.507202,117.683449 
	C191.427063,118.921371 190.738144,120.119888 189.779907,121.600227 
	C189.150024,119.910500 189.071976,117.957230 188.993927,116.003967 
z"/>
<path fill="#A223F7" opacity="1.000000" stroke="none" 
	d="
M193.819916,80.587296 
	C192.515091,84.851593 191.323547,88.689812 190.265274,92.098770 
	C190.142563,91.722847 189.777054,90.603058 189.618454,90.117142 
	C187.656845,92.053871 185.698090,93.987801 183.072266,95.817291 
	C180.937439,94.808281 179.469635,93.903694 178.043427,92.623863 
	C178.723328,89.832146 179.361664,87.415665 180.000000,84.999191 
	C182.024094,84.073082 184.048172,83.146965 186.139816,82.189949 
	C185.004593,78.150002 186.384384,76.474030 193.570969,74.045349 
	C193.929550,76.057762 193.931381,78.109489 193.819916,80.587296 
z"/>
<path fill="#D119A6" opacity="1.000000" stroke="none" 
	d="
M120.995674,108.997025 
	C123.019920,110.238495 125.044167,111.479965 127.642845,113.073738 
	C127.377190,111.000732 127.218742,109.764290 127.110527,108.168739 
	C129.717117,113.429993 134.267853,118.376900 132.999649,125.320259 
	C132.927505,125.715332 134.231628,126.361794 136.077698,127.834717 
	C133.453140,127.053345 132.171753,126.671852 130.136124,126.174194 
	C126.921799,126.030495 124.461723,126.002968 122.034943,125.630585 
	C121.377701,122.523407 120.687172,119.761093 119.959389,116.634567 
	C119.281029,114.179314 118.639923,112.088272 118.337021,109.996452 
	C119.448708,109.662788 120.222191,109.329910 120.995674,108.997025 
z"/>
<path fill="#E31A8F" opacity="1.000000" stroke="none" 
	d="
M96.071831,127.054390 
	C93.314301,127.332596 92.563133,126.346878 93.579979,123.655777 
	C95.240768,119.260506 96.651016,114.770561 98.748688,110.139526 
	C99.550835,109.981918 99.771263,110.005341 99.975006,110.316101 
	C102.027817,112.932236 104.081757,115.275063 106.170853,117.586121 
	C108.593285,120.265907 113.140953,121.210869 112.534286,125.984459 
	C108.984329,125.993561 105.894577,125.862976 102.822510,126.039696 
	C100.560318,126.169815 98.321220,126.701599 96.071831,127.054390 
z"/>
<path fill="#DE1EA7" opacity="1.000000" stroke="none" 
	d="
M99.991684,110.028755 
	C99.771263,110.005341 99.550835,109.981918 99.002670,109.901146 
	C100.112679,106.151291 101.550446,102.458801 103.347580,98.650192 
	C103.971451,99.115334 104.160316,100.151764 104.511703,100.210159 
	C110.660149,101.231888 113.985039,106.082916 117.998810,109.997231 
	C118.639923,112.088272 119.281029,114.179314 119.589859,116.630402 
	C116.281525,115.377831 113.463959,113.203705 110.285927,112.306595 
	C106.941368,111.362480 103.933350,108.323593 99.991684,110.028755 
z"/>
<path fill="#F32485" opacity="1.000000" stroke="none" 
	d="
M35.615749,116.594788 
	C36.371006,113.987053 37.097469,111.823814 38.012592,109.098808 
	C38.651859,110.390450 39.103210,111.302399 39.420704,111.943893 
	C42.607548,111.531754 45.703499,111.131371 47.993431,110.835228 
	C49.140453,113.628632 50.000641,115.723488 51.030876,118.074318 
	C50.722408,119.485962 50.243893,120.641624 49.118484,121.891830 
	C45.648037,122.323952 42.824474,122.661522 39.988171,122.758606 
	C39.857800,122.242592 39.740173,121.967064 39.622543,121.691536 
	C39.498829,121.778839 39.375118,121.866142 39.251404,121.953445 
	C39.500637,122.302521 39.749874,122.651588 39.999142,123.350281 
	C40.567017,127.555237 37.764233,125.781311 36.155426,126.001434 
	C35.965939,123.014053 35.776447,120.026672 35.615749,116.594788 
z"/>
<path fill="#F12477" opacity="1.000000" stroke="none" 
	d="
M40.000916,122.999084 
	C42.824474,122.661522 45.648037,122.323952 48.838539,122.039886 
	C45.672215,130.092560 42.138950,138.091736 38.605686,146.090897 
	C38.191139,146.018173 37.776588,145.945435 37.362038,145.872711 
	C36.921154,139.547684 36.480267,133.222672 36.097404,126.449547 
	C37.764233,125.781311 40.567017,127.555237 39.999588,123.349960 
	C40.000000,123.000000 40.000916,122.999084 40.000916,122.999084 
z"/>
<path fill="#8E1EF2" opacity="1.000000" stroke="none" 
	d="
M188.580994,116.018822 
	C189.071976,117.957230 189.150024,119.910500 189.575089,121.932404 
	C190.217438,124.879715 190.845535,127.771057 190.736542,130.634338 
	C190.530884,136.036621 189.900925,141.422760 189.354034,147.924820 
	C186.404678,141.706192 183.799728,136.213730 181.153641,130.368439 
	C181.600220,129.069107 182.288345,128.168945 182.520706,127.163460 
	C182.765701,126.103226 182.575623,124.942451 183.583099,123.725227 
	C183.906952,124.991959 184.230804,126.258690 184.554642,127.525421 
	C184.919601,127.525345 185.284546,127.525261 185.649490,127.525185 
	C185.766541,125.067131 185.655350,122.568192 186.085678,120.166283 
	C186.346390,118.711090 187.445587,117.406128 188.580994,116.018822 
z"/>
<path fill="#F40E4B" opacity="1.000000" stroke="none" 
	d="
M97.998276,174.998779 
	C93.227295,174.665894 88.453957,174.363068 83.686096,173.990295 
	C80.084091,173.708664 76.489090,173.337585 72.505943,173.005981 
	C72.409424,172.204483 72.697937,171.403351 73.429398,170.266022 
	C73.999245,169.226273 74.126144,168.522736 74.253036,167.819199 
	C74.408875,167.405838 74.564720,166.992477 75.179642,166.405884 
	C77.281418,167.011429 78.924118,167.790192 79.376534,168.004684 
	C82.704582,167.644547 85.185646,167.134842 87.659134,167.169312 
	C90.774467,167.212708 93.883606,167.700714 97.215530,168.105942 
	C97.710396,168.415207 97.898727,168.677490 98.000519,169.430115 
	C97.999702,171.571854 97.998985,173.285309 97.998276,174.998779 
z"/>
<path fill="#F21254" opacity="1.000000" stroke="none" 
	d="
M96.995422,167.996918 
	C93.883606,167.700714 90.774467,167.212708 87.659134,167.169312 
	C85.185646,167.134842 82.704582,167.644547 79.376534,168.004684 
	C78.924118,167.790192 77.281418,167.011429 75.359261,166.123291 
	C76.809654,162.336334 78.539497,158.658752 80.636551,155.272690 
	C81.003746,155.564194 81.006104,156.015839 81.020409,156.429352 
	C82.247253,157.560684 83.425140,158.816711 84.678688,158.897385 
	C88.771156,159.160782 92.891220,158.995560 97.000336,158.997589 
	C97.000000,159.000000 97.003052,159.000000 96.730881,159.285583 
	C94.115883,159.867996 91.773056,160.164825 87.727020,160.677444 
	C90.293053,162.698578 91.687851,163.794708 93.079865,164.894363 
	C94.386574,165.926620 95.690346,166.962585 96.995422,167.996918 
z"/>
<path fill="#E2066C" opacity="1.000000" stroke="none" 
	d="
M143.024063,183.031738 
	C140.550171,184.549789 138.076279,186.067856 135.082275,187.360077 
	C134.043396,185.963486 133.401627,184.830658 133.027115,183.615448 
	C131.360138,178.206604 129.937164,172.716110 128.084732,167.373459 
	C127.074867,164.460938 125.383621,161.784653 124.399948,159.000427 
	C126.367081,159.624054 128.763412,159.811386 129.362717,160.947021 
	C132.621826,167.122925 135.437820,173.532700 138.555374,180.179779 
	C138.721771,180.167450 139.853851,180.083649 140.895615,180.267456 
	C141.544876,181.367294 142.284470,182.199524 143.024063,183.031738 
z"/>
<path fill="#D40780" opacity="1.000000" stroke="none" 
	d="
M143.346619,182.991364 
	C142.284470,182.199524 141.544876,181.367294 140.742249,180.015274 
	C140.442581,177.320343 140.623795,174.991272 139.890045,172.999252 
	C137.790070,167.298126 135.318802,161.733765 132.993530,156.115631 
	C134.062866,156.061462 135.132217,156.007278 136.663971,156.375397 
	C141.013138,163.246475 145.339767,169.503098 145.018097,177.591263 
	C144.971359,178.766479 145.880463,179.979706 146.347275,181.175354 
	C145.454575,181.767227 144.561890,182.359100 143.346619,182.991364 
z"/>
<path fill="#E70363" opacity="1.000000" stroke="none" 
	d="
M123.999695,159.001831 
	C125.383621,161.784653 127.074867,164.460938 128.084732,167.373459 
	C129.937164,172.716110 131.360138,178.206604 133.027115,183.615448 
	C133.401627,184.830658 134.043396,185.963486 134.760132,187.444229 
	C134.486221,188.087723 134.014313,188.421234 133.256149,188.793121 
	C132.501053,188.562759 132.032227,188.294006 130.909943,187.939316 
	C128.503738,181.569321 126.750954,175.285263 124.963486,168.646423 
	C123.285965,165.196472 121.643135,162.101288 120.400116,159.004471 
	C121.865982,159.001877 122.932053,159.000931 123.999054,159.000000 
	C124.000000,159.000000 123.999695,159.001831 123.999695,159.001831 
z"/>
<path fill="#A51EE8" opacity="1.000000" stroke="none" 
	d="
M167.999390,93.002747 
	C168.000778,92.835876 168.002182,92.669006 168.281937,92.447479 
	C171.039474,93.595734 173.518661,94.798637 175.998444,96.467499 
	C175.999573,101.624275 176.000092,106.315094 176.000610,111.005913 
	C174.465408,108.946114 173.939392,110.435280 173.119049,111.912933 
	C171.664536,109.723816 170.456223,107.377060 168.975647,104.419220 
	C167.478897,100.208015 166.254425,96.607895 165.303864,93.138489 
	C166.212845,93.938438 166.847885,94.607674 167.788483,95.598900 
	C167.879715,94.475922 167.939560,93.739334 167.999390,93.002747 
z"/>
<path fill="#CE088C" opacity="1.000000" stroke="none" 
	d="
M146.669434,181.121765 
	C145.880463,179.979706 144.971359,178.766479 145.018097,177.591263 
	C145.339767,169.503098 141.013138,163.246475 137.059174,156.455536 
	C139.955185,156.161377 142.918442,156.209351 145.748962,156.701965 
	C145.091049,157.762253 144.565872,158.377869 144.040695,158.993484 
	C147.238113,161.266510 146.441040,164.847229 146.846024,168.046356 
	C146.808014,168.073959 146.909515,168.043976 147.251816,167.856628 
	C147.891815,167.999588 148.557190,168.235138 148.648560,168.610413 
	C149.464920,171.963364 150.180038,175.340942 150.924957,178.711273 
	C149.613831,179.496902 148.302704,180.282547 146.669434,181.121765 
z"/>
<path fill="#EA3BE4" opacity="1.000000" stroke="none" 
	d="
M86.437241,42.858032 
	C85.225029,41.630871 84.262016,40.182655 83.791138,39.474525 
	C81.576920,39.171013 79.853111,38.934723 78.309639,38.338593 
	C78.763908,37.857834 79.037834,37.736912 79.311768,37.615990 
	C79.223389,37.492928 79.064285,37.258102 79.056770,37.262856 
	C78.694038,37.492371 78.344398,37.742558 77.993286,37.990429 
	C77.105499,37.413692 76.217712,36.836956 75.335884,35.862572 
	C76.685036,34.699749 78.028221,33.934578 79.371414,33.169407 
	C79.740623,33.096581 80.109840,33.023754 81.056824,32.732193 
	C85.313553,30.838377 88.992508,29.163290 93.515617,27.103846 
	C92.029518,30.909485 90.910782,33.774384 89.792046,36.639282 
	C88.756844,38.638512 87.721649,40.637741 86.437241,42.858032 
z"/>
<path fill="#DC20B0" opacity="1.000000" stroke="none" 
	d="
M118.337021,109.996452 
	C113.985039,106.082916 110.660149,101.231888 104.511703,100.210159 
	C104.160316,100.151764 103.971451,99.115334 103.513237,98.321472 
	C104.059944,96.238892 104.800362,94.368935 106.031250,92.424355 
	C107.346893,92.902695 108.172073,93.455666 108.997253,94.008644 
	C111.116959,96.061668 113.423843,97.958176 115.306419,100.209488 
	C117.404129,102.718063 119.115944,105.549332 120.995705,108.618576 
	C120.222191,109.329910 119.448708,109.662788 118.337021,109.996452 
z"/>
<path fill="#DB0676" opacity="1.000000" stroke="none" 
	d="
M132.645172,156.027283 
	C135.318802,161.733765 137.790070,167.298126 139.890045,172.999252 
	C140.623795,174.991272 140.442581,177.320343 140.832581,179.747650 
	C139.853851,180.083649 138.721771,180.167450 138.555374,180.179779 
	C135.437820,173.532700 132.621826,167.122925 129.362717,160.947021 
	C128.763412,159.811386 126.367081,159.624054 124.399948,159.000427 
	C123.999695,159.001831 124.000000,159.000000 124.243553,158.725800 
	C126.133385,157.525162 129.454117,158.847855 128.995972,155.094772 
	C130.096252,155.376160 131.196548,155.657547 132.645172,156.027283 
z"/>
<path fill="#C30D97" opacity="1.000000" stroke="none" 
	d="
M146.985519,167.988770 
	C146.441040,164.847229 147.238113,161.266510 144.040695,158.993484 
	C144.565872,158.377869 145.091049,157.762253 145.905746,157.028351 
	C151.974396,161.142029 152.724960,168.031097 154.902542,174.075623 
	C155.243164,175.021179 152.775177,176.978546 151.265411,178.589661 
	C150.180038,175.340942 149.464920,171.963364 148.648560,168.610413 
	C148.557190,168.235138 147.891815,167.999588 147.246216,167.849609 
	C146.999802,168.000000 146.985519,167.988770 146.985519,167.988770 
z"/>
<path fill="#EA0761" opacity="1.000000" stroke="none" 
	d="
M120.000305,159.006119 
	C121.643135,162.101288 123.285965,165.196472 124.607803,168.610260 
	C120.838837,166.419434 117.410095,163.882889 113.932693,161.414917 
	C112.681213,160.526703 111.312675,159.803421 109.534637,159.003738 
	C105.048828,159.001740 101.025940,159.000870 97.003052,159.000000 
	C97.003052,159.000000 97.000000,159.000000 97.294403,158.702713 
	C101.671288,158.268967 105.761475,158.230270 109.829399,157.909286 
	C110.594887,157.848892 111.271553,156.662781 111.991074,155.773666 
	C111.992928,155.551208 111.994362,155.106277 111.994362,155.106262 
	C115.353836,155.048370 118.713318,154.990479 122.307076,155.285370 
	C120.455772,156.714554 118.370178,157.790955 116.015747,159.006119 
	C117.446724,159.006119 118.723518,159.006119 120.000305,159.006119 
z"/>
<path fill="#F8F1F9" opacity="1.000000" stroke="none" 
	d="
M90.024887,36.966522 
	C90.910782,33.774384 92.029518,30.909485 93.515617,27.103846 
	C88.992508,29.163290 85.313553,30.838377 81.304008,32.593575 
	C80.989876,32.177498 80.887543,31.640366 81.042160,31.191801 
	C82.017441,28.362389 92.735870,24.233698 95.253578,25.687910 
	C95.539444,25.853027 96.023483,26.010010 96.056381,26.225584 
	C96.342789,28.102560 96.547188,29.992050 96.775955,31.877821 
	C93.017784,31.775026 95.932220,39.702885 90.024887,36.966522 
z"/>
<path fill="#F8F1F9" opacity="1.000000" stroke="none" 
	d="
M165.029938,93.007774 
	C166.254425,96.607895 167.478897,100.208015 168.764587,104.171890 
	C161.341644,105.613441 159.589264,103.143608 161.466461,94.857445 
	C161.852890,93.151688 160.920059,91.147057 160.300766,88.889435 
	C160.006241,88.498680 160.005310,88.005379 160.168945,87.916382 
	C160.394623,87.721298 160.533890,87.555771 160.505707,87.519142 
	C160.363144,87.333916 160.177017,87.182220 160.020248,86.734772 
	C160.056305,86.262489 160.078278,86.074211 160.100266,85.885925 
	C161.397842,87.840889 162.695404,89.795853 164.375214,92.170998 
	C164.757477,92.591179 165.029938,93.007774 165.029938,93.007774 
z"/>
<path fill="#F9F8F7" opacity="1.000000" stroke="none" 
	d="
M160.072418,85.903641 
	C160.078278,86.074211 160.056305,86.262489 160.018204,86.981300 
	C160.002090,87.511826 160.005310,88.005379 160.005310,88.005379 
	C160.005310,88.005379 160.006241,88.498680 160.007080,88.745232 
	C159.029419,88.994896 158.018280,89.156273 157.080231,88.963013 
	C155.763550,88.691757 154.501160,88.156876 153.215561,87.734756 
	C153.751617,86.175957 154.171249,84.562836 154.864456,83.077370 
	C155.330032,82.079636 156.182999,81.262672 157.016495,80.016426 
	C158.019089,81.240326 158.867844,82.812622 159.621826,84.837082 
	C159.717133,85.512863 159.907227,85.736481 160.097336,85.960098 
	C160.097336,85.960098 160.044571,85.921364 160.072418,85.903641 
z"/>
<path fill="#E0017B" opacity="1.000000" stroke="none" 
	d="
M96.530678,127.129906 
	C98.321220,126.701599 100.560318,126.169815 102.822510,126.039696 
	C105.894577,125.862976 108.984329,125.993561 112.984024,125.992500 
	C116.601593,125.986923 119.301620,125.981186 122.001656,125.975441 
	C124.461723,126.002968 126.921799,126.030495 129.846817,126.088974 
	C128.808136,126.492111 127.307335,127.172501 125.800407,127.186333 
	C116.197525,127.274490 106.593307,127.215767 96.530678,127.129906 
z"/>
<path fill="#F9F2F7" opacity="1.000000" stroke="none" 
	d="
M134.141724,26.794258 
	C134.637283,29.186680 135.293015,31.318834 135.891113,33.731018 
	C133.568924,33.960110 131.100815,34.494213 131.753586,30.550646 
	C131.954742,29.335449 130.242996,27.803612 129.231476,26.125322 
	C130.922195,24.752663 132.618622,23.834627 134.141724,26.794258 
z"/>
<path fill="#EC0452" opacity="1.000000" stroke="none" 
	d="
M111.532120,155.025696 
	C111.994362,155.106277 111.992928,155.551208 111.523621,155.774475 
	C101.038246,156.003769 91.022179,156.009796 81.006104,156.015839 
	C81.006104,156.015839 81.003746,155.564194 81.002365,155.338364 
	C91.023941,155.056732 101.046906,155.000916 111.532120,155.025696 
z"/>
<path fill="#E2066C" opacity="1.000000" stroke="none" 
	d="
M120.400116,159.004471 
	C118.723518,159.006119 117.446724,159.006119 116.015747,159.006119 
	C118.370178,157.790955 120.455772,156.714554 122.758141,155.363892 
	C124.699173,155.036926 126.423424,154.984192 128.571823,155.013123 
	C129.454117,158.847855 126.133385,157.525162 124.242615,158.725784 
	C122.932053,159.000931 121.865982,159.001877 120.400116,159.004471 
z"/>
<path fill="#F42899" opacity="1.000000" stroke="none" 
	d="
M37.721748,96.739159 
	C37.263031,99.622223 36.522820,102.234924 35.419304,104.924820 
	C34.780060,102.897003 34.504116,100.792000 34.299225,98.293716 
	C35.150043,95.353539 35.929806,92.806625 36.692142,90.316620 
	C36.924362,92.226273 37.182312,94.347534 37.721748,96.739159 
z"/>
<path fill="#E124C1" opacity="1.000000" stroke="none" 
	d="
M108.998299,93.628311 
	C108.172073,93.455666 107.346893,92.902695 106.257965,92.178253 
	C107.555901,89.356552 109.117584,86.706314 111.027786,84.060486 
	C111.484283,86.065880 111.592262,88.066872 111.700241,90.067856 
	C107.768227,88.553055 109.338623,91.711464 108.998299,93.628311 
z"/>
<path fill="#F9F2F7" opacity="1.000000" stroke="none" 
	d="
M144.950378,31.690285 
	C142.439850,30.938847 139.893631,29.876642 137.105316,28.583891 
	C139.262848,27.579178 141.662460,26.805014 143.472595,26.221027 
	C144.113602,28.513975 144.514130,29.946747 144.950378,31.690285 
z"/>
<path fill="#F9F2F7" opacity="1.000000" stroke="none" 
	d="
M78.927078,33.120529 
	C78.028221,33.934578 76.685036,34.699749 75.121780,35.709602 
	C73.850861,36.312748 72.800018,36.671211 71.415512,37.066132 
	C70.230522,34.990097 70.867920,33.702454 73.187881,33.460651 
	C74.947235,33.277279 76.717384,33.197517 78.927078,33.120529 
z"/>
<path fill="#F9F2F7" opacity="1.000000" stroke="none" 
	d="
M135.236298,36.186401 
	C135.596741,36.109810 135.549103,36.252590 135.576172,36.249580 
	C135.277100,37.735100 134.950989,39.223625 134.624863,40.712151 
	C134.133316,40.554661 133.641769,40.397171 133.150223,40.239677 
	C133.725433,38.914116 134.300659,37.588551 135.236298,36.186401 
z"/>
<path fill="#F9F2F7" opacity="1.000000" stroke="none" 
	d="
M70.757721,37.028748 
	C70.232315,37.600880 69.381569,38.120773 68.227386,38.688580 
	C67.819969,37.988544 67.715981,37.240604 67.611992,36.492661 
	C68.552124,36.653942 69.492256,36.815224 70.757721,37.028748 
z"/>
<path fill="#F4044A" opacity="1.000000" stroke="none" 
	d="
M118.132080,194.281708 
	C118.956039,194.284927 119.912079,194.569855 121.056816,195.193939 
	C121.125671,195.821594 120.914223,196.003708 120.395477,196.078918 
	C119.541237,195.573380 118.902695,195.068405 118.132080,194.281708 
z"/>
<path fill="#F21254" opacity="1.000000" stroke="none" 
	d="
M74.100327,168.014069 
	C74.126144,168.522736 73.999245,169.226273 73.566895,169.970367 
	C73.490166,169.410278 73.718887,168.809616 74.100327,168.014069 
z"/>
<path fill="#F52DA7" opacity="1.000000" stroke="none" 
	d="
M66.346512,85.942856 
	C66.231232,85.540695 66.359573,84.958939 66.731354,84.193748 
	C66.846558,84.594620 66.718346,85.178940 66.346512,85.942856 
z"/>
<path fill="#F234DA" opacity="1.000000" stroke="none" 
	d="
M111.663391,82.192657 
	C111.925842,82.714211 111.844398,83.274811 111.533768,84.202560 
	C111.309540,83.790375 111.314514,83.011040 111.663391,82.192657 
z"/>
<path fill="#D119A6" opacity="1.000000" stroke="none" 
	d="
M127.235298,107.576935 
	C126.987717,107.388901 126.720642,106.881767 126.666412,106.207260 
	C126.991432,106.445869 127.103615,106.851845 127.235298,107.576935 
z"/>
<path fill="#F42899" opacity="1.000000" stroke="none" 
	d="
M62.407814,94.007767 
	C62.360035,93.537804 62.600170,92.913406 63.182938,92.189110 
	C63.248959,92.677246 62.972347,93.265289 62.407814,94.007767 
z"/>
<path fill="#F9F2F7" opacity="1.000000" stroke="none" 
	d="
M135.825897,27.680292 
	C135.648102,27.791725 135.310425,27.682703 134.809921,27.353104 
	C134.986740,27.241632 135.326370,27.350733 135.825897,27.680292 
z"/>
<path fill="#F9F2F7" opacity="1.000000" stroke="none" 
	d="
M145.861359,32.561417 
	C145.978073,32.736565 145.520706,32.743195 145.520706,32.743195 
	C145.520706,32.743195 145.183228,32.434418 145.093597,32.223846 
	C145.294296,32.051365 145.541183,32.175694 145.861359,32.561417 
z"/>
<path fill="#BB26F0" opacity="1.000000" stroke="none" 
	d="
M149.627838,60.838123 
	C149.892517,60.974461 149.903717,61.263042 149.890594,61.985306 
	C149.702286,61.942787 149.538315,61.466576 149.627838,60.838123 
z"/>
<path fill="#BB26F0" opacity="1.000000" stroke="none" 
	d="
M150.037659,63.276382 
	C150.268234,63.231293 150.527847,63.462929 150.861084,63.950329 
	C150.645386,63.988434 150.356033,63.770775 150.037659,63.276382 
z"/>
<path fill="#F42899" opacity="1.000000" stroke="none" 
	d="
M61.342148,95.086319 
	C61.267109,94.866211 61.457161,94.559898 61.911201,94.164627 
	C61.985870,94.383812 61.796555,94.691963 61.342148,95.086319 
z"/>
<path fill="#F4044A" opacity="1.000000" stroke="none" 
	d="
M98.149307,175.342590 
	C97.998985,173.285309 97.999702,171.571854 98.367943,169.389725 
	C100.824150,168.947784 102.912842,168.974503 105.001526,169.001221 
	C105.732979,170.232437 106.171440,171.908173 107.247108,172.617142 
	C111.668365,175.531189 114.817337,179.085785 117.076309,184.108231 
	C118.541924,187.366760 119.461739,189.986511 118.157913,193.638611 
	C115.170303,194.000000 112.340309,194.000000 110.026901,194.000000 
	C108.890816,190.069443 107.938103,186.955276 107.097130,183.811234 
	C106.297897,180.823273 105.015800,178.776291 101.351486,178.813187 
	C100.345032,178.823318 99.317963,176.784821 98.149307,175.342590 
z"/>
<path fill="#B125F3" opacity="1.000000" stroke="none" 
	d="
M168.001221,79.000305 
	C167.001022,75.600845 166.000824,72.201385 165.000122,68.067825 
	C165.000153,66.888542 165.000687,66.443352 165.001221,65.998169 
	C168.382370,64.998619 171.763535,63.999081 175.572052,62.999695 
	C176.666245,66.706841 177.333084,70.413841 177.675842,74.723801 
	C174.234894,76.551277 171.118057,77.775795 168.001221,79.000305 
z"/>
<path fill="#BB26F0" opacity="1.000000" stroke="none" 
	d="
M165.000854,65.557480 
	C165.000687,66.443352 165.000153,66.888542 164.999207,67.667625 
	C163.501511,68.611877 162.004242,69.222229 161.394196,69.470909 
	C158.961166,67.868111 156.841385,66.471680 154.360962,65.031784 
	C156.490967,61.131790 158.981628,57.275257 161.736145,53.209846 
	C163.000168,57.039574 164.000336,61.078178 165.000854,65.557480 
z"/>
<path fill="#E124C1" opacity="1.000000" stroke="none" 
	d="
M115.241257,90.011353 
	C115.409721,89.899826 115.579681,89.954445 115.749634,90.009079 
	C115.580673,90.065224 115.411713,90.121361 115.241257,90.011353 
z"/>
<path fill="#ED045B" opacity="1.000000" stroke="none" 
	d="
M109.997559,159.004883 
	C111.312675,159.803421 112.681213,160.526703 113.932693,161.414917 
	C117.410095,163.882889 120.838837,166.419434 124.642487,168.965057 
	C126.750954,175.285263 128.503738,181.569321 130.627441,187.926926 
	C127.864021,188.941818 124.089508,186.687286 124.172516,183.096710 
	C124.282402,178.342789 121.761871,175.981842 118.376961,173.491760 
	C116.362541,172.009872 115.119591,169.479263 113.106155,166.892456 
	C111.787529,163.911469 110.892548,161.458176 109.997559,159.004883 
z"/>
<path fill="#F30955" opacity="1.000000" stroke="none" 
	d="
M109.534637,159.003738 
	C110.892548,161.458176 111.787529,163.911469 112.840942,166.682678 
	C110.558037,167.566986 108.116692,168.133362 105.338440,168.850479 
	C102.912842,168.974503 100.824150,168.947784 98.368042,168.961456 
	C97.898727,168.677490 97.710396,168.415207 97.215523,168.105957 
	C95.690346,166.962585 94.386574,165.926620 93.079865,164.894363 
	C91.687851,163.794708 90.293053,162.698578 87.727020,160.677444 
	C91.773056,160.164825 94.115883,159.867996 96.730881,159.285583 
	C101.025940,159.000870 105.048828,159.001740 109.534637,159.003738 
z"/>
<path fill="#AA21F0" opacity="1.000000" stroke="none" 
	d="
M168.000854,79.333382 
	C171.118057,77.775795 174.234894,76.551277 177.675568,75.162773 
	C178.166153,74.998863 178.332932,74.998955 178.749847,74.998482 
	C179.147324,78.165558 179.294647,81.333191 179.720978,84.750000 
	C179.361664,87.415665 178.723328,89.832146 177.922318,92.907455 
	C177.172379,94.378044 176.585114,95.189796 175.997849,96.001541 
	C173.518661,94.798637 171.039474,93.595734 168.283142,92.197174 
	C167.790024,88.781700 167.574051,85.561890 167.846436,82.082420 
	C168.223190,81.548103 168.111588,81.273445 168.000000,80.998779 
	C168.000168,80.554672 168.000320,80.110565 168.000854,79.333382 
z"/>
<path fill="#B828F6" opacity="1.000000" stroke="none" 
	d="
M183.263870,56.964279 
	C182.110474,56.802155 181.257599,56.616798 180.404739,56.431442 
	C180.483444,56.094330 180.562134,55.757214 180.640839,55.420097 
	C181.724548,55.714039 182.810028,56.001846 183.887680,56.316509 
	C183.955307,56.336262 184.031693,56.616798 183.980972,56.686703 
	C183.892761,56.808239 183.708450,56.860023 183.263870,56.964279 
z"/>
<path fill="#F632C7" opacity="1.000000" stroke="none" 
	d="
M58.138252,47.140022 
	C57.549770,47.205063 57.127094,47.083241 56.704422,46.961418 
	C56.804840,46.688362 56.905254,46.415306 57.005669,46.142250 
	C57.438461,46.412556 57.871258,46.682861 58.138252,47.140022 
z"/>
<path fill="#9E1FF0" opacity="1.000000" stroke="none" 
	d="
M175.998444,96.467499 
	C176.585114,95.189796 177.172379,94.378044 177.880737,93.282700 
	C179.469635,93.903694 180.937439,94.808281 182.702942,95.856812 
	C183.241364,97.120766 183.482101,98.240776 183.862000,99.681610 
	C183.255295,105.050339 180.396637,108.828629 176.708405,112.100876 
	C176.638336,112.163025 176.365067,112.086853 176.259247,111.993156 
	C176.147491,111.894203 176.122833,111.696838 176.030365,111.274185 
	C176.000092,106.315094 175.999573,101.624275 175.998444,96.467499 
z"/>
<path fill="#AA21F0" opacity="1.000000" stroke="none" 
	d="
M165.303864,93.138489 
	C165.029938,93.007774 164.757477,92.591179 164.657913,92.362717 
	C165.484222,92.328140 166.410080,92.522034 167.667664,92.859329 
	C167.939560,93.739334 167.879715,94.475922 167.788483,95.598900 
	C166.847885,94.607674 166.212845,93.938438 165.303864,93.138489 
z"/>
<path fill="#B125F3" opacity="1.000000" stroke="none" 
	d="
M167.999374,81.248795 
	C168.111588,81.273445 168.223190,81.548103 168.166779,81.910805 
	C167.998764,81.832176 167.998764,81.665497 167.999374,81.248795 
z"/>
<path fill="#FFFEFE" opacity="1.000000" stroke="none" 
	d="
M160.066528,85.716995 
	C159.907227,85.736481 159.717133,85.512863 159.657776,85.169983 
	C159.788498,85.050728 160.035736,85.473892 160.066528,85.716995 
z"/>
<path fill="#DE199B" opacity="1.000000" stroke="none" 
	d="
M122.034943,125.630585 
	C119.301620,125.981186 116.601593,125.986923 113.451813,125.984627 
	C113.140953,121.210869 108.593285,120.265907 106.170853,117.586121 
	C104.081757,115.275063 102.027817,112.932236 99.975006,110.316101 
	C103.933350,108.323593 106.941368,111.362480 110.285927,112.306595 
	C113.463959,113.203705 116.281525,115.377831 119.627113,116.994614 
	C120.687172,119.761093 121.377701,122.523407 122.034943,125.630585 
z"/>
<path fill="#F12477" opacity="1.000000" stroke="none" 
	d="
M39.999557,123.000328 
	C39.749874,122.651588 39.500637,122.302521 39.251404,121.953445 
	C39.375118,121.866142 39.498829,121.778839 39.622543,121.691536 
	C39.740173,121.967064 39.857800,122.242592 39.988171,122.758606 
	C40.000916,122.999084 40.000000,123.000000 39.999557,123.000328 
z"/>
<path fill="#F70E5C" opacity="1.000000" stroke="none" 
	d="
M81.020409,156.429352 
	C91.022179,156.009796 101.038246,156.003769 111.521767,155.996933 
	C111.271553,156.662781 110.594887,157.848892 109.829399,157.909286 
	C105.761475,158.230270 101.671288,158.268967 97.294739,158.700317 
	C92.891220,158.995560 88.771156,159.160782 84.678688,158.897385 
	C83.425140,158.816711 82.247253,157.560684 81.020409,156.429352 
z"/>
<path fill="#C30D97" opacity="1.000000" stroke="none" 
	d="
M147.005402,168.007004 
	C146.909515,168.043976 146.808014,168.073959 146.846024,168.046356 
	C146.985519,167.988770 146.999802,168.000000 147.005402,168.007004 
z"/>
<path fill="#F234DA" opacity="1.000000" stroke="none" 
	d="
M77.996841,37.995422 
	C78.344398,37.742558 78.694038,37.492371 79.056770,37.262856 
	C79.064285,37.258102 79.223389,37.492928 79.311768,37.615990 
	C79.037834,37.736912 78.763908,37.857834 78.250023,37.994347 
	C78.010071,38.009937 78.000397,38.000412 77.996841,37.995422 
z"/>
<path fill="#FFFEFE" opacity="1.000000" stroke="none" 
	d="
M160.168945,87.916382 
	C160.005310,88.005379 160.002090,87.511826 160.004135,87.265297 
	C160.177017,87.182220 160.363144,87.333916 160.505707,87.519142 
	C160.533890,87.555771 160.394623,87.721298 160.168945,87.916382 
z"/>
</svg>