<svg version="1.1" id="Layer_1" xmlns="http://www.w3.org/2000/svg" xmlns:xlink="http://www.w3.org/1999/xlink" x="0px" y="0px"
	 width="100%" viewBox="0 0 213 236" enable-background="new 0 0 213 236" xml:space="preserve">
<path fill="#659AD2" opacity="1.000000" stroke="none" 
	d="
M104.000000,1.000001 
	C106.041664,1.000000 108.083336,1.000000 110.721313,1.313397 
	C112.229309,2.012118 113.187386,2.314490 114.045959,2.794754 
	C144.875092,20.039806 175.702026,37.288849 206.492371,54.602955 
	C207.846237,55.364262 208.853607,56.741714 209.930725,58.173164 
	C203.699570,62.172924 197.623627,65.944305 191.401169,69.456085 
	C186.072525,72.463432 180.576019,75.173393 174.824188,77.900436 
	C156.238068,50.844120 131.226944,37.820137 98.423309,40.941792 
	C61.098011,44.493744 30.168512,77.810966 28.978588,115.341431 
	C28.513273,130.017502 32.159451,143.614655 37.969959,156.999405 
	C25.952461,163.825729 14.198313,170.400696 2.248177,176.816925 
	C1.701459,176.105453 1.350730,175.552734 1.000000,175.000000 
	C1.000000,137.645767 1.000000,100.291542 1.301448,62.311333 
	C3.847538,59.336761 5.691989,56.283184 8.397889,54.747150 
	C40.190487,36.699715 72.112274,18.879860 104.000000,1.000001 
z"/>
<path fill="#00599C" opacity="1.000000" stroke="none" 
	d="
M175.153763,78.014877 
	C180.576019,75.173393 186.072525,72.463432 191.401169,69.456085 
	C197.623627,65.944305 203.699570,62.172924 210.243530,58.307861 
	C211.765320,59.734367 212.882660,61.367184 214.000000,63.000000 
	C214.000000,100.020897 214.000000,137.041794 213.740921,174.631836 
	C213.151672,175.847031 212.821518,176.493103 212.102875,177.080688 
	C209.161987,175.816727 206.553665,174.715851 204.067047,173.387192 
	C194.537659,168.295319 185.047333,163.130280 175.320160,157.699005 
	C163.746796,151.294479 152.395706,145.183472 140.814331,138.818939 
	C128.987289,131.981445 117.390533,125.397491 106.025726,118.561241 
	C118.154335,111.549484 130.051010,104.790016 142.256104,97.867271 
	C152.188736,92.149300 161.828094,86.620491 171.420059,81.010666 
	C172.782608,80.213791 173.914902,79.023232 175.153763,78.014877 
z"/>
<path fill="#024482" opacity="1.000000" stroke="none" 
	d="
M175.542435,157.992554 
	C185.047333,163.130280 194.537659,168.295319 204.067047,173.387192 
	C206.553665,174.715851 209.161987,175.816727 211.972076,177.413574 
	C210.302032,179.553406 208.564178,181.597061 206.405106,182.985825 
	C202.513931,185.488647 198.376923,187.610794 194.331497,189.872070 
	C166.222595,205.584244 138.110825,221.291290 110.000000,237.000000 
	C108.285645,237.000000 106.571281,237.000000 104.287521,236.680481 
	C71.608536,218.349854 39.479027,200.373993 7.436842,182.243790 
	C5.423563,181.104645 4.092574,178.759674 2.444165,176.975677 
	C14.198313,170.400696 25.952461,163.825729 38.253815,157.189209 
	C39.844593,158.820236 40.853046,160.535690 41.936829,162.202133 
	C73.721283,211.074142 146.919800,208.765381 175.542435,157.992554 
z"/>
<path fill="#FEFEFE" opacity="1.000000" stroke="none" 
	d="
M110.468658,237.000000 
	C138.110825,221.291290 166.222595,205.584244 194.331497,189.872070 
	C198.376923,187.610794 202.513931,185.488647 206.405106,182.985825 
	C208.564178,181.597061 210.302032,179.553406 212.360535,177.472046 
	C212.821518,176.493103 213.151672,175.847031 213.740921,175.100494 
	C214.000000,195.612061 214.000000,216.224106 214.000000,237.000000 
	C179.645950,237.000000 145.291626,237.000000 110.468658,237.000000 
z"/>
<path fill="#FEFEFE" opacity="1.000000" stroke="none" 
	d="
M2.248177,176.816925 
	C4.092574,178.759674 5.423563,181.104645 7.436842,182.243790 
	C39.479027,200.373993 71.608536,218.349854 103.859055,236.680481 
	C69.757935,237.000000 35.515873,237.000000 1.000000,237.000000 
	C1.000000,216.646591 1.000000,196.291946 1.000000,175.468658 
	C1.350730,175.552734 1.701459,176.105453 2.248177,176.816925 
z"/>
<path fill="#FEFFFF" opacity="1.000000" stroke="none" 
	d="
M214.000000,62.531342 
	C212.882660,61.367184 211.765320,59.734367 210.335175,57.966858 
	C208.853607,56.741714 207.846237,55.364262 206.492371,54.602955 
	C175.702026,37.288849 144.875092,20.039806 114.045959,2.794754 
	C113.187386,2.314490 112.229309,2.012118 111.158813,1.313397 
	C145.242065,1.000000 179.484131,1.000000 214.000000,1.000000 
	C214.000000,21.353409 214.000000,41.708046 214.000000,62.531342 
z"/>
<path fill="#FEFFFF" opacity="1.000000" stroke="none" 
	d="
M103.531342,1.000001 
	C72.112274,18.879860 40.190487,36.699715 8.397889,54.747150 
	C5.691989,56.283184 3.847538,59.336761 1.301448,61.842674 
	C1.000000,41.721050 1.000000,21.442097 1.000000,1.000000 
	C35.020721,1.000000 69.041702,1.000000 103.531342,1.000001 
z"/>
<path fill="#FEFEFE" opacity="1.000000" stroke="none" 
	d="
M175.320160,157.699005 
	C146.919800,208.765381 73.721283,211.074142 41.936829,162.202133 
	C40.853046,160.535690 39.844593,158.820236 38.517166,156.937836 
	C32.159451,143.614655 28.513273,130.017502 28.978588,115.341431 
	C30.168512,77.810966 61.098011,44.493744 98.423309,40.941792 
	C131.226944,37.820137 156.238068,50.844120 174.824188,77.900436 
	C173.914902,79.023232 172.782608,80.213791 171.420059,81.010666 
	C161.828094,86.620491 152.188736,92.149300 141.931854,97.776886 
	C140.507492,97.039932 139.636597,96.292961 138.936096,95.410683 
	C129.615463,83.671204 117.494308,78.620041 102.591187,79.965584 
	C76.014450,82.365089 59.638550,113.916122 73.046036,137.346237 
	C89.384644,164.556549 124.512939,165.268600 141.044617,139.072464 
	C152.395706,145.183472 163.746796,151.294479 175.320160,157.699005 
z"/>
<path fill="#659AD2" opacity="1.000000" stroke="none" 
	d="
M73.028481,136.997971 
	C59.638550,113.916122 76.014450,82.365089 102.591187,79.965584 
	C117.494308,78.620041 129.615463,83.671204 138.936096,95.410683 
	C139.636597,96.292961 140.507492,97.039932 141.623444,97.940170 
	C130.051010,104.790016 118.154335,111.549484 105.690338,118.652702 
	C94.424843,124.996956 83.726662,130.997467 73.028481,136.997971 
z"/>
<path fill="#014482" opacity="1.000000" stroke="none" 
	d="
M73.046036,137.346237 
	C83.726662,130.997467 94.424843,124.996956 105.458405,118.904991 
	C117.390533,125.397491 128.987289,131.981445 140.814331,138.818939 
	C124.512939,165.268600 89.384644,164.556549 73.046036,137.346237 
z"/>
</svg>