<svg version="1.1" id="Layer_1" xmlns="http://www.w3.org/2000/svg" xmlns:xlink="http://www.w3.org/1999/xlink" x="0px" y="0px"
	 width="100%" viewBox="0 0 225 225" enable-background="new 0 0 225 225" xml:space="preserve">
<path fill="#FEFEFE" opacity="1.000000" stroke="none" 
	d="
M133.000000,226.000000 
	C88.666672,226.000000 44.833340,226.000000 1.000006,226.000000 
	C1.000004,151.000000 1.000004,76.000015 1.000002,1.000016 
	C75.999992,1.000011 150.999985,1.000011 225.999969,1.000005 
	C225.999985,75.999985 225.999985,150.999969 226.000000,225.999969 
	C195.166672,226.000000 164.333328,226.000000 133.000000,226.000000 
M18.927444,62.951790 
	C18.890989,96.461861 18.851852,129.971924 18.833948,163.482010 
	C18.833513,164.298508 19.069220,165.115158 19.217293,166.636093 
	C20.998695,168.705688 22.391930,171.437225 24.620586,172.744110 
	C51.701061,188.623917 78.920746,204.266113 106.061272,220.043976 
	C111.021164,222.927368 115.730965,222.848175 120.628975,219.994202 
	C147.611603,204.272018 174.674957,188.686752 201.535568,172.759338 
	C204.218338,171.168564 205.723099,167.591141 208.012405,164.033356 
	C208.045670,130.868301 208.082367,97.703247 208.097794,64.538185 
	C208.098328,63.384476 207.886520,62.230667 207.853195,60.352337 
	C205.944031,58.229717 204.415634,55.454659 202.067474,54.084225 
	C175.111725,38.352352 148.011444,22.868395 121.002350,7.227408 
	C116.021408,4.342938 111.192162,4.328129 106.345016,7.138750 
	C79.196724,22.880693 52.026009,38.585781 25.026630,54.579762 
	C22.486431,56.084538 21.083876,59.509766 18.927444,62.951790 
z"/>
<path fill="#69227A" opacity="1.000000" stroke="none" 
	d="
M207.774597,164.935745 
	C205.723099,167.591141 204.218338,171.168564 201.535568,172.759338 
	C174.674957,188.686752 147.611603,204.272018 120.628975,219.994202 
	C115.730965,222.848175 111.021164,222.927368 106.061272,220.043976 
	C78.920746,204.266113 51.701061,188.623917 24.620586,172.744110 
	C22.391930,171.437225 20.998695,168.705688 19.465353,165.968155 
	C19.808519,164.648880 19.986551,163.997574 19.986835,163.346207 
	C20.001049,130.825607 20.009447,98.304977 19.964928,65.784431 
	C19.963221,64.537041 19.435658,63.290367 19.153131,62.043358 
	C21.083876,59.509766 22.486431,56.084538 25.026630,54.579762 
	C52.026009,38.585781 79.196724,22.880693 106.345016,7.138750 
	C111.192162,4.328129 116.021408,4.342938 121.002350,7.227408 
	C148.011444,22.868395 175.111725,38.352352 202.067474,54.084225 
	C204.415634,55.454659 205.944031,58.229717 207.561829,61.034988 
	C207.180557,62.372833 207.012268,63.028000 207.012009,63.683235 
	C206.998703,96.169998 206.991135,128.656784 207.032135,161.143494 
	C207.033722,162.407898 207.516190,163.671677 207.774597,164.935745 
M130.372589,153.039688 
	C109.283409,161.494827 86.435326,153.565964 75.755402,134.086151 
	C65.222336,114.874191 71.052574,91.033417 88.895844,78.076889 
	C98.426170,71.156631 109.263077,70.394165 119.958809,71.247124 
	C133.719955,72.344536 143.726227,80.671921 151.107025,92.350441 
	C158.833878,87.872665 166.224426,83.589775 173.588486,79.322243 
	C159.099594,52.216660 126.035362,38.358273 95.834229,46.272083 
	C64.924843,54.371483 43.500023,82.820435 44.016388,115.078400 
	C44.562241,149.178696 67.179016,174.488770 106.934837,183.424744 
	C119.008598,186.138596 131.193756,181.636627 142.444885,176.547226 
	C155.680527,170.560165 165.966370,161.139725 173.575317,148.115616 
	C165.975204,143.626038 158.604172,139.271774 151.276703,134.943253 
	C142.451111,146.142014 140.016953,148.283936 130.372589,153.039688 
M169.527969,131.092606 
	C169.313339,132.672073 169.098724,134.251541 168.845245,136.116898 
	C171.730774,136.116898 174.154099,136.116898 176.781982,136.116898 
	C177.587616,133.018692 178.360504,130.046356 179.105499,127.181328 
	C181.303513,127.181328 183.083527,127.181328 185.113312,127.181328 
	C184.682831,130.471161 184.286514,133.500000 183.954636,136.036362 
	C193.696396,139.129593 193.284271,131.909363 194.082565,127.193069 
	C197.501083,126.588066 200.255615,126.100571 202.840454,125.643112 
	C202.840454,122.542236 202.840454,119.935844 202.840454,117.210068 
	C200.529877,117.034317 198.462723,116.877075 196.154404,116.701500 
	C196.634415,114.458359 197.036774,112.578072 197.439148,110.697784 
	C199.804810,110.614433 202.622940,109.836990 202.808502,108.648521 
	C203.189743,106.206841 202.239944,103.528084 201.685150,100.980194 
	C201.338730,99.389328 200.386734,97.876884 200.301422,96.297127 
	C200.209885,94.601723 200.815231,92.868706 201.118774,91.138916 
	C193.253555,90.128891 193.256012,90.129463 191.719299,96.771141 
	C191.569397,97.419022 191.569412,98.353065 191.148819,98.640327 
	C189.815231,99.551170 188.315247,100.218369 186.879608,100.979767 
	C186.259399,99.652603 185.187759,98.346214 185.125473,96.993362 
	C185.033539,94.996574 185.659805,92.966713 185.988556,90.898560 
	C178.040649,90.392853 178.040649,90.392853 175.209625,101.197311 
	C172.354492,101.197311 169.302612,101.197311 166.336029,101.197311 
	C166.336029,104.778854 166.336029,107.714615 166.336029,110.791435 
	C168.686646,110.954071 170.790802,111.099655 173.329865,111.275330 
	C173.016296,113.260071 172.744171,114.982590 172.464050,116.755669 
	C170.143463,116.942780 168.231964,117.096893 166.310577,117.251816 
	C166.310577,120.578102 166.310577,123.519226 166.310577,126.460342 
	C166.817123,126.295074 167.323654,126.129807 167.830200,125.964539 
	C168.473846,127.389885 169.117493,128.815231 169.527969,131.092606 
z"/>
<path fill="#5E0072" opacity="1.000000" stroke="none" 
	d="
M207.893494,164.484558 
	C207.516190,163.671677 207.033722,162.407898 207.032135,161.143494 
	C206.991135,128.656784 206.998703,96.169998 207.012009,63.683235 
	C207.012268,63.028000 207.180557,62.372833 207.522079,61.397270 
	C207.886520,62.230667 208.098328,63.384476 208.097794,64.538185 
	C208.082367,97.703247 208.045670,130.868301 207.893494,164.484558 
z"/>
<path fill="#5E0072" opacity="1.000000" stroke="none" 
	d="
M19.040287,62.497574 
	C19.435658,63.290367 19.963221,64.537041 19.964928,65.784431 
	C20.009447,98.304977 20.001049,130.825607 19.986835,163.346207 
	C19.986551,163.997574 19.808519,164.648880 19.454102,165.615967 
	C19.069220,165.115158 18.833513,164.298508 18.833948,163.482010 
	C18.851852,129.971924 18.890989,96.461861 19.040287,62.497574 
z"/>
<path fill="#FDFCFD" opacity="1.000000" stroke="none" 
	d="
M130.735870,152.915802 
	C140.016953,148.283936 142.451111,146.142014 151.276703,134.943253 
	C158.604172,139.271774 165.975204,143.626038 173.575317,148.115616 
	C165.966370,161.139725 155.680527,170.560165 142.444885,176.547226 
	C131.193756,181.636627 119.008598,186.138596 106.934837,183.424744 
	C67.179016,174.488770 44.562241,149.178696 44.016388,115.078400 
	C43.500023,82.820435 64.924843,54.371483 95.834229,46.272083 
	C126.035362,38.358273 159.099594,52.216660 173.588486,79.322243 
	C166.224426,83.589775 158.833878,87.872665 151.107025,92.350441 
	C143.726227,80.671921 133.719955,72.344536 119.958809,71.247124 
	C109.263077,70.394165 98.426170,71.156631 88.895844,78.076889 
	C71.052574,91.033417 65.222336,114.874191 75.755402,134.086151 
	C86.435326,153.565964 109.283409,161.494827 130.735870,152.915802 
z"/>
<path fill="#FCFBFC" opacity="1.000000" stroke="none" 
	d="
M169.644562,130.666595 
	C169.117493,128.815231 168.473846,127.389885 167.830200,125.964539 
	C167.323654,126.129807 166.817123,126.295074 166.310577,126.460342 
	C166.310577,123.519226 166.310577,120.578102 166.310577,117.251816 
	C168.231964,117.096893 170.143463,116.942780 172.464050,116.755669 
	C172.744171,114.982590 173.016296,113.260071 173.329865,111.275330 
	C170.790802,111.099655 168.686646,110.954071 166.336029,110.791435 
	C166.336029,107.714615 166.336029,104.778854 166.336029,101.197311 
	C169.302612,101.197311 172.354492,101.197311 175.209625,101.197311 
	C178.040649,90.392853 178.040649,90.392853 185.988556,90.898560 
	C185.659805,92.966713 185.033539,94.996574 185.125473,96.993362 
	C185.187759,98.346214 186.259399,99.652603 186.879608,100.979767 
	C188.315247,100.218369 189.815231,99.551170 191.148819,98.640327 
	C191.569412,98.353065 191.569397,97.419022 191.719299,96.771141 
	C193.256012,90.129463 193.253555,90.128891 201.118774,91.138916 
	C200.815231,92.868706 200.209885,94.601723 200.301422,96.297127 
	C200.386734,97.876884 201.338730,99.389328 201.685150,100.980194 
	C202.239944,103.528084 203.189743,106.206841 202.808502,108.648521 
	C202.622940,109.836990 199.804810,110.614433 197.439148,110.697784 
	C197.036774,112.578072 196.634415,114.458359 196.154404,116.701500 
	C198.462723,116.877075 200.529877,117.034317 202.840454,117.210068 
	C202.840454,119.935844 202.840454,122.542236 202.840454,125.643112 
	C200.255615,126.100571 197.501083,126.588066 194.082565,127.193069 
	C193.284271,131.909363 193.696396,139.129593 183.954636,136.036362 
	C184.286514,133.500000 184.682831,130.471161 185.113312,127.181328 
	C183.083527,127.181328 181.303513,127.181328 179.105499,127.181328 
	C178.360504,130.046356 177.587616,133.018692 176.781982,136.116898 
	C174.154099,136.116898 171.730774,136.116898 168.845245,136.116898 
	C169.098724,134.251541 169.313339,132.672073 169.644562,130.666595 
M188.277954,113.168961 
	C187.746246,108.443039 183.889877,112.631683 182.292221,110.114052 
	C181.796799,112.784843 181.447510,114.667770 181.005966,117.048027 
	C183.830658,116.215317 187.590073,119.199829 188.277954,113.168961 
z"/>
<path fill="#6D287E" opacity="1.000000" stroke="none" 
	d="
M188.202667,113.565842 
	C187.590073,119.199829 183.830658,116.215317 181.005966,117.048027 
	C181.447510,114.667770 181.796799,112.784843 182.292221,110.114052 
	C183.889877,112.631683 187.746246,108.443039 188.202667,113.565842 
z"/>
</svg>