<svg version="1.1" id="Layer_1" xmlns="http://www.w3.org/2000/svg" xmlns:xlink="http://www.w3.org/1999/xlink" x="0px" y="0px"
	 width="100%" viewBox="0 0 225 225" enable-background="new 0 0 225 225" xml:space="preserve">
<path fill="#FEFEFF" opacity="1.000000" stroke="none" 
	d="
M149.000000,226.000000 
	C99.333336,226.000000 50.166672,226.000000 1.000007,226.000000 
	C1.000004,151.000000 1.000004,76.000015 1.000002,1.000017 
	C75.999992,1.000011 150.999985,1.000011 225.999969,1.000006 
	C225.999985,75.999985 225.999985,150.999969 226.000000,225.999969 
	C200.500000,226.000000 175.000000,226.000000 149.000000,226.000000 
M14.233214,113.683800 
	C13.833494,113.833008 13.433774,113.982208 12.318092,114.241165 
	C11.230157,116.864250 8.928889,119.654160 9.262660,122.081779 
	C10.771426,133.055573 11.905321,144.285156 15.254838,154.757111 
	C21.362089,173.850891 34.965897,185.273331 54.920696,189.236404 
	C69.448372,192.121643 83.969795,192.828629 98.610046,191.008133 
	C126.120003,187.587311 150.045914,176.932480 166.887955,154.189774 
	C174.337509,144.130249 179.853378,132.638733 186.601166,121.196877 
	C204.114136,119.598854 214.142731,113.029106 217.042908,100.214081 
	C211.368973,97.479851 206.121872,93.252235 198.939850,95.706444 
	C197.582794,96.170181 195.960251,95.968307 194.467957,95.901253 
	C191.543289,95.769821 189.618546,95.035896 188.642731,91.460770 
	C186.169342,82.399017 180.222763,75.936172 171.691345,71.405128 
	C163.054581,83.755074 160.747864,96.221779 167.970840,110.399635 
	C163.372452,111.368057 159.197632,112.247276 154.089386,113.005745 
	C109.474762,113.004700 64.860138,112.997406 20.245537,113.025345 
	C18.451710,113.026466 16.658089,113.361267 14.820730,113.626450 
	C14.820730,113.626450 14.873712,113.706863 14.233214,113.683800 
M52.041370,91.910400 
	C52.111599,97.273903 52.181824,102.637413 52.630798,108.744797 
	C59.490398,108.744797 66.349998,108.744797 73.707199,108.744797 
	C73.707199,106.578972 73.705070,104.785522 73.707535,102.992073 
	C73.725784,89.711914 73.725342,89.638985 60.617004,89.770409 
	C57.831036,89.798340 55.052532,90.570976 52.041370,91.910400 
M73.731911,81.161621 
	C73.730423,77.334961 73.929108,73.491608 73.612312,69.691231 
	C73.509819,68.461761 72.074974,66.353386 71.215080,66.335808 
	C65.103928,66.210884 58.983822,66.524086 52.866570,66.697754 
	C52.570168,71.756027 52.273464,76.814278 51.978710,81.872643 
	C51.969051,82.038399 51.907406,82.274712 51.990993,82.361214 
	C53.146496,83.556946 54.246349,85.644012 55.508411,85.750412 
	C60.299416,86.154335 65.147285,85.819229 69.968483,85.954124 
	C72.818321,86.033859 73.935349,84.789085 73.731911,81.161621 
M117.367844,85.919281 
	C119.961433,85.092751 124.145050,88.065567 124.900322,82.849800 
	C127.159096,67.251114 126.197952,66.142403 110.633842,66.144562 
	C110.301697,66.144608 109.969543,66.144279 109.637398,66.144615 
	C103.144714,66.151184 103.144714,66.151199 103.138565,72.671036 
	C103.126068,85.919502 103.126068,85.919502 117.367844,85.919281 
M86.553429,66.152237 
	C76.545639,66.268089 77.950821,65.002396 77.896080,74.423027 
	C77.829308,85.913216 77.880089,85.913513 91.338081,85.912460 
	C99.231583,85.911842 99.231583,85.911842 99.234062,78.038719 
	C99.237808,66.151833 99.237808,66.151833 86.553429,66.152237 
M117.388992,62.141750 
	C119.882278,61.287769 124.167351,64.265007 124.735878,59.578453 
	C125.347542,54.536278 124.874092,49.362473 124.874092,44.151714 
	C117.311974,44.151714 110.286850,44.151714 103.570175,44.151714 
	C103.570175,50.219555 103.570175,55.975971 103.570175,62.141850 
	C108.130409,62.141850 112.273674,62.141850 117.388992,62.141750 
M124.910866,93.721306 
	C124.127991,92.771660 123.374161,91.028389 122.557625,90.998505 
	C116.286819,90.769028 110.003822,90.872375 103.168106,90.872375 
	C103.168106,96.349113 103.005974,101.461349 103.317223,106.544601 
	C103.373398,107.462128 105.338196,108.934395 106.485054,108.997284 
	C111.452881,109.269684 116.446068,109.032471 121.426125,109.148331 
	C123.995430,109.208107 125.027130,108.217102 124.941971,105.643112 
	C124.821198,101.993126 124.913094,98.336098 124.910866,93.721306 
M143.441269,109.107468 
	C145.552368,109.107468 147.663452,109.107468 150.047485,109.107468 
	C150.047485,102.783485 150.047485,97.074547 150.047485,90.909546 
	C142.889206,90.909546 136.043442,90.909546 129.251648,90.909546 
	C129.251648,96.822540 129.251648,102.741455 129.251648,109.107544 
	C133.860245,109.107544 138.157806,109.107544 143.441269,109.107468 
M92.433472,109.103928 
	C94.534882,109.103928 96.636292,109.103928 98.860481,109.103928 
	C98.860481,102.410927 98.860481,96.365929 98.860481,90.207550 
	C91.811218,90.207550 85.100212,90.207550 78.245995,90.207550 
	C78.245995,96.592567 78.245995,102.631653 78.245995,109.103958 
	C82.866524,109.103958 87.158119,109.103958 92.433472,109.103928 
M26.879358,106.303780 
	C27.709469,107.231339 28.510010,108.929520 29.374437,108.962685 
	C35.455006,109.196007 41.548729,109.086456 47.798325,109.086456 
	C47.798325,102.475273 47.798325,96.436462 47.798325,90.197983 
	C40.790157,90.197983 34.094807,90.197983 26.875978,90.197983 
	C26.875978,95.457657 26.875978,100.396782 26.879358,106.303780 
z"/>
<path fill="#2496ED" opacity="1.000000" stroke="none" 
	d="
M155.022812,113.126495 
	C159.197632,112.247276 163.372452,111.368057 167.970840,110.399635 
	C160.747864,96.221779 163.054581,83.755074 171.691345,71.405128 
	C180.222763,75.936172 186.169342,82.399017 188.642731,91.460770 
	C189.618546,95.035896 191.543289,95.769821 194.467957,95.901253 
	C195.960251,95.968307 197.582794,96.170181 198.939850,95.706444 
	C206.121872,93.252235 211.368973,97.479851 217.042908,100.214081 
	C214.142731,113.029106 204.114136,119.598854 186.601166,121.196877 
	C179.853378,132.638733 174.337509,144.130249 166.887955,154.189774 
	C150.045914,176.932480 126.120003,187.587311 98.610046,191.008133 
	C83.969795,192.828629 69.448372,192.121643 54.920696,189.236404 
	C34.965897,185.273331 21.362089,173.850891 15.254838,154.757111 
	C11.905321,144.285156 10.771426,133.055573 9.262660,122.081779 
	C8.928889,119.654160 11.230157,116.864250 12.846802,114.398438 
	C13.874912,114.272766 14.374311,113.989815 14.873711,113.706863 
	C14.873712,113.706863 14.820730,113.626450 15.302546,113.736557 
	C61.106846,113.892326 106.429329,113.944000 151.751816,113.947685 
	C152.842133,113.947769 153.932480,113.412224 155.022812,113.126495 
z"/>
<path fill="#2C99EC" opacity="1.000000" stroke="none" 
	d="
M73.730728,81.620926 
	C73.935349,84.789085 72.818321,86.033859 69.968483,85.954124 
	C65.147285,85.819229 60.299416,86.154335 55.508411,85.750412 
	C54.246349,85.644012 53.146496,83.556946 51.990993,82.361214 
	C51.907406,82.274712 51.969051,82.038399 51.978710,81.872643 
	C52.273464,76.814278 52.570168,71.756027 52.866570,66.697754 
	C58.983822,66.524086 65.103928,66.210884 71.215080,66.335808 
	C72.074974,66.353386 73.509819,68.461761 73.612312,69.691231 
	C73.929108,73.491608 73.730423,77.334961 73.730728,81.620926 
z"/>
<path fill="#2B98EC" opacity="1.000000" stroke="none" 
	d="
M116.886459,85.919250 
	C103.126068,85.919502 103.126068,85.919502 103.138565,72.671036 
	C103.144714,66.151199 103.144714,66.151184 109.637398,66.144615 
	C109.969543,66.144279 110.301697,66.144608 110.633842,66.144562 
	C126.197952,66.142403 127.159096,67.251114 124.900322,82.849800 
	C124.145050,88.065567 119.961433,85.092751 116.886459,85.919250 
z"/>
<path fill="#2997EC" opacity="1.000000" stroke="none" 
	d="
M87.040649,66.152298 
	C99.237808,66.151833 99.237808,66.151833 99.234062,78.038719 
	C99.231583,85.911842 99.231583,85.911842 91.338081,85.912460 
	C77.880089,85.913513 77.829308,85.913216 77.896080,74.423027 
	C77.950821,65.002396 76.545639,66.268089 87.040649,66.152298 
z"/>
<path fill="#2897ED" opacity="1.000000" stroke="none" 
	d="
M116.902969,62.141800 
	C112.273674,62.141850 108.130409,62.141850 103.570175,62.141850 
	C103.570175,55.975971 103.570175,50.219555 103.570175,44.151714 
	C110.286850,44.151714 117.311974,44.151714 124.874092,44.151714 
	C124.874092,49.362473 125.347542,54.536278 124.735878,59.578453 
	C124.167351,64.265007 119.882278,61.287769 116.902969,62.141800 
z"/>
<path fill="#2897ED" opacity="1.000000" stroke="none" 
	d="
M124.912491,94.201691 
	C124.913094,98.336098 124.821198,101.993126 124.941971,105.643112 
	C125.027130,108.217102 123.995430,109.208107 121.426125,109.148331 
	C116.446068,109.032471 111.452881,109.269684 106.485054,108.997284 
	C105.338196,108.934395 103.373398,107.462128 103.317223,106.544601 
	C103.005974,101.461349 103.168106,96.349113 103.168106,90.872375 
	C110.003822,90.872375 116.286819,90.769028 122.557625,90.998505 
	C123.374161,91.028389 124.127991,92.771660 124.912491,94.201691 
z"/>
<path fill="#2396ED" opacity="1.000000" stroke="none" 
	d="
M142.948334,109.107506 
	C138.157806,109.107544 133.860245,109.107544 129.251648,109.107544 
	C129.251648,102.741455 129.251648,96.822540 129.251648,90.909546 
	C136.043442,90.909546 142.889206,90.909546 150.047485,90.909546 
	C150.047485,97.074547 150.047485,102.783485 150.047485,109.107468 
	C147.663452,109.107468 145.552368,109.107468 142.948334,109.107506 
z"/>
<path fill="#2596ED" opacity="1.000000" stroke="none" 
	d="
M52.252052,108.000916 
	C52.181824,102.637413 52.111599,97.273903 52.605686,91.455414 
	C55.322346,91.000496 57.474693,91.000603 59.627037,91.000603 
	C72.474297,91.000610 72.351891,90.998039 72.081322,103.934273 
	C72.010109,107.338509 70.735611,108.160477 67.647781,108.049095 
	C62.521961,107.864204 57.384571,108.000130 52.252052,108.000916 
z"/>
<path fill="#69ACEB" opacity="1.000000" stroke="none" 
	d="
M154.556091,113.066124 
	C153.932480,113.412224 152.842133,113.947769 151.751816,113.947685 
	C106.429329,113.944000 61.106846,113.892326 15.324366,113.693634 
	C16.658089,113.361267 18.451710,113.026466 20.245537,113.025345 
	C64.860138,112.997406 109.474762,113.004700 154.556091,113.066124 
z"/>
<path fill="#239AEE" opacity="1.000000" stroke="none" 
	d="
M52.441425,108.372856 
	C57.384571,108.000130 62.521961,107.864204 67.647781,108.049095 
	C70.735611,108.160477 72.010109,107.338509 72.081322,103.934273 
	C72.351891,90.998039 72.474297,91.000610 59.627037,91.000603 
	C57.474693,91.000603 55.322346,91.000496 52.720299,91.000473 
	C55.052532,90.570976 57.831036,89.798340 60.617004,89.770409 
	C73.725342,89.638985 73.725784,89.711914 73.707535,102.992073 
	C73.705070,104.785522 73.707199,106.578972 73.707199,108.744797 
	C66.349998,108.744797 59.490398,108.744797 52.441425,108.372856 
z"/>
<path fill="#0390EC" opacity="1.000000" stroke="none" 
	d="
M91.941589,109.103943 
	C87.158119,109.103958 82.866524,109.103958 78.245995,109.103958 
	C78.245995,102.631653 78.245995,96.592567 78.245995,90.207550 
	C85.100212,90.207550 91.811218,90.207550 98.860481,90.207550 
	C98.860481,96.365929 98.860481,102.410927 98.860481,109.103928 
	C96.636292,109.103928 94.534882,109.103928 91.941589,109.103943 
M79.319244,107.016953 
	C85.182251,107.245689 91.045258,107.474426 96.908264,107.703171 
	C97.271950,103.352570 97.636147,99.002022 97.997299,94.651207 
	C98.010971,94.486504 98.066185,94.247368 97.982109,94.164230 
	C96.905579,93.100006 95.885071,91.246361 94.702515,91.132828 
	C78.762199,89.602463 78.756355,89.662682 79.040062,105.631859 
	C79.043007,105.797684 79.060364,105.963249 79.319244,107.016953 
z"/>
<path fill="#0290EC" opacity="1.000000" stroke="none" 
	d="
M26.877668,105.819839 
	C26.875978,100.396782 26.875978,95.457657 26.875978,90.197983 
	C34.094807,90.197983 40.790157,90.197983 47.798325,90.197983 
	C47.798325,96.436462 47.798325,102.475273 47.798325,109.086456 
	C41.548729,109.086456 35.455006,109.196007 29.374437,108.962685 
	C28.510010,108.929520 27.709469,107.231339 26.877668,105.819839 
M46.679745,91.982979 
	C40.816853,91.754112 34.953960,91.525246 29.091068,91.296379 
	C28.727308,95.647171 28.363028,99.997910 28.001810,104.348915 
	C27.988134,104.513618 27.932936,104.752731 28.017025,104.835892 
	C29.093376,105.900322 30.113667,107.754303 31.296104,107.867882 
	C47.227924,109.398125 47.233780,109.337875 46.956512,93.368553 
	C46.953629,93.202721 46.936523,93.037132 46.679745,91.982979 
z"/>
<path fill="#1B94ED" opacity="1.000000" stroke="none" 
	d="
M14.553463,113.695328 
	C14.374311,113.989815 13.874912,114.272766 13.204783,114.343567 
	C13.433774,113.982208 13.833494,113.833008 14.553463,113.695328 
z"/>
<path fill="#2496ED" opacity="1.000000" stroke="none" 
	d="
M79.195129,106.572945 
	C79.060364,105.963249 79.043007,105.797684 79.040062,105.631859 
	C78.756355,89.662682 78.762199,89.602463 94.702515,91.132828 
	C95.885071,91.246361 96.905579,93.100006 97.982109,94.164230 
	C98.066185,94.247368 98.010971,94.486504 97.997299,94.651207 
	C97.636147,99.002022 97.271950,103.352570 96.908264,107.703171 
	C91.045258,107.474426 85.182251,107.245689 79.195129,106.572945 
z"/>
<path fill="#2496ED" opacity="1.000000" stroke="none" 
	d="
M46.802902,92.427200 
	C46.936523,93.037132 46.953629,93.202721 46.956512,93.368553 
	C47.233780,109.337875 47.227924,109.398125 31.296104,107.867882 
	C30.113667,107.754303 29.093376,105.900322 28.017025,104.835892 
	C27.932936,104.752731 27.988134,104.513618 28.001810,104.348915 
	C28.363028,99.997910 28.727308,95.647171 29.091068,91.296379 
	C34.953960,91.525246 40.816853,91.754112 46.802902,92.427200 
z"/>
</svg>