<svg version="1.1" id="Layer_1" xmlns="http://www.w3.org/2000/svg" xmlns:xlink="http://www.w3.org/1999/xlink" x="0px" y="0px"
	 width="100%" viewBox="0 0 324 155" enable-background="new 0 0 324 155" xml:space="preserve">
<path fill="#FEFEFF" opacity="1.000000" stroke="none" 
	d="
M241.000000,156.000000 
	C160.666687,156.000000 80.833374,156.000000 1.000043,156.000000 
	C1.000029,104.333366 1.000029,52.666729 1.000014,1.000071 
	C108.999939,1.000047 216.999878,1.000047 324.999878,1.000023 
	C324.999908,52.666595 324.999908,104.333191 324.999939,155.999893 
	C297.166656,156.000000 269.333344,156.000000 241.000000,156.000000 
M114.446449,28.391470 
	C104.460419,38.611420 97.174583,49.863003 94.230118,64.521294 
	C91.845505,76.392426 92.072594,87.511566 95.493752,98.672646 
	C101.071007,116.867714 112.840073,129.477097 129.573730,139.006241 
	C153.047852,152.373810 190.279877,148.102753 210.564575,125.673286 
	C212.482224,123.377365 214.585907,121.210701 216.286194,118.763741 
	C224.914078,106.347015 229.561264,93.063210 228.728546,77.403610 
	C228.236359,68.147423 227.279480,59.364185 223.617294,50.995045 
	C219.693512,42.028061 213.703140,34.716324 206.205917,28.165121 
	C197.988708,20.984806 189.174896,15.541981 178.676376,12.975873 
	C170.188583,10.901238 161.749908,10.254628 152.779297,11.224653 
	C138.074997,12.814681 125.940132,18.766981 114.446449,28.391470 
z"/>
<path fill="#6E469E" opacity="1.000000" stroke="none" 
	d="
M209.974762,125.988098 
	C190.279877,148.102753 153.047852,152.373810 129.573730,139.006241 
	C112.840073,129.477097 101.071007,116.867714 95.493752,98.672646 
	C92.072594,87.511566 91.845505,76.392426 94.230118,64.521294 
	C97.174583,49.863003 104.460419,38.611420 114.744209,28.647881 
	C115.633347,30.369335 115.853096,32.197769 116.874489,33.242332 
	C125.577835,42.143017 134.412933,50.915325 143.260620,59.673496 
	C143.911499,60.317795 144.967941,60.552372 145.923462,61.378922 
	C145.961319,62.869366 145.911545,63.958321 145.624664,65.262932 
	C145.554337,66.639694 145.721115,67.800804 145.965332,69.342911 
	C145.991074,70.496010 145.939377,71.268127 145.613129,72.343552 
	C144.841476,77.511360 144.344376,82.375847 143.566284,87.043243 
	C138.104507,78.791451 132.751068,70.840469 127.821709,62.634735 
	C125.625549,58.978863 123.087334,58.083408 119.646805,59.382954 
	C119.062080,61.365532 118.564499,63.052628 118.135086,64.996483 
	C118.449280,65.496490 118.695305,65.739731 119.026611,66.446136 
	C119.052879,76.612389 118.993874,86.315475 118.707466,96.177368 
	C118.349480,96.677582 118.218910,97.018990 118.327110,97.565849 
	C120.417763,97.497337 122.269646,97.223373 124.398483,96.645386 
	C124.777512,86.923515 124.879578,77.505661 125.284538,68.046616 
	C126.097488,68.859413 126.607544,69.713402 127.083908,71.068405 
	C127.050232,79.613457 127.050232,87.657509 127.050232,95.701561 
	C127.469025,95.696182 127.887817,95.690804 128.306610,95.685425 
	C128.306610,87.909721 128.306610,80.134010 128.569916,72.605896 
	C133.806992,80.477432 138.704132,88.153526 143.824326,95.677841 
	C144.759964,97.052811 146.644363,98.724205 148.020905,98.663864 
	C151.019455,98.532417 150.948410,95.894440 150.938919,93.432961 
	C150.906174,84.949890 151.047821,76.466141 151.452698,68.045654 
	C154.782791,70.396194 157.783203,72.683739 160.855072,75.436966 
	C160.968903,83.548103 161.011261,91.193558 161.114365,99.248856 
	C166.302185,99.851265 171.429001,100.055756 176.557770,100.177971 
	C176.709183,100.181580 176.881210,99.319572 177.390808,98.784454 
	C179.088730,98.359169 180.439514,98.010590 181.976852,97.964088 
	C191.433868,107.506805 200.704315,116.747452 209.974762,125.988098 
M114.003983,92.093147 
	C114.065536,93.377769 114.127090,94.662384 114.188637,95.947006 
	C114.369728,95.942123 114.550812,95.937241 114.731903,95.932358 
	C114.731903,85.966568 114.731903,76.000771 114.731903,66.034973 
	C114.489265,66.031563 114.246635,66.028152 114.003998,66.024742 
	C114.003998,74.412987 114.003998,82.801231 114.003983,92.093147 
M110.873497,97.333435 
	C110.482140,95.670586 110.203918,93.963150 109.584099,92.390335 
	C109.484909,92.138649 107.452843,92.138702 107.020210,92.636215 
	C106.161301,93.623909 105.794273,95.039352 105.223969,96.278023 
	C106.909538,96.828217 108.595116,97.378418 110.873497,97.333435 
z"/>
<path fill="#5C2D92" opacity="1.000000" stroke="none" 
	d="
M145.835846,60.977432 
	C144.967941,60.552372 143.911499,60.317795 143.260620,59.673496 
	C134.412933,50.915325 125.577835,42.143017 116.874489,33.242332 
	C115.853096,32.197769 115.633347,30.369335 115.045227,28.533428 
	C125.940132,18.766981 138.074997,12.814681 152.779297,11.224653 
	C161.749908,10.254628 170.188583,10.901238 178.676376,12.975873 
	C189.174896,15.541981 197.988708,20.984806 206.205917,28.165121 
	C213.703140,34.716324 219.693512,42.028061 223.617294,50.995045 
	C227.279480,59.364185 228.236359,68.147423 228.728546,77.403610 
	C229.561264,93.063210 224.914078,106.347015 216.286194,118.763741 
	C214.585907,121.210701 212.482224,123.377365 210.269669,125.830688 
	C200.704315,116.747452 191.433868,107.506805 181.997833,97.598595 
	C182.522369,91.651611 178.846497,92.979034 175.957916,92.718956 
	C172.618408,89.245735 169.309235,86.122711 165.915253,82.562752 
	C166.830154,81.440117 167.796921,80.228012 168.835495,80.162994 
	C172.637527,79.924950 176.463470,80.068748 181.100510,80.068748 
	C177.375046,72.415573 170.516541,78.131172 165.807297,74.993645 
	C165.807297,72.753014 165.973022,70.107437 165.766861,67.491165 
	C165.486496,63.933277 166.993011,62.729465 170.437592,62.972454 
	C173.721161,63.204086 177.033890,63.022362 180.333801,63.022362 
	C180.664932,62.604233 180.996063,62.186108 181.327209,61.767979 
	C180.392075,60.830029 179.491226,59.123985 178.516159,59.080463 
	C172.767456,58.823849 167.001465,58.954132 160.783615,58.954132 
	C160.783615,64.697311 160.783615,69.834290 160.783615,74.971275 
	C157.783203,72.683739 154.782791,70.396194 151.367981,67.600983 
	C150.953598,64.484154 150.953598,61.874989 150.953598,57.745407 
	C148.553619,59.261066 147.194733,60.119251 145.835846,60.977432 
M194.491959,63.997692 
	C194.491959,63.997692 194.977798,63.991249 194.963425,64.516396 
	C194.960770,64.691490 194.958115,64.866585 194.376175,65.627014 
	C194.250977,74.364952 194.069534,83.102760 194.048889,91.840942 
	C194.044846,93.552208 194.663513,95.264954 195.530075,96.995369 
	C195.708435,97.001770 195.886780,97.008179 196.539413,97.536438 
	C200.044174,99.899216 200.970901,98.150314 200.983856,94.793594 
	C201.020966,85.185097 201.090637,75.576721 201.447433,65.804489 
	C201.502319,65.705643 201.628311,65.558144 201.599747,65.516396 
	C201.478577,65.339310 201.311523,65.193611 201.061996,64.176331 
	C204.732529,63.590256 208.403046,63.004177 212.073578,62.418098 
	C212.335495,62.059128 212.597412,61.700157 212.859314,61.341190 
	C211.704102,60.543369 210.568878,59.091068 209.390366,59.055054 
	C202.292572,58.838131 195.183762,59.018383 188.080933,58.911930 
	C184.904251,58.864315 184.550644,60.245220 185.592896,63.180878 
	C188.131134,63.180878 190.588089,63.180878 193.268570,63.554836 
	C193.470810,63.775852 193.716644,63.924980 194.491959,63.997692 
z"/>
<path fill="#F5EFF6" opacity="1.000000" stroke="none" 
	d="
M145.923462,61.378922 
	C147.194733,60.119251 148.553619,59.261066 150.953598,57.745407 
	C150.953598,61.874989 150.953598,64.484154 151.038315,67.537979 
	C151.047821,76.466141 150.906174,84.949890 150.938919,93.432961 
	C150.948410,95.894440 151.019455,98.532417 148.020905,98.663864 
	C146.644363,98.724205 144.759964,97.052811 143.824326,95.677841 
	C138.704132,88.153526 133.806992,80.477432 128.501892,72.338913 
	C127.819572,71.405357 127.468582,70.986382 127.117592,70.567398 
	C126.607544,69.713402 126.097488,68.859413 124.904099,68.242950 
	C124.187683,77.970123 124.154602,87.459763 124.121521,96.949409 
	C122.269646,97.223373 120.417763,97.497337 118.589310,97.430267 
	C118.720116,96.732338 118.827492,96.375450 118.934875,96.018562 
	C118.993874,86.315475 119.052879,76.612389 119.027954,66.163742 
	C118.651657,65.192024 118.359283,64.965874 118.066925,64.739723 
	C118.564499,63.052628 119.062080,61.365532 119.646805,59.382954 
	C123.087334,58.083408 125.625549,58.978863 127.821709,62.634735 
	C132.751068,70.840469 138.104507,78.791451 143.619965,87.396469 
	C144.440125,88.818672 144.925598,89.690559 145.887680,91.418388 
	C145.887680,84.195259 145.887680,78.117744 145.887665,72.040237 
	C145.939377,71.268127 145.991074,70.496010 146.022949,68.953659 
	C145.956024,67.138046 145.908905,66.092659 145.861786,65.047279 
	C145.911545,63.958321 145.961319,62.869366 145.923462,61.378922 
z"/>
<path fill="#F4EFF5" opacity="1.000000" stroke="none" 
	d="
M175.988266,93.069160 
	C178.846497,92.979034 182.522369,91.651611 181.811279,97.296524 
	C180.439514,98.010590 179.088730,98.359169 177.155502,98.497589 
	C171.399902,98.471291 166.226761,98.655151 161.053619,98.839005 
	C161.011261,91.193558 160.968903,83.548103 160.855072,75.436966 
	C160.783615,69.834290 160.783615,64.697311 160.783615,58.954132 
	C167.001465,58.954132 172.767456,58.823849 178.516159,59.080463 
	C179.491226,59.123985 180.392075,60.830029 181.327209,61.767979 
	C180.996063,62.186108 180.664932,62.604233 180.333801,63.022362 
	C177.033890,63.022362 173.721161,63.204086 170.437592,62.972454 
	C166.993011,62.729465 165.486496,63.933277 165.766861,67.491165 
	C165.973022,70.107437 165.807297,72.753014 165.807297,74.993645 
	C170.516541,78.131172 177.375046,72.415573 181.100510,80.068748 
	C176.463470,80.068748 172.637527,79.924950 168.835495,80.162994 
	C167.796921,80.228012 166.830154,81.440117 165.839081,83.000565 
	C165.838181,85.029289 165.877594,86.186134 165.810425,87.336746 
	C165.550293,91.792923 167.643265,93.732971 172.053757,93.299789 
	C173.360214,93.171463 174.676483,93.143250 175.988266,93.069160 
z"/>
<path fill="#6D4394" opacity="1.000000" stroke="none" 
	d="
M161.114349,99.248856 
	C166.226761,98.655151 171.399902,98.471291 176.808350,98.574295 
	C176.881210,99.319572 176.709183,100.181580 176.557770,100.177971 
	C171.429001,100.055756 166.302185,99.851265 161.114349,99.248856 
z"/>
<path fill="#6D498E" opacity="1.000000" stroke="none" 
	d="
M114.003990,91.641312 
	C114.003998,82.801231 114.003998,74.412987 114.003998,66.024742 
	C114.246635,66.028152 114.489265,66.031563 114.731903,66.034973 
	C114.731903,76.000771 114.731903,85.966568 114.731903,95.932358 
	C114.550812,95.937241 114.369728,95.942123 114.188637,95.947006 
	C114.127090,94.662384 114.065536,93.377769 114.003990,91.641312 
z"/>
<path fill="#F5EDF8" opacity="1.000000" stroke="none" 
	d="
M110.577087,97.631027 
	C108.595116,97.378418 106.909538,96.828217 105.223969,96.278023 
	C105.794273,95.039352 106.161301,93.623909 107.020210,92.636215 
	C107.452843,92.138702 109.484909,92.138649 109.584099,92.390335 
	C110.203918,93.963150 110.482140,95.670586 110.577087,97.631027 
z"/>
<path fill="#572F94" opacity="1.000000" stroke="none" 
	d="
M124.398483,96.645386 
	C124.154602,87.459763 124.187683,77.970123 124.601196,68.284149 
	C124.879578,77.505661 124.777512,86.923515 124.398483,96.645386 
z"/>
<path fill="#6D488D" opacity="1.000000" stroke="none" 
	d="
M127.083908,71.068405 
	C127.468582,70.986382 127.819572,71.405357 128.238586,72.091316 
	C128.306610,80.134010 128.306610,87.909721 128.306610,95.685425 
	C127.887817,95.690804 127.469025,95.696182 127.050232,95.701561 
	C127.050232,87.657509 127.050232,79.613457 127.083908,71.068405 
z"/>
<path fill="#5B3796" opacity="1.000000" stroke="none" 
	d="
M145.613129,72.343552 
	C145.887680,78.117744 145.887680,84.195259 145.887680,91.418388 
	C144.925598,89.690559 144.440125,88.818672 143.900955,87.593567 
	C144.344376,82.375847 144.841476,77.511360 145.613129,72.343552 
z"/>
<path fill="#5B3796" opacity="1.000000" stroke="none" 
	d="
M145.624664,65.262932 
	C145.908905,66.092659 145.956024,67.138046 145.945526,68.572670 
	C145.721115,67.800804 145.554337,66.639694 145.624664,65.262932 
z"/>
<path fill="#61349B" opacity="1.000000" stroke="none" 
	d="
M118.135086,64.996483 
	C118.359283,64.965874 118.651657,65.192024 118.942688,65.700577 
	C118.695305,65.739731 118.449280,65.496490 118.135086,64.996483 
z"/>
<path fill="#61349B" opacity="1.000000" stroke="none" 
	d="
M118.707458,96.177368 
	C118.827492,96.375450 118.720116,96.732338 118.350533,97.224815 
	C118.218910,97.018990 118.349480,96.677582 118.707458,96.177368 
z"/>
<path fill="#F6F3F8" opacity="1.000000" stroke="none" 
	d="
M193.045044,63.180878 
	C190.588089,63.180878 188.131134,63.180878 185.592896,63.180878 
	C184.550644,60.245220 184.904251,58.864315 188.080933,58.911930 
	C195.183762,59.018383 202.292572,58.838131 209.390366,59.055054 
	C210.568878,59.091068 211.704102,60.543369 212.859314,61.341190 
	C212.597412,61.700157 212.335495,62.059128 212.073578,62.418098 
	C208.403046,63.004177 204.732529,63.590256 201.058075,64.838608 
	C201.054138,65.500885 201.147491,65.968300 201.147491,65.968300 
	C201.090637,75.576721 201.020966,85.185097 200.983856,94.793594 
	C200.970901,98.150314 200.044174,99.899216 196.365250,96.809143 
	C196.199005,86.530640 196.256638,76.978935 196.160995,67.428757 
	C196.146729,66.004364 195.412140,64.587181 194.754623,63.100739 
	C194.327988,63.079884 194.157501,63.124954 193.750916,63.120323 
	C193.514816,63.070618 193.045044,63.180878 193.045044,63.180878 
z"/>
<path fill="#6F42A0" opacity="1.000000" stroke="none" 
	d="
M175.957916,92.718956 
	C174.676483,93.143250 173.360214,93.171463 172.053757,93.299789 
	C167.643265,93.732971 165.550293,91.792923 165.810425,87.336746 
	C165.877594,86.186134 165.838181,85.029289 165.923889,83.437500 
	C169.309235,86.122711 172.618408,89.245735 175.957916,92.718956 
z"/>
<path fill="#4B1E80" opacity="1.000000" stroke="none" 
	d="
M195.010788,63.166664 
	C195.412140,64.587181 196.146729,66.004364 196.160995,67.428757 
	C196.256638,76.978935 196.199005,86.530640 196.128113,96.548218 
	C195.886780,97.008179 195.708435,97.001770 195.264099,96.520203 
	C194.983917,85.710579 194.969681,75.376137 194.955444,65.041687 
	C194.958115,64.866585 194.960770,64.691490 194.979416,64.047867 
	C194.995407,63.579346 195.010788,63.166664 195.010788,63.166664 
z"/>
<path fill="#5B2A9D" opacity="1.000000" stroke="none" 
	d="
M194.665802,65.334351 
	C194.969681,75.376137 194.983917,85.710579 194.996552,96.511017 
	C194.663513,95.264954 194.044846,93.552208 194.048889,91.840942 
	C194.069534,83.102760 194.250977,74.364952 194.665802,65.334351 
z"/>
<path fill="#4F1487" opacity="1.000000" stroke="none" 
	d="
M201.297455,65.886398 
	C201.147491,65.968300 201.054138,65.500885 201.107697,65.268661 
	C201.311523,65.193611 201.478577,65.339310 201.599747,65.516396 
	C201.628311,65.558144 201.502319,65.705643 201.297455,65.886398 
z"/>
<path fill="#5B2A9D" opacity="1.000000" stroke="none" 
	d="
M194.754623,63.100739 
	C195.010788,63.166664 194.995407,63.579346 194.986603,63.785297 
	C194.977798,63.991249 194.491959,63.997692 194.245972,63.791851 
	C193.999985,63.586010 193.987000,63.170029 193.987000,63.170029 
	C194.157501,63.124954 194.327988,63.079884 194.754623,63.100739 
z"/>
<path fill="#4B1E80" opacity="1.000000" stroke="none" 
	d="
M193.750916,63.120323 
	C193.987000,63.170029 193.999985,63.586010 194.003052,63.794113 
	C193.716644,63.924980 193.470810,63.775852 193.156799,63.367859 
	C193.045044,63.180878 193.514816,63.070618 193.750916,63.120323 
z"/>
</svg>