<svg version="1.1" id="Layer_1" xmlns="http://www.w3.org/2000/svg" xmlns:xlink="http://www.w3.org/1999/xlink" x="0px" y="0px"
	 width="100%" viewBox="0 0 300 168" enable-background="new 0 0 300 168" xml:space="preserve">
<path fill="#FEFEFE" opacity="1.000000" stroke="none" 
	d="
M201.000000,169.000000 
	C134.000015,169.000000 67.500015,169.000000 1.000018,169.000000 
	C1.000012,113.000015 1.000012,57.000031 1.000006,1.000033 
	C100.999969,1.000022 200.999939,1.000022 300.999939,1.000011 
	C300.999939,56.999966 300.999939,112.999931 300.999969,168.999939 
	C267.833344,169.000000 234.666672,169.000000 201.000000,169.000000 
M59.534546,164.666916 
	C59.534546,164.666916 59.286545,164.533493 59.286545,164.533493 
	C59.286545,164.533493 59.411442,164.859665 59.471012,165.603607 
	C58.996067,165.734131 58.521122,165.864639 58.164516,165.135193 
	C58.164516,164.191132 58.164516,163.247086 58.164516,162.303024 
	C57.804848,162.299377 57.445179,162.295731 57.085510,162.292084 
	C57.085510,163.507385 57.085510,164.722672 57.291836,166.650299 
	C57.964302,166.055862 58.636765,165.461411 59.534546,164.666916 
M83.262955,166.506134 
	C84.455002,166.491165 85.647057,166.476212 86.839104,166.461258 
	C86.577621,165.803650 86.316139,165.146042 86.159622,163.858582 
	C85.306297,163.553101 84.452965,163.247635 82.820656,162.948929 
	C82.879539,163.901047 82.938423,164.853165 83.262955,166.506134 
M7.143099,165.640778 
	C8.011583,164.542389 8.880068,163.444000 10.632837,161.227249 
	C8.539707,162.189636 7.670967,162.589066 6.067433,162.990860 
	C4.802323,162.913467 3.537212,162.836075 1.918599,162.737045 
	C2.106273,164.179337 2.260430,165.364029 2.412897,166.535751 
	C4.143642,165.940018 5.495329,165.474747 7.143099,165.640778 
M264.997925,94.498955 
	C264.997803,86.349510 265.050018,78.199608 264.978668,70.050789 
	C264.933167,64.857025 262.188049,61.975441 257.033081,61.949928 
	C240.568268,61.868446 224.102631,61.876312 207.637680,61.943893 
	C202.505463,61.964958 199.741592,64.463852 199.688675,69.454376 
	C199.544083,83.090492 199.551163,96.729889 199.677032,110.366333 
	C199.722198,115.260262 202.596054,117.983025 207.570877,118.008713 
	C224.035645,118.093719 240.501358,118.092384 256.966217,118.016373 
	C262.088043,117.992737 264.898163,115.067909 264.980804,109.967285 
	C265.058960,105.145409 264.997833,100.321266 264.997925,94.498955 
M104.556664,93.449066 
	C104.556664,97.034973 104.556664,100.620880 104.556664,104.548996 
	C106.774658,104.380234 108.323853,104.262360 110.097572,104.127403 
	C110.097572,100.179932 110.097572,96.729385 110.097572,93.440971 
	C115.965034,91.808403 117.213425,95.608406 118.179794,99.738808 
	C119.024605,103.349602 120.574844,105.784706 125.369080,103.739136 
	C123.529129,99.440613 121.757874,95.302589 119.895630,90.951981 
	C122.884521,89.430191 125.129807,86.531296 123.699631,82.159599 
	C122.232941,77.676292 118.290260,77.288849 114.351982,77.223892 
	C111.243301,77.172615 108.133102,77.213577 104.556717,77.213577 
	C104.556717,82.567390 104.556717,87.516998 104.556664,93.449066 
M148.256454,80.301682 
	C147.451187,79.263702 146.693298,77.375465 145.832901,77.327545 
	C140.743240,77.044022 135.629776,77.187752 130.089355,77.187752 
	C130.089355,82.100266 130.089371,86.542648 130.089371,90.985023 
	C130.089371,95.387207 130.089355,99.789391 130.089355,104.206406 
	C136.666748,104.206406 142.582977,104.206406 148.451294,104.206406 
	C148.451294,102.706718 148.451294,101.479042 148.451294,99.909241 
	C144.049179,99.909241 139.944061,99.909241 135.820953,99.909241 
	C135.820953,97.329338 135.820953,95.104485 135.820953,92.495850 
	C139.544952,92.495850 142.977081,92.495850 146.617706,92.495850 
	C146.617706,90.889244 146.617706,89.672127 146.617706,87.967484 
	C142.796127,87.967484 139.217316,87.967484 135.768600,87.967484 
	C135.768600,85.703194 135.768600,83.933044 135.768600,82.150986 
	C140.027878,81.782196 144.046234,81.434265 148.256454,80.301682 
M152.364716,83.010521 
	C151.662247,88.244362 154.116837,91.162567 159.109634,92.247734 
	C160.565323,92.564133 162.265793,92.593712 163.385971,93.402817 
	C164.798462,94.423065 165.731262,96.107430 166.871002,97.505280 
	C165.304276,98.438660 163.617325,100.294106 162.196472,100.108856 
	C159.443375,99.749908 156.839996,98.242638 153.791122,97.062859 
	C153.330872,97.691017 152.478943,98.853683 151.455322,100.250694 
	C155.696411,104.694839 160.535431,105.858986 166.109787,104.446129 
	C170.176239,103.415451 172.201111,100.846718 172.206482,96.545624 
	C172.211670,92.403931 170.110992,90.056908 166.360291,88.955917 
	C164.296799,88.350189 162.060287,88.192741 160.131134,87.323936 
	C158.992096,86.810974 157.506836,85.207291 157.620193,84.268288 
	C157.746994,83.217827 159.525925,81.556107 160.549698,81.582184 
	C163.226898,81.650375 165.884354,82.493782 169.091553,83.136772 
	C169.476807,82.580711 170.279816,81.421700 171.069412,80.282036 
	C164.226486,74.767448 156.405823,75.718895 152.364716,83.010521 
M47.943184,81.680763 
	C48.331467,80.332085 48.719753,78.983414 49.152248,77.481171 
	C42.626427,77.481171 36.886173,77.481171 31.029274,77.481171 
	C31.029274,86.514984 31.029274,95.272629 31.029274,104.152435 
	C37.102474,104.152435 42.982155,104.152435 48.796234,104.152435 
	C48.796234,102.629021 48.796234,101.409164 48.796234,99.829285 
	C44.422344,99.829285 40.337051,99.829285 36.282776,99.829285 
	C36.282776,97.194298 36.282776,94.933907 36.282776,92.332001 
	C39.957058,92.332001 43.396839,92.332001 46.872940,92.332001 
	C46.872940,90.759277 46.872940,89.533615 46.872940,87.962914 
	C43.178013,87.962914 39.751656,87.962914 36.327759,87.962914 
	C36.327759,85.709496 36.327759,83.812859 36.327759,81.726471 
	C40.083935,81.726471 43.560200,81.726471 47.943184,81.680763 
M182.222992,77.173508 
	C178.181564,78.452324 175.478958,80.750710 175.942444,85.446243 
	C176.379150,89.870300 179.428665,91.524338 183.261658,92.402809 
	C184.870071,92.771446 186.621811,93.002205 187.976852,93.835068 
	C189.066696,94.504944 190.510651,96.238228 190.271576,97.050613 
	C189.902939,98.303276 188.059891,100.172279 187.141495,100.016434 
	C184.361404,99.544693 181.725113,98.225235 179.033081,97.235291 
	C178.617844,97.082596 178.204208,96.925583 177.582062,96.692848 
	C176.732315,97.918678 175.938599,99.063698 175.057785,100.334358 
	C179.309082,104.604218 184.029449,105.792000 189.456665,104.542534 
	C193.539627,103.602547 195.810837,100.961708 195.967834,96.843697 
	C196.127945,92.644882 193.868866,89.989922 189.837112,88.907349 
	C188.077774,88.434952 186.098038,88.455109 184.547287,87.631973 
	C183.163712,86.897568 182.233093,85.309784 181.102600,84.098595 
	C182.508545,83.162895 183.921661,81.452652 185.318817,81.465584 
	C187.653824,81.487190 189.978653,82.609787 192.511566,83.326614 
	C193.177307,82.403786 193.925613,81.366508 194.714081,80.273560 
	C191.385742,76.622520 187.230270,76.780518 182.222992,77.173508 
M80.962059,77.195602 
	C80.411789,77.870155 79.391838,78.538437 79.382736,79.220200 
	C79.272507,87.486458 79.311241,95.754707 79.311241,104.161133 
	C81.338646,104.161133 82.894836,104.161133 84.824966,104.161133 
	C84.824966,100.736412 84.824966,97.628487 84.824966,94.165123 
	C87.350090,94.165123 89.513283,94.315643 91.648125,94.133652 
	C96.032547,93.759888 98.616699,91.324577 99.075035,86.901817 
	C99.583328,81.997124 97.423996,78.551964 92.780365,77.752365 
	C89.217171,77.138824 85.513763,77.339600 80.962059,77.195602 
M60.109051,98.707268 
	C61.045723,97.188278 61.982395,95.669289 62.981667,94.048782 
	C70.755051,104.634598 70.755051,104.634598 75.439674,103.478828 
	C66.016792,95.329674 67.055626,86.782867 74.038368,78.122765 
	C74.114212,78.028702 74.022827,77.799812 73.990700,77.399544 
	C66.251343,75.879959 67.345398,84.173508 63.345154,86.762848 
	C59.343884,84.251572 60.401157,75.447128 51.971275,77.473228 
	C53.812366,80.732399 55.367332,84.039734 57.438457,86.983978 
	C59.244301,89.551102 59.171730,91.548065 57.434387,94.091507 
	C55.329536,97.172958 53.676090,100.562752 51.858448,103.764290 
	C57.142738,106.425186 57.958408,102.040169 60.109051,98.707268 
M32.544704,164.571548 
	C30.787868,164.074387 29.031031,163.577225 26.792189,162.943649 
	C27.051214,164.192398 27.334076,166.120239 27.466658,166.109955 
	C29.238279,165.972610 30.988880,165.564194 32.544704,164.571548 
M59.951653,162.521149 
	C59.727463,162.447189 59.503277,162.373230 59.279091,162.299255 
	C59.350018,162.508789 59.420944,162.718323 59.951653,162.521149 
z"/>
<path fill="#FCE500" opacity="1.000000" stroke="none" 
	d="
M264.997925,94.998535 
	C264.997833,100.321266 265.058960,105.145409 264.980804,109.967285 
	C264.898163,115.067909 262.088043,117.992737 256.966217,118.016373 
	C240.501358,118.092384 224.035645,118.093719 207.570877,118.008713 
	C202.596054,117.983025 199.722198,115.260262 199.677032,110.366333 
	C199.551163,96.729889 199.544083,83.090492 199.688675,69.454376 
	C199.741592,64.463852 202.505463,61.964958 207.637680,61.943893 
	C224.102631,61.876312 240.568268,61.868446 257.033081,61.949928 
	C262.188049,61.975441 264.933167,64.857025 264.978668,70.050789 
	C265.050018,78.199608 264.997803,86.349510 264.997925,94.998535 
M248.803467,94.647064 
	C245.686356,93.032745 242.569244,91.418434 239.452133,89.804123 
	C239.587173,89.406837 239.722229,89.009552 239.857269,88.612267 
	C242.755127,88.362602 245.653000,88.112938 248.550858,87.863274 
	C248.522964,87.042213 248.495071,86.221153 248.467178,85.400093 
	C245.789795,85.122108 242.883545,84.082642 240.504608,84.797653 
	C238.457596,85.412910 235.975357,87.854004 235.642548,89.819214 
	C235.395096,91.280472 238.143158,93.419502 239.828018,94.960350 
	C240.587219,95.654663 242.094223,95.459091 243.097824,95.982124 
	C243.845917,96.371994 244.330460,97.267563 244.932373,97.937920 
	C244.084137,98.564499 243.282578,99.606270 242.375351,99.708305 
	C241.336151,99.825172 240.221954,98.908760 239.106079,98.803139 
	C237.705994,98.670616 236.271103,98.905640 234.851242,98.982040 
	C238.233643,103.844925 242.275055,103.895897 246.317596,102.423294 
	C249.570145,101.238464 249.869186,98.376556 248.803467,94.647064 
M215.034576,100.193451 
	C218.221451,103.920044 222.384277,103.929001 226.434189,102.550308 
	C230.475479,101.174561 230.525436,97.288544 230.577866,93.750023 
	C230.648880,88.957611 230.595551,84.163353 230.595551,79.073227 
	C228.887497,79.073227 227.506363,79.073227 225.886490,79.073227 
	C225.886490,83.620583 226.124405,87.946709 225.789352,92.228004 
	C225.613388,94.476555 224.967361,97.956429 223.574448,98.523247 
	C221.801270,99.244812 219.056839,97.579697 216.169769,96.789917 
	C215.922363,97.251129 215.320938,98.372292 215.034576,100.193451 
z"/>
<path fill="#090909" opacity="1.000000" stroke="none" 
	d="
M104.556686,92.957840 
	C104.556717,87.516998 104.556717,82.567390 104.556717,77.213577 
	C108.133102,77.213577 111.243301,77.172615 114.351982,77.223892 
	C118.290260,77.288849 122.232941,77.676292 123.699631,82.159599 
	C125.129807,86.531296 122.884521,89.430191 119.895630,90.951981 
	C121.757874,95.302589 123.529129,99.440613 125.369080,103.739136 
	C120.574844,105.784706 119.024605,103.349602 118.179794,99.738808 
	C117.213425,95.608406 115.965034,91.808403 110.097572,93.440971 
	C110.097572,96.729385 110.097572,100.179932 110.097572,104.127403 
	C108.323853,104.262360 106.774658,104.380234 104.556664,104.548996 
	C104.556664,100.620880 104.556664,97.034973 104.556686,92.957840 
M118.894218,84.662949 
	C117.367210,79.824409 113.515335,81.736298 110.175751,81.198616 
	C110.175751,84.091629 110.175751,86.465233 110.175751,89.108475 
	C113.559563,88.411064 117.760818,90.774704 118.894218,84.662949 
z"/>
<path fill="#121212" opacity="1.000000" stroke="none" 
	d="
M148.160522,80.694008 
	C144.046234,81.434265 140.027878,81.782196 135.768600,82.150986 
	C135.768600,83.933044 135.768600,85.703194 135.768600,87.967484 
	C139.217316,87.967484 142.796127,87.967484 146.617706,87.967484 
	C146.617706,89.672127 146.617706,90.889244 146.617706,92.495850 
	C142.977081,92.495850 139.544952,92.495850 135.820953,92.495850 
	C135.820953,95.104485 135.820953,97.329338 135.820953,99.909241 
	C139.944061,99.909241 144.049179,99.909241 148.451294,99.909241 
	C148.451294,101.479042 148.451294,102.706718 148.451294,104.206406 
	C142.582977,104.206406 136.666748,104.206406 130.089355,104.206406 
	C130.089355,99.789391 130.089371,95.387207 130.089371,90.985023 
	C130.089371,86.542648 130.089355,82.100266 130.089355,77.187752 
	C135.629776,77.187752 140.743240,77.044022 145.832901,77.327545 
	C146.693298,77.375465 147.451187,79.263702 148.160522,80.694008 
z"/>
<path fill="#0B0B0B" opacity="1.000000" stroke="none" 
	d="
M152.507233,82.653175 
	C156.405823,75.718895 164.226486,74.767448 171.069412,80.282036 
	C170.279816,81.421700 169.476807,82.580711 169.091553,83.136772 
	C165.884354,82.493782 163.226898,81.650375 160.549698,81.582184 
	C159.525925,81.556107 157.746994,83.217827 157.620193,84.268288 
	C157.506836,85.207291 158.992096,86.810974 160.131134,87.323936 
	C162.060287,88.192741 164.296799,88.350189 166.360291,88.955917 
	C170.110992,90.056908 172.211670,92.403931 172.206482,96.545624 
	C172.201111,100.846718 170.176239,103.415451 166.109787,104.446129 
	C160.535431,105.858986 155.696411,104.694839 151.455322,100.250694 
	C152.478943,98.853683 153.330872,97.691017 153.791122,97.062859 
	C156.839996,98.242638 159.443375,99.749908 162.196472,100.108856 
	C163.617325,100.294106 165.304276,98.438660 166.871002,97.505280 
	C165.731262,96.107430 164.798462,94.423065 163.385971,93.402817 
	C162.265793,92.593712 160.565323,92.564133 159.109634,92.247734 
	C154.116837,91.162567 151.662247,88.244362 152.507233,82.653175 
z"/>
<path fill="#0B0B0B" opacity="1.000000" stroke="none" 
	d="
M47.489822,81.703613 
	C43.560200,81.726471 40.083935,81.726471 36.327759,81.726471 
	C36.327759,83.812859 36.327759,85.709496 36.327759,87.962914 
	C39.751656,87.962914 43.178013,87.962914 46.872940,87.962914 
	C46.872940,89.533615 46.872940,90.759277 46.872940,92.332001 
	C43.396839,92.332001 39.957058,92.332001 36.282776,92.332001 
	C36.282776,94.933907 36.282776,97.194298 36.282776,99.829285 
	C40.337051,99.829285 44.422344,99.829285 48.796234,99.829285 
	C48.796234,101.409164 48.796234,102.629021 48.796234,104.152435 
	C42.982155,104.152435 37.102474,104.152435 31.029274,104.152435 
	C31.029274,95.272629 31.029274,86.514984 31.029274,77.481171 
	C36.886173,77.481171 42.626427,77.481171 49.152248,77.481171 
	C48.719753,78.983414 48.331467,80.332085 47.489822,81.703613 
z"/>
<path fill="#0B0B0B" opacity="1.000000" stroke="none" 
	d="
M182.636261,77.101562 
	C187.230270,76.780518 191.385742,76.622520 194.714081,80.273560 
	C193.925613,81.366508 193.177307,82.403786 192.511566,83.326614 
	C189.978653,82.609787 187.653824,81.487190 185.318817,81.465584 
	C183.921661,81.452652 182.508545,83.162895 181.102600,84.098595 
	C182.233093,85.309784 183.163712,86.897568 184.547287,87.631973 
	C186.098038,88.455109 188.077774,88.434952 189.837112,88.907349 
	C193.868866,89.989922 196.127945,92.644882 195.967834,96.843697 
	C195.810837,100.961708 193.539627,103.602547 189.456665,104.542534 
	C184.029449,105.792000 179.309082,104.604218 175.057785,100.334358 
	C175.938599,99.063698 176.732315,97.918678 177.582062,96.692848 
	C178.204208,96.925583 178.617844,97.082596 179.033081,97.235291 
	C181.725113,98.225235 184.361404,99.544693 187.141495,100.016434 
	C188.059891,100.172279 189.902939,98.303276 190.271576,97.050613 
	C190.510651,96.238228 189.066696,94.504944 187.976852,93.835068 
	C186.621811,93.002205 184.870071,92.771446 183.261658,92.402809 
	C179.428665,91.524338 176.379150,89.870300 175.942444,85.446243 
	C175.478958,80.750710 178.181564,78.452324 182.636261,77.101562 
z"/>
<path fill="#151515" opacity="1.000000" stroke="none" 
	d="
M81.417389,77.186913 
	C85.513763,77.339600 89.217171,77.138824 92.780365,77.752365 
	C97.423996,78.551964 99.583328,81.997124 99.075035,86.901817 
	C98.616699,91.324577 96.032547,93.759888 91.648125,94.133652 
	C89.513283,94.315643 87.350090,94.165123 84.824966,94.165123 
	C84.824966,97.628487 84.824966,100.736412 84.824966,104.161133 
	C82.894836,104.161133 81.338646,104.161133 79.311241,104.161133 
	C79.311241,95.754707 79.272507,87.486458 79.382736,79.220200 
	C79.391838,78.538437 80.411789,77.870155 81.417389,77.186913 
M84.722969,85.644501 
	C84.806831,87.053329 84.890701,88.462151 84.983131,90.014839 
	C86.804398,90.014839 88.585403,90.541733 89.651237,89.893227 
	C91.312729,88.882294 92.488922,87.073753 93.870758,85.603203 
	C92.201408,84.181175 90.739708,82.206459 88.808670,81.480988 
	C86.539368,80.628441 84.104553,81.155869 84.722969,85.644501 
z"/>
<path fill="#0C0C0C" opacity="1.000000" stroke="none" 
	d="
M59.965797,99.043259 
	C57.958408,102.040169 57.142738,106.425186 51.858448,103.764290 
	C53.676090,100.562752 55.329536,97.172958 57.434387,94.091507 
	C59.171730,91.548065 59.244301,89.551102 57.438457,86.983978 
	C55.367332,84.039734 53.812366,80.732399 51.971275,77.473228 
	C60.401157,75.447128 59.343884,84.251572 63.345154,86.762848 
	C67.345398,84.173508 66.251343,75.879959 73.990700,77.399544 
	C74.022827,77.799812 74.114212,78.028702 74.038368,78.122765 
	C67.055626,86.782867 66.016792,95.329674 75.439674,103.478828 
	C70.755051,104.634598 70.755051,104.634598 62.981667,94.048782 
	C61.982395,95.669289 61.045723,97.188278 59.965797,99.043259 
z"/>
<path fill="#C0C0C0" opacity="1.000000" stroke="none" 
	d="
M32.644707,164.897400 
	C30.988880,165.564194 29.238279,165.972610 27.466658,166.109955 
	C27.334076,166.120239 27.051214,164.192398 26.792189,162.943649 
	C29.031031,163.577225 30.787868,164.074387 32.644707,164.897400 
z"/>
<path fill="#F2F2F2" opacity="1.000000" stroke="none" 
	d="
M6.847016,165.009491 
	C5.495329,165.474747 4.143642,165.940018 2.412897,166.535751 
	C2.260430,165.364029 2.106273,164.179337 1.918599,162.737045 
	C3.537212,162.836075 4.802323,162.913467 6.534208,163.319778 
	C6.949661,164.102295 6.898339,164.555893 6.847016,165.009491 
z"/>
<path fill="#EAEAEA" opacity="1.000000" stroke="none" 
	d="
M83.599640,162.942154 
	C84.452965,163.247635 85.306297,163.553101 85.871658,164.356003 
	C84.738861,164.886917 83.894028,164.920410 83.036972,164.586304 
	C83.216385,163.793198 83.408020,163.367676 83.599640,162.942154 
z"/>
<path fill="#040404" opacity="1.000000" stroke="none" 
	d="
M6.995058,165.325134 
	C6.898339,164.555893 6.949661,164.102295 6.901605,163.318604 
	C7.670967,162.589066 8.539707,162.189636 10.632837,161.227249 
	C8.880068,163.444000 8.011583,164.542389 6.995058,165.325134 
z"/>
<path fill="#777777" opacity="1.000000" stroke="none" 
	d="
M83.049194,164.953918 
	C83.894028,164.920410 84.738861,164.886917 85.819183,164.670929 
	C86.316139,165.146042 86.577621,165.803650 86.839104,166.461258 
	C85.647057,166.476212 84.455002,166.491165 83.058060,165.937683 
	C82.853157,165.369247 83.049194,164.953918 83.049194,164.953918 
z"/>
<path fill="#030303" opacity="1.000000" stroke="none" 
	d="
M57.085510,165.937973 
	C57.085510,164.722672 57.085510,163.507385 57.085510,162.292084 
	C57.445179,162.295731 57.804848,162.299377 58.164516,162.303024 
	C58.164516,163.247086 58.164516,164.191132 57.865841,165.539764 
	C57.567165,165.944321 57.085510,165.937973 57.085510,165.937973 
z"/>
<path fill="#6B6B6B" opacity="1.000000" stroke="none" 
	d="
M57.188675,166.294128 
	C57.085510,165.937973 57.567165,165.944321 57.806671,165.969742 
	C58.521122,165.864639 58.996067,165.734131 59.418221,165.262878 
	C59.365429,164.922134 59.309223,164.866959 59.309227,164.866959 
	C58.636765,165.461411 57.964302,166.055862 57.188675,166.294128 
z"/>
<path fill="#151515" opacity="1.000000" stroke="none" 
	d="
M83.036972,164.586304 
	C83.049194,164.953918 82.853157,165.369247 82.925232,165.587265 
	C82.938423,164.853165 82.879539,163.901047 83.210152,162.945541 
	C83.408020,163.367676 83.216385,163.793198 83.036972,164.586304 
z"/>
<path fill="#030303" opacity="1.000000" stroke="none" 
	d="
M59.721764,162.724503 
	C59.420944,162.718323 59.350018,162.508789 59.279091,162.299255 
	C59.503277,162.373230 59.727463,162.447189 59.721764,162.724503 
z"/>
<path fill="#030303" opacity="1.000000" stroke="none" 
	d="
M59.421883,164.766937 
	C59.309223,164.866959 59.365429,164.922134 59.388435,164.890900 
	C59.411442,164.859665 59.286545,164.533493 59.286545,164.533493 
	C59.286545,164.533493 59.534546,164.666916 59.421883,164.766937 
z"/>
<path fill="#0A0900" opacity="1.000000" stroke="none" 
	d="
M248.936798,94.994011 
	C249.869186,98.376556 249.570145,101.238464 246.317596,102.423294 
	C242.275055,103.895897 238.233643,103.844925 234.851242,98.982040 
	C236.271103,98.905640 237.705994,98.670616 239.106079,98.803139 
	C240.221954,98.908760 241.336151,99.825172 242.375351,99.708305 
	C243.282578,99.606270 244.084137,98.564499 244.932373,97.937912 
	C244.330460,97.267563 243.845917,96.371994 243.097824,95.982124 
	C242.094223,95.459091 240.587219,95.654663 239.828018,94.960350 
	C238.143158,93.419502 235.395096,91.280472 235.642548,89.819214 
	C235.975357,87.854004 238.457596,85.412910 240.504608,84.797653 
	C242.883545,84.082642 245.789795,85.122108 248.467178,85.400093 
	C248.495071,86.221153 248.522964,87.042213 248.550858,87.863274 
	C245.653000,88.112938 242.755127,88.362602 239.857269,88.612267 
	C239.722229,89.009552 239.587173,89.406837 239.452133,89.804123 
	C242.569244,91.418434 245.686356,93.032745 248.936798,94.994011 
z"/>
<path fill="#141200" opacity="1.000000" stroke="none" 
	d="
M214.877045,99.843445 
	C215.320938,98.372292 215.922363,97.251129 216.169769,96.789917 
	C219.056839,97.579697 221.801270,99.244812 223.574448,98.523247 
	C224.967361,97.956429 225.613388,94.476555 225.789352,92.228004 
	C226.124405,87.946709 225.886490,83.620583 225.886490,79.073227 
	C227.506363,79.073227 228.887497,79.073227 230.595551,79.073227 
	C230.595551,84.163353 230.648880,88.957611 230.577866,93.750023 
	C230.525436,97.288544 230.475479,101.174561 226.434189,102.550308 
	C222.384277,103.929001 218.221451,103.920044 214.877045,99.843445 
z"/>
<path fill="#F0F0F0" opacity="1.000000" stroke="none" 
	d="
M118.896729,85.065338 
	C117.760818,90.774704 113.559563,88.411064 110.175751,89.108475 
	C110.175751,86.465233 110.175751,84.091629 110.175751,81.198616 
	C113.515335,81.736298 117.367210,79.824409 118.896729,85.065338 
z"/>
<path fill="#F2F2F2" opacity="1.000000" stroke="none" 
	d="
M84.722855,85.185448 
	C84.104553,81.155869 86.539368,80.628441 88.808670,81.480988 
	C90.739708,82.206459 92.201408,84.181175 93.870758,85.603203 
	C92.488922,87.073753 91.312729,88.882294 89.651237,89.893227 
	C88.585403,90.541733 86.804398,90.014839 84.983131,90.014839 
	C84.890701,88.462151 84.806831,87.053329 84.722855,85.185448 
z"/>
</svg>