<?xml version="1.0" encoding="UTF-8"?>
<svg version="1.1" xmlns="http://www.w3.org/2000/svg" width="313" height="161">
<path d="M0 0 C103.29 0 206.58 0 313 0 C313 53.13 313 106.26 313 161 C209.71 161 106.42 161 0 161 C0 107.87 0 54.74 0 0 Z " fill="#FEFEFE" transform="translate(0,0)"/>
<path d="M0 0 C3.67554003 1.40765363 4.60513645 2.96944931 6.9375 6.125 C9.02458551 7.99854202 11.16268789 9.79207982 13.328125 11.57421875 C13.85921875 12.08597656 14.3903125 12.59773438 14.9375 13.125 C14.9375 13.785 14.9375 14.445 14.9375 15.125 C15.55625 15.3725 16.175 15.62 16.8125 15.875 C19.34108627 17.36240369 19.65589004 18.56178009 20.9375 21.125 C22.9710948 22.39304566 22.9710948 22.39304566 24.9375 23.125 C25.2409668 25.2800293 25.2409668 25.2800293 24.9375 28.125 C23.37562384 30.18416943 21.90990715 31.85461139 20.08203125 33.64453125 C19.58338058 34.14796555 19.08472992 34.65139984 18.57096863 35.17008972 C17.51528579 36.22916899 16.45328622 37.28198419 15.38549805 38.32885742 C13.75530646 39.93228067 12.15349752 41.56061541 10.55273438 43.19335938 C9.52243265 44.22035696 8.49058091 45.24580238 7.45703125 46.26953125 C6.97974075 46.7569429 6.50245026 47.24435455 6.01069641 47.74653625 C3.91289358 49.77247844 2.30335181 51.03327637 -0.54663086 51.74780273 C-4.18971601 50.84595798 -6.28452167 48.61845075 -8.8359375 46.015625 C-9.36393951 45.49240662 -9.89194153 44.96918823 -10.4359436 44.43011475 C-11.54629719 43.32315774 -12.65038492 42.20988463 -13.74853516 41.09082031 C-15.43531481 39.37721994 -17.14716534 37.69197552 -18.86328125 36.0078125 C-19.93910732 34.92868335 -21.01338183 33.84800469 -22.0859375 32.765625 C-22.60038422 32.26129944 -23.11483093 31.75697388 -23.64486694 31.23736572 C-27.05637734 27.71008427 -27.05637734 27.71008427 -27.0847168 25.00195312 C-25.86603862 22.76426556 -24.51008197 21.2335673 -22.68359375 19.453125 C-21.67329102 18.45732422 -21.67329102 18.45732422 -20.64257812 17.44140625 C-19.93552734 16.75949219 -19.22847656 16.07757813 -18.5 15.375 C-17.78908203 14.67761719 -17.07816406 13.98023437 -16.34570312 13.26171875 C-14.59119286 11.5425342 -12.83006648 9.83074128 -11.0625 8.125 C-8.59449953 9.27673355 -7.01466435 10.17283565 -5.0625 12.125 C-4.37149447 14.11672182 -3.70347297 16.11661804 -3.0625 18.125 C-2.7325 18.455 -2.4025 18.785 -2.0625 19.125 C-1.93692838 21.43493382 -1.88674271 23.74918536 -1.875 26.0625 C-1.86082031 27.32964844 -1.84664062 28.59679687 -1.83203125 29.90234375 C-2.0625 33.125 -2.0625 33.125 -4.0625 35.125 C-3.7439823 37.23320797 -3.7439823 37.23320797 -3.0625 39.125 C-1.4125 39.125 0.2375 39.125 1.9375 39.125 C1.980221 37.45888095 1.97813832 35.79117115 1.9375 34.125 C1.4425 33.63 1.4425 33.63 0.9375 33.125 C0.86478259 30.77186445 0.85379132 28.41666332 0.875 26.0625 C0.88402344 24.77214844 0.89304687 23.48179688 0.90234375 22.15234375 C0.91394531 21.15332031 0.92554687 20.15429688 0.9375 19.125 C5.05493282 22.18480468 6.67801265 24.08705058 7.9375 29.125 C9.5875 28.795 11.2375 28.465 12.9375 28.125 C12.83136164 25.67275306 12.83136164 25.67275306 11.9375 23.125 C9.5944191 22.00414688 9.5944191 22.00414688 6.9375 21.125 C4.38904684 19.01342452 3.11845112 17.63166312 2 14.5 C1.16176757 11.90123007 1.16176757 11.90123007 -1.4375 11.125 C-2.30375 10.795 -3.17 10.465 -4.0625 10.125 C-6.375 7.5 -6.375 7.5 -8.0625 5.125 C-3.94606517 0.16106388 -3.94606517 0.16106388 0 0 Z " fill="#EF543A" transform="translate(121.0625,54.875)"/>
<path d="M0 0 C1.46856445 0.03383789 1.46856445 0.03383789 2.96679688 0.06835938 C5.37527455 0.12710273 7.78059078 0.20917871 10.1875 0.3125 C10.1875 1.6325 10.1875 2.9525 10.1875 4.3125 C8.8675 4.6425 7.5475 4.9725 6.1875 5.3125 C6.5175 5.6425 6.8475 5.9725 7.1875 6.3125 C7.52958717 9.93862403 7.69871386 12.41178987 5.875 15.625 C2.24940172 17.90153845 -1.24119187 18.27410504 -5.44921875 18.8203125 C-6.61904297 19.06394531 -6.61904297 19.06394531 -7.8125 19.3125 C-8.1425 19.9725 -8.4725 20.6325 -8.8125 21.3125 C-7.93207031 21.27769531 -7.05164063 21.24289063 -6.14453125 21.20703125 C-4.98308594 21.17996094 -3.82164062 21.15289062 -2.625 21.125 C-1.47644531 21.09019531 -0.32789063 21.05539063 0.85546875 21.01953125 C4.51015941 21.34086982 6.34145941 22.02409398 9.1875 24.3125 C9.8125 27.6875 9.8125 27.6875 9.1875 31.3125 C6.46780464 34.78766629 4.49129917 36.54002323 0.1875 37.3125 C-5.88208044 37.83332208 -10.53558416 37.69513836 -15.8125 34.3125 C-16.8125 33.3125 -16.8125 33.3125 -16.9375 31 C-16.82432276 28.5666894 -16.46769522 26.64208299 -15.8125 24.3125 C-15.668125 23.466875 -15.52375 22.62125 -15.375 21.75 C-14.8125 19.3125 -14.8125 19.3125 -12.8125 16.3125 C-13.3075 15.796875 -13.8025 15.28125 -14.3125 14.75 C-16.40561615 11.34868625 -16.36397685 9.24177257 -15.8125 5.3125 C-11.5523942 -0.8938015 -6.86380782 -0.29962895 0 0 Z " fill="#3E2F0A" transform="translate(172.8125,67.6875)"/>
<path d="M0 0 C1.65 0 3.3 0 5 0 C5 2.64 5 5.28 5 8 C7.31 8 9.62 8 12 8 C12 9.65 12 11.3 12 13 C9.69 13 7.38 13 5 13 C5 17.95 5 22.9 5 28 C7.64 28 10.28 28 13 28 C13 29.65 13 31.3 13 33 C10.54617866 34.22691067 8.80015897 34.20175931 6.0625 34.25 C5.18722656 34.27578125 4.31195313 34.3015625 3.41015625 34.328125 C0.47699617 33.92879689 -0.19848276 33.29707919 -2 31 C-2.34057617 29.00708008 -2.34057617 29.00708008 -2.29296875 26.76953125 C-2.28330078 25.96708984 -2.27363281 25.16464844 -2.26367188 24.33789062 C-2.23853516 23.50451172 -2.21339844 22.67113281 -2.1875 21.8125 C-2.17396484 20.96751953 -2.16042969 20.12253906 -2.14648438 19.25195312 C-2.11115799 17.16769616 -2.05735139 15.08376723 -2 13 C-3.32 13 -4.64 13 -6 13 C-6 11.35 -6 9.7 -6 8 C-5.38125 7.79375 -4.7625 7.5875 -4.125 7.375 C-1.15346355 5.45224112 -0.86975341 3.33405473 0 0 Z " fill="#3F2E09" transform="translate(205,59)"/>
<path d="M0 0 C3.63 0 7.26 0 11 0 C11 7.26 11 14.52 11 22 C11.99 22 12.98 22 14 22 C14 23.32 14 24.64 14 26 C9.38 26 4.76 26 0 26 C0 24.68 0 23.36 0 22 C0.99 22 1.98 22 3 22 C3 16.39 3 10.78 3 5 C2.01 5 1.02 5 0 5 C0 3.35 0 1.7 0 0 Z " fill="#463714" transform="translate(185,67)"/>
<path d="M0 0 C7.40149054 2.9887254 7.40149054 2.9887254 9.8125 7.0625 C10.204375 8.031875 10.59625 9.00125 11 10 C12.81542326 12.31053869 13.79797369 12.9326579 16.625 13.875 C19 15 19 15 19.9375 17.5 C19.958125 18.325 19.97875 19.15 20 20 C18 22 18 22 15.5625 22.0625 C13 21 13 21 11.3125 17.5625 C10.879375 16.386875 10.44625 15.21125 10 14 C9.34 13.34 8.68 12.68 8 12 C7.97314062 14.14576637 7.95366912 16.29162645 7.9375 18.4375 C7.92589844 19.63246094 7.91429688 20.82742187 7.90234375 22.05859375 C7.66098208 24.88873341 7.66098208 24.88873341 9 26 C9.125 28.5 9.125 28.5 9 31 C8 32 8 32 5.5625 32.1875 C3 32 3 32 1 30 C1.53571429 26.46428571 1.53571429 26.46428571 3 25 C3.12557162 22.69006618 3.17575729 20.37581464 3.1875 18.0625 C3.20167969 16.79535156 3.21585937 15.52820313 3.23046875 14.22265625 C3.34713697 10.91056001 3.34713697 10.91056001 1 9 C-0.1875 5.5 -0.1875 5.5 -1 2 C-0.67 1.34 -0.34 0.68 0 0 Z " fill="#FBF6F3" transform="translate(115,63)"/>
<path d="M0 0 C2.5 0.25 2.5 0.25 4.5 2.25 C4.75 4.75 4.75 4.75 4.5 7.25 C2.5 9.25 2.5 9.25 0 9.5 C-2.5 9.25 -2.5 9.25 -4.5 7.25 C-4.75 4.75 -4.75 4.75 -4.5 2.25 C-2.5 0.25 -2.5 0.25 0 0 Z " fill="#F1F0EA" transform="translate(168.5,71.75)"/>
<path d="M0 0 C3.0625 0.1875 3.0625 0.1875 5.0625 2.1875 C4.50694444 6.74305556 4.50694444 6.74305556 3.0625 8.1875 C1.06291636 8.22830783 -0.93795254 8.23004356 -2.9375 8.1875 C-3.31813221 5.8614143 -3.65019945 3.52694736 -3.9375 1.1875 C-2.9375 0.1875 -2.9375 0.1875 0 0 Z " fill="#3E2D0B" transform="translate(190.9375,54.8125)"/>
<path d="M0 0 C0.89847656 0.00257812 1.79695312 0.00515625 2.72265625 0.0078125 C3.61855469 0.00523438 4.51445312 0.00265625 5.4375 0 C7.78515625 0.1328125 7.78515625 0.1328125 9.78515625 1.1328125 C9.45515625 2.4528125 9.12515625 3.7728125 8.78515625 5.1328125 C5.15515625 5.1328125 1.52515625 5.1328125 -2.21484375 5.1328125 C-2.54484375 3.8128125 -2.87484375 2.4928125 -3.21484375 1.1328125 C-2.21484375 0.1328125 -2.21484375 0.1328125 0 0 Z " fill="#ECEBE3" transform="translate(165.21484375,94.8671875)"/>
<path d="M0 0 C0.33 0.66 0.66 1.32 1 2 C1.66 2 2.32 2 3 2 C3 2.66 3 3.32 3 4 C3.66 4.33 4.32 4.66 5 5 C3.35 5.66 1.7 6.32 0 7 C-0.93423645 3.98968256 -1.04449911 3.13349732 0 0 Z " fill="#F14E36" transform="translate(124,83)"/>
<path d="M0 0 C0.99 0.99 1.98 1.98 3 3 C2.67 3.33 2.34 3.66 2 4 C1.76712992 5.68183948 1.58735834 7.3712416 1.4375 9.0625 C1.35371094 9.98160156 1.26992187 10.90070313 1.18359375 11.84765625 C1.12300781 12.55792969 1.06242187 13.26820312 1 14 C0.67 14 0.34 14 0 14 C0 9.38 0 4.76 0 0 Z " fill="#E65F49" transform="translate(122,74)"/>
</svg>
