<?xml version="1.0" encoding="UTF-8"?>
<svg version="1.1" xmlns="http://www.w3.org/2000/svg" width="225" height="225">
<path d="M0 0 C74.25 0 148.5 0 225 0 C225 74.25 225 148.5 225 225 C150.75 225 76.5 225 0 225 C0 150.75 0 76.5 0 0 Z " fill="#010101" transform="translate(0,0)"/>
<path d="M0 0 C9.87483845 -1.23435481 19.49928439 3.41048193 27.67578125 8.74609375 C30.45653778 10.24630021 31.84382634 10.19963345 34.9375 9.75 C36.15759766 9.58757813 36.15759766 9.58757813 37.40234375 9.421875 C39.20380406 9.12930701 41.00184687 8.81519839 42.79663086 8.48413086 C48.06051961 7.68859002 53.31064988 7.81551609 58.625 7.8125 C60.29369141 7.79413086 60.29369141 7.79413086 61.99609375 7.77539062 C67.60464078 7.76559689 72.87744955 8.05139939 78.3984375 9.07421875 C86.6474202 10.56940625 92.04610559 8.84386903 99.25 5 C109.1051918 -0.14340302 109.1051918 -0.14340302 114.6875 -0.0625 C115.89986328 -0.04896484 115.89986328 -0.04896484 117.13671875 -0.03515625 C118.05904297 -0.01775391 118.05904297 -0.01775391 119 0 C122.73762097 8.72111561 123.37889856 18.89237865 121.28125 28.18359375 C120.91029456 31.89830033 121.94081047 33.01198046 124.25 35.875 C130.67381575 43.91804203 131.53229825 51.13281319 131.4375 61.125 C131.42614014 62.78897827 131.42614014 62.78897827 131.41455078 64.48657227 C131.11457843 79.45344103 127.32837669 92.19815289 116.3125 102.8125 C106.37735336 111.18746065 94.30944678 113.81768978 82 117 C82.34933594 117.60328125 82.69867188 118.2065625 83.05859375 118.828125 C83.51363281 119.62734375 83.96867188 120.4265625 84.4375 121.25 C84.88996094 122.03890625 85.34242188 122.8278125 85.80859375 123.640625 C87.58458391 127.15766781 88.12096271 130.28504004 88.18945312 134.2019043 C88.21452942 135.42788582 88.21452942 135.42788582 88.2401123 136.67863464 C88.26047546 137.98819878 88.26047546 137.98819878 88.28125 139.32421875 C88.30886414 140.67722832 88.30886414 140.67722832 88.33703613 142.05757141 C88.41567942 145.91399361 88.48370401 149.77058426 88.55224609 153.62719727 C88.60381603 156.44296319 88.66110085 159.25857182 88.71875 162.07421875 C88.73232544 162.9533342 88.74590088 163.83244965 88.7598877 164.73820496 C88.45326129 168.6871425 88.45326129 168.6871425 90 172 C95.12090493 172.49432566 98.98701984 171.0942884 103.5625 169 C104.61087036 168.52796143 104.61087036 168.52796143 105.68041992 168.04638672 C131.57478591 156.08970664 152.29972801 135.53574509 163 109 C167.06079596 97.91620643 169.870523 86.7621398 171 75 C171.33 75 171.66 75 172 75 C172 108.33 172 141.66 172 176 C97.75 176 23.5 176 -53 176 C-53 142.67 -53 109.34 -53 75 C-52.67 75 -52.34 75 -52 75 C-51.91024902 75.58265625 -51.82049805 76.1653125 -51.72802734 76.765625 C-46.7246329 108.4683285 -34.07918416 136.62096712 -7.4375 156.0625 C8.47964478 167.51408479 8.47964478 167.51408479 26.8125 171.75 C27.864375 171.5025 28.91625 171.255 30 171 C31.23060421 168.53879159 31.2057723 166.74223134 31.31640625 163.9921875 C31.35830078 163.00605469 31.40019531 162.01992187 31.44335938 161.00390625 C31.48267578 159.97136719 31.52199219 158.93882812 31.5625 157.875 C31.60568359 156.83472656 31.64886719 155.79445312 31.69335938 154.72265625 C31.7996288 152.14857472 31.90166583 149.57439492 32 147 C31.41299316 147.16008545 30.82598633 147.3201709 30.22119141 147.48510742 C21.0088576 149.62061105 10.15592117 148.88450732 2 144 C-2.82167118 140.80829628 -4.95404756 137.0563435 -7.5625 132.0625 C-12.05402394 123.40853344 -12.05402394 123.40853344 -19.1875 116.9375 C-22 115 -22 115 -22.9375 112.8125 C-22.958125 112.214375 -22.97875 111.61625 -23 111 C-22 110 -22 110 -18.4375 109.625 C-12.58660862 109.7192004 -8.44464354 112.52532398 -4.41015625 116.609375 C-2.30281579 119.04651145 -0.32928173 121.57529697 1.64453125 124.12109375 C5.55626163 128.93349342 8.81716565 131.79910333 15 133 C20.99573909 133.47585231 26.2016125 132.50328565 32 131 C32.0825 129.989375 32.165 128.97875 32.25 127.9375 C32.83901244 123.61898782 34.77478291 120.70721167 37 117 C35.75605469 116.70867187 34.51210937 116.41734375 33.23046875 116.1171875 C17.68980784 112.34686629 3.57983066 107.25381641 -5.375 93.0625 C-12.89845046 79.4744399 -14.73681891 61.21982191 -11.05859375 46.140625 C-9.25565942 41.68698158 -7.07087462 37.96680133 -4.125 34.1875 C-1.67732389 31.21180218 -1.67732389 31.21180218 -2.1875 27.9375 C-2.32027344 27.36515625 -2.45304687 26.7928125 -2.58984375 26.203125 C-4.2527781 17.2707919 -3.25561241 8.41033205 0 0 Z " fill="#FDFDFD" transform="translate(53,49)"/>
<path d="M0 0 C74.25 0 148.5 0 225 0 C225 34.98 225 69.96 225 106 C224.67 106 224.34 106 224 106 C223.82984375 104.76765625 223.6596875 103.5353125 223.484375 102.265625 C219.13740123 72.01754958 205.07447268 44.42698457 180.40356445 25.66064453 C169.97672826 18.15283673 157.43837584 11.32766938 145 8 C144.34612305 7.82243164 143.69224609 7.64486328 143.01855469 7.46191406 C113.28222149 -0.31649158 82.18770426 3.16838011 55.54052734 18.54150391 C49.94693308 21.89486017 44.90468661 25.70000078 40 30 C38.80890625 30.9590625 38.80890625 30.9590625 37.59375 31.9375 C15.14376901 50.69318032 4.92720496 77.85503111 1 106 C0.67 106 0.34 106 0 106 C0 71.02 0 36.04 0 0 Z " fill="#FDFDFD" transform="translate(0,0)"/>
</svg>
