<svg version="1.1" id="Layer_1" xmlns="http://www.w3.org/2000/svg" xmlns:xlink="http://www.w3.org/1999/xlink" x="0px" y="0px"
	 width="100%" viewBox="0 0 222 227" enable-background="new 0 0 222 227" xml:space="preserve">
<path fill="#FEFDFD" opacity="1.000000" stroke="none" 
	d="
M1.000000,200.000000 
	C1.000000,133.758301 1.000000,67.516617 1.000000,1.000000 
	C40.020466,1.000000 79.041573,1.000000 118.321259,1.257951 
	C114.287666,6.046231 109.936440,10.522594 105.727310,15.128807 
	C103.497253,17.569241 101.966751,20.940653 99.317581,22.640676 
	C94.913574,25.466805 89.896454,27.361694 85.063026,29.478622 
	C83.740707,30.057768 81.971771,30.593937 80.715347,30.190943 
	C71.363701,27.191439 62.135830,27.899431 53.030937,30.950605 
	C51.666294,31.407917 50.066555,33.255352 49.833855,34.667118 
	C48.010406,45.729652 50.242889,55.946751 57.035507,65.455894 
	C56.996799,67.222145 56.904945,68.580887 56.543797,70.195229 
	C55.089367,75.593513 53.904236,80.736191 52.399498,85.945679 
	C50.326523,87.260262 48.573151,88.508026 46.858665,89.834076 
	C46.897549,89.912369 46.744865,89.827209 46.442551,89.897598 
	C45.767944,90.662308 45.395653,91.356628 44.672672,92.065918 
	C41.527538,95.377533 38.733097,98.674179 35.658714,102.178032 
	C34.005241,105.837288 29.006392,108.748985 33.955208,113.420822 
	C35.823269,115.202988 37.415623,116.819420 39.229050,118.129936 
	C42.543495,120.525169 45.817764,123.067276 49.422291,124.946930 
	C54.024361,127.346786 58.937122,129.150833 63.757298,131.191483 
	C63.798618,131.171295 63.757664,131.091385 63.765560,131.410980 
	C64.181328,132.375397 64.589203,133.020233 65.254761,133.896240 
	C67.290787,136.110504 69.069115,138.093567 70.937042,140.453247 
	C71.333107,142.552628 71.639572,144.275406 71.756363,146.364838 
	C71.367035,150.487549 71.167374,154.243576 70.884277,158.419403 
	C71.138687,160.790192 71.618004,162.729126 71.786102,164.694672 
	C72.183273,169.338715 75.057571,170.644592 78.930756,169.510056 
	C85.720917,167.521088 92.370987,165.056198 99.094154,162.834290 
	C100.550613,162.352951 102.101288,161.630981 103.551788,161.744598 
	C111.515472,162.368439 119.461487,163.217682 127.432091,164.312317 
	C129.987732,167.114548 132.203201,170.088623 135.119446,171.985123 
	C145.904526,178.998840 150.659103,177.194427 155.045044,164.632935 
	C155.627579,163.035416 156.378036,161.792999 156.417511,160.528381 
	C156.571106,155.605301 158.829971,152.123245 163.059341,149.748398 
	C163.580261,149.455887 163.853455,148.722168 164.194763,148.160339 
	C164.148056,148.127777 164.133255,148.240677 164.412247,148.169037 
	C164.877350,147.780258 165.063461,147.463089 165.189697,147.122330 
	C165.129807,147.098724 165.128952,147.227463 165.414551,147.146133 
	C165.908707,146.738113 166.117294,146.411438 166.586365,145.945343 
	C166.962509,145.646469 167.078156,145.487015 167.300476,145.369965 
	C167.407150,145.412399 167.476547,145.004410 167.625916,144.967468 
	C167.775299,144.930527 167.894562,144.646805 168.158554,144.584534 
	C168.604706,144.020187 168.786850,143.518097 168.982178,143.016083 
	C168.995331,143.016144 168.994766,142.989899 169.269531,142.846008 
	C169.720139,142.124649 169.895981,141.547165 170.168213,140.865173 
	C170.264572,140.760651 170.151535,140.499725 170.486481,140.397919 
	C173.106903,139.248260 175.378998,138.169937 177.680862,137.159378 
	C181.552521,135.459641 185.443085,133.802979 189.617462,131.934952 
	C191.854767,124.959030 186.480103,121.034409 183.669418,115.755653 
	C182.821991,114.619568 182.092667,113.790428 181.494186,112.567902 
	C181.597580,111.074173 181.570114,109.973816 181.658371,108.487335 
	C181.590271,106.040802 181.406464,103.980392 181.246613,101.587952 
	C181.156311,100.829536 181.042038,100.403160 180.977631,99.630463 
	C180.760071,98.453865 180.492630,97.623581 180.249176,96.756599 
	C180.273193,96.719894 180.267197,96.632393 180.274048,96.260445 
	C179.247269,93.235802 178.213623,90.583107 177.144318,87.571487 
	C174.340073,83.375679 171.571472,79.538788 168.568100,75.428360 
	C159.260361,65.653473 147.878403,61.759735 135.066727,62.331551 
	C126.909210,62.695641 119.090263,64.748596 113.462936,71.978256 
	C111.664452,73.912247 110.185059,75.767654 108.687881,77.668381 
	C108.670090,77.713715 108.581100,77.753326 108.260498,77.861893 
	C106.861176,80.301559 105.782455,82.632652 104.444107,85.274307 
	C104.103897,88.362221 104.023308,91.139580 103.645676,94.107201 
	C101.130524,101.080688 103.932495,106.700562 107.604507,112.486755 
	C111.474373,115.649811 115.224693,118.472641 119.033722,121.634285 
	C122.078316,125.582664 125.269875,125.640854 129.376785,122.094849 
	C134.266006,122.709732 138.183151,121.841011 141.649826,116.921318 
	C139.443283,116.921318 138.067596,116.811623 136.715668,116.944260 
	C133.935959,117.216972 131.064041,118.251823 128.422379,117.813637 
	C124.846954,117.220566 121.452209,115.538200 117.851059,114.146317 
	C117.722160,113.969482 117.299210,113.857010 117.264801,113.522881 
	C116.897316,112.645889 116.564232,112.103020 116.091095,111.250793 
	C114.628418,106.965607 113.356445,102.971817 111.955917,99.023621 
	C111.461121,97.628731 110.652412,96.345207 110.259262,94.758690 
	C111.346008,93.844643 112.456482,93.342934 112.918091,92.490036 
	C114.176315,90.165291 115.160461,87.692215 116.251915,85.249069 
	C116.250633,85.220238 116.193542,85.211685 116.423294,85.048744 
	C116.999840,84.258896 117.346634,83.631989 117.991020,82.801422 
	C124.496780,78.138542 131.674957,76.831192 139.356842,76.183273 
	C140.040192,76.219849 140.429306,76.277657 140.857300,76.688980 
	C148.867996,80.088997 155.502670,84.794220 159.902039,92.663498 
	C160.646484,94.662735 161.346237,96.326225 161.996811,98.343224 
	C162.627899,100.131516 163.308167,101.566299 163.906036,103.370880 
	C163.317291,106.188370 162.810944,108.636063 162.203247,111.462814 
	C160.357819,116.439140 158.613724,121.036407 156.615173,125.772079 
	C156.179642,126.246948 155.998566,126.583412 155.864502,126.915833 
	C155.911499,126.911781 155.858078,126.834007 155.569733,126.973541 
	C154.594940,127.777351 153.908493,128.441635 152.841827,129.110291 
	C148.718918,130.220276 144.685242,131.033890 144.956787,136.644897 
	C139.495621,138.991333 134.247086,141.074158 128.552963,143.085449 
	C119.265892,143.401459 111.549438,139.265884 103.186874,136.593140 
	C101.779633,135.719315 100.586105,135.121124 99.354591,134.536087 
	C99.316605,134.549255 99.262680,134.489609 99.105354,134.211578 
	C96.683212,132.260544 94.418396,130.587540 91.996368,128.659790 
	C91.255295,127.908928 90.671432,127.412811 90.048874,126.930695 
	C90.010170,126.944695 90.090225,126.963821 90.077171,126.680664 
	C89.756958,126.198235 89.449791,125.998970 89.169159,125.767700 
	C89.195679,125.735695 89.189270,125.652802 89.106087,125.327484 
	C86.350098,120.999588 83.677292,116.997009 81.002274,112.997208 
	C81.000061,113.000000 81.005104,112.995964 80.982498,112.649719 
	C80.312874,111.153015 79.665848,110.002563 78.758331,108.735611 
	C78.073708,108.114540 77.649574,107.609970 77.519577,106.970978 
	C77.515663,103.557396 77.217621,100.278236 76.992989,96.559578 
	C77.022675,93.746613 76.978958,91.373138 77.032913,88.696526 
	C77.117508,87.971909 77.104431,87.550423 77.299484,86.870361 
	C77.385765,85.164207 77.263908,83.716644 77.483971,82.109138 
	C78.554291,79.300690 79.282700,76.652176 80.253342,73.718842 
	C81.681572,70.329094 82.867569,67.224167 84.354004,63.954529 
	C89.803459,55.511440 96.138214,48.450489 105.093994,44.142616 
	C105.475159,44.024036 105.757164,43.741627 106.341370,43.314358 
	C107.076973,43.067009 107.510368,42.964523 108.149338,43.146393 
	C111.144157,44.958683 112.065857,42.969681 113.233200,40.687576 
	C120.705055,38.290543 127.980522,37.114140 135.581802,37.963554 
	C144.250595,38.932259 152.577927,40.731014 160.086609,45.885124 
	C160.775101,47.145969 161.388123,48.073360 161.863632,49.054321 
	C161.817200,49.071598 161.908249,49.035305 162.412872,48.997612 
	C163.653275,48.955048 164.480118,48.913887 165.571106,48.935688 
	C166.198608,49.383060 166.561981,49.767467 166.798508,50.447784 
	C168.778885,52.830982 170.886078,54.918278 172.998413,57.410416 
	C173.343307,58.775482 173.683044,59.735714 174.022797,60.695946 
	C174.826889,60.147583 175.630997,59.599224 176.699921,59.251938 
	C177.681625,60.545971 178.398499,61.638931 179.054962,63.069820 
	C179.143311,66.152512 178.990799,68.977127 179.680359,71.578560 
	C179.828491,72.137413 183.020660,71.889412 185.000656,72.325020 
	C187.114014,77.253548 189.037277,81.870148 190.960541,86.486748 
	C191.490189,86.396019 192.019836,86.305283 192.549469,86.214546 
	C192.337692,81.875900 192.125916,77.537247 191.949829,72.768753 
	C192.101532,71.039940 191.923004,69.622459 192.389023,68.464348 
	C193.761276,65.054153 192.363373,63.528427 188.942200,62.700199 
	C188.207413,60.943130 187.652908,59.474651 187.420593,57.946270 
	C189.790009,54.550285 188.570770,53.475643 184.932678,53.898285 
	C184.816498,53.801361 184.810944,53.498821 184.864136,53.031342 
	C184.920135,50.907455 185.133347,49.218555 184.883560,47.601158 
	C184.296661,43.800781 182.604126,43.320721 178.961090,45.711464 
	C178.046890,44.399792 177.445419,43.229881 177.031860,41.918827 
	C176.768173,41.537590 176.316544,41.297493 175.535095,40.955917 
	C174.763107,38.903198 173.826614,36.917881 173.958389,35.006199 
	C174.868500,21.803057 168.954041,17.314728 156.898376,22.265656 
	C156.131668,22.580523 155.438187,23.207169 154.656342,23.323364 
	C153.117554,23.552057 151.463455,23.865461 149.994736,23.533916 
	C146.448685,22.733442 143.026810,21.359438 139.469223,20.640594 
	C136.475464,20.035681 134.888962,18.640026 133.334961,15.866397 
	C131.238846,12.125141 127.851486,9.108045 125.023216,5.775961 
	C123.676216,4.189009 122.340714,2.592293 121.000000,1.000000 
	C154.950027,1.000000 188.900040,1.000000 223.000000,1.000000 
	C223.000000,66.020821 223.000000,131.041748 222.739746,196.534195 
	C222.310150,197.043579 222.140808,197.081467 221.585709,197.057159 
	C219.561584,197.676254 217.923233,198.357559 215.726654,199.270996 
	C207.154968,194.445084 198.798050,196.196304 193.577728,204.693451 
	C192.834274,207.967499 192.393219,210.994690 191.901337,214.356232 
	C191.943481,215.129761 192.036423,215.568909 192.125854,216.357132 
	C193.448029,218.794510 194.773712,220.882828 196.242004,223.278046 
	C198.923096,225.056625 201.461548,226.528320 204.000000,228.000000 
	C198.311966,228.000000 192.623917,228.000000 186.608002,227.599304 
	C186.289719,220.141022 186.882904,213.010452 186.013870,206.062775 
	C185.679062,203.386093 182.204834,200.927307 179.838425,198.714157 
	C174.034164,193.285767 167.309296,200.650955 161.000000,196.451675 
	C161.000000,207.726517 161.000000,217.863251 161.000000,228.000000 
	C159.285645,228.000000 157.571289,228.000000 155.304947,227.676270 
	C154.677856,227.134094 154.602768,226.915649 154.559937,226.278229 
	C154.592178,216.400528 154.592178,206.941803 154.592178,196.210999 
	C151.831879,197.326584 150.011780,198.062180 147.279617,199.166412 
	C147.767838,199.440689 147.059784,199.035873 146.345352,198.642624 
	C139.301025,194.764984 133.470520,196.554077 127.773743,201.212387 
	C122.924072,205.177979 121.307465,212.934525 124.796539,218.510284 
	C127.176033,222.312851 131.529266,224.880310 135.000000,228.000000 
	C126.979103,228.000000 118.958199,228.000000 110.530205,227.604462 
	C113.856018,222.905441 112.032249,217.731827 112.160141,212.948730 
	C112.424049,203.078842 112.241982,203.073975 121.724564,201.998123 
	C121.724564,200.464005 121.724564,198.922028 121.724564,196.912430 
	C118.493080,196.912430 115.580605,196.912430 112.636269,196.912430 
	C113.126747,191.729416 113.783836,191.066284 118.234184,190.833221 
	C122.764221,190.595947 122.764221,190.595963 123.388802,185.954437 
	C113.740173,182.486923 106.601082,187.110321 106.466942,197.063477 
	C106.350410,205.710678 106.372475,214.362244 106.527695,223.008392 
	C106.557716,224.680542 107.486053,226.336548 108.000000,228.000000 
	C105.299988,228.000000 102.599968,228.000000 99.616379,227.603302 
	C99.540932,217.800873 99.749069,208.395126 100.015747,198.744965 
	C100.037224,198.337158 100.000175,198.173767 99.849037,197.622589 
	C97.372726,196.872543 94.789383,196.057083 94.536575,200.106384 
	C93.500992,199.525635 92.659142,199.025742 91.792999,198.572266 
	C85.595070,195.327271 78.823997,196.156097 73.835327,200.759796 
	C68.946129,205.271667 67.553108,211.108902 70.907539,217.613449 
	C72.884613,221.447159 76.255791,224.561920 79.000000,228.000000 
	C71.645752,228.000000 64.291496,228.000000 56.478996,227.531738 
	C56.014263,222.073761 55.929745,217.082596 56.022846,212.094711 
	C56.119419,206.920807 58.639225,203.051147 62.675072,203.185516 
	C67.288628,203.339142 68.199371,200.818771 68.735039,197.790649 
	C62.798428,197.790649 56.923222,197.790649 51.023979,197.790649 
	C51.023979,207.103302 51.023979,216.553177 50.959885,226.332428 
	C50.930531,227.107895 50.965267,227.553940 51.000000,228.000000 
	C43.312424,228.000000 35.624847,228.000000 27.696779,227.708893 
	C39.325706,225.043671 46.953915,214.791901 45.509998,204.037872 
	C38.373795,203.679367 31.355358,203.275772 24.331430,203.027649 
	C23.249821,202.989441 22.142958,203.666122 20.993149,204.255783 
	C20.938524,204.499374 21.055826,204.984680 20.976330,205.321426 
	C20.956841,206.111862 21.016850,206.565567 21.060390,207.292389 
	C21.354887,207.681732 21.665854,207.797943 22.428999,208.006775 
	C26.258783,208.034760 29.636393,207.970123 33.342045,207.965302 
	C34.109818,207.993958 34.549545,207.962814 35.376118,208.011810 
	C36.813755,208.252869 37.864548,208.413773 38.946999,208.579544 
	C36.721691,217.394058 30.470673,222.328186 22.422476,221.931686 
	C14.743685,221.553391 8.590846,215.564850 7.282445,207.195923 
	C6.145581,199.924210 10.974033,191.985489 18.086967,189.359360 
	C20.084547,188.621841 22.037428,187.763245 24.156748,187.087036 
	C26.437731,188.341370 29.725216,186.530029 31.166874,189.975403 
	C31.329983,190.109116 31.751007,190.135117 31.969324,190.406036 
	C33.567825,191.497223 34.948006,192.317520 36.517162,193.250122 
	C37.603359,191.808380 38.552898,190.548019 40.194687,188.368820 
	C38.002243,187.819290 36.499981,187.442764 34.687256,186.905563 
	C32.584949,185.514343 30.793110,184.283783 28.692919,182.929810 
	C25.577459,182.840302 22.770351,182.874191 19.575447,182.893433 
	C18.534548,182.987366 17.861113,183.027603 17.231409,183.214890 
	C8.673398,185.760162 4.355829,192.417252 1.000000,200.000000 
M191.974838,61.647026 
	C192.311066,61.098808 192.647308,60.550594 192.983536,60.002377 
	C192.762299,59.887081 192.541061,59.771786 192.319839,59.656494 
	C192.084106,60.210899 191.848373,60.765305 191.974838,61.647026 
M128.224228,125.123825 
	C128.110794,125.234528 127.938835,125.330009 127.904678,125.461327 
	C127.882248,125.547585 128.054413,125.780853 128.146896,125.785072 
	C128.785263,125.814217 129.425568,125.800415 130.065262,125.800415 
	C130.066833,125.627655 130.068405,125.454903 130.069992,125.282143 
	C129.629852,125.199348 129.189713,125.116547 128.224228,125.123825 
M191.416901,57.483677 
	C191.416901,57.483677 191.522263,57.421906 191.416901,57.483677 
z"/>
<path fill="#F15D2B" opacity="1.000000" stroke="none" 
	d="
M56.982368,65.048378 
	C50.242889,55.946751 48.010406,45.729652 49.833855,34.667118 
	C50.066555,33.255352 51.666294,31.407917 53.030937,30.950605 
	C62.135830,27.899431 71.363701,27.191439 80.715347,30.190943 
	C81.971771,30.593937 83.740707,30.057768 85.063026,29.478622 
	C89.896454,27.361694 94.913574,25.466805 99.317581,22.640676 
	C101.966751,20.940653 103.497253,17.569241 105.727310,15.128807 
	C109.936440,10.522594 114.287666,6.046231 118.789917,1.257951 
	C119.444443,1.000000 119.888893,1.000000 120.666672,1.000000 
	C122.340714,2.592293 123.676216,4.189009 125.023216,5.775961 
	C127.851486,9.108045 131.238846,12.125141 133.334961,15.866397 
	C134.888962,18.640026 136.475464,20.035681 139.469223,20.640594 
	C143.026810,21.359438 146.448685,22.733442 149.994736,23.533916 
	C151.463455,23.865461 153.117554,23.552057 154.656342,23.323364 
	C155.438187,23.207169 156.131668,22.580523 156.898376,22.265656 
	C168.954041,17.314728 174.868500,21.803057 173.958389,35.006199 
	C173.826614,36.917881 174.763107,38.903198 175.634216,41.181213 
	C176.233536,41.819138 176.493790,42.003132 176.843933,42.059967 
	C177.445419,43.229881 178.046890,44.399792 178.899399,46.066696 
	C181.037277,48.875401 182.924103,51.187111 184.810944,53.498821 
	C184.810944,53.498821 184.816498,53.801361 184.961014,54.222893 
	C185.769821,55.765003 186.434113,56.885582 187.098389,58.006165 
	C187.652908,59.474651 188.207413,60.943130 188.906082,63.036224 
	C189.640396,66.104912 190.230576,68.548981 190.487396,70.953033 
	C188.800354,70.566650 187.446655,70.220284 186.182907,69.896919 
	C185.997162,68.060371 185.828720,66.394882 185.541702,63.557003 
	C184.367020,65.787689 183.786987,66.889137 182.982254,67.738541 
	C181.543488,65.901634 180.329437,64.316757 179.115387,62.731888 
	C178.398499,61.638931 177.681625,60.545971 176.602325,59.012787 
	C175.594849,58.003391 174.949799,57.434216 174.148346,56.565872 
	C171.636414,54.228432 169.280884,52.190155 166.925339,50.151878 
	C166.561981,49.767467 166.198608,49.383060 165.364441,48.653267 
	C163.266144,47.389145 161.638626,46.470409 160.011124,45.551674 
	C152.577927,40.731014 144.250595,38.932259 135.581802,37.963554 
	C127.980522,37.114140 120.705055,38.290543 112.882141,40.696991 
	C110.835472,41.615185 109.389626,42.238609 107.943771,42.862038 
	C107.510368,42.964523 107.076973,43.067009 106.123856,43.263786 
	C105.302200,43.467941 105.099098,43.674843 104.994827,43.978794 
	C96.138214,48.450489 89.803459,55.511440 84.214737,63.653015 
	C82.886467,62.631992 81.980049,60.967163 81.112175,60.987026 
	C74.163361,61.146038 67.209511,61.490673 60.289913,62.131523 
	C59.107491,62.241035 58.080933,64.033424 56.982368,65.048378 
z"/>
<path fill="#595959" opacity="1.000000" stroke="none" 
	d="
M33.014000,207.905502 
	C29.636393,207.970123 26.258783,208.034760 22.333569,207.808670 
	C21.605810,207.271774 21.369442,207.105545 21.076859,207.019257 
	C21.016850,206.565567 20.956841,206.111862 21.144855,205.237534 
	C21.277843,204.548660 21.162806,204.280426 21.047771,204.012192 
	C22.142958,203.666122 23.249821,202.989441 24.331430,203.027649 
	C31.355358,203.275772 38.373795,203.679367 45.509998,204.037872 
	C46.953915,214.791901 39.325706,225.043671 27.228144,227.708893 
	C23.969406,228.000000 20.938814,228.000000 17.349457,227.664062 
	C8.150596,224.127808 3.537491,217.458038 1.000000,209.000000 
	C1.000000,206.299988 1.000000,203.599976 1.000000,200.449982 
	C4.355829,192.417252 8.673398,185.760162 17.231409,183.214890 
	C17.861113,183.027603 18.534548,182.987366 19.761581,183.171448 
	C21.560614,184.629501 22.785713,185.794830 24.010815,186.960175 
	C22.037428,187.763245 20.084547,188.621841 18.086967,189.359360 
	C10.974033,191.985489 6.145581,199.924210 7.282445,207.195923 
	C8.590846,215.564850 14.743685,221.553391 22.422476,221.931686 
	C30.470673,222.328186 36.721691,217.394058 38.946999,208.579544 
	C37.864548,208.413773 36.813755,208.252869 35.344227,207.720917 
	C34.606873,207.039734 34.288254,206.729568 33.969643,206.419403 
	C33.651096,206.914764 33.332550,207.410141 33.014000,207.905502 
z"/>
<path fill="#595959" opacity="1.000000" stroke="none" 
	d="
M135.460632,228.000000 
	C131.529266,224.880310 127.176033,222.312851 124.796539,218.510284 
	C121.307465,212.934525 122.924072,205.177979 127.773743,201.212387 
	C133.470520,196.554077 139.301025,194.764984 146.345352,198.642624 
	C147.059784,199.035873 147.767838,199.440689 147.279617,199.166412 
	C150.011780,198.062180 151.831879,197.326584 154.592178,196.210999 
	C154.592178,206.941803 154.592178,216.400528 154.165253,226.372375 
	C151.492203,227.257004 149.246109,227.628494 147.000000,228.000000 
	C143.307098,228.000000 139.614182,228.000000 135.460632,228.000000 
M143.203537,203.927994 
	C135.094757,201.222351 128.206116,206.074539 129.460709,213.655853 
	C130.226746,218.284927 133.166367,221.076874 137.640686,221.794510 
	C142.047119,222.501251 145.422714,220.297501 147.474060,216.499924 
	C149.630951,212.506927 148.180176,208.050919 143.203537,203.927994 
z"/>
<path fill="#595959" opacity="1.000000" stroke="none" 
	d="
M99.957214,198.989380 
	C99.749069,208.395126 99.540932,217.800873 99.166397,227.603302 
	C92.645599,228.000000 86.291206,228.000000 79.468399,228.000000 
	C76.255791,224.561920 72.884613,221.447159 70.907539,217.613449 
	C67.553108,211.108902 68.946129,205.271667 73.835327,200.759796 
	C78.823997,196.156097 85.595070,195.327271 91.792999,198.572266 
	C92.659142,199.025742 93.500992,199.525635 94.536575,200.106384 
	C94.789383,196.057083 97.372726,196.872543 99.682518,197.709808 
	C99.564102,198.290039 99.419640,198.458603 99.445030,198.490051 
	C99.593750,198.674255 99.782173,198.826416 99.957214,198.989380 
M82.121513,203.073227 
	C75.537163,205.258240 75.009514,210.911972 74.665840,216.373505 
	C75.825089,217.324829 76.901482,218.773041 78.305496,219.243500 
	C81.285881,220.242172 84.596893,221.694565 87.482132,221.214981 
	C92.383720,220.400253 94.846878,215.514481 93.996193,210.489151 
	C93.145195,205.461945 89.309319,202.858597 82.121513,203.073227 
z"/>
<path fill="#585858" opacity="1.000000" stroke="none" 
	d="
M192.129379,216.008072 
	C192.036423,215.568909 191.943481,215.129761 192.162170,214.162003 
	C192.782349,212.730835 193.090881,211.828247 193.293488,211.235504 
	C194.717346,211.846619 196.116180,212.446991 197.645844,213.358826 
	C200.215683,222.324265 206.577576,224.311493 214.858643,218.899353 
	C218.692322,218.584549 218.817627,217.105438 216.706085,214.447937 
	C216.601868,207.917603 214.154053,204.148605 209.595016,203.076477 
	C204.415863,201.858536 200.562729,204.175842 197.318024,210.135498 
	C195.893906,208.190155 194.887009,206.318375 193.880112,204.446594 
	C198.798050,196.196304 207.154968,194.445084 215.726654,199.270996 
	C217.923233,198.357559 219.561584,197.676254 221.605942,197.517532 
	C222.010788,202.512772 222.275757,207.005615 221.938705,211.452820 
	C221.548477,216.602173 220.628815,221.711426 219.625977,226.884399 
	C218.897339,226.998810 218.481705,227.066895 218.045273,226.753662 
	C217.791489,225.362366 217.558502,224.352402 217.325516,223.342453 
	C216.905014,223.315979 216.484512,223.289520 216.064011,223.263046 
	C215.709335,224.842026 215.354660,226.421021 215.000000,228.000000 
	C211.638718,228.000000 208.277420,228.000000 204.458069,228.000000 
	C201.461548,226.528320 198.923096,225.056625 196.538162,223.230713 
	C195.170914,220.587006 193.650146,218.297546 192.129379,216.008072 
M199.482513,221.589737 
	C199.482513,221.589737 199.413681,221.474594 199.482513,221.589737 
z"/>
<path fill="#585858" opacity="1.000000" stroke="none" 
	d="
M161.333328,228.000000 
	C161.000000,217.863251 161.000000,207.726517 161.000000,196.451675 
	C167.309296,200.650955 174.034164,193.285767 179.838425,198.714157 
	C182.204834,200.927307 185.679062,203.386093 186.013870,206.062775 
	C186.882904,213.010452 186.289719,220.141022 186.140060,227.599304 
	C184.611115,228.000000 183.222214,228.000000 181.395996,227.531830 
	C180.954880,221.600281 181.019531,216.135742 180.926849,210.673889 
	C180.844040,205.793839 178.064941,202.683685 173.989609,202.662979 
	C169.784653,202.641602 167.216751,205.569427 167.111908,210.625610 
	C167.005600,215.752533 166.977509,220.881104 166.544968,226.003418 
	C165.116531,226.665268 164.058273,227.332642 163.000000,228.000000 
	C162.555557,228.000000 162.111099,228.000000 161.333328,228.000000 
z"/>
<path fill="#585858" opacity="1.000000" stroke="none" 
	d="
M108.333328,228.000000 
	C107.486053,226.336548 106.557716,224.680542 106.527695,223.008392 
	C106.372475,214.362244 106.350410,205.710678 106.466942,197.063477 
	C106.601082,187.110321 113.740173,182.486923 123.388802,185.954437 
	C122.764221,190.595963 122.764221,190.595947 118.234184,190.833221 
	C113.783836,191.066284 113.126747,191.729416 112.636269,196.912430 
	C115.580605,196.912430 118.493080,196.912430 121.724564,196.912430 
	C121.724564,198.922028 121.724564,200.464005 121.724564,201.998123 
	C112.241982,203.073975 112.424049,203.078842 112.160141,212.948730 
	C112.032249,217.731827 113.856018,222.905441 110.061554,227.604462 
	C109.555557,228.000000 109.111107,228.000000 108.333328,228.000000 
z"/>
<path fill="#FBFBFB" opacity="1.000000" stroke="none" 
	d="
M166.915146,226.008942 
	C166.977509,220.881104 167.005600,215.752533 167.111908,210.625610 
	C167.216751,205.569427 169.784653,202.641602 173.989609,202.662979 
	C178.064941,202.683685 180.844040,205.793839 180.926849,210.673889 
	C181.019531,216.135742 180.954880,221.600281 180.979340,227.531830 
	C176.310745,228.000000 171.621490,228.000000 166.515167,227.711517 
	C166.370453,226.951675 166.642807,226.480316 166.915146,226.008942 
z"/>
<path fill="#575757" opacity="1.000000" stroke="none" 
	d="
M51.023979,226.003021 
	C51.023979,216.553177 51.023979,207.103302 51.023979,197.790649 
	C56.923222,197.790649 62.798428,197.790649 68.735039,197.790649 
	C68.199371,200.818771 67.288628,203.339142 62.675072,203.185516 
	C58.639225,203.051147 56.119419,206.920807 56.022846,212.094711 
	C55.929745,217.082596 56.014263,222.073761 56.010376,227.531738 
	C55.250000,228.000000 54.500000,228.000000 53.335461,227.681091 
	C52.288609,226.909119 51.656296,226.456070 51.023979,226.003021 
z"/>
<path fill="#F9F9F9" opacity="1.000000" stroke="none" 
	d="
M1.000000,209.469376 
	C3.537491,217.458038 8.150596,224.127808 16.895348,227.664062 
	C11.734493,228.000000 6.468986,228.000000 1.000000,228.000000 
	C1.000000,221.980652 1.000000,215.959702 1.000000,209.469376 
z"/>
<path fill="#767676" opacity="1.000000" stroke="none" 
	d="
M219.938995,226.838089 
	C220.628815,221.711426 221.548477,216.602173 221.938705,211.452820 
	C222.275757,207.005615 222.010788,202.512772 221.991714,197.579742 
	C222.140808,197.081467 222.310150,197.043579 222.739746,197.002853 
	C223.000000,206.687561 223.000000,216.375122 222.616333,226.528595 
	C221.468094,226.942368 220.703552,226.890228 219.938995,226.838089 
z"/>
<path fill="#4E4E4E" opacity="1.000000" stroke="none" 
	d="
M215.375000,228.000000 
	C215.354660,226.421021 215.709335,224.842026 216.064011,223.263046 
	C216.484512,223.289520 216.905014,223.315979 217.325516,223.342453 
	C217.558502,224.352402 217.791489,225.362366 218.038391,226.970184 
	C218.052292,227.568039 218.000000,228.000000 218.000000,228.000000 
	C217.250000,228.000000 216.500000,228.000000 215.375000,228.000000 
z"/>
<path fill="#ADADAD" opacity="1.000000" stroke="none" 
	d="
M147.444168,228.000000 
	C149.246109,227.628494 151.492203,227.257004 154.132996,226.791351 
	C154.602768,226.915649 154.677856,227.134094 154.876480,227.676270 
	C152.629440,228.000000 150.258896,228.000000 147.444168,228.000000 
z"/>
<path fill="#4A4A4A" opacity="1.000000" stroke="none" 
	d="
M166.544968,226.003418 
	C166.642807,226.480316 166.370453,226.951675 166.049042,227.711517 
	C165.250000,228.000000 164.500000,228.000000 163.375000,228.000000 
	C164.058273,227.332642 165.116531,226.665268 166.544968,226.003418 
z"/>
<path fill="#BCBCBC" opacity="1.000000" stroke="none" 
	d="
M218.498627,228.000000 
	C218.000000,228.000000 218.052292,227.568039 218.059174,227.351517 
	C218.481705,227.066895 218.897339,226.998810 219.625977,226.884399 
	C220.703552,226.890228 221.468094,226.942368 222.616333,226.997253 
	C221.665741,227.333344 220.331497,227.666672 218.498627,228.000000 
z"/>
<path fill="#494949" opacity="1.000000" stroke="none" 
	d="
M50.959888,226.332428 
	C51.656296,226.456070 52.288609,226.909119 52.960461,227.681091 
	C52.555553,228.000000 52.111111,228.000000 51.333336,228.000000 
	C50.965267,227.553940 50.930531,227.107895 50.959888,226.332428 
z"/>
<path fill="#F7B323" opacity="1.000000" stroke="none" 
	d="
M70.967720,157.999619 
	C71.167374,154.243576 71.367035,150.487549 72.214905,146.364838 
	C76.960869,146.331879 81.062866,146.992554 85.155624,146.939545 
	C98.884186,146.761826 112.609955,146.346832 126.334854,145.954605 
	C127.231812,145.928970 128.112411,145.330688 129.333878,144.999084 
	C130.111511,144.998978 130.555878,144.998581 131.171631,145.226044 
	C131.896957,144.970505 132.450882,144.487091 133.421265,144.004517 
	C141.048340,145.173294 148.258987,146.341217 155.379822,147.494583 
	C155.047440,148.336975 154.524811,149.661499 153.716675,151.258499 
	C153.284805,153.686905 153.138443,155.842850 152.523911,157.999146 
	C125.026413,157.999542 97.997063,157.999588 70.967720,157.999619 
z"/>
<path fill="#F8BC24" opacity="1.000000" stroke="none" 
	d="
M70.884277,158.419403 
	C97.997063,157.999588 125.026413,157.999542 152.569061,158.378677 
	C153.370621,160.505325 153.658875,162.252792 153.517090,164.000519 
	C149.686676,164.516296 146.296982,165.305481 142.881653,165.438904 
	C141.005142,165.512207 138.996017,164.684006 137.208038,163.896103 
	C135.002884,162.924377 132.965561,161.571762 130.855713,160.383743 
	C130.693726,160.690079 130.531723,160.996414 130.369720,161.302750 
	C131.957550,162.349716 133.545380,163.396667 135.133209,164.443619 
	C134.896362,164.791595 134.659531,165.139557 134.422684,165.487534 
	C132.086319,164.988205 129.749939,164.488876 127.413574,163.989548 
	C119.461487,163.217682 111.515472,162.368439 103.551788,161.744598 
	C102.101288,161.630981 100.550613,162.352951 99.094154,162.834290 
	C92.370987,165.056198 85.720917,167.521088 78.930756,169.510056 
	C75.057571,170.644592 72.183273,169.338715 71.786102,164.694672 
	C71.618004,162.729126 71.138687,160.790192 70.884277,158.419403 
z"/>
<path fill="#F5982B" opacity="1.000000" stroke="none" 
	d="
M81.004478,112.994415 
	C83.677292,116.997009 86.350098,120.999588 88.811310,125.525467 
	C87.734596,126.363869 86.869469,126.678993 85.913345,126.828957 
	C85.545555,126.772308 85.268784,126.880829 84.647598,126.986626 
	C83.455437,126.010292 82.607666,125.036682 82.014526,124.355492 
	C75.707382,124.769348 69.126945,125.201126 62.619965,125.628090 
	C62.993221,127.529640 63.354599,129.370651 63.715977,131.211670 
	C58.937122,129.150833 54.024361,127.346786 49.422291,124.946930 
	C45.817764,123.067276 42.543495,120.525169 39.229050,118.129936 
	C37.415623,116.819420 35.823269,115.202988 34.286034,113.291962 
	C37.606411,113.472336 42.090870,111.189949 43.051094,116.833176 
	C43.105221,117.151299 45.093822,117.435204 46.087852,117.244362 
	C49.346550,116.618713 52.537167,115.264595 55.798714,115.104950 
	C62.738064,114.765274 69.708885,115.113838 76.658875,114.909874 
	C78.124878,114.866852 79.556831,113.663254 81.004478,112.994415 
z"/>
<path fill="#F1672A" opacity="1.000000" stroke="none" 
	d="
M140.818420,76.335464 
	C140.429306,76.277657 140.040192,76.219849 139.288574,75.809959 
	C133.620316,74.975754 128.314575,74.493637 123.004242,74.005615 
	C122.999657,73.999718 122.988297,73.989159 122.958290,73.654068 
	C122.173798,72.099228 121.419312,70.879486 120.449509,69.311638 
	C119.206612,73.848030 116.658165,73.400238 113.782021,71.899681 
	C119.090263,64.748596 126.909210,62.695641 135.066727,62.331551 
	C147.878403,61.759735 159.260361,65.653473 168.157806,75.510483 
	C166.560638,77.045647 165.138992,78.225136 162.537018,80.383904 
	C162.706482,78.129395 162.812378,76.720673 162.994415,74.298851 
	C155.857727,74.827721 148.476318,75.373138 141.096405,75.937950 
	C140.994202,75.945778 140.910675,76.197548 140.818420,76.335464 
z"/>
<path fill="#F7AB25" opacity="1.000000" stroke="none" 
	d="
M129.000610,144.998779 
	C128.112411,145.330688 127.231812,145.928970 126.334854,145.954605 
	C112.609955,146.346832 98.884186,146.761826 85.155624,146.939545 
	C81.062866,146.992554 76.960869,146.331879 72.404572,145.998169 
	C71.639572,144.275406 71.333107,142.552628 71.253845,140.234497 
	C73.256828,138.759583 75.016609,137.165009 76.811195,137.124802 
	C84.396790,136.954910 91.980309,137.136490 99.262680,134.489609 
	C99.262680,134.489609 99.316605,134.549255 99.371277,134.911835 
	C100.750824,135.805847 102.075699,136.337296 103.400581,136.868744 
	C111.549438,139.265884 119.265892,143.401459 128.553467,143.392426 
	C128.999924,144.180191 129.000259,144.589493 129.000610,144.998779 
z"/>
<path fill="#F58D26" opacity="1.000000" stroke="none" 
	d="
M81.002274,112.997208 
	C79.556831,113.663254 78.124878,114.866852 76.658875,114.909874 
	C69.708885,115.113838 62.738064,114.765274 55.798714,115.104950 
	C52.537167,115.264595 49.346550,116.618713 46.087852,117.244362 
	C45.093822,117.435204 43.105221,117.151299 43.051094,116.833176 
	C42.090870,111.189949 37.606411,113.472336 34.110016,112.988274 
	C29.006392,108.748985 34.005241,105.837288 35.969368,102.332146 
	C38.357269,103.695190 40.120094,106.275475 41.957726,106.329903 
	C50.838364,106.592903 59.738941,106.075249 68.632851,106.059586 
	C71.496414,106.054543 74.361206,106.737289 77.225433,107.105400 
	C77.649574,107.609970 78.073708,108.114540 78.752144,109.125183 
	C79.672661,110.752831 80.338882,111.874397 81.005104,112.995964 
	C81.005104,112.995964 81.000061,113.000000 81.002274,112.997208 
M75.775597,112.873734 
	C75.412323,112.297653 75.049049,111.721581 74.685783,111.145508 
	C74.291145,111.512604 73.896507,111.879700 73.501869,112.246796 
	C74.054352,112.484802 74.606834,112.722809 75.775597,112.873734 
z"/>
<path fill="#F48528" opacity="1.000000" stroke="none" 
	d="
M77.519577,106.970978 
	C74.361206,106.737289 71.496414,106.054543 68.632851,106.059586 
	C59.738941,106.075249 50.838364,106.592903 41.957726,106.329903 
	C40.120094,106.275475 38.357269,103.695190 36.249306,102.124939 
	C38.733097,98.674179 41.527538,95.377533 44.885273,92.346695 
	C47.180557,96.925957 50.697899,97.176384 54.702274,97.060928 
	C62.102482,96.847549 69.513222,96.999374 76.919579,96.999069 
	C77.217621,100.278236 77.515663,103.557396 77.519577,106.970978 
z"/>
<path fill="#F59A28" opacity="1.000000" stroke="none" 
	d="
M156.869629,125.633675 
	C158.613724,121.036407 160.357819,116.439140 162.430893,111.689453 
	C162.946091,111.810524 163.229996,112.060493 163.302399,112.361366 
	C163.721298,114.101715 163.605469,116.279022 164.639709,117.459053 
	C165.379303,118.302887 167.639114,117.912003 169.219406,117.900803 
	C172.424103,117.878075 175.643539,117.897362 178.825882,117.584045 
	C180.513336,117.417908 182.135742,116.591133 183.787521,116.062592 
	C186.480103,121.034409 191.854767,124.959030 189.236847,131.895233 
	C187.710648,131.366837 186.856857,130.684937 186.364883,129.995102 
	C187.400604,128.815323 188.074493,127.643494 188.748383,126.471672 
	C188.233826,126.286362 187.719269,126.101059 187.204712,125.915756 
	C186.802170,127.276154 186.399628,128.636551 185.579376,129.997528 
	C175.579193,127.712929 166.001633,126.079277 156.307770,130.978455 
	C156.104568,129.105667 155.981323,127.969841 155.858078,126.834007 
	C155.858078,126.834007 155.911499,126.911781 156.138184,126.795059 
	C156.533127,126.330109 156.701385,125.981895 156.869629,125.633675 
M181.567566,119.929703 
	C181.889542,119.625015 182.211533,119.320320 182.533508,119.015625 
	C182.324417,118.834442 182.115341,118.653267 181.906250,118.472092 
	C181.603973,118.981293 181.301682,119.490494 180.520981,120.025291 
	C180.247025,120.142220 179.973068,120.259155 179.699112,120.376091 
	C179.785522,120.499207 179.871948,120.622314 179.958359,120.745430 
	C180.305573,120.497055 180.652802,120.248680 181.567566,119.929703 
M177.585510,120.516708 
	C177.585510,120.516708 177.477188,120.580788 177.585510,120.516708 
z"/>
<path fill="#F6A128" opacity="1.000000" stroke="none" 
	d="
M99.105354,134.211578 
	C91.980309,137.136490 84.396790,136.954910 76.811195,137.124802 
	C75.016609,137.165009 73.256828,138.759583 71.164246,139.857880 
	C69.069115,138.093567 67.290787,136.110504 65.249718,133.580261 
	C64.577209,132.385864 64.167435,131.738617 63.757664,131.091385 
	C63.757664,131.091385 63.798618,131.171295 63.757298,131.191483 
	C63.354599,129.370651 62.993221,127.529640 62.619965,125.628090 
	C69.126945,125.201126 75.707382,124.769348 82.014526,124.355492 
	C82.607666,125.036682 83.455437,126.010292 84.652557,126.992836 
	C85.001923,127.001762 85.011688,127.011383 85.024811,127.260765 
	C85.194748,127.772942 85.351562,128.035736 85.508377,128.298538 
	C85.670082,127.867813 85.831779,127.437080 85.996368,127.003548 
	C85.999260,127.000740 86.004349,126.994118 86.004349,126.994118 
	C86.869469,126.678993 87.734596,126.363869 88.894493,125.850777 
	C89.189270,125.652802 89.195679,125.735695 89.228966,126.030426 
	C89.538239,126.538055 89.814232,126.750938 90.090225,126.963821 
	C90.090225,126.963821 90.010170,126.944695 89.917503,127.216873 
	C89.707321,128.098297 89.589806,128.707550 89.472298,129.316803 
	C90.366058,129.182709 91.259827,129.048630 92.153587,128.914536 
	C94.418396,130.587540 96.683212,132.260544 99.105354,134.211578 
z"/>
<path fill="#F7AB27" opacity="1.000000" stroke="none" 
	d="
M129.333878,144.999084 
	C129.000259,144.589493 128.999924,144.180191 128.999084,143.463943 
	C134.247086,141.074158 139.495621,138.991333 145.274353,136.521912 
	C147.156509,135.314331 148.508423,134.493347 149.940735,134.063873 
	C151.999435,135.303604 153.916687,136.368591 155.970932,136.947098 
	C158.755157,137.731171 161.644379,138.142441 165.193359,138.855179 
	C166.745880,137.132263 168.946930,135.810440 170.151535,140.499725 
	C170.151535,140.499725 170.264572,140.760651 169.913055,141.032166 
	C169.372620,141.865738 169.183685,142.427826 168.994766,142.989899 
	C168.994766,142.989899 168.995331,143.016144 168.765076,143.148773 
	C168.321396,143.736542 168.107971,144.191666 167.894562,144.646805 
	C167.894562,144.646805 167.775299,144.930527 167.591980,145.032623 
	C167.408661,145.134735 167.193817,145.327545 167.193817,145.327545 
	C167.078156,145.487015 166.962509,145.646469 166.298676,146.028870 
	C165.543289,146.577042 165.336121,146.902252 165.128952,147.227463 
	C165.128952,147.227463 165.129807,147.098724 164.909088,147.190262 
	C164.503342,147.601425 164.318298,147.921051 164.133270,148.240677 
	C164.133255,148.240677 164.148056,148.127777 163.790100,148.134338 
	C160.288834,149.089279 157.145508,150.037643 154.002182,150.986023 
	C154.524811,149.661499 155.047440,148.336975 155.379822,147.494583 
	C148.258987,146.341217 141.048340,145.173294 133.123108,144.024078 
	C131.939072,144.361237 131.469650,144.679703 131.000244,144.998169 
	C130.555878,144.998581 130.111511,144.998978 129.333878,144.999084 
z"/>
<path fill="#F27129" opacity="1.000000" stroke="none" 
	d="
M77.091339,87.128944 
	C77.104431,87.550423 77.117508,87.971909 76.665680,88.696671 
	C75.466209,89.001747 74.731659,89.003540 73.998550,89.002670 
	C74.000000,89.000000 73.994675,89.002937 73.979950,88.587646 
	C72.747101,87.448662 71.554321,86.154045 70.306526,86.098656 
	C64.452339,85.838783 58.583019,85.919662 52.719105,85.878868 
	C53.904236,80.736191 55.089367,75.593513 56.933128,70.245438 
	C63.430954,71.624214 69.270149,73.208382 74.275993,74.566460 
	C76.624672,74.335983 78.317894,74.169823 80.011108,74.003662 
	C79.282700,76.652176 78.554291,79.300690 77.443451,81.716705 
	C76.834358,80.510887 76.607704,79.537560 76.381050,78.564232 
	C75.761635,78.726120 75.142212,78.888016 74.522797,79.049904 
	C75.378983,81.742920 76.235161,84.435936 77.091339,87.128944 
z"/>
<path fill="#F1742B" opacity="1.000000" stroke="none" 
	d="
M140.857315,76.688980 
	C140.910675,76.197548 140.994202,75.945778 141.096405,75.937950 
	C148.476318,75.373138 155.857727,74.827721 162.994415,74.298851 
	C162.812378,76.720673 162.706482,78.129395 162.537018,80.383904 
	C165.138992,78.225136 166.560638,77.045647 168.392578,75.784019 
	C171.571472,79.538788 174.340073,83.375679 176.823578,87.699867 
	C171.156769,88.187164 165.775070,88.187164 159.857330,88.187164 
	C159.857330,88.684113 159.857330,90.505928 159.857330,92.327744 
	C155.502670,84.794220 148.867996,80.088997 140.857315,76.688980 
z"/>
<path fill="#F37C29" opacity="1.000000" stroke="none" 
	d="
M73.997108,89.005333 
	C74.731659,89.003540 75.466209,89.001747 76.568001,88.999809 
	C76.978958,91.373138 77.022675,93.746613 76.992989,96.559578 
	C69.513222,96.999374 62.102482,96.847549 54.702274,97.060928 
	C50.697899,97.176384 47.180557,96.925957 45.235962,92.331726 
	C45.395653,91.356628 45.767944,90.662308 46.543549,90.049332 
	C47.046722,90.193565 47.146591,90.256454 47.246460,90.319351 
	C47.104237,90.131493 46.962009,89.943642 46.819778,89.755791 
	C48.573151,88.508026 50.326523,87.260262 52.399498,85.945679 
	C58.583019,85.919662 64.452339,85.838783 70.306526,86.098656 
	C71.554321,86.154045 72.747101,87.448662 73.843964,88.641418 
	C73.814156,89.075424 73.905632,89.040375 73.997108,89.005333 
z"/>
<path fill="#F6A326" opacity="1.000000" stroke="none" 
	d="
M170.486481,140.397919 
	C168.946930,135.810440 166.745880,137.132263 165.193359,138.855179 
	C161.644379,138.142441 158.755157,137.731171 155.970932,136.947098 
	C153.916687,136.368591 151.999435,135.303604 150.113663,133.796387 
	C151.211472,131.793579 152.216766,130.449753 153.222046,129.105911 
	C153.908493,128.441635 154.594940,127.777351 155.569733,126.973541 
	C155.981323,127.969841 156.104568,129.105667 156.307770,130.978455 
	C166.001633,126.079277 175.579193,127.712929 185.580826,129.999054 
	C186.000000,130.000000 186.003052,130.003052 186.003052,130.003052 
	C186.856857,130.684937 187.710648,131.366837 188.945068,132.088455 
	C185.443085,133.802979 181.552521,135.459641 177.680862,137.159378 
	C175.378998,138.169937 173.106903,139.248260 170.486481,140.397919 
z"/>
<path fill="#F16529" opacity="1.000000" stroke="none" 
	d="
M80.253342,73.718842 
	C78.317894,74.169823 76.624672,74.335983 74.275993,74.566460 
	C69.270149,73.208382 63.430954,71.624214 57.202427,69.989838 
	C56.904945,68.580887 56.996799,67.222145 57.035511,65.455894 
	C58.080933,64.033424 59.107491,62.241035 60.289913,62.131523 
	C67.209511,61.490673 74.163361,61.146038 81.112175,60.987026 
	C81.980049,60.967163 82.886467,62.631992 83.914299,63.817734 
	C82.867569,67.224167 81.681572,70.329094 80.253342,73.718842 
z"/>
<path fill="#F8C325" opacity="1.000000" stroke="none" 
	d="
M127.432091,164.312317 
	C129.749939,164.488876 132.086319,164.988205 134.422684,165.487534 
	C134.659531,165.139557 134.896362,164.791595 135.133209,164.443619 
	C133.545380,163.396667 131.957550,162.349716 130.369720,161.302750 
	C130.531723,160.996414 130.693726,160.690079 130.855713,160.383743 
	C132.965561,161.571762 135.002884,162.924377 137.208038,163.896103 
	C138.996017,164.684006 141.005142,165.512207 142.881653,165.438904 
	C146.296982,165.305481 149.686676,164.516296 153.623825,164.207840 
	C154.342270,164.680206 154.584183,164.867828 154.886322,164.977814 
	C150.659103,177.194427 145.904526,178.998840 135.119446,171.985123 
	C132.203201,170.088623 129.987732,167.114548 127.432091,164.312317 
z"/>
<path fill="#F5912B" opacity="1.000000" stroke="none" 
	d="
M183.669418,115.755646 
	C182.135742,116.591133 180.513336,117.417908 178.825882,117.584045 
	C175.643539,117.897362 172.424103,117.878075 169.219406,117.900803 
	C167.639114,117.912003 165.379303,118.302887 164.639709,117.459053 
	C163.605469,116.279022 163.721298,114.101715 163.302399,112.361366 
	C163.229996,112.060493 162.946091,111.810524 162.532242,111.310394 
	C162.810944,108.636063 163.317291,106.188370 164.227264,103.530792 
	C168.920731,106.965332 173.682510,109.304939 178.982544,108.131935 
	C179.995316,110.186295 180.679321,111.573792 181.363342,112.961288 
	C182.092667,113.790428 182.821991,114.619568 183.669418,115.755646 
z"/>
<path fill="#F37D28" opacity="1.000000" stroke="none" 
	d="
M159.902039,92.663498 
	C159.857330,90.505928 159.857330,88.684113 159.857330,88.187164 
	C165.775070,88.187164 171.156769,88.187164 176.859222,88.058792 
	C178.213623,90.583107 179.247269,93.235802 179.989349,96.518639 
	C179.295975,98.505463 178.894150,99.862137 178.896545,99.854065 
	C173.099274,99.212654 167.572632,98.601181 162.045990,97.989716 
	C161.346237,96.326225 160.646484,94.662735 159.902039,92.663498 
z"/>
<path fill="#F0702C" opacity="1.000000" stroke="none" 
	d="
M123.008827,74.011520 
	C128.314575,74.493637 133.620316,74.975754 138.994324,75.831192 
	C131.674957,76.831192 124.496780,78.138542 117.687500,82.865921 
	C116.788773,83.826607 116.491158,84.519150 116.193542,85.211685 
	C116.193542,85.211685 116.250633,85.220238 115.990509,85.099632 
	C114.871628,84.979027 114.012871,84.979027 113.456696,84.979027 
	C113.030907,83.486786 112.628532,82.076576 112.226151,80.666374 
	C110.697052,81.251495 109.086380,81.688202 107.665016,82.469353 
	C106.555946,83.078865 105.682106,84.116402 104.703735,84.963745 
	C105.782455,82.632652 106.861176,80.301559 108.374283,78.043022 
	C108.994858,78.106468 109.181061,78.097359 109.367264,78.088242 
	C109.146729,77.933182 108.926201,77.778122 108.705666,77.623055 
	C110.185059,75.767654 111.664452,73.912247 113.462936,71.978256 
	C116.658165,73.400238 119.206612,73.848030 120.449509,69.311638 
	C121.419312,70.879486 122.173798,72.099228 122.619659,73.716476 
	C121.840851,75.336464 121.370682,76.558952 120.900505,77.781433 
	C121.268364,77.859779 121.636215,77.938126 122.004074,78.016479 
	C122.338989,76.681488 122.673912,75.346504 123.008827,74.011520 
z"/>
<path fill="#F38A26" opacity="1.000000" stroke="none" 
	d="
M109.987015,95.010841 
	C110.652412,96.345207 111.461121,97.628731 111.955917,99.023621 
	C113.356445,102.971817 114.628418,106.965607 115.906219,111.560928 
	C113.069252,112.169106 110.277100,112.157814 107.484955,112.146523 
	C103.932495,106.700562 101.130524,101.080688 103.848846,94.373184 
	C106.228371,94.636215 108.107689,94.823524 109.987015,95.010841 
M110.483032,109.582008 
	C110.483032,109.582008 110.422028,109.477547 110.483032,109.582008 
z"/>
<path fill="#F39829" opacity="1.000000" stroke="none" 
	d="
M107.604507,112.486755 
	C110.277100,112.157814 113.069252,112.169106 116.046280,111.870277 
	C116.564232,112.103020 116.897316,112.645889 116.917908,113.560349 
	C115.862190,114.237251 115.118965,114.542557 114.375740,114.847862 
	C114.506538,115.153534 114.637337,115.459213 114.768135,115.764885 
	C115.838737,115.284309 116.909348,114.803726 117.979950,114.323151 
	C121.452209,115.538200 124.846954,117.220566 128.422379,117.813637 
	C131.064041,118.251823 133.935959,117.216972 136.715668,116.944260 
	C138.067596,116.811623 139.443283,116.921318 141.649826,116.921318 
	C138.183151,121.841011 134.266006,122.709732 128.942734,122.027481 
	C125.088295,121.777969 122.031654,121.536720 118.975021,121.295464 
	C115.224693,118.472641 111.474373,115.649811 107.604507,112.486755 
z"/>
<path fill="#F38627" opacity="1.000000" stroke="none" 
	d="
M161.996811,98.343231 
	C167.572632,98.601181 173.099274,99.212654 178.896545,99.854065 
	C178.894150,99.862137 179.295975,98.505463 179.982483,96.890587 
	C180.267197,96.632393 180.273193,96.719894 180.179611,97.106361 
	C180.366608,98.320808 180.647171,99.148796 180.927750,99.976776 
	C181.042038,100.403160 181.156311,100.829536 180.953735,101.786377 
	C180.938812,104.502380 181.240738,106.687927 181.542664,108.873466 
	C181.570114,109.973816 181.597580,111.074173 181.494186,112.567902 
	C180.679321,111.573792 179.995316,110.186295 178.982544,108.131935 
	C173.682510,109.304939 168.920731,106.965332 164.309662,103.160995 
	C163.308167,101.566299 162.627899,100.131516 161.996811,98.343231 
z"/>
<path fill="#F27A29" opacity="1.000000" stroke="none" 
	d="
M110.259262,94.758690 
	C108.107689,94.823524 106.228371,94.636215 104.145874,94.182922 
	C104.023308,91.139580 104.103897,88.362221 104.444115,85.274307 
	C105.682106,84.116402 106.555946,83.078865 107.665016,82.469353 
	C109.086380,81.688202 110.697052,81.251495 112.226151,80.666374 
	C112.628532,82.076576 113.030907,83.486786 113.456696,84.979027 
	C114.012871,84.979027 114.871628,84.979027 115.991791,85.128464 
	C115.160461,87.692215 114.176315,90.165291 112.918091,92.490036 
	C112.456482,93.342934 111.346008,93.844643 110.259262,94.758690 
z"/>
<path fill="#F07430" opacity="1.000000" stroke="none" 
	d="
M183.206970,67.990585 
	C183.786987,66.889137 184.367020,65.787689 185.541702,63.557003 
	C185.828720,66.394882 185.997162,68.060371 186.182907,69.896919 
	C187.446655,70.220284 188.800354,70.566650 190.598267,71.245758 
	C191.333054,72.118523 191.623596,72.658562 191.914124,73.198601 
	C192.125916,77.537247 192.337692,81.875900 192.549469,86.214546 
	C192.019836,86.305283 191.490189,86.396019 190.960541,86.486748 
	C189.037277,81.870148 187.114014,77.253548 184.982742,72.011169 
	C184.252151,70.253792 183.729568,69.122192 183.206970,67.990585 
z"/>
<path fill="#F3B81D" opacity="1.000000" stroke="none" 
	d="
M155.045044,164.632935 
	C154.584183,164.867828 154.342270,164.680206 154.053864,164.207611 
	C153.658875,162.252792 153.370621,160.505325 153.037216,158.378311 
	C153.138443,155.842850 153.284805,153.686905 153.716675,151.258499 
	C157.145508,150.037643 160.288834,149.089279 163.836807,148.166916 
	C163.853455,148.722168 163.580261,149.455887 163.059341,149.748398 
	C158.829971,152.123245 156.571106,155.605301 156.417511,160.528381 
	C156.378036,161.792999 155.627579,163.035416 155.045044,164.632935 
z"/>
<path fill="#5B5B5B" opacity="1.000000" stroke="none" 
	d="
M24.156746,187.087036 
	C22.785713,185.794830 21.560614,184.629501 20.149378,183.186127 
	C22.770351,182.874191 25.577459,182.840302 28.731709,183.285522 
	C29.720488,185.790314 30.362123,187.815994 31.003761,189.841675 
	C29.725216,186.530029 26.437731,188.341370 24.156746,187.087036 
z"/>
<path fill="#FAF8F3" opacity="1.000000" stroke="none" 
	d="
M182.982254,67.738541 
	C183.729568,69.122192 184.252151,70.253792 184.792664,71.699249 
	C183.020660,71.889412 179.828491,72.137413 179.680359,71.578560 
	C178.990799,68.977127 179.143311,66.152512 179.054962,63.069817 
	C180.329437,64.316757 181.543488,65.901634 182.982254,67.738541 
z"/>
<path fill="#F8F4ED" opacity="1.000000" stroke="none" 
	d="
M184.864136,53.031342 
	C182.924103,51.187111 181.037277,48.875401 179.212128,46.208458 
	C182.604126,43.320721 184.296661,43.800781 184.883560,47.601158 
	C185.133347,49.218555 184.920135,50.907455 184.864136,53.031342 
z"/>
<path fill="#FAF3EA" opacity="1.000000" stroke="none" 
	d="
M152.841827,129.110291 
	C152.216766,130.449753 151.211472,131.793579 150.033264,133.404877 
	C148.508423,134.493347 147.156509,135.314331 145.487000,136.258286 
	C144.685242,131.033890 148.718918,130.220276 152.841827,129.110291 
z"/>
<path fill="#5B5B5B" opacity="1.000000" stroke="none" 
	d="
M34.997726,187.066223 
	C36.499981,187.442764 38.002243,187.819290 40.194687,188.368820 
	C38.552898,190.548019 37.603359,191.808380 36.517162,193.250122 
	C34.948006,192.317520 33.567825,191.497223 32.285202,190.267670 
	C33.254417,188.927673 34.126072,187.996948 34.997726,187.066223 
z"/>
<path fill="#505050" opacity="1.000000" stroke="none" 
	d="
M193.577728,204.693451 
	C194.887009,206.318375 195.893906,208.190155 197.319519,210.492126 
	C197.663849,211.630676 197.589432,212.339035 197.515015,213.047379 
	C196.116180,212.446991 194.717346,211.846619 193.293488,211.235504 
	C193.090881,211.828247 192.782349,212.730835 192.212982,213.827637 
	C192.393219,210.994690 192.834274,207.967499 193.577728,204.693451 
z"/>
<path fill="#FBF6EC" opacity="1.000000" stroke="none" 
	d="
M119.033722,121.634285 
	C122.031654,121.536720 125.088295,121.777969 128.578979,122.086594 
	C125.269875,125.640854 122.078316,125.582664 119.033722,121.634285 
z"/>
<path fill="#595959" opacity="1.000000" stroke="none" 
	d="
M34.687256,186.905563 
	C34.126072,187.996948 33.254417,188.927673 32.066887,189.996765 
	C31.751007,190.135117 31.329983,190.109116 31.166872,189.975403 
	C30.362123,187.815994 29.720488,185.790314 29.040060,183.408920 
	C30.793110,184.283783 32.584949,185.514343 34.687256,186.905563 
z"/>
<path fill="#F8F4ED" opacity="1.000000" stroke="none" 
	d="
M191.949829,72.768753 
	C191.623596,72.658562 191.333054,72.118523 190.931641,71.285767 
	C190.230576,68.548981 189.640396,66.104912 189.086349,63.324814 
	C192.363373,63.528427 193.761276,65.054153 192.389023,68.464348 
	C191.923004,69.622459 192.101532,71.039940 191.949829,72.768753 
z"/>
<path fill="#F37C29" opacity="1.000000" stroke="none" 
	d="
M77.299484,86.870361 
	C76.235161,84.435936 75.378983,81.742920 74.522797,79.049904 
	C75.142212,78.888016 75.761635,78.726120 76.381050,78.564232 
	C76.607704,79.537560 76.834358,80.510887 77.101532,81.876648 
	C77.263908,83.716644 77.385765,85.164207 77.299484,86.870361 
z"/>
<path fill="#F9F6EF" opacity="1.000000" stroke="none" 
	d="
M166.798508,50.447784 
	C169.280884,52.190155 171.636414,54.228432 173.821228,56.608879 
	C173.431442,56.969223 173.212357,56.987396 172.993286,57.005577 
	C170.886078,54.918278 168.778885,52.830982 166.798508,50.447784 
z"/>
<path fill="#505050" opacity="1.000000" stroke="none" 
	d="
M192.125854,216.357132 
	C193.650146,218.297546 195.170914,220.587006 196.395538,222.923813 
	C194.773712,220.882828 193.448029,218.794510 192.125854,216.357132 
z"/>
<path fill="#F8F4ED" opacity="1.000000" stroke="none" 
	d="
M187.420593,57.946266 
	C186.434113,56.885582 185.769821,55.765003 185.077179,54.319817 
	C188.570770,53.475643 189.790009,54.550285 187.420593,57.946266 
z"/>
<path fill="#FAF8F3" opacity="1.000000" stroke="none" 
	d="
M172.998413,57.410412 
	C173.212357,56.987396 173.431442,56.969223 173.977631,56.908043 
	C174.949799,57.434216 175.594849,58.003391 176.337494,58.811714 
	C175.630997,59.599224 174.826889,60.147583 174.022797,60.695946 
	C173.683044,59.735714 173.343307,58.775482 172.998413,57.410412 
z"/>
<path fill="#FAF1EA" opacity="1.000000" stroke="none" 
	d="
M108.149338,43.146393 
	C109.389626,42.238609 110.835472,41.615185 112.632385,40.982346 
	C112.065857,42.969681 111.144157,44.958683 108.149338,43.146393 
z"/>
<path fill="#F5912B" opacity="1.000000" stroke="none" 
	d="
M181.658371,108.487335 
	C181.240738,106.687927 180.938812,104.502380 180.929779,102.118408 
	C181.406464,103.980392 181.590271,106.040802 181.658371,108.487335 
z"/>
<path fill="#F9F6EF" opacity="1.000000" stroke="none" 
	d="
M160.086609,45.885124 
	C161.638626,46.470409 163.266144,47.389145 165.100296,48.590302 
	C164.480118,48.913887 163.653275,48.955048 162.413223,48.998104 
	C162.000000,49.000000 162.001129,49.000755 162.001129,49.000755 
	C161.388123,48.073360 160.775101,47.145969 160.086609,45.885124 
z"/>
<path fill="#F5982B" opacity="1.000000" stroke="none" 
	d="
M91.996368,128.659790 
	C91.259827,129.048630 90.366058,129.182709 89.472298,129.316803 
	C89.589806,128.707550 89.707321,128.098297 89.956207,127.202866 
	C90.671432,127.412811 91.255295,127.908928 91.996368,128.659790 
z"/>
<path fill="#F38A26" opacity="1.000000" stroke="none" 
	d="
M117.851059,114.146317 
	C116.909348,114.803726 115.838737,115.284309 114.768135,115.764885 
	C114.637337,115.459213 114.506538,115.153534 114.375740,114.847862 
	C115.118965,114.542557 115.862190,114.237251 116.952309,113.894478 
	C117.299210,113.857010 117.722160,113.969482 117.851059,114.146317 
z"/>
<path fill="#F5982B" opacity="1.000000" stroke="none" 
	d="
M80.982498,112.649719 
	C80.338882,111.874397 79.672661,110.752831 79.012634,109.241692 
	C79.665848,110.002563 80.312874,111.153015 80.982498,112.649719 
z"/>
<path fill="#F6A128" opacity="1.000000" stroke="none" 
	d="
M103.186874,136.593140 
	C102.075699,136.337296 100.750824,135.805847 99.409256,134.898651 
	C100.586105,135.121124 101.779633,135.719315 103.186874,136.593140 
z"/>
<path fill="#F8F4ED" opacity="1.000000" stroke="none" 
	d="
M191.793732,61.483368 
	C191.848373,60.765305 192.084106,60.210899 192.319839,59.656494 
	C192.541061,59.771786 192.762299,59.887081 192.983536,60.002377 
	C192.647308,60.550594 192.311066,61.098808 191.793732,61.483368 
z"/>
<path fill="#F27A29" opacity="1.000000" stroke="none" 
	d="
M116.423294,85.048744 
	C116.491158,84.519150 116.788773,83.826607 117.389908,83.069572 
	C117.346634,83.631989 116.999840,84.258896 116.423294,85.048744 
z"/>
<path fill="#464646" opacity="1.000000" stroke="none" 
	d="
M33.342049,207.965302 
	C33.332550,207.410141 33.651096,206.914764 33.969643,206.419403 
	C34.288254,206.729568 34.606873,207.039734 34.957382,207.640778 
	C34.549545,207.962814 34.109818,207.993958 33.342049,207.965302 
z"/>
<path fill="#FBF6EC" opacity="1.000000" stroke="none" 
	d="
M128.486908,125.078781 
	C129.189713,125.116547 129.629852,125.199348 130.069992,125.282143 
	C130.068405,125.454903 130.066833,125.627655 130.065262,125.800415 
	C129.425568,125.800415 128.785263,125.814217 128.146896,125.785072 
	C128.054413,125.780853 127.882248,125.547585 127.904678,125.461327 
	C127.938835,125.330009 128.110794,125.234528 128.486908,125.078781 
z"/>
<path fill="#F5982B" opacity="1.000000" stroke="none" 
	d="
M63.765560,131.410980 
	C64.167435,131.738617 64.577209,132.385864 64.992027,133.349091 
	C64.589203,133.020233 64.181328,132.375397 63.765560,131.410980 
z"/>
<path fill="#F37D28" opacity="1.000000" stroke="none" 
	d="
M180.977631,99.630463 
	C180.647171,99.148796 180.366608,98.320808 180.155609,97.143066 
	C180.492630,97.623581 180.760071,98.453865 180.977631,99.630463 
z"/>
<path fill="#F8F4ED" opacity="1.000000" stroke="none" 
	d="
M177.031860,41.918823 
	C176.493790,42.003132 176.233536,41.819138 175.964050,41.282684 
	C176.316544,41.297493 176.768173,41.537590 177.031860,41.918823 
z"/>
<path fill="#FAF1EA" opacity="1.000000" stroke="none" 
	d="
M105.093994,44.142616 
	C105.099098,43.674843 105.302200,43.467941 105.821648,43.408653 
	C105.757164,43.741627 105.475159,44.024036 105.093994,44.142616 
z"/>
<path fill="#F3B81D" opacity="1.000000" stroke="none" 
	d="
M168.158554,144.584534 
	C168.107971,144.191666 168.321396,143.736542 168.751907,143.148712 
	C168.786850,143.518097 168.604706,144.020187 168.158554,144.584534 
z"/>
<path fill="#F6A326" opacity="1.000000" stroke="none" 
	d="
M169.269531,142.846008 
	C169.183685,142.427826 169.372620,141.865738 169.816696,141.136673 
	C169.895981,141.547165 169.720139,142.124649 169.269531,142.846008 
z"/>
<path fill="#464646" opacity="1.000000" stroke="none" 
	d="
M21.060390,207.292389 
	C21.369442,207.105545 21.605810,207.271774 21.881390,207.716049 
	C21.665854,207.797943 21.354887,207.681732 21.060390,207.292389 
z"/>
<path fill="#F3B81D" opacity="1.000000" stroke="none" 
	d="
M164.412262,148.169037 
	C164.318298,147.921051 164.503342,147.601425 164.968994,147.213867 
	C165.063461,147.463089 164.877350,147.780258 164.412262,148.169037 
z"/>
<path fill="#F3B81D" opacity="1.000000" stroke="none" 
	d="
M165.414551,147.146133 
	C165.336121,146.902252 165.543289,146.577042 166.038177,146.168289 
	C166.117294,146.411438 165.908707,146.738113 165.414551,147.146133 
z"/>
<path fill="#F9F6EF" opacity="1.000000" stroke="none" 
	d="
M161.999664,48.999508 
	C161.908249,49.035305 161.817200,49.071598 161.863632,49.054321 
	C162.001129,49.000755 162.000000,49.000000 161.999664,48.999508 
z"/>
<path fill="#F3B81D" opacity="1.000000" stroke="none" 
	d="
M167.300476,145.369965 
	C167.193817,145.327545 167.408661,145.134735 167.442596,145.069580 
	C167.476547,145.004410 167.407150,145.412399 167.300476,145.369965 
z"/>
<path fill="#F8F4ED" opacity="1.000000" stroke="none" 
	d="
M191.469574,57.452789 
	C191.522263,57.421906 191.416901,57.483677 191.469574,57.452789 
z"/>
<path fill="#464646" opacity="1.000000" stroke="none" 
	d="
M20.993147,204.255783 
	C21.162806,204.280426 21.277843,204.548660 21.224354,204.900787 
	C21.055826,204.984680 20.938524,204.499374 20.993147,204.255783 
z"/>
<path fill="#F6A326" opacity="1.000000" stroke="none" 
	d="
M156.615173,125.772079 
	C156.701385,125.981895 156.533127,126.330109 156.091187,126.799103 
	C155.998566,126.583412 156.179642,126.246948 156.615173,125.772079 
z"/>
<path fill="#F5982B" opacity="1.000000" stroke="none" 
	d="
M90.077171,126.680664 
	C89.814232,126.750938 89.538239,126.538055 89.202438,126.062439 
	C89.449791,125.998970 89.756958,126.198235 90.077171,126.680664 
z"/>
<path fill="#464646" opacity="1.000000" stroke="none" 
	d="
M100.015739,198.744965 
	C99.782173,198.826416 99.593750,198.674255 99.445030,198.490051 
	C99.419640,198.458603 99.564102,198.290039 99.796616,198.097595 
	C100.000175,198.173767 100.037224,198.337158 100.015739,198.744965 
z"/>
<path fill="#FAFAFA" opacity="1.000000" stroke="none" 
	d="
M143.561676,204.107758 
	C148.180176,208.050919 149.630951,212.506927 147.474060,216.499924 
	C145.422714,220.297501 142.047119,222.501251 137.640686,221.794510 
	C133.166367,221.076874 130.226746,218.284927 129.460709,213.655853 
	C128.206116,206.074539 135.094757,201.222351 143.561676,204.107758 
z"/>
<path fill="#F9F9F9" opacity="1.000000" stroke="none" 
	d="
M82.526489,203.026474 
	C89.309319,202.858597 93.145195,205.461945 93.996193,210.489151 
	C94.846878,215.514481 92.383720,220.400253 87.482132,221.214981 
	C84.596893,221.694565 81.285881,220.242172 78.305496,219.243500 
	C76.901482,218.773041 75.825089,217.324829 74.665840,216.373505 
	C75.009514,210.911972 75.537163,205.258240 82.526489,203.026474 
z"/>
<path fill="#F9F9F9" opacity="1.000000" stroke="none" 
	d="
M197.645844,213.358826 
	C197.589432,212.339035 197.663849,211.630676 197.736740,210.565689 
	C200.562729,204.175842 204.415863,201.858536 209.595016,203.076477 
	C214.154053,204.148605 216.601868,207.917603 216.487274,214.695221 
	C215.648483,216.518539 215.044556,217.697021 214.440628,218.875519 
	C206.577576,224.311493 200.215683,222.324265 197.645844,213.358826 
z"/>
<path fill="#4E4E4E" opacity="1.000000" stroke="none" 
	d="
M214.858643,218.899353 
	C215.044556,217.697021 215.648483,216.518539 216.471222,215.092743 
	C218.817627,217.105438 218.692322,218.584549 214.858643,218.899353 
z"/>
<path fill="#505050" opacity="1.000000" stroke="none" 
	d="
M199.448090,221.532166 
	C199.413681,221.474594 199.482513,221.589737 199.448090,221.532166 
z"/>
<path fill="#F7AB25" opacity="1.000000" stroke="none" 
	d="
M131.171631,145.226044 
	C131.469650,144.679703 131.939072,144.361237 132.706650,144.023224 
	C132.450882,144.487091 131.896957,144.970505 131.171631,145.226044 
z"/>
<path fill="#F6A128" opacity="1.000000" stroke="none" 
	d="
M84.996964,126.995552 
	C85.268784,126.880829 85.545555,126.772308 85.913345,126.828957 
	C86.004349,126.994118 85.999260,127.000740 85.750961,127.003029 
	C85.502655,127.005318 85.011688,127.011383 85.011688,127.011383 
	C85.011688,127.011383 85.001923,127.001762 84.996964,126.995552 
z"/>
<path fill="#F5982B" opacity="1.000000" stroke="none" 
	d="
M75.467461,112.917267 
	C74.606834,112.722809 74.054352,112.484802 73.501877,112.246796 
	C73.896507,111.879700 74.291145,111.512604 74.685776,111.145508 
	C75.049049,111.721581 75.412323,112.297653 75.467461,112.917267 
z"/>
<path fill="#F6A326" opacity="1.000000" stroke="none" 
	d="
M185.998535,129.998474 
	C186.399628,128.636551 186.802170,127.276154 187.204712,125.915756 
	C187.719269,126.101059 188.233826,126.286362 188.748383,126.471672 
	C188.074493,127.643494 187.400604,128.815323 186.364883,129.995102 
	C186.003052,130.003052 186.000000,130.000000 185.998535,129.998474 
z"/>
<path fill="#F5912B" opacity="1.000000" stroke="none" 
	d="
M180.999390,119.999695 
	C181.301682,119.490494 181.603973,118.981293 181.906250,118.472092 
	C182.115341,118.653267 182.324417,118.834442 182.533508,119.015625 
	C182.211533,119.320320 181.889542,119.625015 181.283783,119.964851 
	C181.000000,120.000000 180.999390,119.999695 180.999390,119.999695 
z"/>
<path fill="#F5912B" opacity="1.000000" stroke="none" 
	d="
M181.000000,120.000153 
	C180.652802,120.248680 180.305573,120.497055 179.958359,120.745430 
	C179.871948,120.622314 179.785522,120.499207 179.699112,120.376083 
	C179.973068,120.259155 180.247025,120.142220 180.760193,120.012497 
	C180.999390,119.999695 181.000000,120.000000 181.000000,120.000153 
z"/>
<path fill="#F5912B" opacity="1.000000" stroke="none" 
	d="
M177.531342,120.548752 
	C177.477188,120.580788 177.585510,120.516708 177.531342,120.548752 
z"/>
<path fill="#F5982B" opacity="1.000000" stroke="none" 
	d="
M85.024811,127.260765 
	C85.011688,127.011383 85.502655,127.005318 85.748070,127.005836 
	C85.831779,127.437080 85.670082,127.867813 85.508377,128.298538 
	C85.351562,128.035736 85.194748,127.772942 85.024811,127.260765 
z"/>
<path fill="#F48528" opacity="1.000000" stroke="none" 
	d="
M73.998550,89.002663 
	C73.905632,89.040375 73.814156,89.075424 73.858681,89.056702 
	C73.994675,89.002937 74.000000,89.000000 73.998550,89.002663 
z"/>
<path fill="#F48528" opacity="1.000000" stroke="none" 
	d="
M46.858665,89.834076 
	C46.962009,89.943642 47.104237,90.131493 47.246460,90.319351 
	C47.146591,90.256454 47.046722,90.193565 46.845860,89.978943 
	C46.744865,89.827209 46.897549,89.912369 46.858665,89.834076 
z"/>
<path fill="#F1672A" opacity="1.000000" stroke="none" 
	d="
M123.004242,74.005615 
	C122.673912,75.346504 122.338989,76.681488 122.004074,78.016479 
	C121.636215,77.938126 121.268364,77.859779 120.900505,77.781433 
	C121.370682,76.558952 121.840851,75.336464 122.649658,74.051575 
	C122.988297,73.989159 122.999657,73.999718 123.004242,74.005615 
z"/>
<path fill="#F27A29" opacity="1.000000" stroke="none" 
	d="
M108.687881,77.668381 
	C108.926201,77.778122 109.146729,77.933182 109.367264,78.088242 
	C109.181061,78.097359 108.994858,78.106468 108.694878,77.934448 
	C108.581100,77.753326 108.670090,77.713715 108.687881,77.668381 
z"/>
<path fill="#F39829" opacity="1.000000" stroke="none" 
	d="
M110.452530,109.529778 
	C110.422028,109.477547 110.483032,109.582008 110.452530,109.529778 
z"/>
</svg>