<svg version="1.1" id="Layer_1" xmlns="http://www.w3.org/2000/svg" xmlns:xlink="http://www.w3.org/1999/xlink" x="0px" y="0px"
	 width="100%" viewBox="0 0 225 225" enable-background="new 0 0 225 225" xml:space="preserve">
<path fill="#FFFFFE" opacity="1.000000" stroke="none" 
	d="
M132.000000,226.000000 
	C88.000000,226.000000 44.500004,226.000000 1.000006,226.000000 
	C1.000004,151.000000 1.000004,76.000015 1.000002,1.000016 
	C75.999992,1.000011 150.999985,1.000011 225.999969,1.000005 
	C225.999985,75.999985 225.999985,150.999969 226.000000,225.999969 
	C194.833328,226.000000 163.666672,226.000000 132.000000,226.000000 
M38.032860,30.823885 
	C39.128448,42.918026 40.215660,55.012932 41.321396,67.106148 
	C43.532692,91.290627 45.746826,115.474861 47.974327,139.657852 
	C49.179379,152.740570 50.304985,165.832870 51.781406,178.885223 
	C51.955997,180.428741 53.878620,182.590286 55.409668,183.040131 
	C73.417725,188.330978 91.485153,193.425430 109.597404,198.349243 
	C112.006660,199.004196 114.903938,198.991516 117.314697,198.333542 
	C135.261627,193.435242 153.106979,188.162323 171.075653,183.348358 
	C174.551834,182.417068 175.564774,180.663300 175.826340,177.560333 
	C177.195419,161.318604 178.590561,145.078888 180.044830,128.844574 
	C181.528595,112.281281 183.126938,95.728249 184.609528,79.164856 
	C186.077011,62.770382 187.462646,46.368576 189.013016,29.289732 
	C188.667984,28.807043 188.322968,28.324354 187.055130,27.673820 
	C171.890472,27.653934 156.725815,27.607483 141.561172,27.619553 
	C107.402634,27.646742 73.244102,27.702913 38.599213,27.577440 
	C38.440308,28.372734 38.281399,29.168028 38.032860,30.823885 
z"/>
<path fill="#D3B62B" opacity="1.000000" stroke="none" 
	d="
M188.884186,29.969982 
	C187.462646,46.368576 186.077011,62.770382 184.609528,79.164856 
	C183.126938,95.728249 181.528595,112.281281 180.044830,128.844574 
	C178.590561,145.078888 177.195419,161.318604 175.826340,177.560333 
	C175.564774,180.663300 174.551834,182.417068 171.075653,183.348358 
	C153.106979,188.162323 135.261627,193.435242 117.314697,198.333542 
	C114.903938,198.991516 112.006660,199.004196 109.597404,198.349243 
	C91.485153,193.425430 73.417725,188.330978 55.409668,183.040131 
	C53.878620,182.590286 51.955997,180.428741 51.781406,178.885223 
	C50.304985,165.832870 49.179379,152.740570 47.974327,139.657852 
	C45.746826,115.474861 43.532692,91.290627 41.321396,67.106148 
	C40.215660,55.012932 39.128448,42.918026 38.320862,30.192547 
	C38.767765,28.956570 38.926670,28.351931 39.085571,27.747290 
	C73.244102,27.702913 107.402634,27.646742 141.561172,27.619553 
	C156.725815,27.607483 171.890472,27.653934 187.531311,28.064941 
	C188.299713,28.960699 188.591949,29.465340 188.884186,29.969982 
M108.520683,161.465317 
	C108.679733,160.662842 108.977234,159.860489 108.977859,159.057892 
	C109.002289,127.596313 109.010979,96.134712 108.958191,64.673203 
	C108.956131,63.448727 108.330849,62.225292 107.074715,60.822590 
	C102.482941,60.822590 97.891167,60.822590 92.521469,60.822590 
	C92.521469,87.273834 92.521469,113.124702 92.521469,139.816208 
	C82.259697,137.092621 72.936119,134.618057 63.164284,132.024506 
	C63.164284,137.638977 62.989254,142.622986 63.294075,147.577469 
	C63.365406,148.736908 64.874222,150.475052 66.040138,150.798294 
	C79.942482,154.652649 93.905060,158.289719 108.520683,161.465317 
M113.975891,160.500000 
	C113.975891,169.223633 113.975891,177.947281 113.975891,187.714722 
	C118.367111,186.225800 121.549110,184.955658 124.834328,184.067200 
	C136.818405,180.826263 148.864639,177.810120 160.803894,174.415375 
	C162.143433,174.034500 163.613632,171.896576 163.877930,170.374573 
	C164.611572,166.149689 164.725143,161.818451 165.111526,157.531738 
	C166.403412,143.199371 167.738083,128.870804 168.995285,114.535439 
	C169.747314,105.960396 170.298874,97.367332 171.093399,88.796547 
	C172.554062,73.040115 174.127594,57.294147 175.682327,41.252174 
	C173.732224,41.152573 172.266998,41.013927 170.801636,41.012630 
	C153.647980,40.997448 136.491486,41.172749 119.342484,40.889858 
	C114.749123,40.814087 113.869011,42.350574 113.886345,46.585865 
	C114.040398,84.223396 113.975883,121.861832 113.975891,160.500000 
z"/>
<path fill="#D1B31B" opacity="1.000000" stroke="none" 
	d="
M38.842392,27.662365 
	C38.926670,28.351931 38.767765,28.956570 38.365677,29.762266 
	C38.281399,29.168028 38.440308,28.372734 38.842392,27.662365 
z"/>
<path fill="#D1B31B" opacity="1.000000" stroke="none" 
	d="
M188.948593,29.629856 
	C188.591949,29.465340 188.299713,28.960699 187.992706,28.148863 
	C188.322968,28.324354 188.667984,28.807043 188.948593,29.629856 
z"/>
<path fill="#FBD727" opacity="1.000000" stroke="none" 
	d="
M113.975861,160.000000 
	C113.975883,121.861832 114.040398,84.223396 113.886345,46.585865 
	C113.869011,42.350574 114.749123,40.814087 119.342484,40.889858 
	C136.491486,41.172749 153.647980,40.997448 170.801636,41.012630 
	C172.266998,41.013927 173.732224,41.152573 175.682327,41.252174 
	C174.127594,57.294147 172.554062,73.040115 171.093399,88.796547 
	C170.298874,97.367332 169.747314,105.960396 168.995285,114.535439 
	C167.738083,128.870804 166.403412,143.199371 165.111526,157.531738 
	C164.725143,161.818451 164.611572,166.149689 163.877930,170.374573 
	C163.613632,171.896576 162.143433,174.034500 160.803894,174.415375 
	C148.864639,177.810120 136.818405,180.826263 124.834328,184.067200 
	C121.549110,184.955658 118.367111,186.225800 113.975891,187.714722 
	C113.975891,177.947281 113.975891,169.223633 113.975861,160.000000 
M137.427750,104.237465 
	C136.952545,102.925484 136.106552,101.624496 136.067261,100.299599 
	C135.909760,94.988136 136.205231,89.658829 135.932587,84.356720 
	C135.744675,80.701828 137.249954,79.854500 140.581253,79.942337 
	C147.885864,80.134941 155.200333,80.073227 162.507675,79.942200 
	C163.998947,79.915459 165.476578,79.128494 166.930008,77.825981 
	C167.285400,72.224716 167.640793,66.623451 167.989349,61.130085 
	C151.653259,61.130085 135.794540,61.130085 120.302994,61.130085 
	C120.302994,83.309921 120.302994,104.838295 120.302994,126.743324 
	C128.783554,125.314026 136.640472,124.064888 144.464615,122.636154 
	C147.836945,122.020340 149.536255,122.915649 149.217026,126.587753 
	C149.073135,128.242844 149.021057,129.923248 149.128006,131.579224 
	C149.361603,135.196213 147.698273,136.875198 144.180862,137.676514 
	C137.224319,139.261307 130.316483,141.108215 123.491959,143.186432 
	C122.011314,143.637314 120.006859,145.435806 119.891991,146.756927 
	C119.463570,151.683975 119.720871,156.670639 119.720871,161.955032 
	C132.281097,158.945663 144.177811,156.223587 155.989914,153.173798 
	C158.897949,152.422958 161.311325,151.019394 161.187317,146.750931 
	C161.019592,140.978638 162.178009,135.175018 162.649689,129.375259 
	C163.383301,120.355003 164.017792,111.326675 164.722504,101.925232 
	C155.386108,102.929825 146.655212,103.869270 137.427750,104.237465 
M128.483719,59.584335 
	C128.483719,59.584335 128.416641,59.473270 128.483719,59.584335 
z"/>
<path fill="#EDEFEE" opacity="1.000000" stroke="none" 
	d="
M107.851860,161.983719 
	C93.905060,158.289719 79.942482,154.652649 66.040138,150.798294 
	C64.874222,150.475052 63.365406,148.736908 63.294075,147.577469 
	C62.989254,142.622986 63.164284,137.638977 63.164284,132.024506 
	C72.936119,134.618057 82.259697,137.092621 92.521469,139.816208 
	C92.521469,113.124702 92.521469,87.273834 92.521469,60.822590 
	C97.891167,60.822590 102.482941,60.822590 107.525421,61.380424 
	C107.934708,95.286743 107.893280,128.635239 107.851860,161.983719 
z"/>
<path fill="#D1B104" opacity="1.000000" stroke="none" 
	d="
M108.186272,161.724518 
	C107.893280,128.635239 107.934708,95.286743 107.986046,61.469814 
	C108.330849,62.225292 108.956131,63.448727 108.958191,64.673203 
	C109.010979,96.134712 109.002289,127.596313 108.977859,159.057892 
	C108.977234,159.860489 108.679733,160.662842 108.186272,161.724518 
z"/>
<path fill="#FFFEFC" opacity="1.000000" stroke="none" 
	d="
M137.924301,104.808708 
	C146.655212,103.869270 155.386108,102.929825 164.722504,101.925232 
	C164.017792,111.326675 163.383301,120.355003 162.649689,129.375259 
	C162.178009,135.175018 161.019592,140.978638 161.187317,146.750931 
	C161.311325,151.019394 158.897949,152.422958 155.989914,153.173798 
	C144.177811,156.223587 132.281097,158.945663 119.720871,161.955032 
	C119.720871,156.670639 119.463570,151.683975 119.891991,146.756927 
	C120.006859,145.435806 122.011314,143.637314 123.491959,143.186432 
	C130.316483,141.108215 137.224319,139.261307 144.180862,137.676514 
	C147.698273,136.875198 149.361603,135.196213 149.128006,131.579224 
	C149.021057,129.923248 149.073135,128.242844 149.217026,126.587753 
	C149.536255,122.915649 147.836945,122.020340 144.464615,122.636154 
	C136.640472,124.064888 128.783554,125.314026 120.302994,126.743324 
	C120.302994,104.838295 120.302994,83.309921 120.302994,61.130085 
	C135.794540,61.130085 151.653259,61.130085 167.989349,61.130085 
	C167.640793,66.623451 167.285400,72.224716 166.483337,78.329758 
	C155.766068,78.833527 145.495453,78.833527 134.871124,78.833527 
	C134.871124,87.203537 134.780243,94.843239 135.004898,102.473656 
	C135.028625,103.279961 136.906570,104.031670 137.924301,104.808708 
z"/>
<path fill="#FBD400" opacity="1.000000" stroke="none" 
	d="
M137.676025,104.523087 
	C136.906570,104.031670 135.028625,103.279961 135.004898,102.473656 
	C134.780243,94.843239 134.871124,87.203537 134.871124,78.833527 
	C145.495453,78.833527 155.766068,78.833527 166.498596,78.762741 
	C165.476578,79.128494 163.998947,79.915459 162.507675,79.942200 
	C155.200333,80.073227 147.885864,80.134941 140.581253,79.942337 
	C137.249954,79.854500 135.744675,80.701828 135.932587,84.356720 
	C136.205231,89.658829 135.909760,94.988136 136.067261,100.299599 
	C136.106552,101.624496 136.952545,102.925484 137.676025,104.523087 
z"/>
<path fill="#FBD61A" opacity="1.000000" stroke="none" 
	d="
M128.450180,59.528801 
	C128.416641,59.473270 128.483719,59.584335 128.450180,59.528801 
z"/>
</svg>