<svg version="1.1" id="Layer_1" xmlns="http://www.w3.org/2000/svg" xmlns:xlink="http://www.w3.org/1999/xlink" x="0px" y="0px"
	 width="100%" viewBox="0 0 300 168" enable-background="new 0 0 300 168" xml:space="preserve">
<path fill="#FFFEFE" opacity="1.000000" stroke="none" 
	d="
M181.000000,169.000000 
	C120.666672,169.000000 60.833347,169.000000 1.000016,169.000000 
	C1.000011,113.000015 1.000011,57.000027 1.000005,1.000031 
	C100.999969,1.000021 200.999939,1.000021 300.999939,1.000010 
	C300.999939,56.999969 300.999939,112.999939 300.999969,168.999954 
	C261.166656,169.000000 221.333328,169.000000 181.000000,169.000000 
M158.586075,64.494102 
	C159.160995,64.433441 159.928619,64.590630 160.281235,64.278679 
	C164.137787,60.867027 164.378204,55.912876 161.003494,51.066689 
	C155.818802,43.621338 156.082016,41.231697 162.709457,34.944202 
	C163.457504,34.234512 164.058258,33.369537 165.003906,32.248760 
	C159.656372,32.663158 154.488388,36.342064 152.303314,40.822060 
	C149.785233,45.984795 151.354095,50.587345 154.557831,54.676388 
	C157.004135,57.798695 158.895355,60.858837 158.042450,65.070801 
	C158.042450,65.070801 157.806427,65.083290 157.806427,65.083290 
	C157.806427,65.083290 157.974091,64.942719 158.586075,64.494102 
M189.850815,135.962036 
	C186.206192,131.001389 179.534424,130.243317 171.999954,134.626511 
	C173.880219,135.312393 175.831741,135.668442 177.714508,135.445038 
	C183.619812,134.744278 185.485580,136.505081 184.455505,142.148407 
	C179.030228,143.002609 172.396103,142.062759 170.530792,149.166977 
	C169.950836,151.375778 171.042557,155.255981 172.755661,156.589279 
	C176.892670,159.809067 181.485062,158.191895 184.566040,156.142105 
	C186.805496,156.928162 188.302490,157.453613 190.042343,158.064301 
	C190.042343,150.374161 190.042343,143.560318 189.850815,135.962036 
M128.000671,143.260239 
	C126.031807,145.110901 123.049194,146.658890 122.380669,148.897812 
	C121.719002,151.113785 122.604187,155.370255 124.225189,156.321487 
	C126.695412,157.771042 130.413712,157.516037 133.543839,157.263580 
	C135.486252,157.106918 137.304962,154.747437 139.095703,157.702942 
	C139.336914,158.101044 140.801773,157.757721 142.018387,157.757721 
	C142.018387,151.031708 142.244080,144.873581 141.873108,138.751617 
	C141.769424,137.040695 140.221680,135.055267 138.783585,133.861969 
	C135.714233,131.315109 127.213768,131.887589 122.633537,135.402679 
	C125.848953,135.402679 127.928581,135.549271 129.980774,135.374191 
	C135.351807,134.915970 137.329453,137.014297 136.182281,142.139420 
	C133.707932,142.434250 131.233597,142.729095 128.000671,143.260239 
M154.864349,29.341522 
	C158.800705,25.071398 163.378372,21.204699 164.473190,13.721542 
	C162.705185,14.828876 161.596588,15.274182 160.820419,16.051447 
	C156.981689,19.895594 153.327911,23.928202 149.418716,27.697081 
	C146.204178,30.796255 142.452942,33.367847 139.425217,36.624741 
	C135.137405,41.237099 134.652512,45.443069 138.219559,50.595791 
	C140.907730,54.478966 144.607819,57.661430 147.847504,61.165024 
	C147.894775,61.216129 147.812759,61.386761 147.791092,61.501598 
	C147.884644,61.443710 147.978210,61.385822 148.071777,61.327942 
	C140.236771,49.966496 139.430618,42.722618 148.277237,34.969963 
	C150.273148,33.220860 152.323853,31.534302 154.864349,29.341522 
M167.178131,134.455902 
	C165.656738,133.810516 164.135330,133.165131 162.611343,132.518631 
	C160.859650,139.253021 159.328781,145.138428 157.797913,151.023849 
	C155.423248,146.361023 153.806519,141.869186 152.685715,137.256836 
	C151.739960,133.364990 149.905594,131.877838 145.791519,133.587616 
	C147.869965,140.371841 149.743454,147.238419 152.194717,153.892136 
	C152.722900,155.325821 155.284302,156.667633 157.003357,156.796707 
	C158.369415,156.899231 160.709579,155.385742 161.183716,154.072266 
	C163.418121,147.882370 165.158569,141.514175 167.178131,134.455902 
M129.328079,106.413483 
	C125.019173,105.594894 120.710266,104.776306 116.087074,103.898010 
	C116.932861,102.065247 117.341377,101.180031 117.749886,100.294807 
	C117.448753,99.951485 117.147629,99.608162 116.846497,99.264839 
	C114.146446,100.889046 111.446396,102.513252 108.318573,104.394783 
	C119.629852,112.545341 175.004288,111.441818 184.050247,103.388130 
	C166.061813,107.645523 148.162308,107.486328 129.328079,106.413483 
M113.296364,122.972008 
	C112.940079,124.455063 112.296638,125.934021 112.275414,127.421852 
	C112.161713,135.389404 112.162300,143.359390 112.205803,151.328079 
	C112.233475,156.396866 112.395218,161.461365 106.757034,164.967209 
	C108.936234,165.774429 110.835274,166.181870 112.179291,165.498199 
	C116.729500,163.183594 117.850037,158.792557 117.910202,154.146774 
	C118.030609,144.851028 117.838943,135.550018 118.049072,126.257355 
	C118.118057,123.206726 116.928772,122.465424 113.296364,122.972008 
M130.067627,74.250992 
	C144.024750,75.427803 157.805893,74.846535 171.230392,70.563835 
	C156.371521,71.144592 141.551727,73.761002 125.367783,70.312614 
	C128.048065,68.437691 129.453445,67.454582 130.858841,66.471481 
	C130.690720,66.106575 130.522583,65.741669 130.354462,65.376762 
	C126.288300,66.949120 122.222137,68.521477 118.155968,70.093834 
	C118.218895,70.781219 118.281815,71.468605 118.344734,72.155991 
	C121.954582,72.826736 125.564430,73.497475 130.067627,74.250992 
M166.572021,84.400551 
	C167.531052,84.175499 168.490082,83.950439 169.449127,83.725380 
	C169.496887,83.236320 169.544647,82.747261 169.592422,82.258209 
	C166.944122,81.948578 164.293716,81.360207 161.647934,81.380409 
	C152.901993,81.447166 144.157074,81.859055 135.413513,81.811714 
	C133.965073,81.803879 132.525528,80.157913 130.387817,78.841599 
	C129.730148,79.392609 128.349060,80.549744 125.617722,82.838165 
	C130.291016,84.209923 133.497223,85.957138 136.693146,85.938515 
	C146.407578,85.881897 156.118057,85.143089 166.572021,84.400551 
M150.443512,99.104546 
	C156.247635,98.225571 162.051758,97.346603 167.855881,96.467636 
	C167.843521,95.675140 167.831146,94.882652 167.818787,94.090157 
	C164.118301,93.838318 160.420746,93.524651 156.716690,93.347893 
	C149.655685,93.010918 142.591202,92.746391 135.527618,92.465477 
	C134.084290,92.408073 132.638596,92.410896 131.193985,92.385963 
	C131.941879,93.763824 132.463058,96.120934 133.475677,96.355377 
	C138.741592,97.574577 144.132706,98.252983 150.443512,99.104546 
M179.798752,110.603722 
	C164.865677,112.099892 149.932587,113.596062 134.999512,115.092232 
	C148.253372,115.176346 161.531540,114.918953 174.740509,113.825508 
	C180.322281,113.363434 186.245438,112.353516 191.591904,107.028801 
	C187.105835,108.368607 183.841568,109.343506 179.798752,110.603722 
M184.347046,63.932320 
	C182.659088,64.015144 180.971115,64.097969 180.443527,64.123856 
	C182.601608,65.895714 186.765320,67.667000 187.163239,70.063560 
	C187.645996,72.971039 185.368011,76.683372 183.489731,79.521492 
	C182.107559,81.610008 179.449142,82.853897 177.359436,84.474159 
	C181.249603,83.484444 184.952713,81.991165 187.944992,79.606110 
	C195.084641,73.915298 193.745758,67.155685 184.347046,63.932320 
z"/>
<path fill="#E22628" opacity="1.000000" stroke="none" 
	d="
M189.946579,136.354263 
	C190.042343,143.560318 190.042343,150.374161 190.042343,158.064301 
	C188.302490,157.453613 186.805496,156.928162 184.566040,156.142105 
	C181.485062,158.191895 176.892670,159.809067 172.755661,156.589279 
	C171.042557,155.255981 169.950836,151.375778 170.530792,149.166977 
	C172.396103,142.062759 179.030228,143.002609 184.455505,142.148407 
	C185.485580,136.505081 183.619812,134.744278 177.714508,135.445038 
	C175.831741,135.668442 173.880219,135.312393 171.999954,134.626511 
	C179.534424,130.243317 186.206192,131.001389 189.946579,136.354263 
M181.726913,145.788879 
	C180.447449,146.015335 178.722092,145.809494 177.988998,146.565643 
	C176.772736,147.820160 175.301987,149.892792 175.605026,151.248154 
	C175.893051,152.536407 178.466751,154.332275 179.765656,154.134369 
	C181.660263,153.845673 183.997498,152.319336 184.839020,150.658401 
	C185.441330,149.469589 186.820755,145.771820 181.726913,145.788879 
z"/>
<path fill="#E12426" opacity="1.000000" stroke="none" 
	d="
M128.379974,143.142090 
	C131.233597,142.729095 133.707932,142.434250 136.182281,142.139374 
	C137.329453,137.014297 135.351807,134.915970 129.980774,135.374191 
	C127.928581,135.549271 125.848953,135.402679 122.633537,135.402679 
	C127.213768,131.887589 135.714233,131.315109 138.783585,133.861969 
	C140.221680,135.055267 141.769424,137.040695 141.873108,138.751617 
	C142.244080,144.873581 142.018387,151.031708 142.018387,157.757721 
	C140.801773,157.757721 139.336914,158.101044 139.095703,157.702942 
	C137.304962,154.747437 135.486252,157.106918 133.543839,157.263580 
	C130.413712,157.516037 126.695412,157.771042 124.225189,156.321487 
	C122.604187,155.370255 121.719002,151.113785 122.380669,148.897812 
	C123.049194,146.658890 126.031807,145.110901 128.379974,143.142090 
M136.823318,146.573212 
	C134.599762,146.429474 131.999359,145.518723 130.265045,146.370804 
	C128.718094,147.130814 128.128540,149.839478 127.116493,151.688217 
	C128.850906,152.544815 130.623764,154.183456 132.311981,154.100464 
	C136.212860,153.908691 137.555389,151.178421 136.823318,146.573212 
z"/>
<path fill="#E22426" opacity="1.000000" stroke="none" 
	d="
M154.606842,29.580238 
	C152.323853,31.534302 150.273148,33.220860 148.277237,34.969963 
	C139.430618,42.722618 140.236771,49.966496 148.071777,61.327934 
	C147.978210,61.385822 147.884644,61.443710 147.791092,61.501602 
	C147.812759,61.386761 147.894775,61.216129 147.847504,61.165024 
	C144.607819,57.661430 140.907730,54.478966 138.219559,50.595791 
	C134.652512,45.443069 135.137405,41.237099 139.425217,36.624741 
	C142.452942,33.367847 146.204178,30.796255 149.418716,27.697081 
	C153.327911,23.928202 156.981689,19.895594 160.820419,16.051447 
	C161.596588,15.274182 162.705185,14.828876 164.473190,13.721542 
	C163.378372,21.204699 158.800705,25.071398 154.606842,29.580238 
z"/>
<path fill="#E22527" opacity="1.000000" stroke="none" 
	d="
M167.126678,134.832748 
	C165.158569,141.514175 163.418121,147.882370 161.183716,154.072266 
	C160.709579,155.385742 158.369415,156.899231 157.003357,156.796707 
	C155.284302,156.667633 152.722900,155.325821 152.194717,153.892136 
	C149.743454,147.238419 147.869965,140.371841 145.791519,133.587616 
	C149.905594,131.877838 151.739960,133.364990 152.685715,137.256836 
	C153.806519,141.869186 155.423248,146.361023 157.797913,151.023849 
	C159.328781,145.138428 160.859650,139.253021 162.611343,132.518631 
	C164.135330,133.165131 165.656738,133.810516 167.126678,134.832748 
z"/>
<path fill="#126EB6" opacity="1.000000" stroke="none" 
	d="
M129.774521,106.482323 
	C148.162308,107.486328 166.061813,107.645523 184.050247,103.388130 
	C175.004288,111.441818 119.629852,112.545341 108.318573,104.394783 
	C111.446396,102.513252 114.146446,100.889046 116.846497,99.264839 
	C117.147629,99.608162 117.448753,99.951485 117.749886,100.294807 
	C117.341377,101.180031 116.932861,102.065247 116.087074,103.898010 
	C120.710266,104.776306 125.019173,105.594894 129.774521,106.482323 
z"/>
<path fill="#E22E30" opacity="1.000000" stroke="none" 
	d="
M113.793762,122.922760 
	C116.928772,122.465424 118.118057,123.206726 118.049072,126.257355 
	C117.838943,135.550018 118.030609,144.851028 117.910202,154.146774 
	C117.850037,158.792557 116.729500,163.183594 112.179291,165.498199 
	C110.835274,166.181870 108.936234,165.774429 106.757034,164.967209 
	C112.395218,161.461365 112.233475,156.396866 112.205803,151.328079 
	C112.162300,143.359390 112.161713,135.389404 112.275414,127.421852 
	C112.296638,125.934021 112.940079,124.455063 113.793762,122.922760 
M113.426781,154.479568 
	C113.426781,154.479568 113.546455,154.400574 113.426781,154.479568 
z"/>
<path fill="#E12325" opacity="1.000000" stroke="none" 
	d="
M157.911545,64.985329 
	C158.895355,60.858837 157.004135,57.798695 154.557831,54.676388 
	C151.354095,50.587345 149.785233,45.984795 152.303314,40.822060 
	C154.488388,36.342064 159.656372,32.663158 165.003906,32.248760 
	C164.058258,33.369537 163.457504,34.234512 162.709457,34.944202 
	C156.082016,41.231697 155.818802,43.621338 161.003494,51.066689 
	C164.378204,55.912876 164.137787,60.867027 160.281235,64.278679 
	C159.928619,64.590630 159.160995,64.433441 158.270584,64.733170 
	C157.955093,64.972229 157.911545,64.985329 157.911545,64.985329 
z"/>
<path fill="#1770B7" opacity="1.000000" stroke="none" 
	d="
M129.620941,74.209610 
	C125.564430,73.497475 121.954582,72.826736 118.344734,72.155991 
	C118.281815,71.468605 118.218895,70.781219 118.155968,70.093834 
	C122.222137,68.521477 126.288300,66.949120 130.354462,65.376762 
	C130.522583,65.741669 130.690720,66.106575 130.858841,66.471481 
	C129.453445,67.454582 128.048065,68.437691 125.367783,70.312614 
	C141.551727,73.761002 156.371521,71.144592 171.230392,70.563835 
	C157.805893,74.846535 144.024750,75.427803 129.620941,74.209610 
z"/>
<path fill="#1872B8" opacity="1.000000" stroke="none" 
	d="
M166.201050,84.535240 
	C156.118057,85.143089 146.407578,85.881897 136.693146,85.938515 
	C133.497223,85.957138 130.291016,84.209923 125.617722,82.838165 
	C128.349060,80.549744 129.730148,79.392609 130.387817,78.841599 
	C132.525528,80.157913 133.965073,81.803879 135.413513,81.811714 
	C144.157074,81.859055 152.901993,81.447166 161.647934,81.380409 
	C164.293716,81.360207 166.944122,81.948578 169.592422,82.258209 
	C169.544647,82.747261 169.496887,83.236320 169.449127,83.725380 
	C168.490082,83.950439 167.531052,84.175499 166.201050,84.535240 
z"/>
<path fill="#0F6DB6" opacity="1.000000" stroke="none" 
	d="
M149.961868,99.112122 
	C144.132706,98.252983 138.741592,97.574577 133.475677,96.355377 
	C132.463058,96.120934 131.941879,93.763824 131.193985,92.385963 
	C132.638596,92.410896 134.084290,92.408073 135.527618,92.465477 
	C142.591202,92.746391 149.655685,93.010918 156.716690,93.347893 
	C160.420746,93.524651 164.118301,93.838318 167.818787,94.090157 
	C167.831146,94.882652 167.843521,95.675140 167.855881,96.467636 
	C162.051758,97.346603 156.247635,98.225571 149.961868,99.112122 
z"/>
<path fill="#166CB5" opacity="1.000000" stroke="none" 
	d="
M180.188019,110.461060 
	C183.841568,109.343506 187.105835,108.368607 191.591904,107.028801 
	C186.245438,112.353516 180.322281,113.363434 174.740509,113.825508 
	C161.531540,114.918953 148.253372,115.176346 134.999512,115.092232 
	C149.932587,113.596062 164.865677,112.099892 180.188019,110.461060 
z"/>
<path fill="#156FB7" opacity="1.000000" stroke="none" 
	d="
M184.743439,63.953064 
	C193.745758,67.155685 195.084641,73.915298 187.944992,79.606110 
	C184.952713,81.991165 181.249603,83.484444 177.359436,84.474159 
	C179.449142,82.853897 182.107559,81.610008 183.489731,79.521492 
	C185.368011,76.683372 187.645996,72.971039 187.163239,70.063560 
	C186.765320,67.667000 182.601608,65.895714 180.443527,64.123856 
	C180.971115,64.097969 182.659088,64.015144 184.743439,63.953064 
z"/>
<path fill="#E12325" opacity="1.000000" stroke="none" 
	d="
M157.964600,64.957474 
	C157.974091,64.942719 157.806427,65.083290 157.806427,65.083290 
	C157.806427,65.083290 158.042450,65.070801 157.976990,65.028061 
	C157.911545,64.985329 157.955093,64.972229 157.964600,64.957474 
z"/>
<path fill="#FEF8F8" opacity="1.000000" stroke="none" 
	d="
M182.172119,145.768127 
	C186.820755,145.771820 185.441330,149.469589 184.839020,150.658401 
	C183.997498,152.319336 181.660263,153.845673 179.765656,154.134369 
	C178.466751,154.332275 175.893051,152.536407 175.605026,151.248154 
	C175.301987,149.892792 176.772736,147.820160 177.988998,146.565643 
	C178.722092,145.809494 180.447449,146.015335 182.172119,145.768127 
z"/>
<path fill="#FDF4F4" opacity="1.000000" stroke="none" 
	d="
M136.877670,147.008881 
	C137.555389,151.178421 136.212860,153.908691 132.311981,154.100464 
	C130.623764,154.183456 128.850906,152.544815 127.116493,151.688217 
	C128.128540,149.839478 128.718094,147.130814 130.265045,146.370804 
	C131.999359,145.518723 134.599762,146.429474 136.877670,147.008881 
z"/>
<path fill="#E01114" opacity="1.000000" stroke="none" 
	d="
M113.486618,154.440063 
	C113.546455,154.400574 113.426781,154.479568 113.486618,154.440063 
z"/>
</svg>