<?xml version="1.0" encoding="UTF-8"?>
<svg version="1.1" xmlns="http://www.w3.org/2000/svg" width="284" height="178">
<path d="M0 0 C93.72 0 187.44 0 284 0 C284 58.74 284 117.48 284 178 C190.28 178 96.56 178 0 178 C0 119.26 0 60.52 0 0 Z " fill="#F8F9FE" transform="translate(0,0)"/>
<path d="M0 0 C2.91179676 1.16049871 4.77910559 2.77910559 7 5 C7.33 3.35 7.66 1.7 8 0 C10.64 0 13.28 0 16 0 C16 14.19 16 28.38 16 43 C13.36 43 10.72 43 8 43 C7.505 40.525 7.505 40.525 7 38 C6.071875 38.804375 5.14375 39.60875 4.1875 40.4375 C-0.04691029 44.10732225 -3.98970388 44.36473268 -9.43359375 44.26171875 C-13.46213251 43.85089364 -16.07785471 42.82572933 -19 40 C-24.55913288 33.15690495 -24.82444807 25.38813301 -24.421875 16.94921875 C-23.74139245 10.57914596 -22.1446523 6.99146285 -17.375 2.5625 C-11.94583447 -1.00931943 -6.36157913 -0.58674759 0 0 Z " fill="#233858" transform="translate(233,76)"/>
<path d="M0 0 C5.10863896 -0.0246501 10.21724359 -0.04283607 15.32592773 -0.05493164 C17.06519168 -0.05997204 18.80445136 -0.0668043 20.54370117 -0.07543945 C23.03825937 -0.08751792 25.53276173 -0.09323108 28.02734375 -0.09765625 C28.80963852 -0.10281754 29.59193329 -0.10797882 30.39793396 -0.11329651 C32.26567114 -0.11349226 34.13329204 -0.06199694 36 0 C37 1 37 1 37.11352539 4.32641602 C37.11336629 5.80225556 37.10767314 7.27810069 37.09765625 8.75390625 C37.0962413 9.52935287 37.09482635 10.3047995 37.09336853 11.10374451 C37.08775345 13.59003494 37.07519846 16.0762366 37.0625 18.5625 C37.05748694 20.24413933 37.0529237 21.92578006 37.04882812 23.60742188 C37.03777913 27.73831566 37.02050445 31.86914276 37 36 C30.71013479 35.19167303 28.41528252 34.41528252 24 30 C21.88931191 26.70960073 21.78293958 24.11653782 21.875 20.25 C21.89304687 19.26515625 21.91109375 18.2803125 21.9296875 17.265625 C21.95289062 16.51796875 21.97609375 15.7703125 22 15 C21.29875 15.05800781 20.5975 15.11601563 19.875 15.17578125 C12.87973647 15.50843645 8.3011509 14.74245118 3 10 C0.19930441 6.49913051 -0.11676668 4.37875036 0 0 Z " fill="#1A7BF7" transform="translate(53,71)"/>
<path d="M0 0 C5.10863896 -0.0246501 10.21724359 -0.04283607 15.32592773 -0.05493164 C17.06519168 -0.05997204 18.80445136 -0.0668043 20.54370117 -0.07543945 C23.03825937 -0.08751792 25.53276173 -0.09323108 28.02734375 -0.09765625 C28.80963852 -0.10281754 29.59193329 -0.10797882 30.39793396 -0.11329651 C32.26567114 -0.11349226 34.13329204 -0.06199694 36 0 C37 1 37 1 37.11352539 4.32641602 C37.11336629 5.80225556 37.10767314 7.27810069 37.09765625 8.75390625 C37.0962413 9.52935287 37.09482635 10.3047995 37.09336853 11.10374451 C37.08775345 13.59003494 37.07519846 16.0762366 37.0625 18.5625 C37.05748694 20.24413933 37.0529237 21.92578006 37.04882812 23.60742188 C37.03777913 27.73831566 37.02050445 31.86914276 37 36 C30.71117844 35.18771849 28.37630682 34.4780814 24 30 C21.14461448 25.45734121 21.81875838 20.18552419 22 15 C21.28714844 15.04640625 20.57429688 15.0928125 19.83984375 15.140625 C13.23940687 15.38936286 9.23483777 15.16650353 4 11 C1.20693407 7.41722793 0 4.6391897 0 0 Z " fill="#2283FE" transform="translate(70,54)"/>
<path d="M0 0 C5.10863896 -0.0246501 10.21724359 -0.04283607 15.32592773 -0.05493164 C17.06519168 -0.05997204 18.80445136 -0.0668043 20.54370117 -0.07543945 C23.03825937 -0.08751792 25.53276173 -0.09323108 28.02734375 -0.09765625 C28.80963852 -0.10281754 29.59193329 -0.10797882 30.39793396 -0.11329651 C32.26567114 -0.11349226 34.13329204 -0.06199694 36 0 C37 1 37 1 37.11352539 4.32641602 C37.11336629 5.80225556 37.10767314 7.27810069 37.09765625 8.75390625 C37.0962413 9.52935287 37.09482635 10.3047995 37.09336853 11.10374451 C37.08775345 13.59003494 37.07519846 16.0762366 37.0625 18.5625 C37.05748694 20.24413933 37.0529237 21.92578006 37.04882812 23.60742188 C37.03777913 27.73831566 37.02050445 31.86914276 37 36 C30.71013479 35.19167303 28.41528252 34.41528252 24 30 C21.88931191 26.70960073 21.78293958 24.11653782 21.875 20.25 C21.89304687 19.26515625 21.91109375 18.2803125 21.9296875 17.265625 C21.95289062 16.51796875 21.97609375 15.7703125 22 15 C21.29875 15.05800781 20.5975 15.11601563 19.875 15.17578125 C12.87973647 15.50843645 8.3011509 14.74245118 3 10 C0.19930441 6.49913051 -0.11676668 4.37875036 0 0 Z " fill="#1B7AF7" transform="translate(36,88)"/>
<path d="M0 0 C4.57919805 1.9168736 6.88545696 4.53596469 9 9 C9.85522472 15.84179775 9.66110586 22.06648361 6 28 C2.90490223 30.90751608 0.10815705 31.24216415 -4 31.4375 C-7.4683916 31.32395147 -8.90305461 31.05453178 -12 29.3125 C-16.4985746 24.11102312 -16.42860604 18.72525626 -16.31640625 12.10546875 C-15.90449772 8.0626628 -14.83095084 5.90746302 -12 3 C-8.06991695 -0.18655382 -4.99020009 -0.5346643 0 0 Z " fill="#F6F7FC" transform="translate(232,82)"/>
<path d="M0 0 C2.31 0 4.62 0 7 0 C7.07631846 6.28043803 7.12871221 12.56075562 7.16479492 18.84155273 C7.17984362 20.97636382 7.20028736 23.11114419 7.22631836 25.24584961 C7.26287386 28.32152914 7.2797659 31.39679844 7.29296875 34.47265625 C7.30845261 35.42084732 7.32393646 36.36903839 7.33988953 37.34596252 C7.34131692 43.01793528 6.75517877 47.00318171 4 52 C-0.49539731 56.02699122 -3.87821433 56.48138546 -9.8125 56.3125 C-10.49248047 56.30283203 -11.17246094 56.29316406 -11.87304688 56.28320312 C-16.83047672 56.16952328 -16.83047672 56.16952328 -18 55 C-18.04092937 52.66702567 -18.04241723 50.33294775 -18 48 C-17.09636719 48.03480469 -16.19273437 48.06960937 -15.26171875 48.10546875 C-13.49248047 48.14607422 -13.49248047 48.14607422 -11.6875 48.1875 C-10.51574219 48.22230469 -9.34398437 48.25710937 -8.13671875 48.29296875 C-5.04910431 48.26968468 -5.04910431 48.26968468 -3.14453125 46.67578125 C-1.17547594 43.7927617 -0.86588347 41.19131346 -0.79467773 37.80395508 C-0.77473251 36.96331009 -0.75478729 36.1226651 -0.73423767 35.25654602 C-0.70916893 33.90172371 -0.70916893 33.90172371 -0.68359375 32.51953125 C-0.66281265 31.59154221 -0.64203156 30.66355316 -0.62062073 29.70744324 C-0.55522677 26.7425376 -0.49628738 23.77754328 -0.4375 20.8125 C-0.39430513 18.8027252 -0.35069053 16.79295937 -0.30664062 14.78320312 C-0.19955573 9.85555968 -0.09825955 4.92782701 0 0 Z " fill="#203556" transform="translate(145,63)"/>
<path d="M0 0 C2.64 0 5.28 0 8 0 C8.33 1.65 8.66 3.3 9 5 C9.825 4.175 10.65 3.35 11.5 2.5 C14.16275632 0.2385682 15.88440321 -0.34355513 19.375 -0.3125 C21.169375 -0.1578125 21.169375 -0.1578125 23 0 C23 1.98 23 3.96 23 6 C21.96939453 6.19916016 21.96939453 6.19916016 20.91796875 6.40234375 C19.56638672 6.66724609 19.56638672 6.66724609 18.1875 6.9375 C17.29417969 7.11152344 16.40085938 7.28554687 15.48046875 7.46484375 C12.88602829 7.97741153 12.88602829 7.97741153 10 9 C8.83597273 12.49208181 8.78881492 15.39147772 8.68359375 19.07421875 C8.66281265 19.7580513 8.64203156 20.44188385 8.62062073 21.1464386 C8.55533846 23.3266921 8.49633983 25.50706405 8.4375 27.6875 C8.39429447 29.16732986 8.35067953 30.64714783 8.30664062 32.12695312 C8.19967917 35.75117622 8.09835177 39.37553189 8 43 C5.36 43 2.72 43 0 43 C0 28.81 0 14.62 0 0 Z " fill="#2F4160" transform="translate(182,76)"/>
<path d="M0 0 C2.97 0 5.94 0 9 0 C9.66 1.32 10.32 2.64 11 4 C12.32861809 4.67601493 13.66293463 5.34085023 15 6 C16.93481564 7.82116601 18.79028121 9.64683774 20.625 11.5625 C23.96402902 15.22714016 23.96402902 15.22714016 28 18 C28 18.66 28 19.32 28 20 C28.598125 20.268125 29.19625 20.53625 29.8125 20.8125 C32.07573297 22.04111219 33.39532227 22.99415284 35 25 C35.29296875 27.26171875 35.29296875 27.26171875 35.1875 29.6875 C35.14689453 30.89986328 35.14689453 30.89986328 35.10546875 32.13671875 C35.07066406 32.75160156 35.03585938 33.36648437 35 34 C33.1875 34.59765625 33.1875 34.59765625 31 35 C26.24581025 32.5238595 23.29410939 29.85292371 21 25 C20.68416417 21.30675849 20.76323939 17.69609625 21 14 C20.29875 14.05800781 19.5975 14.11601563 18.875 14.17578125 C12.79234369 14.465038 8.60285597 14.11772136 3.59765625 10.5 C1.21305391 8.26115575 0.00809593 6.09149419 -1 3 C-0.67 2.01 -0.34 1.02 0 0 Z " fill="#2584FE" transform="translate(54,72)"/>
<path d="M0 0 C2.64 0 5.28 0 8 0 C8 14.19 8 28.38 8 43 C5.36 43 2.72 43 0 43 C0 28.81 0 14.62 0 0 Z " fill="#2B3E5D" transform="translate(163,76)"/>
<path d="M0 0 C4.31248609 -0.02886537 8.62494762 -0.04675255 12.9375 -0.0625 C14.16919922 -0.07087891 15.40089844 -0.07925781 16.66992188 -0.08789062 C17.83974609 -0.09111328 19.00957031 -0.09433594 20.21484375 -0.09765625 C21.84087524 -0.10551147 21.84087524 -0.10551147 23.49975586 -0.11352539 C26 0 26 0 27 1 C27.08758003 2.99964982 27.10696576 5.0023611 27.09765625 7.00390625 C27.09443359 8.21884766 27.09121094 9.43378906 27.08789062 10.68554688 C27.07951172 11.96494141 27.07113281 13.24433594 27.0625 14.5625 C27.05798828 15.84576172 27.05347656 17.12902344 27.04882812 18.45117188 C27.03699545 21.63416022 27.02051068 24.81705762 27 28 C26.67 28 26.34 28 26 28 C25.79375 26.948125 25.5875 25.89625 25.375 24.8125 C24.5163035 21.70364259 23.48948394 20.27085698 20.9375 18.3125 C17.84475264 15.87778399 17.73089306 15.5326498 17 12 C15.68596724 11.29605388 14.3479743 10.63654342 13 10 C10.71997578 7.83119648 8.54798905 5.63932056 6.5 3.25 C4.4672515 1.55604291 2.58205543 1.34892641 0 1 C0 0.67 0 0.34 0 0 Z " fill="#116EEA" transform="translate(46,88)"/>
<path d="M0 0 C2.64590014 -0.02684679 5.29153096 -0.04676357 7.9375 -0.0625 C8.69224609 -0.07087891 9.44699219 -0.07925781 10.22460938 -0.08789062 C12.14994313 -0.09652441 14.07535581 -0.05224333 16 0 C17 1 17 1 17.09765625 4.37890625 C17.09098369 5.77347077 17.07902532 7.16801743 17.0625 8.5625 C17.05798828 9.27341797 17.05347656 9.98433594 17.04882812 10.71679688 C17.03700864 12.47790013 17.01907263 14.23896036 17 16 C13.04527532 13.72883925 10.18642316 11.26812632 7 8 C6.236875 7.443125 5.47375 6.88625 4.6875 6.3125 C4.130625 5.879375 3.57375 5.44625 3 5 C3 4.34 3 3.68 3 3 C2.01 2.67 1.02 2.34 0 2 C0 1.34 0 0.68 0 0 Z " fill="#065BD9" transform="translate(73,71)"/>
<path d="M0 0 C2.64 0 5.28 0 8 0 C8.33 0.99 8.66 1.98 9 3 C10.83084294 4.77939894 10.83084294 4.77939894 13 6.5 C16.88888889 9.66666667 16.88888889 9.66666667 18 13 C18.66 13.33 19.32 13.66 20 14 C13.58250427 14.59177727 8.97503709 14.30660538 3.6328125 10.5 C1.21087303 8.27506039 0.01318318 6.10709507 -1 3 C-0.67 2.01 -0.34 1.02 0 0 Z " fill="#2785FE" transform="translate(37,89)"/>
<path d="M0 0 C4.18477221 3.50941993 8.19387925 7.08193453 12 11 C12.33 11.33 12.66 11.66 13 12 C13.04080783 13.99958364 13.04254356 16.00045254 13 18 C12.34 18.33 11.68 18.66 11 19 C5.83332096 17.27777365 3.04783574 15.68897806 0 11 C-1.35015859 6.94952424 -0.62084998 4.2079832 0 0 Z " fill="#2584FE" transform="translate(59,105)"/>
<path d="M0 0 C2.64590014 -0.02684679 5.29153096 -0.04676357 7.9375 -0.0625 C8.69224609 -0.07087891 9.44699219 -0.07925781 10.22460938 -0.08789062 C12.14994313 -0.09652441 14.07535581 -0.05224333 16 0 C17 1 17 1 17.11352539 2.76586914 C17.10828857 3.51473389 17.10305176 4.26359863 17.09765625 5.03515625 C17.09443359 5.84404297 17.09121094 6.65292969 17.08789062 7.48632812 C17.07951172 8.33646484 17.07113281 9.18660156 17.0625 10.0625 C17.05798828 10.91650391 17.05347656 11.77050781 17.04882812 12.65039062 C17.03700373 14.76695663 17.01906769 16.88348685 17 19 C16.67 19 16.34 19 16 19 C16 16.69 16 14.38 16 12 C15.41089844 11.75378906 14.82179688 11.50757812 14.21484375 11.25390625 C10.9632968 9.41308337 9.15033171 6.69172491 6.87890625 3.77734375 C4.62426428 1.64457432 3.0401795 1.33895655 0 1 C0 0.67 0 0.34 0 0 Z " fill="#065BD9" transform="translate(56,88)"/>
<path d="M0 0 C2.64 0 5.28 0 8 0 C8 14.19 8 28.38 8 43 C5.36 43 2.72 43 0 43 C0 42.67 0 42.34 0 42 C1.98 42 3.96 42 6 42 C6 28.8 6 15.6 6 2 C4.35 2 2.7 2 1 2 C0.67 3.32 0.34 4.64 0 6 C0 4.02 0 2.04 0 0 Z " fill="#445470" transform="translate(241,76)"/>
<path d="M0 0 C1.43655854 -0.08131463 2.8744483 -0.13933559 4.3125 -0.1875 C5.51326172 -0.23970703 5.51326172 -0.23970703 6.73828125 -0.29296875 C9 0 9 0 10.79296875 1.38671875 C12 3 12 3 12 5 C12.556875 5.226875 13.11375 5.45375 13.6875 5.6875 C16.64187072 7.36430501 18.63102343 9.57324352 21 12 C21.928125 12.598125 22.85625 13.19625 23.8125 13.8125 C26.32817139 16.32817139 26.3125 16.85386241 26.3125 20.25 C26.209375 21.4875 26.10625 22.725 26 24 C24.79371992 21.66785852 23.8345262 19.50357861 23 17 C21.11683841 15.89163577 21.11683841 15.89163577 19 15 C18.01 14.34 17.02 13.68 16 13 C16 12.34 16 11.68 16 11 C15.01 10.67 14.02 10.34 13 10 C11.640625 8.44140625 11.640625 8.44140625 10.25 6.5625 C7.14647615 2.75717427 4.77496471 1.85949365 0 1 C0 0.67 0 0.34 0 0 Z " fill="#116EEA" transform="translate(64,71)"/>
<path d="M0 0 C3 0.25 3 0.25 5 2.25 C5.25 5.25 5.25 5.25 5 8.25 C4.34 8.91 3.68 9.57 3 10.25 C-3.57692308 9.67307692 -3.57692308 9.67307692 -5 8.25 C-5.1875 5.3125 -5.1875 5.3125 -5 2.25 C-3 0.25 -3 0.25 0 0 Z " fill="#213657" transform="translate(167,59.75)"/>
<path d="M0 0 C2.703125 -0.30859375 2.703125 -0.30859375 6 0 C8.484375 2.15234375 8.484375 2.15234375 10.75 4.9375 C13.4653137 8.47761797 13.4653137 8.47761797 17 11 C17 12.98 17 14.96 17 17 C15.2925002 15.71937515 13.62626404 14.38232443 12 13 C12 12.34 12 11.68 12 11 C11.34 11 10.68 11 10 11 C10 10.34 10 9.68 10 9 C9.34 9 8.68 9 8 9 C8 8.34 8 7.68 8 7 C7.01 6.67 6.02 6.34 5 6 C3.3125 4.5625 3.3125 4.5625 2 3 C2 2.34 2 1.68 2 1 C1.34 0.67 0.68 0.34 0 0 Z " fill="#0E65DF" transform="translate(55,89)"/>
<path d="M0 0 C2.5625 -0.5 2.5625 -0.5 6 0 C8.66446231 2.41150703 10.77825676 5.18650917 13 8 C13.56332031 8.51949219 14.12664062 9.03898437 14.70703125 9.57421875 C16 11 16 11 16 14 C12.16444775 12.4373676 9.86390275 9.93550032 7 7 C6.236875 6.443125 5.47375 5.88625 4.6875 5.3125 C4.130625 4.879375 3.57375 4.44625 3 4 C3 3.34 3 2.68 3 2 C2.01 1.67 1.02 1.34 0 1 C0 0.67 0 0.34 0 0 Z " fill="#0D64DE" transform="translate(73,72)"/>
<path d="M0 0 C2.97 0.495 2.97 0.495 6 1 C5.01 1.66 4.02 2.32 3 3 C3 4.32 3 5.64 3 7 C2.01 7 1.02 7 0 7 C0 4.69 0 2.38 0 0 Z " fill="#293E5E" transform="translate(127,111)"/>
</svg>
