<?xml version="1.0" encoding="UTF-8"?>
<svg version="1.1" xmlns="http://www.w3.org/2000/svg" width="422" height="119">
<path d="M0 0 C139.26 0 278.52 0 422 0 C422 39.27 422 78.54 422 119 C282.74 119 143.48 119 0 119 C0 79.73 0 40.46 0 0 Z " fill="#FCFCFC" transform="translate(0,0)"/>
<path d="M0 0 C1.12894876 0.93274109 2.25300876 1.87140122 3.375 2.8125 C4.00148438 3.33457031 4.62796875 3.85664062 5.2734375 4.39453125 C7 6 7 6 9 9 C4.05 13.95 -0.9 18.9 -6 24 C-1.00002156 29.84637303 -1.00002156 29.84637303 4.26123047 35.37475586 C5.04158661 36.15503647 5.82194275 36.93531708 6.62594604 37.73924255 C7.44805573 38.55619095 8.27016541 39.37313934 9.1171875 40.21484375 C10.4029216 41.49845543 10.4029216 41.49845543 11.71463013 42.80799866 C14.43239954 45.52020465 17.15363891 48.2288983 19.875 50.9375 C21.72679342 52.78427369 23.57835834 54.63127653 25.4296875 56.47851562 C29.95048435 60.98833201 34.47412946 65.49527569 39 70 C42.62083128 68.30145963 44.94255354 66.28895218 47.765625 63.4296875 C49.09980469 62.08583984 49.09980469 62.08583984 50.4609375 60.71484375 C51.38132812 59.77769531 52.30171875 58.84054688 53.25 57.875 C54.19484856 56.92011363 55.14015633 55.96568141 56.0859375 55.01171875 C58.39518338 52.67890913 60.69963203 50.34155914 63 48 C63.48210937 48.42152344 63.96421875 48.84304687 64.4609375 49.27734375 C65.09257813 49.82519531 65.72421875 50.37304688 66.375 50.9375 C67.00148438 51.48277344 67.62796875 52.02804688 68.2734375 52.58984375 C69.95632334 54.06958624 69.95632334 54.06958624 72 55 C69.64584334 60.7295957 64.61008786 64.72340543 60.29711914 69.01855469 C58.6945767 70.61793726 57.10581607 72.230177 55.51757812 73.84375 C54.49560335 74.86799803 53.47284227 75.89146222 52.44921875 76.9140625 C51.52455811 77.8417041 50.59989746 78.7693457 49.6472168 79.72509766 C45.20702462 83.54080463 41.51954068 84.25058876 35.7409668 84.22705078 C33.87960335 84.22682419 33.87960335 84.22682419 31.9806366 84.22659302 C30.63682899 84.21638143 29.29302305 84.20594946 27.94921875 84.1953125 C26.5663117 84.19157931 25.18340198 84.18873378 23.80049133 84.18673706 C20.1721966 84.17912462 16.54406363 84.15949691 12.91583252 84.1373291 C9.20888456 84.11681899 5.5019103 84.10772433 1.79492188 84.09765625 C-5.47012559 84.07624855 -12.73504007 84.04214175 -20 84 C-20.16271209 75.92416742 -20.28682812 67.84902768 -20.3626852 59.7719574 C-20.39910707 56.02071949 -20.44844648 52.27060876 -20.52807617 48.52001953 C-20.60454346 44.89539645 -20.64607325 41.27185223 -20.6641407 37.64648438 C-20.67700314 36.26854478 -20.70212196 34.89065949 -20.7401104 33.51318359 C-21.06095873 21.38886251 -21.06095873 21.38886251 -16.67773438 16.31640625 C-15.47755176 15.18305646 -14.25169771 14.07618442 -13 13 C-11.81628583 11.7994369 -10.63938389 10.59207749 -9.47265625 9.375 C-8.33854602 8.2473704 -7.20184517 7.12234001 -6.0625 6 C-5.47404297 5.41605469 -4.88558594 4.83210938 -4.27929688 4.23046875 C-2.85520207 2.81795195 -1.4279475 1.4086219 0 0 Z " fill="#D84445" transform="translate(20,35)"/>
<path d="M0 0 C4.95 0 9.9 0 15 0 C15.01458252 1.56363281 15.02916504 3.12726562 15.04418945 4.73828125 C15.10232781 10.5606123 15.17956053 16.38256291 15.26245117 22.20458984 C15.29562736 24.72047738 15.32368184 27.23643803 15.34643555 29.75244141 C15.38011518 33.37694344 15.43243991 37.00077979 15.48828125 40.625 C15.49467117 41.74302002 15.5010611 42.86104004 15.50764465 44.01293945 C15.62586644 50.34681242 16.20702798 55.2734057 19 61 C23.57237716 64.40066343 28.07500664 64.49021828 33.5625 64.4375 C34.30435547 64.45748047 35.04621094 64.47746094 35.81054688 64.49804688 C39.39526773 64.49485478 41.61284084 64.19970383 44.83984375 62.53515625 C50.52740269 55.86024531 50.46163712 47.34410436 50.51171875 38.96484375 C50.52966995 37.84557999 50.54762115 36.72631622 50.56611633 35.57313538 C50.61993176 32.02796094 50.65402311 28.48291891 50.6875 24.9375 C50.7206984 22.52146606 50.75519037 20.10544954 50.79101562 17.68945312 C50.87564191 11.79306473 50.94259022 5.89671365 51 0 C55.62 0 60.24 0 65 0 C65.07446173 7.79213398 65.12875012 15.58405827 65.16479492 23.37646484 C65.17983019 26.02428803 65.20026376 28.67208653 65.22631836 31.31982422 C65.26293261 35.13775752 65.27977966 38.95535993 65.29296875 42.7734375 C65.30845261 43.94675629 65.32393646 45.12007507 65.33988953 46.32894897 C65.34191157 56.32711203 64.1026277 64.88099636 57.03515625 72.30859375 C49.6163575 78.47431325 41.05507016 79.21615632 31.8125 79.3125 C30.90435547 79.34150391 29.99621094 79.37050781 29.06054688 79.40039062 C21.2225713 79.47332812 15.00282179 77.4266723 8.6875 72.75 C0.20647939 64.07174636 -0.29967263 52.93045906 -0.1953125 41.40625 C-0.1924826 40.21898315 -0.18965271 39.03171631 -0.18673706 37.80847168 C-0.17559598 34.03887599 -0.15050226 30.26952315 -0.125 26.5 C-0.11496237 23.93489928 -0.10583789 21.36979481 -0.09765625 18.8046875 C-0.07567647 12.53636562 -0.04118829 6.2682239 0 0 Z " fill="#282528" transform="translate(206,22)"/>
<path d="M0 0 C3.59713039 3.50720213 5.74736146 7.4143579 6.24050903 12.46150208 C6.2338472 13.75056709 6.2338472 13.75056709 6.22705078 15.06567383 C6.22689972 16.04631302 6.22674866 17.02695221 6.22659302 18.03730774 C6.21627045 19.0833165 6.20594788 20.12932526 6.1953125 21.20703125 C6.1924826 22.28756271 6.18965271 23.36809418 6.18673706 24.48136902 C6.17556132 27.92519301 6.15046118 31.36875489 6.125 34.8125 C6.11496685 37.15038686 6.10584158 39.48827781 6.09765625 41.82617188 C6.07563046 47.55088191 6.04111821 53.27539655 6 59 C1.38 59 -3.24 59 -8 59 C-8.029729 57.07752441 -8.029729 57.07752441 -8.06005859 55.11621094 C-8.13614503 50.35998933 -8.22485798 45.60407243 -8.31738281 40.84814453 C-8.35565995 38.78993751 -8.39051504 36.73166388 -8.421875 34.67333984 C-8.46755278 31.71427612 -8.52554302 28.75567043 -8.5859375 25.796875 C-8.59748871 24.87694763 -8.60903992 23.95702026 -8.62094116 23.00921631 C-8.64081085 22.1486261 -8.66068054 21.28803589 -8.68115234 20.40136719 C-8.69447601 19.64635925 -8.70779968 18.89135132 -8.7215271 18.11346436 C-9.04058246 15.69200027 -9.72705453 14.07694248 -11 12 C-15.45186402 9.21758499 -20.93163928 9.38384634 -26 10 C-30.95 11.485 -30.95 11.485 -36 13 C-36 28.18 -36 43.36 -36 59 C-40.62 59 -45.24 59 -50 59 C-50 38.87 -50 18.74 -50 -2 C-45.71 -2 -41.42 -2 -37 -2 C-36.67 -0.35 -36.34 1.3 -36 3 C-35.32453125 2.57847656 -34.6490625 2.15695313 -33.953125 1.72265625 C-33.06109375 1.17480469 -32.1690625 0.62695312 -31.25 0.0625 C-29.92742187 -0.75541016 -29.92742187 -0.75541016 -28.578125 -1.58984375 C-19.78705585 -6.39829218 -8.43171704 -4.91850161 0 0 Z " fill="#262326" transform="translate(335,41)"/>
<path d="M0 0 C3.96 0 7.92 0 12 0 C12 4.95 12 9.9 12 15 C18.6 15 25.2 15 32 15 C32 18.63 32 22.26 32 26 C25.4 26 18.8 26 12 26 C12.09704605 30.48454916 12.19984048 34.96819757 12.31738281 39.45214844 C12.35561266 40.97680658 12.390476 42.50155307 12.421875 44.02636719 C12.46765662 46.22102381 12.52562766 48.4150754 12.5859375 50.609375 C12.59748871 51.2886908 12.60903992 51.96800659 12.62094116 52.66790771 C12.73099388 56.21469541 12.87756791 59.07552232 15 62 C18.61867559 63.2062252 21.92506251 63.10816918 25.6875 63.0625 C26.38939453 63.05798828 27.09128906 63.05347656 27.81445312 63.04882812 C29.54300538 63.03706927 31.27151365 63.01913454 33 63 C33 66.96 33 70.92 33 75 C28.24432385 77.37783808 24.95541509 77.40140698 19.75 77.4375 C18.92886719 77.47037109 18.10773438 77.50324219 17.26171875 77.53710938 C11.04754409 77.59127413 6.56960723 76.34951147 2 72 C-4.20968217 64.48487328 -2.4332066 53.05375662 -2.25 43.9375 C-2.22990621 42.19598406 -2.21166053 40.45444576 -2.1953125 38.71289062 C-2.15153994 34.47470223 -2.08267248 30.23760079 -2 26 C-4.64 26 -7.28 26 -10 26 C-10 22.37 -10 18.74 -10 15 C-7.36 15 -4.72 15 -2 15 C-1.93941406 14.16855469 -1.87882812 13.33710937 -1.81640625 12.48046875 C-1.73261719 11.39378906 -1.64882813 10.30710937 -1.5625 9.1875 C-1.48128906 8.10855469 -1.40007812 7.02960937 -1.31640625 5.91796875 C-1 3 -1 3 0 0 Z " fill="#272427" transform="translate(389,24)"/>
<path d="M0 0 C1.32 1.65 2.64 3.3 4 5 C5.60659976 6.69475131 7.23818103 8.36602986 8.88867188 10.01806641 C9.36075577 10.49190262 9.83283966 10.96573883 10.31922913 11.45393372 C11.8665789 13.00565298 13.41752001 14.55372296 14.96875 16.1015625 C16.05218873 17.18567556 17.13547903 18.26993697 18.21862793 19.3543396 C20.48316037 21.62034227 22.7494813 23.88453667 25.01708984 26.14746094 C27.91894953 29.04361692 30.81628737 31.94424853 33.71230316 34.84624672 C35.94614917 37.08371072 38.18237699 39.31878199 40.41932678 41.55314255 C41.48854408 42.62169437 42.55702346 43.69098511 43.6247406 44.76103592 C45.11785916 46.25670208 46.61415987 47.74911171 48.11132812 49.24072266 C48.9608606 50.08945953 49.81039307 50.93819641 50.68566895 51.81265259 C53.18104537 54.25396285 53.18104537 54.25396285 57 57 C38.19 57 19.38 57 0 57 C0 38.19 0 19.38 0 0 Z " fill="#FEFCFC" transform="translate(0,62)"/>
<path d="M0 0 C4.95 0 9.9 0 15 0 C15.06816457 7.24187417 15.12303787 14.48356882 15.15543652 21.72569752 C15.17099747 25.08963388 15.19205684 28.45333668 15.22631836 31.81713867 C15.26296983 35.69716402 15.27978808 39.57686353 15.29296875 43.45703125 C15.30845261 44.64706253 15.32393646 45.83709381 15.33988953 47.06318665 C15.34180106 56.68316435 14.65721313 66.39152584 7.67578125 73.6328125 C2.25759174 78.05324683 -4.44636585 79.12416175 -11.265625 79.1328125 C-12.23757812 79.13410156 -13.20953125 79.13539062 -14.2109375 79.13671875 C-15.21382812 79.13285156 -16.21671875 79.12898438 -17.25 79.125 C-18.26835937 79.12886719 -19.28671875 79.13273437 -20.3359375 79.13671875 C-21.30273438 79.13542969 -22.26953125 79.13414063 -23.265625 79.1328125 C-24.15024414 79.13168457 -25.03486328 79.13055664 -25.94628906 79.12939453 C-28 79 -28 79 -29 78 C-29.07258946 75.81360547 -29.08373783 73.62499611 -29.0625 71.4375 C-29.05347656 70.23996094 -29.04445312 69.04242188 -29.03515625 67.80859375 C-29.02355469 66.88175781 -29.01195312 65.95492187 -29 65 C-28.39003174 64.98541748 -27.78006348 64.97083496 -27.15161133 64.95581055 C-24.37128936 64.88105225 -21.59213176 64.78448518 -18.8125 64.6875 C-17.85279297 64.66494141 -16.89308594 64.64238281 -15.90429688 64.61914062 C-8.87455479 64.48342212 -8.87455479 64.48342212 -3 61 C-0.22044671 55.10095697 -0.64883965 48.76543382 -0.5859375 42.3828125 C-0.56657135 41.17051971 -0.5472052 39.95822693 -0.5272522 38.709198 C-0.46760685 34.84786961 -0.42113055 30.98651117 -0.375 27.125 C-0.33680644 24.50259137 -0.29775391 21.88019509 -0.2578125 19.2578125 C-0.16191739 12.83864238 -0.07783025 6.41941354 0 0 Z " fill="#282528" transform="translate(177,22)"/>
<path d="M0 0 C3.76488042 1.72154788 6.15063897 3.99234114 9 7 C7.49945817 10.49130237 5.48794499 12.78118508 2.82910156 15.47729492 C1.96770569 16.35467819 1.10630981 17.23206146 0.21881104 18.1360321 C-0.72343651 19.08465579 -1.66617744 20.03278964 -2.609375 20.98046875 C-3.578708 21.95877336 -4.54796549 22.93715279 -5.51715088 23.91560364 C-7.54776223 25.96268162 -9.58270618 28.00534511 -11.62011719 30.0456543 C-14.22573076 32.65665641 -16.81479748 35.28343279 -19.40017319 37.91445446 C-21.39576956 39.93983524 -23.40256751 41.95382844 -25.41260529 43.96486855 C-26.37195216 44.92841314 -27.32719014 45.8960674 -28.27812958 46.86791039 C-29.6106537 48.22737738 -30.96077217 49.56953038 -32.31152344 50.91088867 C-33.07382263 51.67825851 -33.83612183 52.44562836 -34.621521 53.23625183 C-37.46402243 55.34409331 -39.49421393 55.77816053 -43 56 C-44.94921875 54.953125 -44.94921875 54.953125 -46.6875 53.25 C-47.35136719 52.61449219 -48.01523437 51.97898438 -48.69921875 51.32421875 C-49.83810547 50.17373047 -49.83810547 50.17373047 -51 49 C-51.98488015 48.02653681 -52.97060514 47.05392787 -53.95703125 46.08203125 C-56.65890613 43.40824239 -59.33428501 40.70981689 -62 38 C-61.06725891 36.87105124 -60.12859878 35.74699124 -59.1875 34.625 C-58.66542969 33.99851563 -58.14335938 33.37203125 -57.60546875 32.7265625 C-56 31 -56 31 -53 29 C-47.555 34.445 -47.555 34.445 -42 40 C-38.02661213 37.35107475 -35.22537014 35.47519546 -32.01416016 32.24121094 C-31.29386627 31.52076599 -30.57357239 30.80032104 -29.83145142 30.05804443 C-29.07496307 29.29123352 -28.31847473 28.52442261 -27.5390625 27.734375 C-26.74849457 26.94097717 -25.95792664 26.14757935 -25.1434021 25.33013916 C-22.63251324 22.80810239 -20.12868876 20.27918261 -17.625 17.75 C-15.91843112 16.03339438 -14.21140478 14.31724341 -12.50390625 12.6015625 C-8.33062523 8.4062926 -4.16311432 4.20535756 0 0 Z " fill="#292629" transform="translate(101,18)"/>
<path d="M0 0 C4.62 0 9.24 0 14 0 C14 20.13 14 40.26 14 61 C9.38 61 4.76 61 0 61 C0 40.87 0 20.74 0 0 Z " fill="#242024" transform="translate(355,39)"/>
<path d="M0 0 C3.63115119 2.70196772 6.78940381 5.81785813 10 9 C10.94488281 9.89589844 11.88976562 10.79179687 12.86328125 11.71484375 C18.09329963 16.75252765 18.09329963 16.75252765 20 19 C20 22 20 22 18.46875 23.60546875 C17.8190625 24.12753906 17.169375 24.64960938 16.5 25.1875 C15.8503125 25.71730469 15.200625 26.24710938 14.53125 26.79296875 C14.0259375 27.19128906 13.520625 27.58960937 13 28 C10.06769807 26.67879172 8.01335101 25.25361803 5.765625 22.9609375 C5.19199219 22.38085938 4.61835937 21.80078125 4.02734375 21.203125 C3.44082031 20.59984375 2.85429688 19.9965625 2.25 19.375 C1.64800781 18.76398437 1.04601562 18.15296875 0.42578125 17.5234375 C-1.05405305 16.02011376 -2.52764676 14.51065144 -4 13 C-7.66752005 14.5391801 -9.98580573 16.75485452 -12.765625 19.5703125 C-13.65507813 20.46621094 -14.54453125 21.36210937 -15.4609375 22.28515625 C-16.84152344 23.69087891 -16.84152344 23.69087891 -18.25 25.125 C-19.19484856 26.07988637 -20.14015633 27.03431859 -21.0859375 27.98828125 C-23.39518338 30.32109087 -25.69963203 32.65844086 -28 35 C-29.12894876 34.06725891 -30.25300876 33.12859878 -31.375 32.1875 C-32.00148438 31.66542969 -32.62796875 31.14335938 -33.2734375 30.60546875 C-35 29 -35 29 -37 26 C-33.54087865 22.46655042 -30.07188844 18.9432013 -26.59350586 15.42871094 C-25.41237495 14.23252243 -24.23395425 13.03365136 -23.05834961 11.83203125 C-21.36502482 10.10219079 -19.66208789 8.3823308 -17.95703125 6.6640625 C-17.43599319 6.12754059 -16.91495514 5.59101868 -16.37812805 5.03823853 C-11.24325601 -0.09895991 -7.14134685 -2.22435394 0 0 Z " fill="#299D5B" transform="translate(65,1)"/>
<path d="M0 0 C2.80711841 1.3529565 4.58285122 3.19493282 6.74609375 5.4296875 C7.53371094 6.23277344 8.32132813 7.03585938 9.1328125 7.86328125 C12.26621352 11.32718299 12.59886764 14.00616463 12.51171875 18.57421875 C11.64059756 23.22270168 8.36373329 25.8185958 5.05859375 28.9921875 C4.01051569 30.04569075 2.96513012 31.10187676 1.921875 32.16015625 C-1.01055273 35.12691442 -3.96989916 38.06459431 -6.94140625 40.9921875 C-8.07035501 40.05944641 -9.19441501 39.12078628 -10.31640625 38.1796875 C-10.94289063 37.65761719 -11.569375 37.13554688 -12.21484375 36.59765625 C-13.94140625 34.9921875 -13.94140625 34.9921875 -15.94140625 31.9921875 C-10.99140625 27.0421875 -6.04140625 22.0921875 -0.94140625 16.9921875 C-2.92140625 14.6821875 -4.90140625 12.3721875 -6.94140625 9.9921875 C-7.60140625 9.0021875 -8.26140625 8.0121875 -8.94140625 6.9921875 C-7.87424553 5.79013286 -6.78702288 4.60586417 -5.69140625 3.4296875 C-5.088125 2.76839844 -4.48484375 2.10710938 -3.86328125 1.42578125 C-1.94140625 -0.0078125 -1.94140625 -0.0078125 0 0 Z " fill="#299D5B" transform="translate(106.94140625,43.0078125)"/>
<path d="M0 0 C5.28 0 10.56 0 16 0 C16 4.29 16 8.58 16 13 C10.72 13 5.44 13 0 13 C0 8.71 0 4.42 0 0 Z " fill="#343134" transform="translate(354,17)"/>
</svg>
