<svg xmlns="http://www.w3.org/2000/svg" width="275" height="183" viewBox="0 0 275 183" version="1.1"><path d="M 90 37.807 L 78.500 44.581 78.500 84.982 L 78.500 125.383 101.500 138.651 C 114.150 145.948, 125.175 151.924, 126 151.931 C 126.825 151.937, 137.850 145.965, 150.500 138.660 L 173.500 125.377 174 111.961 L 174.500 98.545 185.777 92.145 L 197.053 85.745 196.777 71.643 L 196.500 57.542 185 50.776 C 178.675 47.055, 172.878 44.009, 172.119 44.006 C 170.744 44, 154.993 52.612, 149.750 56.236 L 147 58.136 147 70.962 L 147 83.788 137.500 89.321 L 128 94.854 128 69.995 L 128 45.136 125.250 43.236 C 119.971 39.587, 104.252 31, 102.881 31.016 C 102.122 31.025, 96.325 34.081, 90 37.807 M 94 39.628 C 89.875 42.070, 85.884 44.438, 85.131 44.890 C 84.164 45.471, 86.403 47.225, 92.749 50.857 C 97.693 53.685, 102.306 56, 103 56 C 104.376 56, 122.311 45.972, 121.808 45.484 C 120.471 44.187, 103.587 35.021, 102.671 35.094 C 102.027 35.146, 98.125 37.186, 94 39.628 M 163 52.603 C 158.875 55.079, 154.884 57.467, 154.131 57.909 C 153.173 58.472, 155.463 60.259, 161.749 63.857 C 166.693 66.685, 171.306 69, 172 69 C 173.376 69, 191.311 58.972, 190.808 58.484 C 189.531 57.245, 172.593 48.011, 171.671 48.050 C 171.027 48.078, 167.125 50.127, 163 52.603 M 82.238 86.178 L 82.500 123.485 96.500 131.554 C 104.200 135.992, 113.537 141.322, 117.250 143.398 L 124 147.172 124 136.150 L 124 125.128 112.750 118.794 L 101.500 112.460 101.234 85.908 L 100.968 59.355 97.734 57.730 C 95.955 56.837, 91.682 54.478, 88.238 52.488 L 81.976 48.870 82.238 86.178 M 115.237 53.834 C 110.693 56.469, 106.522 59.078, 105.969 59.631 C 105.336 60.264, 105.062 69.379, 105.231 84.238 L 105.500 107.840 114.750 102.383 L 124 96.927 124 72.963 C 124 59.783, 123.888 49.010, 123.750 49.022 C 123.612 49.034, 119.782 51.199, 115.237 53.834 M 151 72.836 L 151 83.788 160.500 89.321 L 170 94.854 170 83.612 L 170 72.370 166.750 70.738 C 164.963 69.840, 160.688 67.481, 157.250 65.495 L 151 61.884 151 72.836 M 183.273 67.285 L 174.046 72.500 174.023 83.250 C 174.010 89.162, 174.284 94, 174.631 94 C 174.979 94, 179.254 91.716, 184.131 88.925 L 193 83.850 193 72.925 C 193 66.916, 192.887 62.016, 192.750 62.035 C 192.613 62.054, 188.348 64.417, 183.273 67.285 M 132 96.599 C 122.925 101.856, 113.540 107.295, 111.144 108.683 L 106.789 111.208 116.404 116.673 L 126.019 122.138 145.759 110.910 C 156.617 104.735, 166.075 99.238, 166.777 98.696 C 167.715 97.972, 165.595 96.299, 158.777 92.385 C 153.675 89.456, 149.275 87.055, 149 87.049 C 148.725 87.043, 141.075 91.341, 132 96.599 M 148.750 113.283 L 128 125.150 128 136.110 L 128 147.070 130.250 145.885 C 141.279 140.076, 169.256 123.497, 169.616 122.558 C 169.868 121.902, 169.945 116.876, 169.787 111.391 L 169.500 101.416 148.750 113.283" stroke="none" fill="#fc281d" fill-rule="evenodd"/><path d="M 0 91.504 L 0 183.007 137.750 182.754 L 275.500 182.500 275.755 91.250 L 276.011 0 138.005 0 L 0 0 0 91.504 M 0.479 92 C 0.479 142.325, 0.601 162.913, 0.750 137.750 C 0.898 112.588, 0.898 71.413, 0.750 46.250 C 0.601 21.088, 0.479 41.675, 0.479 92 M 90 37.807 L 78.500 44.581 78.500 84.982 L 78.500 125.383 101.500 138.651 C 114.150 145.948, 125.175 151.924, 126 151.931 C 126.825 151.937, 137.850 145.965, 150.500 138.660 L 173.500 125.377 174 111.961 L 174.500 98.545 185.777 92.145 L 197.053 85.745 196.777 71.643 L 196.500 57.542 185 50.776 C 178.675 47.055, 172.878 44.009, 172.119 44.006 C 170.744 44, 154.993 52.612, 149.750 56.236 L 147 58.136 147 70.962 L 147 83.788 137.500 89.321 L 128 94.854 128 69.995 L 128 45.136 125.250 43.236 C 119.971 39.587, 104.252 31, 102.881 31.016 C 102.122 31.025, 96.325 34.081, 90 37.807 M 94 39.628 C 89.875 42.070, 85.884 44.438, 85.131 44.890 C 84.164 45.471, 86.403 47.225, 92.749 50.857 C 97.693 53.685, 102.306 56, 103 56 C 104.376 56, 122.311 45.972, 121.808 45.484 C 120.471 44.187, 103.587 35.021, 102.671 35.094 C 102.027 35.146, 98.125 37.186, 94 39.628 M 163 52.603 C 158.875 55.079, 154.884 57.467, 154.131 57.909 C 153.173 58.472, 155.463 60.259, 161.749 63.857 C 166.693 66.685, 171.306 69, 172 69 C 173.376 69, 191.311 58.972, 190.808 58.484 C 189.531 57.245, 172.593 48.011, 171.671 48.050 C 171.027 48.078, 167.125 50.127, 163 52.603 M 82.238 86.178 L 82.500 123.485 96.500 131.554 C 104.200 135.992, 113.537 141.322, 117.250 143.398 L 124 147.172 124 136.150 L 124 125.128 112.750 118.794 L 101.500 112.460 101.234 85.908 L 100.968 59.355 97.734 57.730 C 95.955 56.837, 91.682 54.478, 88.238 52.488 L 81.976 48.870 82.238 86.178 M 115.237 53.834 C 110.693 56.469, 106.522 59.078, 105.969 59.631 C 105.336 60.264, 105.062 69.379, 105.231 84.238 L 105.500 107.840 114.750 102.383 L 124 96.927 124 72.963 C 124 59.783, 123.888 49.010, 123.750 49.022 C 123.612 49.034, 119.782 51.199, 115.237 53.834 M 151 72.836 L 151 83.788 160.500 89.321 L 170 94.854 170 83.612 L 170 72.370 166.750 70.738 C 164.963 69.840, 160.688 67.481, 157.250 65.495 L 151 61.884 151 72.836 M 183.273 67.285 L 174.046 72.500 174.023 83.250 C 174.010 89.162, 174.284 94, 174.631 94 C 174.979 94, 179.254 91.716, 184.131 88.925 L 193 83.850 193 72.925 C 193 66.916, 192.887 62.016, 192.750 62.035 C 192.613 62.054, 188.348 64.417, 183.273 67.285 M 132 96.599 C 122.925 101.856, 113.540 107.295, 111.144 108.683 L 106.789 111.208 116.404 116.673 L 126.019 122.138 145.759 110.910 C 156.617 104.735, 166.075 99.238, 166.777 98.696 C 167.715 97.972, 165.595 96.299, 158.777 92.385 C 153.675 89.456, 149.275 87.055, 149 87.049 C 148.725 87.043, 141.075 91.341, 132 96.599 M 148.750 113.283 L 128 125.150 128 136.110 L 128 147.070 130.250 145.885 C 141.279 140.076, 169.256 123.497, 169.616 122.558 C 169.868 121.902, 169.945 116.876, 169.787 111.391 L 169.500 101.416 148.750 113.283" stroke="none" fill="#fcfbfb" fill-rule="evenodd"/></svg>