<svg version="1.1" id="Layer_1" xmlns="http://www.w3.org/2000/svg" xmlns:xlink="http://www.w3.org/1999/xlink" x="0px" y="0px"
	 width="100%" viewBox="0 0 289 174" enable-background="new 0 0 289 174" xml:space="preserve">
<path fill="#FEFEFE" opacity="1.000000" stroke="none" 
	d="
M173.000000,175.000000 
	C115.333344,175.000000 58.166679,175.000000 1.000015,175.000000 
	C1.000010,117.000015 1.000010,59.000027 1.000005,1.000031 
	C97.333313,1.000021 193.666626,1.000021 289.999939,1.000010 
	C289.999969,58.999969 289.999969,116.999939 290.000000,174.999954 
	C251.166672,175.000000 212.333328,175.000000 173.000000,175.000000 
M220.773621,147.532425 
	C221.085541,148.245407 221.397461,148.958405 221.709381,149.671387 
	C222.131897,148.775726 222.554428,147.880051 222.880463,146.417877 
	C222.373489,146.144806 221.866501,145.871735 221.359512,145.598663 
	C221.257858,146.052872 221.156204,146.507095 220.773621,147.532425 
M107.378647,134.211838 
	C105.940948,134.679276 104.503242,135.146713 102.295120,135.520004 
	C96.842766,139.556793 96.720268,144.616943 102.235046,149.173386 
	C104.788467,150.224152 107.388702,151.519714 109.763313,147.974014 
	C115.338554,143.667953 114.449455,137.449310 107.378647,134.211838 
M145.308365,144.047958 
	C147.351288,141.443359 149.394211,138.838760 151.437149,136.234161 
	C151.101761,135.650360 150.766373,135.066574 150.430984,134.482773 
	C146.932068,134.731766 143.433151,134.980743 139.314728,135.451294 
	C135.293716,139.150391 135.314178,141.282288 139.145554,145.593857 
	C138.741669,147.402573 138.337799,149.211273 137.395279,151.384796 
	C137.000214,152.831940 135.850388,155.139709 136.344467,155.573013 
	C138.202347,157.202347 140.596024,158.220749 143.309341,159.763962 
	C141.455643,156.109024 140.248337,153.728607 139.711426,150.909134 
	C143.812500,148.990982 147.080612,149.550720 148.858704,154.269882 
	C151.544769,150.625473 150.640457,148.602066 146.428040,147.522705 
	C144.606949,147.056076 142.953690,145.934479 141.832596,145.115326 
	C142.731125,144.791611 143.629669,144.467911 145.308365,144.047958 
M213.756607,146.029327 
	C217.442795,144.122482 218.100510,141.128983 214.728668,138.326675 
	C212.672668,136.617950 213.379257,135.614731 214.759125,133.594543 
	C215.684036,129.184753 213.088364,127.427704 209.382004,127.104515 
	C205.713211,126.784599 201.994736,127.034561 198.529526,127.034561 
	C202.709686,133.670395 200.886871,140.410522 199.429962,147.051804 
	C198.744110,147.756866 198.058258,148.461914 197.372391,149.166962 
	C198.244003,149.121704 199.115631,149.076462 200.828720,149.116226 
	C201.945999,149.236130 203.063278,149.356033 204.751602,149.893860 
	C208.527786,150.804962 210.987030,148.904846 213.756607,146.029327 
M162.426834,134.159485 
	C160.968369,134.664520 159.509888,135.169556 157.297897,135.626312 
	C152.211258,139.622604 152.094559,144.499725 157.225601,149.077759 
	C159.499771,149.001450 161.773926,148.925156 164.661301,148.586151 
	C170.478821,143.644089 169.755676,137.650391 162.426834,134.159485 
M174.364166,148.429855 
	C174.414154,148.814758 174.464142,149.199646 174.514130,149.584549 
	C174.989243,149.448395 175.464355,149.312241 176.772995,149.154221 
	C177.883118,149.189789 178.993240,149.225357 180.670990,149.741470 
	C182.413589,149.618164 184.156189,149.494858 185.898788,149.371552 
	C185.861526,148.700150 185.824280,148.028732 185.787018,147.357330 
	C183.976013,147.234055 182.164993,147.110794 179.886017,146.248749 
	C179.477066,140.601929 179.068115,134.955109 178.658951,129.305374 
	C183.884064,128.723572 188.420670,128.390274 190.757767,133.100159 
	C193.247864,138.118362 192.597809,142.947815 187.835892,146.670181 
	C188.586441,147.273468 189.117233,147.924561 189.325134,147.834030 
	C193.326492,146.091858 195.533356,142.904037 195.753494,138.637802 
	C195.956482,134.703629 195.301422,130.330811 191.095581,129.103043 
	C185.659241,127.516068 179.864319,127.157455 174.260254,126.275658 
	C176.628052,134.434433 176.943710,141.221725 174.364166,148.429855 
M71.727539,148.563950 
	C72.430061,148.755478 73.132591,148.947006 74.139534,148.921051 
	C74.309814,149.065598 74.480095,149.210144 74.650383,149.354706 
	C74.537239,149.429520 74.367462,149.593475 74.320717,149.563782 
	C74.114418,149.432693 73.943558,149.245834 73.698959,148.138382 
	C73.807419,145.518448 73.591537,142.825760 74.156120,140.308121 
	C74.454941,138.975571 76.205070,136.938080 77.131927,137.024353 
	C78.439629,137.146103 80.407402,138.788239 80.644173,140.051834 
	C81.174408,142.881653 80.810120,145.879074 80.810120,149.012238 
	C81.421188,149.012238 82.696098,149.012238 83.592506,149.012238 
	C83.592506,146.015930 83.331657,143.046173 83.718796,140.163467 
	C83.877258,138.983536 85.413849,137.153061 86.364365,137.127335 
	C87.544144,137.095367 89.752693,138.585480 89.791603,139.492172 
	C89.927109,142.649231 89.317474,145.838287 89.070610,149.147476 
	C89.070610,149.147476 88.819328,149.074646 88.819328,149.074646 
	C88.819328,149.074646 89.000938,149.071793 89.818756,148.756790 
	C90.887421,147.843292 92.608826,147.090851 92.882622,145.981216 
	C93.382011,143.957214 93.158516,141.711182 92.994720,139.576340 
	C92.659660,135.209366 89.951797,133.619202 85.762482,135.220963 
	C84.886925,135.555725 84.030952,136.393570 83.208641,136.340332 
	C78.809052,136.055405 74.422989,135.561554 70.526131,135.187363 
	C70.765129,140.249451 70.972809,144.648331 71.070358,149.371521 
	C70.842857,149.384247 70.615356,149.396973 70.387848,149.409714 
	C70.388405,149.306107 70.381699,149.112717 70.390587,149.112000 
	C70.628021,149.092804 70.867073,149.093430 71.727539,148.563950 
M149.696167,96.895462 
	C151.771790,94.985115 154.049652,93.250977 155.891510,91.136971 
	C172.952148,71.555565 171.800461,41.699039 153.349121,21.517363 
	C150.787369,18.715363 148.499100,15.663300 146.051483,12.087518 
	C145.867081,11.842074 145.699814,11.579810 145.486633,11.362622 
	C145.431122,11.306072 145.177521,11.340013 145.107376,11.416831 
	C142.654297,14.103291 139.918686,16.592279 137.833771,19.541004 
	C134.213516,24.661142 130.237534,29.732893 127.742859,35.410282 
	C117.394127,58.961990 124.322205,84.867172 143.963837,98.806107 
	C144.382248,102.424706 144.800644,106.043297 145.219040,109.661896 
	C145.761917,109.686012 146.304794,109.710129 146.847672,109.734253 
	C147.585800,105.535141 148.323929,101.336029 149.696167,96.895462 
M128.127335,142.555435 
	C127.788330,144.715866 127.449318,146.876312 127.105461,149.067673 
	C128.702774,149.067673 131.062546,149.067673 132.400787,149.067673 
	C131.982330,145.949982 131.848679,142.906342 131.089432,140.027710 
	C130.594849,138.152496 129.559235,135.977814 128.067947,134.958557 
	C127.022881,134.244293 124.799812,135.253632 124.343071,135.318115 
	C125.821411,137.812332 126.971901,139.753418 128.127335,142.555435 
M122.223831,149.270325 
	C122.674568,149.122696 123.125305,148.975067 123.576042,148.827423 
	C119.172310,146.640045 121.514732,142.610947 121.048706,139.369385 
	C120.867531,138.109100 121.127068,136.785461 121.185852,135.490692 
	C119.577225,135.490692 117.968605,135.490692 115.598251,135.490692 
	C120.105804,140.439056 118.086800,144.780411 116.924683,149.234222 
	C118.426369,149.234222 119.897774,149.234222 122.223831,149.270325 
M147.270660,156.710022 
	C147.321442,156.300659 147.372223,155.891281 147.423019,155.481918 
	C147.133804,155.479416 146.844604,155.476929 146.555389,155.474426 
	C146.602676,155.882477 146.649948,156.290512 147.270660,156.710022 
M95.306122,148.549057 
	C95.110008,148.508942 94.913895,148.468811 94.717781,148.428665 
	C94.851715,148.412460 94.985657,148.396240 95.306122,148.549057 
z"/>
<path fill="#11AB51" opacity="1.000000" stroke="none" 
	d="
M143.951660,97.917267 
	C124.322205,84.867172 117.394127,58.961990 127.742859,35.410282 
	C130.237534,29.732893 134.213516,24.661142 137.833771,19.541004 
	C139.918686,16.592279 142.654297,14.103291 145.107376,11.416831 
	C145.177521,11.340013 145.431122,11.306072 145.486633,11.362622 
	C145.699814,11.579810 145.867081,11.842074 146.042786,12.894777 
	C146.007034,39.838150 145.979980,65.974266 145.626862,92.241913 
	C144.851089,94.221382 144.401382,96.069328 143.951660,97.917267 
z"/>
<path fill="#149350" opacity="1.000000" stroke="none" 
	d="
M145.952911,92.110382 
	C145.979980,65.974266 146.007034,39.838150 146.059174,13.214520 
	C148.499100,15.663300 150.787369,18.715363 153.349121,21.517363 
	C171.800461,41.699039 172.952148,71.555565 155.891510,91.136971 
	C154.049652,93.250977 151.771790,94.985115 149.127747,96.788406 
	C147.690506,95.157692 146.821716,93.634041 145.952911,92.110382 
z"/>
<path fill="#20323E" opacity="1.000000" stroke="none" 
	d="
M88.991135,149.015167 
	C89.317474,145.838287 89.927109,142.649231 89.791603,139.492172 
	C89.752693,138.585480 87.544144,137.095367 86.364365,137.127335 
	C85.413849,137.153061 83.877258,138.983536 83.718796,140.163467 
	C83.331657,143.046173 83.592506,146.015930 83.592506,149.012238 
	C82.696098,149.012238 81.421188,149.012238 80.810120,149.012238 
	C80.810120,145.879074 81.174408,142.881653 80.644173,140.051834 
	C80.407402,138.788239 78.439629,137.146103 77.131927,137.024353 
	C76.205070,136.938080 74.454941,138.975571 74.156120,140.308121 
	C73.591537,142.825760 73.807419,145.518448 73.759781,148.608826 
	C73.820610,149.079254 73.835121,149.138535 73.835121,149.138550 
	C73.132591,148.947006 72.430061,148.755478 71.428574,148.804749 
	C71.129601,149.045532 71.180496,149.047211 71.180496,149.047211 
	C70.972809,144.648331 70.765129,140.249451 70.526131,135.187363 
	C74.422989,135.561554 78.809052,136.055405 83.208641,136.340332 
	C84.030952,136.393570 84.886925,135.555725 85.762482,135.220963 
	C89.951797,133.619202 92.659660,135.209366 92.994720,139.576340 
	C93.158516,141.711182 93.382011,143.957214 92.882622,145.981216 
	C92.608826,147.090851 90.887421,147.843292 89.422241,148.890610 
	C89.025726,149.024429 88.991135,149.015167 88.991135,149.015167 
z"/>
<path fill="#1B2E39" opacity="1.000000" stroke="none" 
	d="
M180.103363,149.260925 
	C178.993240,149.225357 177.883118,149.189789 176.295868,148.862640 
	C175.460602,148.412231 175.102463,148.253433 174.744308,148.094620 
	C176.943710,141.221725 176.628052,134.434433 174.260254,126.275658 
	C179.864319,127.157455 185.659241,127.516068 191.095581,129.103043 
	C195.301422,130.330811 195.956482,134.703629 195.753494,138.637802 
	C195.533356,142.904037 193.326492,146.091858 189.325134,147.834030 
	C189.117233,147.924561 188.586441,147.273468 187.835892,146.670181 
	C192.597809,142.947815 193.247864,138.118362 190.757767,133.100159 
	C188.420670,128.390274 183.884064,128.723572 178.658951,129.305374 
	C179.068115,134.955109 179.477066,140.601929 180.025284,146.989410 
	C180.144150,148.240372 180.123749,148.750641 180.103363,149.260925 
z"/>
<path fill="#23353F" opacity="1.000000" stroke="none" 
	d="
M204.180557,149.475937 
	C203.063278,149.356033 201.945999,149.236130 200.453552,148.745941 
	C200.092896,147.934814 200.107407,147.493942 200.121933,147.053085 
	C200.886871,140.410522 202.709686,133.670395 198.529526,127.034561 
	C201.994736,127.034561 205.713211,126.784599 209.382004,127.104515 
	C213.088364,127.427704 215.684036,129.184753 214.021881,133.826569 
	C212.665848,134.055603 212.047089,134.052612 211.466644,133.694672 
	C211.054169,128.389328 207.914795,128.546143 203.709869,129.105225 
	C204.230927,132.436859 204.668579,135.235229 204.759155,138.242233 
	C204.334885,142.125885 204.257721,145.800903 204.180557,149.475937 
z"/>
<path fill="#F4F5F5" opacity="1.000000" stroke="none" 
	d="
M164.048096,148.848846 
	C161.773926,148.925156 159.499771,149.001450 157.466385,148.498169 
	C157.821915,143.837265 157.936676,139.755920 158.051422,135.674591 
	C159.509888,135.169556 160.968369,134.664520 162.600220,134.750214 
	C165.665176,139.610840 165.696991,144.150558 164.048096,148.848846 
z"/>
<path fill="#EAECEC" opacity="1.000000" stroke="none" 
	d="
M204.466080,149.684906 
	C204.257721,145.800903 204.334885,142.125885 205.130859,138.240753 
	C206.840836,138.038498 207.831970,138.046356 209.144943,138.224136 
	C213.199921,139.760361 213.121506,142.885178 212.991425,146.033813 
	C210.987030,148.904846 208.527786,150.804962 204.466080,149.684906 
z"/>
<path fill="#23343E" opacity="1.000000" stroke="none" 
	d="
M128.124863,142.124969 
	C126.971901,139.753418 125.821411,137.812332 124.343071,135.318115 
	C124.799812,135.253632 127.022881,134.244293 128.067947,134.958557 
	C129.559235,135.977814 130.594849,138.152496 131.089432,140.027710 
	C131.848679,142.906342 131.982330,145.949982 132.400787,149.067673 
	C131.062546,149.067673 128.702774,149.067673 127.105461,149.067673 
	C127.449318,146.876312 127.788330,144.715866 128.124863,142.124969 
z"/>
<path fill="#B9C6C3" opacity="1.000000" stroke="none" 
	d="
M145.626862,92.241913 
	C146.821716,93.634041 147.690506,95.157692 148.810684,96.909134 
	C148.323929,101.336029 147.585800,105.535141 146.847672,109.734253 
	C146.304794,109.710129 145.761917,109.686012 145.219040,109.661896 
	C144.800644,106.043297 144.382248,102.424706 143.957764,98.361687 
	C144.401382,96.069328 144.851089,94.221382 145.626862,92.241913 
z"/>
<path fill="#2C3D48" opacity="1.000000" stroke="none" 
	d="
M137.933929,151.019989 
	C138.337799,149.211273 138.741669,147.402573 139.579926,145.290070 
	C140.417603,145.027664 140.820892,145.069031 141.224182,145.110413 
	C142.953690,145.934479 144.606949,147.056076 146.428040,147.522705 
	C150.640457,148.602066 151.544769,150.625473 148.858704,154.269882 
	C147.080612,149.550720 143.812500,148.990982 139.083832,151.099304 
	C138.282135,151.199631 138.108032,151.109818 137.933929,151.019989 
z"/>
<path fill="#0F2431" opacity="1.000000" stroke="none" 
	d="
M121.796509,149.252274 
	C119.897774,149.234222 118.426369,149.234222 116.924683,149.234222 
	C118.086800,144.780411 120.105804,140.439056 115.598251,135.490692 
	C117.968605,135.490692 119.577225,135.490692 121.185852,135.490692 
	C121.127068,136.785461 120.867531,138.109100 121.048706,139.369385 
	C121.514732,142.610947 119.172310,146.640045 123.576042,148.827423 
	C123.125305,148.975067 122.674568,149.122696 121.796509,149.252274 
z"/>
<path fill="#EEEFEF" opacity="1.000000" stroke="none" 
	d="
M139.934235,135.229736 
	C143.433151,134.980743 146.932068,134.731766 150.430984,134.482773 
	C150.766373,135.066574 151.101761,135.650360 151.437149,136.234161 
	C149.394211,138.838760 147.351288,141.443359 144.732376,144.093765 
	C143.896759,144.009186 143.793579,143.801208 143.994934,143.163040 
	C146.959885,138.880127 146.285400,137.665085 140.203506,135.861145 
	C140.030502,135.696945 139.934235,135.229736 139.934235,135.229736 
z"/>
<path fill="#2B3C46" opacity="1.000000" stroke="none" 
	d="
M213.374023,146.031570 
	C213.121506,142.885178 213.199921,139.760361 209.169556,137.898071 
	C209.724350,136.284607 210.576324,135.167114 211.428314,134.049622 
	C212.047089,134.052612 212.665848,134.055603 213.748550,134.072601 
	C213.379257,135.614731 212.672668,136.617950 214.728668,138.326675 
	C218.100510,141.128983 217.442795,144.122482 213.374023,146.031570 
z"/>
<path fill="#243640" opacity="1.000000" stroke="none" 
	d="
M164.354706,148.717499 
	C165.696991,144.150558 165.665176,139.610840 162.867615,134.919769 
	C169.755676,137.650391 170.478821,143.644089 164.354706,148.717499 
z"/>
<path fill="#273A45" opacity="1.000000" stroke="none" 
	d="
M101.981079,148.492691 
	C96.720268,144.616943 96.842766,139.556793 102.722954,135.920227 
	C103.136459,136.557159 103.122131,136.793854 102.735565,137.228424 
	C102.678131,140.612488 102.992928,143.798706 103.161446,147.293243 
	C102.670471,147.898621 102.325775,148.195663 101.981079,148.492691 
z"/>
<path fill="#273A45" opacity="1.000000" stroke="none" 
	d="
M157.674667,135.650452 
	C157.936676,139.755920 157.821915,143.837265 157.349899,148.151825 
	C152.094559,144.499725 152.211258,139.622604 157.674667,135.650452 
z"/>
<path fill="#263741" opacity="1.000000" stroke="none" 
	d="
M107.860161,134.662842 
	C114.449455,137.449310 115.338554,143.667953 109.393982,147.701111 
	C109.024651,147.428207 108.931480,146.994354 109.162521,146.671600 
	C108.837860,142.919159 108.282150,139.489456 107.774628,135.711945 
	C107.835258,135.130371 107.847710,134.896606 107.860161,134.662842 
z"/>
<path fill="#23343E" opacity="1.000000" stroke="none" 
	d="
M143.846848,143.515656 
	C143.793579,143.801208 143.896759,144.009186 144.342285,144.141891 
	C143.629669,144.467911 142.731125,144.791611 141.528381,145.112869 
	C140.820892,145.069031 140.417603,145.027664 139.710236,144.982147 
	C135.314178,141.282288 135.293716,139.150391 139.624481,135.340515 
	C139.934235,135.229736 140.030502,135.696945 140.066345,136.216370 
	C138.489990,140.575623 138.820129,143.342651 143.846848,143.515656 
z"/>
<path fill="#EAECEC" opacity="1.000000" stroke="none" 
	d="
M137.664597,151.202393 
	C138.108032,151.109818 138.282135,151.199631 138.748657,151.318832 
	C140.248337,153.728607 141.455643,156.109024 143.309341,159.763962 
	C140.596024,158.220749 138.202347,157.202347 136.344467,155.573013 
	C135.850388,155.139709 137.000214,152.831940 137.664597,151.202393 
z"/>
<path fill="#F3F4F5" opacity="1.000000" stroke="none" 
	d="
M108.931480,146.994354 
	C108.931480,146.994354 109.024651,147.428207 109.034149,147.649872 
	C107.388702,151.519714 104.788467,150.224152 102.108063,148.833038 
	C102.325775,148.195663 102.670471,147.898621 103.562263,147.282227 
	C105.716736,146.973343 107.324112,146.983856 108.931480,146.994354 
z"/>
<path fill="#F9FAFA" opacity="1.000000" stroke="none" 
	d="
M180.387177,149.501190 
	C180.123749,148.750641 180.144150,148.240372 180.259262,147.358795 
	C182.164993,147.110794 183.976013,147.234055 185.787018,147.357330 
	C185.824280,148.028732 185.861526,148.700150 185.898788,149.371552 
	C184.156189,149.494858 182.413589,149.618164 180.387177,149.501190 
z"/>
<path fill="#F3F4F5" opacity="1.000000" stroke="none" 
	d="
M107.619400,134.437347 
	C107.847710,134.896606 107.835258,135.130371 107.476196,135.879761 
	C105.788986,136.607132 104.448395,136.818848 103.107796,137.030563 
	C103.122131,136.793854 103.136459,136.557159 103.108170,135.967285 
	C104.503242,135.146713 105.940948,134.679276 107.619400,134.437347 
z"/>
<path fill="#EAECEC" opacity="1.000000" stroke="none" 
	d="
M199.775940,147.052444 
	C200.107407,147.493942 200.092896,147.934814 200.032806,148.703445 
	C199.115631,149.076462 198.244003,149.121704 197.372391,149.166962 
	C198.058258,148.461914 198.744110,147.756866 199.775940,147.052444 
z"/>
<path fill="#B9C6C3" opacity="1.000000" stroke="none" 
	d="
M222.976944,146.984390 
	C222.554428,147.880051 222.131897,148.775726 221.709381,149.671387 
	C221.397461,148.958405 221.085541,148.245407 221.233124,147.295029 
	C222.120728,147.033218 222.548843,147.008804 222.976944,146.984390 
z"/>
<path fill="#EAECEC" opacity="1.000000" stroke="none" 
	d="
M146.983948,156.704285 
	C146.649948,156.290512 146.602676,155.882477 146.555389,155.474426 
	C146.844604,155.476929 147.133804,155.479416 147.423019,155.481918 
	C147.372223,155.891281 147.321442,156.300659 146.983948,156.704285 
z"/>
<path fill="#F9FAFA" opacity="1.000000" stroke="none" 
	d="
M174.554230,148.262238 
	C175.102463,148.253433 175.460602,148.412231 175.879120,148.873566 
	C175.464355,149.312241 174.989243,149.448395 174.514130,149.584549 
	C174.464142,149.199646 174.414154,148.814758 174.554230,148.262238 
z"/>
<path fill="#898F94" opacity="1.000000" stroke="none" 
	d="
M222.928711,146.701141 
	C222.548843,147.008804 222.120728,147.033218 221.373596,147.009460 
	C221.156204,146.507095 221.257858,146.052872 221.359512,145.598663 
	C221.866501,145.871735 222.373489,146.144806 222.928711,146.701141 
z"/>
<path fill="#20323E" opacity="1.000000" stroke="none" 
	d="
M71.117722,149.068115 
	C70.867073,149.093430 70.628021,149.092804 70.390587,149.112000 
	C70.381699,149.112717 70.388405,149.306107 70.387848,149.409714 
	C70.615356,149.396973 70.842857,149.384247 71.125427,149.209366 
	C71.180496,149.047211 71.129601,149.045532 71.117722,149.068115 
z"/>
<path fill="#20323E" opacity="1.000000" stroke="none" 
	d="
M73.790237,149.079224 
	C73.943558,149.245834 74.114418,149.432693 74.320717,149.563782 
	C74.367462,149.593475 74.537239,149.429520 74.650375,149.354706 
	C74.480095,149.210144 74.309814,149.065598 73.987328,149.029785 
	C73.835121,149.138535 73.820610,149.079254 73.790237,149.079224 
z"/>
<path fill="#20323E" opacity="1.000000" stroke="none" 
	d="
M95.212860,148.464539 
	C94.985657,148.396240 94.851715,148.412460 94.717781,148.428680 
	C94.913895,148.468811 95.110008,148.508942 95.212860,148.464539 
z"/>
<path fill="#20323E" opacity="1.000000" stroke="none" 
	d="
M89.013336,149.048111 
	C89.000938,149.071793 88.819328,149.074646 88.819328,149.074646 
	C88.819328,149.074646 89.070610,149.147476 89.030869,149.081329 
	C88.991135,149.015167 89.025726,149.024429 89.013336,149.048111 
z"/>
<path fill="#E5E6E7" opacity="1.000000" stroke="none" 
	d="
M211.466644,133.694672 
	C210.576324,135.167114 209.724350,136.284607 208.847748,137.728149 
	C207.831970,138.046356 206.840836,138.038498 205.477966,138.032135 
	C204.668579,135.235229 204.230927,132.436859 203.709869,129.105225 
	C207.914795,128.546143 211.054169,128.389328 211.466644,133.694672 
z"/>
<path fill="#FEFEFE" opacity="1.000000" stroke="none" 
	d="
M143.994934,143.163040 
	C138.820129,143.342651 138.489990,140.575623 140.239349,136.380554 
	C146.285400,137.665085 146.959885,138.880127 143.994934,143.163040 
z"/>
<path fill="#FEFEFE" opacity="1.000000" stroke="none" 
	d="
M102.735565,137.228424 
	C104.448395,136.818848 105.788986,136.607132 107.428017,136.227585 
	C108.282150,139.489456 108.837860,142.919159 109.162521,146.671600 
	C107.324112,146.983856 105.716736,146.973343 103.708549,146.973877 
	C102.992928,143.798706 102.678131,140.612488 102.735565,137.228424 
z"/>
</svg>