<svg version="1.1" id="Layer_1" xmlns="http://www.w3.org/2000/svg" xmlns:xlink="http://www.w3.org/1999/xlink" x="0px" y="0px"
	 width="100%" viewBox="0 0 313 161" enable-background="new 0 0 313 161" xml:space="preserve">
<path fill="#FEFEFE" opacity="1.000000" stroke="none" 
	d="
M82.000000,162.000000 
	C55.128067,162.000000 28.256138,162.000153 1.384206,161.995316 
	C1.256132,161.995300 1.128069,161.924393 1.000000,161.886581 
	C1.000000,157.573807 1.000000,153.261032 1.218812,148.376434 
	C1.764928,147.668686 1.949852,147.424805 2.248829,147.168976 
	C2.677742,147.205139 2.850221,147.145325 3.447266,147.196136 
	C5.908288,147.228302 7.944746,147.149841 10.231431,147.156921 
	C10.647601,147.182938 10.813542,147.123398 10.884504,147.150772 
	C10.789523,147.237686 10.919019,147.460236 11.083824,147.601151 
	C11.475067,147.462006 11.701506,147.181946 11.945934,146.439728 
	C11.963924,133.666946 11.963924,121.356339 11.963924,109.045723 
	C17.651852,119.803040 22.640120,130.593307 27.410074,141.479248 
	C29.379629,145.974136 32.417324,148.145981 37.389862,148.100677 
	C42.167206,148.057159 45.121811,145.912903 46.984074,141.631577 
	C50.617550,133.278214 54.393623,124.986610 58.144772,116.684853 
	C59.414894,113.873917 60.787979,111.109512 62.481438,107.551979 
	C62.740582,109.703751 62.878815,110.851547 62.924953,112.460480 
	C62.894211,122.614380 62.955566,132.307159 62.916573,142.391449 
	C62.876740,143.853256 62.937256,144.923553 62.968735,146.317963 
	C63.301514,146.789856 63.663334,146.937668 64.449554,147.196106 
	C66.909729,147.228378 68.945518,147.150009 71.240875,147.157272 
	C71.672684,147.183365 71.844910,147.123825 72.411621,146.869797 
	C72.850174,133.717438 73.082771,120.754959 72.765160,107.805977 
	C72.707733,105.464401 70.970352,102.179680 69.014374,101.046677 
	C62.112785,97.048897 55.181534,99.708122 51.898293,106.962608 
	C48.076298,115.407494 44.306087,123.875801 40.494526,132.325424 
	C39.455223,134.629379 38.348022,136.902710 36.913918,139.951248 
	C31.683973,127.931885 26.963428,116.844597 22.039942,105.848167 
	C18.485863,97.910255 7.276034,96.963936 2.134054,104.261078 
	C2.009499,104.473846 1.871390,104.947205 1.653063,104.952499 
	C1.434736,104.957787 1.000000,105.000000 1.000000,105.000000 
	C1.000000,70.383278 1.000000,35.766556 1.000000,1.000000 
	C67.354156,1.000000 133.708420,1.000000 200.413391,1.337036 
	C195.160889,4.757476 194.055328,8.834919 198.746063,14.198846 
	C204.669769,20.972664 205.599411,30.299725 210.545670,36.922901 
	C217.007370,45.575340 212.698151,53.380829 212.438080,61.674412 
	C212.216782,68.731590 213.284088,75.751556 218.592148,81.092262 
	C219.798767,82.306313 222.272171,83.263527 223.788467,82.875870 
	C225.205688,82.513557 226.469162,80.356430 227.174881,78.719604 
	C227.980499,76.850983 228.094818,74.684311 228.515320,72.618774 
	C232.441284,77.557854 236.182678,82.264740 239.924072,86.971626 
	C240.265381,86.705376 240.606674,86.439117 240.947983,86.172859 
	C236.722076,78.239075 232.496170,70.305290 227.436310,60.805847 
	C225.315598,67.422386 223.514999,73.040154 221.493454,79.347305 
	C220.264053,77.510658 218.793198,75.973106 218.084839,74.140800 
	C215.028976,66.236092 215.243332,58.321804 217.923065,50.253094 
	C218.699875,47.914093 218.482208,44.777237 217.579483,42.448410 
	C215.866852,38.030270 213.334549,33.929249 211.134125,29.700968 
	C208.476486,24.594076 205.709381,19.540775 203.190216,14.366623 
	C201.957962,11.835690 201.179794,9.083676 200.196106,6.431724 
	C202.982742,6.812164 205.957977,6.704844 208.510086,7.691744 
	C212.003235,9.042539 215.085678,12.594301 218.499557,12.816611 
	C234.377930,13.850600 245.761673,22.573303 254.621094,34.333145 
	C260.823181,42.565704 265.419861,52.199921 269.597290,61.707371 
	C273.213928,69.938522 277.620697,75.770439 286.900848,78.327568 
	C292.516998,79.875099 297.286469,84.495369 302.781433,87.952179 
	C295.854309,89.365784 290.127930,90.534363 284.277557,91.728241 
	C286.948303,99.652611 296.980804,107.262146 310.651154,111.079605 
	C304.158844,105.715118 297.666565,100.350624 290.654785,94.556915 
	C296.885834,93.232834 302.344849,92.072807 307.803894,90.912773 
	C308.004333,90.337967 308.204773,89.763161 308.405212,89.188354 
	C302.358704,84.623543 296.928986,78.350113 290.121735,75.892708 
	C279.803894,72.168022 275.926239,64.324348 272.110992,55.666454 
	C271.173798,53.539696 270.442749,51.282959 269.233948,49.322060 
	C264.903961,42.298004 261.109894,34.777859 255.805862,28.560564 
	C248.657013,20.180803 239.994339,12.473093 228.943848,10.483344 
	C220.048538,8.881660 212.997772,4.056826 205.000000,1.000000 
	C241.268616,1.000000 277.537231,1.000000 314.000000,1.000000 
	C314.000000,46.354042 314.000000,91.708366 313.782471,137.526764 
	C313.564972,137.990845 313.134918,137.924652 313.053772,137.635574 
	C312.496552,136.710129 312.020477,136.073746 311.440033,135.293442 
	C311.335632,135.149506 311.015930,134.992096 310.861816,134.721497 
	C309.781860,134.036896 308.856079,133.622894 307.576721,133.114532 
	C306.493134,133.045044 305.763153,133.069901 304.702271,133.050919 
	C303.247009,133.679398 302.122589,134.351730 300.708527,135.204895 
	C297.815491,138.773514 297.716064,142.123688 300.744873,145.680054 
	C301.260132,146.151749 301.600220,146.372925 302.124298,146.825470 
	C303.216949,147.341660 304.125580,147.626480 305.397156,147.955841 
	C306.481720,147.930725 307.203278,147.861053 308.235413,147.772522 
	C309.365814,147.170059 310.185669,146.586456 311.162537,145.915131 
	C311.319580,145.827423 311.518250,145.527542 311.740601,145.327209 
	C312.353577,144.443100 312.744232,143.759323 313.349915,143.042358 
	C313.564941,143.009186 314.000000,143.000000 314.000000,143.000000 
	C314.000000,149.320419 314.000000,155.640839 314.000000,162.000000 
	C248.979111,162.000000 183.958206,162.000000 118.617477,161.657913 
	C123.314552,160.145828 128.321106,158.961456 129.973755,152.519653 
	C130.039627,141.377213 129.998978,130.691437 130.054626,119.612068 
	C130.087326,118.145828 130.023712,117.073196 129.987045,115.686043 
	C129.668564,115.223305 129.323120,115.075081 128.553711,114.813248 
	C126.092575,114.776894 124.055389,114.854164 121.758774,114.844696 
	C121.326759,114.816925 121.154190,114.875900 120.584824,115.126953 
	C120.188019,123.741211 120.188019,132.163376 120.188019,140.988983 
	C112.277863,140.988983 105.006401,140.920059 97.737053,141.014511 
	C93.292542,141.072250 91.487595,139.123550 91.650200,134.640717 
	C91.883743,128.201981 91.709793,121.748436 91.709793,115.184952 
	C88.037247,115.184952 84.853859,115.184952 81.480995,115.184952 
	C81.480995,122.398102 81.581306,129.212265 81.444138,136.021652 
	C81.359116,140.242569 83.366936,143.089157 86.961769,144.658813 
	C89.487823,145.761780 92.332275,146.135559 95.494774,146.915314 
	C103.955795,147.059296 111.956581,147.122910 119.961319,147.585968 
	C120.766685,152.084305 118.868195,154.293976 114.514969,155.053497 
	C103.356888,154.996048 92.663147,154.996048 82.009552,154.996048 
	C82.009552,157.371704 82.009552,159.183594 81.938858,161.245972 
	C81.912109,161.664307 81.956055,161.832153 82.000000,162.000000 
M235.316742,154.464447 
	C238.300507,154.464447 241.284256,154.464447 245.362793,154.464447 
	C241.583160,150.959335 238.805191,148.383118 235.628647,145.437286 
	C241.186234,143.128113 241.682266,138.592453 241.648270,133.763504 
	C241.601456,127.113747 241.676941,120.463112 241.625824,113.813431 
	C241.567154,106.180267 238.577896,101.726791 231.143158,101.176903 
	C221.086990,100.433121 210.889252,100.446884 200.835297,101.218163 
	C193.599945,101.773209 190.639771,106.169975 190.583878,113.481796 
	C190.527969,120.796249 190.465729,128.114395 190.633850,135.425690 
	C190.776932,141.647568 192.841171,144.672394 198.939285,146.201935 
	C203.373611,147.314163 208.151169,147.896774 212.691223,147.563766 
	C220.674316,146.978226 228.162979,146.903397 233.587723,154.088364 
	C233.749680,154.302872 234.201080,154.298828 235.316742,154.464447 
M172.484299,107.042480 
	C176.267380,107.042480 180.050476,107.042480 183.920319,107.042480 
	C183.920319,104.566544 183.920319,102.642677 183.920319,100.718849 
	C172.407822,100.718849 161.112976,100.235779 149.882401,100.877563 
	C141.479279,101.357765 138.519211,105.187332 138.366287,112.943848 
	C138.201416,121.306816 140.762161,124.758888 149.351898,125.995140 
	C155.406937,126.866592 161.609436,126.722321 167.747284,127.006317 
	C171.417664,127.176147 173.591690,128.601501 173.732269,132.719864 
	C173.874023,136.873199 173.132858,140.307526 168.331284,140.577621 
	C162.025085,140.932388 155.690994,140.803223 149.368683,140.855103 
	C145.762863,140.884689 142.156616,140.860443 138.468384,140.860443 
	C138.468384,143.294128 138.468384,145.066483 138.468384,146.865448 
	C150.281693,146.865448 161.943832,147.594559 173.462753,146.623917 
	C181.958206,145.908051 184.425980,141.091614 184.009094,131.071243 
	C183.783386,125.646355 179.552795,121.928261 172.347961,121.039040 
	C170.045929,120.754929 167.694763,120.856773 165.365540,120.807884 
	C161.540115,120.727585 157.701187,120.843193 153.891693,120.558418 
	C148.470734,120.153198 148.611649,116.126328 148.633072,112.116982 
	C148.654922,108.028839 151.139282,107.082314 154.509659,107.068008 
	C160.169861,107.043983 165.830185,107.049438 172.484299,107.042480 
M247.997208,119.499863 
	C247.997223,123.826477 247.990875,128.153107 247.998535,132.479706 
	C248.014084,141.261520 250.874359,145.861084 259.344452,146.547974 
	C270.528412,147.454956 281.841339,146.771103 293.268402,146.771103 
	C293.268402,144.958038 293.268402,143.073959 293.268402,141.061325 
	C291.790588,140.985916 290.643188,140.879593 289.495483,140.876495 
	C281.674377,140.855408 273.849701,140.998123 266.033142,140.805496 
	C259.570923,140.646240 258.209503,139.060791 258.190796,132.643555 
	C258.172333,126.320084 258.186737,119.996513 258.186737,113.672981 
	C258.186737,109.271812 258.186737,104.870636 258.186737,100.462448 
	C254.415207,100.462448 251.478516,100.462448 247.997208,100.462448 
	C247.997208,106.619431 247.997208,112.559937 247.997208,119.499863 
z"/>
<path fill="#0A628B" opacity="1.000000" stroke="none" 
	d="
M204.600006,1.000000 
	C212.997772,4.056826 220.048538,8.881660 228.943848,10.483344 
	C239.994339,12.473093 248.657013,20.180803 255.805862,28.560564 
	C261.109894,34.777859 264.903961,42.298004 269.233948,49.322060 
	C270.442749,51.282959 271.173798,53.539696 272.110992,55.666454 
	C275.926239,64.324348 279.803894,72.168022 290.121735,75.892708 
	C296.928986,78.350113 302.358704,84.623543 308.405212,89.188354 
	C308.204773,89.763161 308.004333,90.337967 307.803894,90.912773 
	C302.344849,92.072807 296.885834,93.232834 290.654785,94.556915 
	C297.666565,100.350624 304.158844,105.715118 310.651154,111.079605 
	C296.980804,107.262146 286.948303,99.652611 284.277557,91.728241 
	C290.127930,90.534363 295.854309,89.365784 302.781433,87.952179 
	C297.286469,84.495369 292.516998,79.875099 286.900848,78.327568 
	C277.620697,75.770439 273.213928,69.938522 269.597290,61.707371 
	C265.419861,52.199921 260.823181,42.565704 254.621094,34.333145 
	C245.761673,22.573303 234.377930,13.850600 218.499557,12.816611 
	C215.085678,12.594301 212.003235,9.042539 208.510086,7.691744 
	C205.957977,6.704844 202.982742,6.812164 200.196106,6.431724 
	C201.179794,9.083676 201.957962,11.835690 203.190216,14.366623 
	C205.709381,19.540775 208.476486,24.594076 211.134125,29.700968 
	C213.334549,33.929249 215.866852,38.030270 217.579483,42.448410 
	C218.482208,44.777237 218.699875,47.914093 217.923065,50.253094 
	C215.243332,58.321804 215.028976,66.236092 218.084839,74.140800 
	C218.793198,75.973106 220.264053,77.510658 221.493454,79.347305 
	C223.514999,73.040154 225.315598,67.422386 227.436310,60.805847 
	C232.496170,70.305290 236.722076,78.239075 240.947983,86.172859 
	C240.606674,86.439117 240.265381,86.705376 239.924072,86.971626 
	C236.182678,82.264740 232.441284,77.557854 228.515320,72.618774 
	C228.094818,74.684311 227.980499,76.850983 227.174881,78.719604 
	C226.469162,80.356430 225.205688,82.513557 223.788467,82.875870 
	C222.272171,83.263527 219.798767,82.306313 218.592148,81.092262 
	C213.284088,75.751556 212.216782,68.731590 212.438080,61.674412 
	C212.698151,53.380829 217.007370,45.575340 210.545670,36.922901 
	C205.599411,30.299725 204.669769,20.972664 198.746063,14.198846 
	C194.055328,8.834919 195.160889,4.757476 200.882050,1.337036 
	C202.066666,1.000000 203.133347,1.000000 204.600006,1.000000 
z"/>
<path fill="#03628B" opacity="1.000000" stroke="none" 
	d="
M122.018204,114.931442 
	C124.055389,114.854164 126.092575,114.776894 128.658234,115.041512 
	C129.444489,115.589119 129.702286,115.794838 129.960083,116.000557 
	C130.023712,117.073196 130.087326,118.145828 129.766571,119.912865 
	C129.254608,128.013382 129.021606,135.419846 129.046631,142.825470 
	C129.058060,146.209961 129.577942,149.592743 129.867203,152.976303 
	C128.321106,158.961456 123.314552,160.145828 118.148819,161.657913 
	C117.250000,162.000000 116.500000,162.000000 115.100052,161.681381 
	C103.961212,161.213852 93.472313,161.064941 82.988892,160.491272 
	C82.652039,157.177856 83.646812,155.822327 86.838097,155.944275 
	C92.310760,156.153412 97.800194,156.111572 103.276894,155.964020 
	C107.182526,155.858780 111.078850,155.407700 114.979324,155.110931 
	C118.868195,154.293976 120.766685,152.084305 119.709747,147.247986 
	C111.314331,146.618698 103.174438,146.726837 95.034546,146.834961 
	C92.332275,146.135559 89.487823,145.761780 86.961769,144.658813 
	C83.366936,143.089157 81.359116,140.242569 81.444138,136.021652 
	C81.581306,129.212265 81.480995,122.398102 81.480995,115.184952 
	C84.853859,115.184952 88.037247,115.184952 91.709793,115.184952 
	C91.709793,121.748436 91.883743,128.201981 91.650200,134.640717 
	C91.487595,139.123550 93.292542,141.072250 97.737053,141.014511 
	C105.006401,140.920059 112.277863,140.988983 120.188019,140.988983 
	C120.188019,132.163376 120.188019,123.741211 120.678391,115.301666 
	C121.451904,115.166672 121.735054,115.049065 122.018204,114.931442 
z"/>
<path fill="#B4C9D6" opacity="1.000000" stroke="none" 
	d="
M1.000000,105.468658 
	C1.000000,105.000000 1.434736,104.957787 1.725353,105.419724 
	C2.063499,117.903305 2.111027,129.924957 2.090872,142.351410 
	C2.067630,143.846771 2.112072,144.937317 2.101755,146.286987 
	C2.028795,146.721725 2.010596,146.897354 1.992396,147.072983 
	C1.949852,147.424805 1.764928,147.668686 1.218812,147.902313 
	C1.000000,133.979111 1.000000,119.958214 1.000000,105.468658 
z"/>
<path fill="#5487A5" opacity="1.000000" stroke="none" 
	d="
M82.983414,160.916031 
	C93.472313,161.064941 103.961212,161.213852 114.725052,161.681381 
	C104.312439,162.000000 93.624878,162.000000 82.468658,162.000000 
	C81.956055,161.832153 81.912109,161.664307 82.183907,161.245605 
	C82.499657,160.994766 82.983414,160.916031 82.983414,160.916031 
z"/>
<path fill="#F2CDA4" opacity="1.000000" stroke="none" 
	d="
M314.000000,142.583496 
	C314.000000,143.000000 313.564941,143.009186 313.308014,142.614288 
	C313.079041,140.787811 313.106964,139.356232 313.134918,137.924652 
	C313.134918,137.924652 313.564972,137.990845 313.782471,137.995422 
	C314.000000,139.388992 314.000000,140.778000 314.000000,142.583496 
z"/>
<path fill="#04628B" opacity="1.000000" stroke="none" 
	d="
M2.156515,146.027863 
	C2.112072,144.937317 2.067630,143.846771 2.355093,142.038559 
	C2.791663,132.946716 2.989747,124.572220 2.960698,116.198502 
	C2.946646,112.147675 2.506070,108.098335 2.258609,104.048317 
	C7.276034,96.963936 18.485863,97.910255 22.039942,105.848167 
	C26.963428,116.844597 31.683973,127.931885 36.913918,139.951248 
	C38.348022,136.902710 39.455223,134.629379 40.494526,132.325424 
	C44.306087,123.875801 48.076298,115.407494 51.898293,106.962608 
	C55.181534,99.708122 62.112785,97.048897 69.014374,101.046677 
	C70.970352,102.179680 72.707733,105.464401 72.765160,107.805977 
	C73.082771,120.754959 72.850174,133.717438 72.317596,146.695328 
	C71.546486,146.834122 71.263893,146.952881 70.981300,147.071640 
	C68.945518,147.150009 66.909729,147.228378 64.339485,146.961914 
	C63.535938,146.409332 63.266857,146.201599 62.997776,145.993866 
	C62.937256,144.923553 62.876740,143.853256 63.209862,142.094238 
	C63.735992,134.313995 63.970806,127.222153 63.948948,120.131104 
	C63.940594,117.419586 63.345024,114.709885 63.017052,111.999352 
	C62.878815,110.851547 62.740582,109.703751 62.481438,107.551979 
	C60.787979,111.109512 59.414894,113.873917 58.144772,116.684853 
	C54.393623,124.986610 50.617550,133.278214 46.984074,141.631577 
	C45.121811,145.912903 42.167206,148.057159 37.389862,148.100677 
	C32.417324,148.145981 29.379629,145.974136 27.410074,141.479248 
	C22.640120,130.593307 17.651852,119.803040 11.963924,109.045723 
	C11.963924,121.356339 11.963924,133.666946 11.680193,146.554871 
	C11.237313,147.241547 11.078166,147.350891 10.919019,147.460236 
	C10.919019,147.460236 10.789523,147.237686 10.798990,146.975555 
	C10.532706,146.832748 10.256955,146.952057 9.981204,147.071381 
	C7.944746,147.149841 5.908288,147.228302 3.358193,146.978134 
	C2.686529,146.363358 2.457182,146.156143 2.156515,146.027863 
z"/>
<path fill="#E49008" opacity="1.000000" stroke="none" 
	d="
M234.917145,154.430573 
	C234.201080,154.298828 233.749680,154.302872 233.587723,154.088364 
	C228.162979,146.903397 220.674316,146.978226 212.691223,147.563766 
	C208.151169,147.896774 203.373611,147.314163 198.939285,146.201935 
	C192.841171,144.672394 190.776932,141.647568 190.633850,135.425690 
	C190.465729,128.114395 190.527969,120.796249 190.583878,113.481796 
	C190.639771,106.169975 193.599945,101.773209 200.835297,101.218163 
	C210.889252,100.446884 221.086990,100.433121 231.143158,101.176903 
	C238.577896,101.726791 241.567154,106.180267 241.625824,113.813431 
	C241.676941,120.463112 241.601456,127.113747 241.648270,133.763504 
	C241.682266,138.592453 241.186234,143.128113 235.628647,145.437286 
	C238.805191,148.383118 241.583160,150.959335 245.362793,154.464447 
	C241.284256,154.464447 238.300507,154.464447 234.917145,154.430573 
M201.565475,132.281723 
	C201.874054,140.562820 205.434830,142.392395 219.106186,140.061615 
	C215.844727,137.438095 213.403473,135.474335 210.965851,133.513504 
	C218.677063,131.631210 224.653748,134.027634 230.104736,141.043839 
	C230.971771,137.821625 231.873779,135.927460 231.926376,134.009979 
	C232.109055,127.349945 231.818771,120.675385 232.058960,114.019005 
	C232.221939,109.502457 229.904587,107.390495 225.929321,107.194626 
	C219.946060,106.899818 213.929657,106.927162 207.942551,107.178970 
	C203.652008,107.359421 201.365967,109.715729 201.520966,114.338814 
	C201.710678,119.997726 201.565216,125.667870 201.565475,132.281723 
z"/>
<path fill="#E48F07" opacity="1.000000" stroke="none" 
	d="
M171.987366,107.042480 
	C165.830185,107.049438 160.169861,107.043983 154.509659,107.068008 
	C151.139282,107.082314 148.654922,108.028839 148.633072,112.116982 
	C148.611649,116.126328 148.470734,120.153198 153.891693,120.558418 
	C157.701187,120.843193 161.540115,120.727585 165.365540,120.807884 
	C167.694763,120.856773 170.045929,120.754929 172.347961,121.039040 
	C179.552795,121.928261 183.783386,125.646355 184.009094,131.071243 
	C184.425980,141.091614 181.958206,145.908051 173.462753,146.623917 
	C161.943832,147.594559 150.281693,146.865448 138.468384,146.865448 
	C138.468384,145.066483 138.468384,143.294128 138.468384,140.860443 
	C142.156616,140.860443 145.762863,140.884689 149.368683,140.855103 
	C155.690994,140.803223 162.025085,140.932388 168.331284,140.577621 
	C173.132858,140.307526 173.874023,136.873199 173.732269,132.719864 
	C173.591690,128.601501 171.417664,127.176147 167.747284,127.006317 
	C161.609436,126.722321 155.406937,126.866592 149.351898,125.995140 
	C140.762161,124.758888 138.201416,121.306816 138.366287,112.943848 
	C138.519211,105.187332 141.479279,101.357765 149.882401,100.877563 
	C161.112976,100.235779 172.407822,100.718849 183.920319,100.718849 
	C183.920319,102.642677 183.920319,104.566544 183.920319,107.042480 
	C180.050476,107.042480 176.267380,107.042480 171.987366,107.042480 
z"/>
<path fill="#E48E03" opacity="1.000000" stroke="none" 
	d="
M247.997208,119.000153 
	C247.997208,112.559937 247.997208,106.619431 247.997208,100.462448 
	C251.478516,100.462448 254.415207,100.462448 258.186737,100.462448 
	C258.186737,104.870636 258.186737,109.271812 258.186737,113.672981 
	C258.186737,119.996513 258.172333,126.320084 258.190796,132.643555 
	C258.209503,139.060791 259.570923,140.646240 266.033142,140.805496 
	C273.849701,140.998123 281.674377,140.855408 289.495483,140.876495 
	C290.643188,140.879593 291.790588,140.985916 293.268402,141.061325 
	C293.268402,143.073959 293.268402,144.958038 293.268402,146.771103 
	C281.841339,146.771103 270.528412,147.454956 259.344452,146.547974 
	C250.874359,145.861084 248.014084,141.261520 247.998535,132.479706 
	C247.990875,128.153107 247.997223,123.826477 247.997208,119.000153 
z"/>
<path fill="#005884" opacity="1.000000" stroke="none" 
	d="
M2.134054,104.261078 
	C2.506070,108.098335 2.946646,112.147675 2.960698,116.198502 
	C2.989747,124.572220 2.791663,132.946716 2.422777,141.633759 
	C2.111027,129.924957 2.063499,117.903305 1.943680,105.414429 
	C1.871390,104.947205 2.009499,104.473846 2.134054,104.261078 
z"/>
<path fill="#005281" opacity="1.000000" stroke="none" 
	d="
M82.988892,160.491272 
	C82.983414,160.916031 82.499657,160.994766 82.254608,160.995117 
	C82.009552,159.183594 82.009552,157.371704 82.009552,154.996048 
	C92.663147,154.996048 103.356888,154.996048 114.514969,155.053497 
	C111.078850,155.407700 107.182526,155.858780 103.276894,155.964020 
	C97.800194,156.111572 92.310760,156.153412 86.838097,155.944275 
	C83.646812,155.822327 82.652039,157.177856 82.988892,160.491272 
z"/>
<path fill="#005884" opacity="1.000000" stroke="none" 
	d="
M129.973755,152.519653 
	C129.577942,149.592743 129.058060,146.209961 129.046631,142.825470 
	C129.021606,135.419846 129.254608,128.013382 129.670258,120.306465 
	C129.998978,130.691437 130.039627,141.377213 129.973755,152.519653 
z"/>
<path fill="#005885" opacity="1.000000" stroke="none" 
	d="
M62.924950,112.460480 
	C63.345024,114.709885 63.940594,117.419586 63.948948,120.131104 
	C63.970806,127.222153 63.735992,134.313995 63.310211,141.702728 
	C62.955566,132.307159 62.894211,122.614380 62.924950,112.460480 
z"/>
<path fill="#005582" opacity="1.000000" stroke="none" 
	d="
M95.494774,146.915329 
	C103.174438,146.726837 111.314331,146.618698 119.705795,146.848541 
	C111.956581,147.122910 103.955795,147.059296 95.494774,146.915329 
z"/>
<path fill="#E59322" opacity="1.000000" stroke="none" 
	d="
M300.569702,145.429504 
	C297.716064,142.123688 297.815491,138.773514 300.822418,135.410095 
	C301.418732,135.692780 301.665649,135.879379 301.768219,136.288193 
	C301.542847,139.227142 301.515991,141.872177 301.258606,144.744598 
	C300.875275,145.124466 300.722504,145.276978 300.569702,145.429504 
z"/>
<path fill="#E38B15" opacity="1.000000" stroke="none" 
	d="
M313.053772,137.635574 
	C313.106964,139.356232 313.079041,140.787811 313.092987,142.647461 
	C312.744232,143.759323 312.353577,144.443100 311.551605,145.130341 
	C311.011841,145.005798 310.883362,144.877808 310.865326,144.393402 
	C310.900696,141.442520 310.825653,138.848068 310.952362,136.052765 
	C311.284210,135.713730 311.414337,135.575546 311.544434,135.437378 
	C312.020477,136.073746 312.496552,136.710129 313.053772,137.635574 
z"/>
<path fill="#E8A249" opacity="1.000000" stroke="none" 
	d="
M301.966736,135.994293 
	C301.665649,135.879379 301.418732,135.692780 301.112091,135.229279 
	C302.122589,134.351730 303.247009,133.679398 304.680267,133.278885 
	C305.039215,133.854599 305.054779,134.160248 304.752991,134.654465 
	C303.984222,135.240097 303.498322,135.638916 302.752747,135.984650 
	C302.317596,135.952484 302.142151,135.973389 301.966736,135.994293 
z"/>
<path fill="#E38806" opacity="1.000000" stroke="none" 
	d="
M305.035828,134.467651 
	C305.054779,134.160248 305.039215,133.854599 305.011139,133.322739 
	C305.763153,133.069901 306.493134,133.045044 307.574646,133.374420 
	C307.930359,134.075226 307.934540,134.421783 307.578369,134.702209 
	C306.490631,134.579926 305.763214,134.523788 305.035828,134.467651 
z"/>
<path fill="#E38806" opacity="1.000000" stroke="none" 
	d="
M307.924866,147.791397 
	C307.203278,147.861053 306.481720,147.930725 305.370178,147.725922 
	C305.052643,147.148087 305.074707,146.841080 305.408661,146.568344 
	C306.487183,146.494614 307.203461,146.383011 307.920227,146.524750 
	C307.922089,147.115845 307.923492,147.453629 307.924866,147.791397 
z"/>
<path fill="#E9A44D" opacity="1.000000" stroke="none" 
	d="
M308.235413,147.772522 
	C307.923492,147.453629 307.922089,147.115845 308.168457,146.354858 
	C308.621185,145.618088 308.826080,145.304535 309.022278,145.011688 
	C309.013550,145.032379 308.970520,145.046738 309.230652,145.031067 
	C309.664490,145.018875 309.838196,145.022369 310.114685,145.244934 
	C310.420593,145.730652 310.683289,145.910278 311.005524,146.002838 
	C310.185669,146.586456 309.365814,147.170059 308.235413,147.772522 
z"/>
<path fill="#E9A44D" opacity="1.000000" stroke="none" 
	d="
M305.046448,146.530487 
	C305.074707,146.841080 305.052643,147.148087 305.007233,147.681396 
	C304.125580,147.626480 303.216949,147.341660 302.140503,146.422577 
	C301.983398,145.520126 301.994110,145.251938 302.284698,144.993759 
	C302.741516,144.944290 302.918457,144.884811 303.141479,145.177673 
	C303.807159,145.863495 304.426819,146.196991 305.046448,146.530487 
z"/>
<path fill="#E8A249" opacity="1.000000" stroke="none" 
	d="
M307.938751,134.768341 
	C307.934540,134.421783 307.930359,134.075226 307.928223,133.468781 
	C308.856079,133.622894 309.781860,134.036896 310.654236,134.809784 
	C310.323090,135.311676 310.115265,135.523285 309.994629,135.937622 
	C310.011993,136.071747 309.991791,136.341476 309.767303,136.105713 
	C309.008118,135.502747 308.473450,135.135544 307.938751,134.768341 
z"/>
<path fill="#005884" opacity="1.000000" stroke="none" 
	d="
M129.987045,115.686043 
	C129.702286,115.794838 129.444489,115.589119 129.082184,115.155136 
	C129.323120,115.075081 129.668564,115.223305 129.987045,115.686043 
z"/>
<path fill="#E59322" opacity="1.000000" stroke="none" 
	d="
M302.004852,144.983749 
	C301.994110,145.251938 301.983398,145.520126 301.956482,146.191193 
	C301.600220,146.372925 301.260132,146.151749 300.744873,145.680054 
	C300.722504,145.276978 300.875275,145.124466 301.410583,144.835648 
	C301.793121,144.699326 302.004852,144.983749 302.004852,144.983749 
z"/>
<path fill="#E38B15" opacity="1.000000" stroke="none" 
	d="
M311.162537,145.915131 
	C310.683289,145.910278 310.420593,145.730652 310.286560,145.138611 
	C310.355682,144.813232 310.754913,144.749817 310.754913,144.749817 
	C310.883362,144.877808 311.011841,145.005798 311.329285,145.330658 
	C311.518250,145.527542 311.319580,145.827423 311.162537,145.915131 
z"/>
<path fill="#005884" opacity="1.000000" stroke="none" 
	d="
M2.101755,146.286987 
	C2.457182,146.156143 2.686529,146.363358 2.933627,146.867493 
	C2.850221,147.145325 2.677742,147.205139 2.248829,147.168976 
	C2.010596,146.897354 2.028795,146.721725 2.101755,146.286987 
z"/>
<path fill="#005884" opacity="1.000000" stroke="none" 
	d="
M10.231432,147.156921 
	C10.256955,146.952057 10.532706,146.832748 10.893970,146.888641 
	C10.813542,147.123398 10.647601,147.182938 10.231432,147.156921 
z"/>
<path fill="#005885" opacity="1.000000" stroke="none" 
	d="
M62.968735,146.317963 
	C63.266857,146.201599 63.535938,146.409332 63.915085,146.851288 
	C63.663334,146.937668 63.301514,146.789856 62.968735,146.317963 
z"/>
<path fill="#005885" opacity="1.000000" stroke="none" 
	d="
M71.240875,147.157272 
	C71.263893,146.952881 71.546486,146.834122 71.923111,146.889832 
	C71.844910,147.123825 71.672684,147.183365 71.240875,147.157272 
z"/>
<path fill="#E38B15" opacity="1.000000" stroke="none" 
	d="
M309.977264,135.803513 
	C310.115265,135.523285 310.323090,135.311676 310.808350,135.080383 
	C311.015930,134.992096 311.335632,135.149506 311.440033,135.293442 
	C311.414337,135.575546 311.284210,135.713730 310.737183,135.977875 
	C310.320221,136.103851 309.977264,135.803513 309.977264,135.803513 
z"/>
<path fill="#B4C9D6" opacity="1.000000" stroke="none" 
	d="
M11.083824,147.601151 
	C11.078166,147.350891 11.237313,147.241547 11.662203,147.017044 
	C11.701506,147.181946 11.475067,147.462006 11.083824,147.601151 
z"/>
<path fill="#005884" opacity="1.000000" stroke="none" 
	d="
M121.758774,114.844704 
	C121.735054,115.049065 121.451904,115.166672 121.075195,115.109573 
	C121.154190,114.875900 121.326759,114.816925 121.758774,114.844704 
z"/>
<path fill="#FEFCFA" opacity="1.000000" stroke="none" 
	d="
M201.565079,131.807434 
	C201.565216,125.667870 201.710678,119.997726 201.520966,114.338814 
	C201.365967,109.715729 203.652008,107.359421 207.942551,107.178970 
	C213.929657,106.927162 219.946060,106.899818 225.929321,107.194626 
	C229.904587,107.390495 232.221939,109.502457 232.058960,114.019005 
	C231.818771,120.675385 232.109055,127.349945 231.926376,134.009979 
	C231.873779,135.927460 230.971771,137.821625 230.104736,141.043839 
	C224.653748,134.027634 218.677063,131.631210 210.965851,133.513504 
	C213.403473,135.474335 215.844727,137.438095 219.106186,140.061615 
	C205.434830,142.392395 201.874054,140.562820 201.565079,131.807434 
z"/>
<path fill="#FDF7F1" opacity="1.000000" stroke="none" 
	d="
M302.284698,144.993759 
	C302.004852,144.983749 301.793121,144.699326 301.641113,144.608276 
	C301.515991,141.872177 301.542847,139.227142 301.768219,136.288193 
	C302.142151,135.973389 302.317596,135.952484 302.737854,135.967194 
	C302.982666,136.002808 302.962616,135.961624 302.989441,136.239090 
	C303.059113,136.697250 303.101898,136.877930 303.090424,137.492065 
	C303.057617,140.244492 303.079102,142.563446 303.090515,144.870880 
	C303.080444,144.859344 303.095428,144.825333 303.095428,144.825333 
	C302.918457,144.884811 302.741516,144.944290 302.284698,144.993759 
z"/>
<path fill="#FAEDDD" opacity="1.000000" stroke="none" 
	d="
M309.994629,135.937622 
	C309.977264,135.803513 310.320221,136.103851 310.535400,136.178741 
	C310.825653,138.848068 310.900696,141.442520 310.865326,144.393402 
	C310.754913,144.749817 310.355682,144.813232 310.183777,144.919556 
	C309.838196,145.022369 309.664490,145.018875 309.269653,144.691833 
	C308.714081,143.823410 308.379639,143.278549 308.045227,142.733688 
	C307.820557,142.887634 307.595886,143.041580 307.371216,143.195511 
	C307.924469,143.794006 308.477753,144.392502 309.031006,144.990997 
	C308.826080,145.304535 308.621185,145.618088 308.168030,146.101517 
	C307.203461,146.383011 306.487183,146.494614 305.408661,146.568359 
	C304.426819,146.196991 303.807159,145.863495 303.141479,145.177673 
	C303.095428,144.825333 303.080444,144.859344 303.414246,144.692429 
	C303.533600,141.463165 305.843384,141.257828 308.267059,140.639526 
	C308.753540,139.299500 308.918182,138.137115 309.257202,136.904877 
	C309.653564,136.710571 309.840332,136.546066 309.991791,136.341476 
	C309.991791,136.341476 310.011993,136.071747 309.994629,135.937622 
z"/>
<path fill="#FEFAF5" opacity="1.000000" stroke="none" 
	d="
M309.767303,136.105713 
	C309.840332,136.546066 309.653564,136.710571 308.893860,136.721207 
	C308.142548,136.440063 307.928864,136.272736 307.635254,136.043396 
	C307.555359,135.981384 307.155304,135.939728 306.736694,135.952728 
	C305.199585,135.964355 304.081085,135.962982 302.962616,135.961624 
	C302.962616,135.961624 302.982666,136.002808 302.997559,136.020279 
	C303.498322,135.638916 303.984222,135.240097 304.752991,134.654480 
	C305.763214,134.523788 306.490631,134.579926 307.578369,134.702209 
	C308.473450,135.135544 309.008118,135.502747 309.767303,136.105713 
z"/>
<path fill="#E38806" opacity="1.000000" stroke="none" 
	d="
M307.945251,140.817169 
	C305.843384,141.257828 303.533600,141.463165 303.424316,144.703964 
	C303.079102,142.563446 303.057617,140.244492 303.446991,137.501251 
	C304.094940,137.096573 304.332001,137.116165 304.445251,137.490189 
	C305.523529,138.476379 306.725647,139.108124 307.919556,140.009399 
	C307.922638,140.458344 307.933929,140.637756 307.945251,140.817169 
z"/>
<path fill="#E9A446" opacity="1.000000" stroke="none" 
	d="
M304.569061,137.135742 
	C304.332001,137.116165 304.094940,137.096573 303.501282,137.067795 
	C303.101898,136.877930 303.059113,136.697250 302.989441,136.239090 
	C304.081085,135.962982 305.199585,135.964355 306.698151,136.287018 
	C306.241852,136.784119 305.405457,136.959930 304.569061,137.135742 
z"/>
<path fill="#E6982E" opacity="1.000000" stroke="none" 
	d="
M308.267059,140.639526 
	C307.933929,140.637756 307.922638,140.458344 307.912933,139.555328 
	C307.848083,137.922958 307.781616,137.014191 307.715179,136.105408 
	C307.928864,136.272736 308.142548,136.440063 308.719543,136.791046 
	C308.918182,138.137115 308.753540,139.299500 308.267059,140.639526 
z"/>
<path fill="#E6982E" opacity="1.000000" stroke="none" 
	d="
M309.022278,145.011688 
	C308.477753,144.392502 307.924469,143.794006 307.371216,143.195511 
	C307.595886,143.041580 307.820557,142.887634 308.045227,142.733688 
	C308.379639,143.278549 308.714081,143.823410 309.009521,144.707520 
	C308.970520,145.046738 309.013550,145.032379 309.022278,145.011688 
z"/>
<path fill="#F9E6D1" opacity="1.000000" stroke="none" 
	d="
M307.635254,136.043396 
	C307.781616,137.014191 307.848083,137.922958 307.921143,139.285797 
	C306.725647,139.108124 305.523529,138.476379 304.445251,137.490204 
	C305.405457,136.959930 306.241852,136.784119 307.116760,136.274017 
	C307.155304,135.939728 307.555359,135.981384 307.635254,136.043396 
z"/>
</svg>