<svg version="1.1" id="Layer_1" xmlns="http://www.w3.org/2000/svg" xmlns:xlink="http://www.w3.org/1999/xlink" x="0px" y="0px"
	 width="100%" viewBox="0 0 228 221" enable-background="new 0 0 228 221" xml:space="preserve">
<path fill="#FFFEFE" opacity="1.000000" stroke="none" 
	d="
M135.000000,222.000000 
	C90.000000,222.000000 45.500004,222.000000 1.000006,222.000000 
	C1.000004,148.333344 1.000004,74.666679 1.000002,1.000016 
	C76.999992,1.000011 152.999985,1.000011 228.999969,1.000005 
	C228.999985,74.666649 228.999985,148.333298 229.000000,221.999969 
	C197.833328,222.000000 166.666672,222.000000 135.000000,222.000000 
M125.600212,189.080139 
	C122.879501,191.907089 120.158798,194.734055 117.438087,197.561020 
	C117.581520,197.994400 117.724945,198.427795 117.868378,198.861191 
	C125.143692,196.982132 132.419006,195.103058 139.694321,193.223999 
	C140.045029,193.730606 140.395721,194.237198 140.746429,194.743805 
	C131.977463,202.404129 123.208496,210.064453 113.759720,218.318649 
	C115.652695,218.403854 117.277840,218.801559 118.757050,218.495041 
	C141.982513,213.682419 160.345734,201.437378 174.054733,182.121246 
	C175.052246,180.715759 176.272141,179.468094 177.388626,178.147064 
	C177.858368,178.400467 178.328094,178.653870 178.797821,178.907272 
	C174.880081,188.285416 170.962357,197.663544 166.461502,208.437561 
	C186.091644,194.251083 196.741943,175.586258 202.788635,153.359924 
	C203.413330,160.175125 204.038010,166.990311 204.662704,173.805511 
	C205.179688,173.799088 205.696655,173.792664 206.213638,173.786255 
	C219.770691,152.616196 224.827057,129.619125 219.967438,104.657150 
	C215.809280,83.298309 206.636429,64.417671 191.371674,47.360268 
	C189.451843,74.080482 161.741470,89.370628 144.406036,81.780060 
	C144.661530,81.605682 144.896362,81.327156 145.175461,81.271797 
	C162.265808,77.882065 174.099274,66.238602 176.759750,50.171455 
	C179.423157,34.086651 171.855530,19.286074 156.753067,10.517118 
	C153.318512,8.522915 151.562012,8.962213 149.949265,12.680834 
	C148.870895,15.167302 147.213089,17.982157 145.007874,19.294992 
	C137.431473,23.805470 133.597351,29.730738 136.195068,39.158508 
	C131.589478,37.396793 127.737015,35.324867 123.631653,34.476036 
	C114.802505,32.650497 105.886314,30.840931 96.922356,30.210238 
	C90.613541,29.766357 84.152306,31.156103 77.787445,31.953234 
	C73.178986,32.530396 68.402702,32.869976 64.080460,34.392227 
	C55.976288,37.246445 49.094913,42.178913 43.407230,48.752663 
	C36.397114,56.854866 26.996977,60.360424 16.786423,62.381477 
	C11.656137,63.396946 8.719602,67.076744 7.044986,71.872452 
	C5.439772,76.469414 6.357163,80.154778 10.200429,83.445030 
	C12.568980,85.472771 14.232426,88.325676 16.204275,90.814568 
	C17.130789,91.984032 17.832453,93.452438 18.992678,94.293198 
	C22.427721,96.782410 26.765318,98.490570 24.956837,104.787384 
	C25.664688,104.845482 26.372540,104.903580 27.080393,104.961685 
	C28.115145,103.123039 29.149899,101.284393 30.184650,99.445755 
	C30.443636,99.642876 30.702620,99.840004 30.961605,100.037132 
	C30.961605,101.988342 30.961605,103.939545 30.961605,107.076782 
	C32.856682,105.782776 34.573410,105.243652 35.087299,104.142952 
	C36.739616,100.603836 39.756870,99.744560 43.110577,99.213554 
	C75.122055,94.145050 106.515045,114.626083 114.929558,146.117996 
	C115.553368,148.452652 115.842056,150.876846 116.463737,154.209259 
	C114.861420,152.693283 114.111847,151.855133 113.237411,151.178329 
	C108.616898,147.602112 106.291565,148.183228 103.285019,153.163589 
	C101.618439,155.924301 99.484924,158.403107 97.057045,161.693069 
	C96.445564,159.315933 96.115875,158.034256 95.411163,155.294662 
	C93.538277,157.883636 92.542076,159.643219 91.174683,161.039230 
	C89.904671,162.335815 88.271408,164.121185 86.741516,164.178391 
	C78.264801,164.495255 73.156769,157.549454 75.452370,149.471558 
	C76.207520,146.814270 77.134590,144.351486 72.808449,143.061447 
	C64.759087,140.661179 56.881145,145.665833 55.927948,154.526642 
	C54.928093,163.821198 58.756596,171.277802 65.718323,178.314728 
	C63.185135,179.156189 61.254436,179.797516 59.338638,180.433899 
	C86.668823,197.444412 128.601227,184.513565 137.731506,143.217422 
	C140.814255,160.679413 136.660248,175.443268 125.600212,189.080139 
M135.057617,24.746893 
	C137.035324,22.750614 138.859116,20.566420 141.021362,18.795448 
	C146.233780,14.526261 146.213135,11.706203 140.935272,7.440629 
	C137.748428,4.865017 134.591858,4.725616 130.729996,6.829034 
	C135.146133,11.983078 135.111343,17.343723 132.124756,23.092876 
	C131.318619,24.644703 131.763489,26.846409 131.634125,28.749809 
	C132.120132,28.799263 132.606140,28.848715 133.092163,28.898167 
	C133.626190,27.730043 134.160217,26.561920 135.057617,24.746893 
z"/>
<path fill="#E0244F" opacity="1.000000" stroke="none" 
	d="
M125.834816,188.813568 
	C136.660248,175.443268 140.814255,160.679413 137.731506,143.217422 
	C128.601227,184.513565 86.668823,197.444412 59.338638,180.433899 
	C61.254436,179.797516 63.185135,179.156189 65.718323,178.314728 
	C58.756596,171.277802 54.928093,163.821198 55.927948,154.526642 
	C56.881145,145.665833 64.759087,140.661179 72.808449,143.061447 
	C77.134590,144.351486 76.207520,146.814270 75.452370,149.471558 
	C73.156769,157.549454 78.264801,164.495255 86.741516,164.178391 
	C88.271408,164.121185 89.904671,162.335815 91.174683,161.039230 
	C92.542076,159.643219 93.538277,157.883636 95.411163,155.294662 
	C96.115875,158.034256 96.445564,159.315933 97.057045,161.693069 
	C99.484924,158.403107 101.618439,155.924301 103.285019,153.163589 
	C106.291565,148.183228 108.616898,147.602112 113.237411,151.178329 
	C114.111847,151.855133 114.861420,152.693283 116.463737,154.209259 
	C115.842056,150.876846 115.553368,148.452652 114.929558,146.117996 
	C106.515045,114.626083 75.122055,94.145050 43.110577,99.213554 
	C39.756870,99.744560 36.739616,100.603836 35.087299,104.142952 
	C34.573410,105.243652 32.856682,105.782776 30.961605,107.076782 
	C30.961605,103.939545 30.961605,101.988342 30.961605,100.037132 
	C30.702620,99.840004 30.443636,99.642876 30.184650,99.445755 
	C29.149899,101.284393 28.115145,103.123039 27.080393,104.961685 
	C26.372540,104.903580 25.664688,104.845482 24.956837,104.787384 
	C26.765318,98.490570 22.427721,96.782410 18.992678,94.293198 
	C17.832453,93.452438 17.130789,91.984032 16.204275,90.814568 
	C14.232426,88.325676 12.568980,85.472771 10.200429,83.445030 
	C6.357163,80.154778 5.439772,76.469414 7.044986,71.872452 
	C8.719602,67.076744 11.656137,63.396946 16.786423,62.381477 
	C26.996977,60.360424 36.397114,56.854866 43.407230,48.752663 
	C49.094913,42.178913 55.976288,37.246445 64.080460,34.392227 
	C68.402702,32.869976 73.178986,32.530396 77.787445,31.953234 
	C84.152306,31.156103 90.613541,29.766357 96.922356,30.210238 
	C105.886314,30.840931 114.802505,32.650497 123.631653,34.476036 
	C127.737015,35.324867 131.589478,37.396793 136.195068,39.158508 
	C133.597351,29.730738 137.431473,23.805470 145.007874,19.294992 
	C147.213089,17.982157 148.870895,15.167302 149.949265,12.680834 
	C151.562012,8.962213 153.318512,8.522915 156.753067,10.517118 
	C171.855530,19.286074 179.423157,34.086651 176.759750,50.171455 
	C174.099274,66.238602 162.265808,77.882065 145.175461,81.271797 
	C144.896362,81.327156 144.661530,81.605682 144.409164,81.784645 
	C161.741470,89.370628 189.451843,74.080482 191.371674,47.360268 
	C206.636429,64.417671 215.809280,83.298309 219.967438,104.657150 
	C224.827057,129.619125 219.770691,152.616196 206.213638,173.786255 
	C205.696655,173.792664 205.179688,173.799088 204.662704,173.805511 
	C204.038010,166.990311 203.413330,160.175125 202.788635,153.359924 
	C196.741943,175.586258 186.091644,194.251083 166.461502,208.437561 
	C170.962357,197.663544 174.880081,188.285416 178.797821,178.907272 
	C178.328094,178.653870 177.858368,178.400467 177.388626,178.147064 
	C176.272141,179.468094 175.052246,180.715759 174.054733,182.121246 
	C160.345734,201.437378 141.982513,213.682419 118.757050,218.495041 
	C117.277840,218.801559 115.652695,218.403854 113.759720,218.318649 
	C123.208496,210.064453 131.977463,202.404129 140.746429,194.743805 
	C140.395721,194.237198 140.045029,193.730606 139.694321,193.223999 
	C132.419006,195.103058 125.143692,196.982132 117.868378,198.861191 
	C117.724945,198.427795 117.581520,197.994400 117.438087,197.561020 
	C120.158798,194.734055 122.879501,191.907089 125.834816,188.813568 
z"/>
<path fill="#E12752" opacity="1.000000" stroke="none" 
	d="
M134.875931,25.070345 
	C134.160217,26.561920 133.626190,27.730043 133.092163,28.898167 
	C132.606140,28.848715 132.120132,28.799263 131.634125,28.749809 
	C131.763489,26.846409 131.318619,24.644703 132.124756,23.092876 
	C135.111343,17.343723 135.146133,11.983078 130.729996,6.829034 
	C134.591858,4.725616 137.748428,4.865017 140.935272,7.440629 
	C146.213135,11.706203 146.233780,14.526261 141.021362,18.795448 
	C138.859116,20.566420 137.035324,22.750614 134.875931,25.070345 
z"/>
</svg>