<?xml version="1.0" encoding="UTF-8"?>
<svg version="1.1" xmlns="http://www.w3.org/2000/svg" width="225" height="225">
<path d="M0 0 C74.25 0 148.5 0 225 0 C225 74.25 225 148.5 225 225 C150.75 225 76.5 225 0 225 C0 150.75 0 76.5 0 0 Z " fill="#FDFDFD" transform="translate(0,0)"/>
<path d="M0 0 C35.64 0 71.28 0 108 0 C108 9.24 108 18.48 108 28 C97.55763603 36.2697916 97.55763603 36.2697916 93.140625 37.94140625 C89.2306825 39.50044289 85.59510952 41.21097874 81.9375 43.3125 C81.11121094 43.75207031 80.28492187 44.19164062 79.43359375 44.64453125 C75.75878934 46.69133242 72.26491839 49.00517991 68.734375 51.2890625 C65.25660465 53.46515309 61.67038735 55.38483713 58.05078125 57.3125 C53.60168406 59.77346029 49.27310552 62.42944955 44.95019531 65.10498047 C40.21424666 68 40.21424666 68 38 68 C38.33 96.71 38.66 125.42 39 155 C43.455 157.475 43.455 157.475 48 160 C50.77695063 161.61577483 53.54817266 163.23806558 56.3125 164.875 C57.80587363 165.75670684 59.29936368 166.63821653 60.79296875 167.51953125 C61.51274902 167.94443848 62.2325293 168.3693457 62.97412109 168.80712891 C65.68474707 170.40319043 68.40455595 171.98324358 71.125 173.5625 C74.97628151 175.80247717 78.80131038 178.0812396 82.61425781 180.38549805 C88.5047122 183.9441297 94.4144045 187.41397616 100.49609375 190.640625 C102.20018265 191.56577779 103.87992643 192.53690426 105.53515625 193.546875 C106.32792969 194.02640625 107.12070313 194.5059375 107.9375 195 C108.62714844 195.433125 109.31679687 195.86625 110.02734375 196.3125 C111.99470941 197.2487763 111.99470941 197.2487763 113.82666016 196.20166016 C114.5438623 195.8051123 115.26106445 195.40856445 116 195 C116.74822021 194.60345215 117.49644043 194.2069043 118.26733398 193.79833984 C128.12289992 188.4808189 137.92403514 183.16993562 147.3984375 177.1953125 C153.29117864 173.5434236 159.38357006 170.21957407 165.42944336 166.83032227 C167.26622481 165.80007982 169.09342138 164.75249292 170.90885925 163.68508911 C174 162 174 162 177.16073608 160.78511047 C180.77497943 159.22396372 183.22428845 157.81264732 186 155 C187.35623883 149.79066031 187.191392 144.93980827 186.87321663 139.59523773 C186.7203015 136.94354136 186.65021182 134.30086771 186.60191345 131.64532471 C186.45001364 124.10931119 186.14991815 116.58136644 185.79858398 109.05224609 C184.41275107 77.96305558 184.41275107 77.96305558 188.82830811 71.19946289 C193.16314809 67.16996823 197.99790686 65.01675993 203.70310974 63.59014893 C206.242447 62.93770715 208.58429907 62.01240419 211 61 C211.35115454 74.92506983 211.6142679 88.84944919 211.77718258 102.7780447 C211.85538843 109.24641653 211.9613924 115.71180969 212.1315918 122.1784668 C212.294905 128.42275641 212.38432345 134.66418742 212.42315865 140.91044807 C212.45082046 143.28984668 212.50484699 145.66909299 212.58595085 148.04726982 C213.18051209 166.20811063 213.18051209 166.20811063 209.55105209 170.85520744 C206.04195612 173.87605503 202.17353978 175.6764956 197.85814857 177.26758194 C195.07886619 178.36307917 192.62998877 179.9227847 190.109375 181.51171875 C188.32320962 182.57080672 186.53675816 183.62941239 184.75 184.6875 C183.86054688 185.21666016 182.97109375 185.74582031 182.0546875 186.29101562 C176.68452591 189.47030694 171.25699413 192.50949595 165.76855469 195.47924805 C161.03934457 198.07697731 156.39949905 200.8254614 151.75 203.5625 C142.23776651 209.1416968 132.67019457 214.61319707 123.04785156 220.00024414 C122.13616211 220.51192139 121.22447266 221.02359863 120.28515625 221.55078125 C119.47957275 222.00106689 118.67398926 222.45135254 117.84399414 222.9152832 C116.0489686 223.86737922 116.0489686 223.86737922 115 225 C113.50716202 225.09571971 112.00980345 225.12188227 110.51390076 225.12025452 C109.06343306 225.12232076 109.06343306 225.12232076 107.58366299 225.12442875 C106.50989942 225.12083064 105.43613585 225.11723253 104.32983398 225.11352539 C103.1898121 225.11364593 102.04979021 225.11376646 100.87522221 225.11389065 C97.16549323 225.11314109 93.4558138 225.10551092 89.74609375 225.09765625 C87.4635826 225.09618696 85.18107112 225.09516617 82.89855957 225.09460449 C74.41153459 225.08935007 65.92451682 225.07538901 57.4375 225.0625 C29.0059375 225.0315625 29.0059375 225.0315625 0 225 C0 150.75 0 76.5 0 0 Z " fill="#1D202B" transform="translate(0,0)"/>
<path d="M0 0 C35.31 0 70.62 0 107 0 C104.41960332 2.58039668 102.63117205 3.92333892 99.51953125 5.64453125 C98.16202759 6.40213745 98.16202759 6.40213745 96.77709961 7.17504883 C95.3096228 7.98558716 95.3096228 7.98558716 93.8125 8.8125 C91.72574225 9.97769889 89.6398317 11.14441608 87.5546875 12.3125 C86.47541992 12.91707031 85.39615234 13.52164062 84.28417969 14.14453125 C78.97043548 17.14664662 73.70325312 20.22720543 68.4375 23.3125 C61.2632119 27.51259569 54.07774731 31.68573944 46.84765625 35.7890625 C43.54799709 37.6737909 40.27199293 39.59774342 36.99609375 41.5234375 C35.91779297 42.15636719 34.83949219 42.78929687 33.72851562 43.44140625 C31.57053557 44.70929958 29.41422261 45.98003556 27.25976562 47.25390625 C25.76799805 48.12982422 25.76799805 48.12982422 24.24609375 49.0234375 C23.35591553 49.54856934 22.4657373 50.07370117 21.54858398 50.61474609 C19 52 19 52 14 54 C14.33 91.95 14.66 129.9 15 169 C22.59 173.29 30.18 177.58 38 182 C42.51227434 184.6497611 47.01401846 187.30733271 51.5 190 C59.94518088 195.03682555 68.42847417 199.99301094 77 204.8125 C78.3936377 205.59633057 78.3936377 205.59633057 79.81542969 206.39599609 C81.64057951 207.42211868 83.46577399 208.44816184 85.29101562 209.47412109 C89.78749639 212.00683601 94.27314345 214.55777034 98.75 217.125 C99.54277344 217.57464111 100.33554688 218.02428223 101.15234375 218.48754883 C101.88066406 218.90673584 102.60898438 219.32592285 103.359375 219.7578125 C103.99327148 220.1202002 104.62716797 220.48258789 105.28027344 220.85595703 C107 222 107 222 110 225 C73.7 225 37.4 225 0 225 C0 150.75 0 76.5 0 0 Z " fill="#FDFDFD" transform="translate(0,0)"/>
<path d="M0 0 C3.45775056 1.31308443 6.63737461 2.82513471 9.8515625 4.65234375 C10.77590088 5.17610596 11.70023926 5.69986816 12.65258789 6.23950195 C14.12393188 7.08001099 14.12393188 7.08001099 15.625 7.9375 C16.64392334 8.51653076 17.66284668 9.09556152 18.71264648 9.69213867 C26.73686509 14.25946317 34.73196782 18.87651333 42.71484375 23.515625 C46.50697842 25.71810623 50.3131975 27.89423919 54.125 30.0625 C61.48694147 34.26070316 68.79087751 38.55478427 76.08349609 42.87207031 C77.81618712 43.89181968 79.55797825 44.89606797 81.30078125 45.8984375 C82.21214844 46.42695312 83.12351562 46.95546875 84.0625 47.5 C84.83722656 47.9434375 85.61195313 48.386875 86.41015625 48.84375 C86.93480469 49.2253125 87.45945312 49.606875 88 50 C88 50.66 88 51.32 88 52 C84.36074111 54.54804371 80.50990758 56.75328396 76.68017578 59.00146484 C75.20700361 59.87697693 73.75575612 60.78916484 72.30859375 61.70703125 C71.54675781 62.17496094 70.78492188 62.64289062 70 63.125 C69.34 63.54007813 68.68 63.95515625 68 64.3828125 C64.54528782 65.44891509 61.69543692 63.36442951 58.62255859 61.75415039 C57.39786865 61.05793579 57.39786865 61.05793579 56.1484375 60.34765625 C55.22450195 59.82413574 54.30056641 59.30061523 53.34863281 58.76123047 C52.36733398 58.20064941 51.38603516 57.64006836 50.375 57.0625 C49.35245117 56.48129395 48.32990234 55.90008789 47.27636719 55.30126953 C42.48662264 52.57458209 37.70492499 49.83404087 32.9296875 47.08203125 C32.147146 46.63214844 31.36460449 46.18226562 30.55834961 45.71875 C29.01947666 44.82293226 27.48890732 43.91269582 25.96704102 42.98828125 C21.92932324 40.55693019 18.00206553 38.54766023 13.59765625 36.85546875 C3.15827458 32.51577856 3.15827458 32.51577856 0 28 C-2.30881489 18.8917805 -1.16048199 9.2208986 0 0 Z " fill="#2AB474" transform="translate(118,1)"/>
<path d="M0 0 C0 4.95 0 9.9 0 15 C-4.83398438 15.5859375 -4.83398438 15.5859375 -9.66796875 16.171875 C-13.61007757 17.15162538 -15.23402482 18.01663212 -18 21 C-18.75352675 24.03979126 -18.72139347 27.02065882 -18.70703125 30.140625 C-18.72215256 31.02280701 -18.73727386 31.90498901 -18.75285339 32.81390381 C-18.79577476 35.62619497 -18.80457248 38.43741375 -18.8125 41.25 C-18.83564092 43.15888277 -18.86100541 45.06773996 -18.88867188 46.9765625 C-18.95156794 51.65113665 -18.98386854 56.32503999 -19 61 C-24.28 61 -29.56 61 -35 61 C-35 41.2 -35 21.4 -35 1 C-29.72 1 -24.44 1 -19 1 C-18.67 2.98 -18.34 4.96 -18 7 C-17.37351562 6.57847656 -16.74703125 6.15695313 -16.1015625 5.72265625 C-15.28429687 5.17480469 -14.46703125 4.62695312 -13.625 4.0625 C-12.81289062 3.51722656 -12.00078125 2.97195312 -11.1640625 2.41015625 C-6.68063034 -0.51135821 -6.48927812 0 0 0 Z " fill="#2DB575" transform="translate(135,83)"/>
<path d="M0 0 C0.33 0 0.66 0 1 0 C1 9.24 1 18.48 1 28 C0.34 28 -0.32 28 -1 28 C-1.22509088 23.70903831 -1.42723952 19.41730127 -1.625 15.125 C-1.68945312 13.90167969 -1.75390625 12.67835937 -1.8203125 11.41796875 C-1.871875 10.25136719 -1.9234375 9.08476562 -1.9765625 7.8828125 C-2.02893066 6.80402832 -2.08129883 5.72524414 -2.13525391 4.61376953 C-2 2 -2 2 0 0 Z " fill="#2A2E39" transform="translate(107,0)"/>
</svg>
