<?xml version="1.0" standalone="no"?>
<!DOCTYPE svg PUBLIC "-//W3C//DTD SVG 20010904//EN"
 "http://www.w3.org/TR/2001/REC-SVG-20010904/DTD/svg10.dtd">
<svg version="1.0" xmlns="http://www.w3.org/2000/svg"
 width="290.000000pt" height="174.000000pt" viewBox="0 0 290.000000 174.000000"
 preserveAspectRatio="xMidYMid meet">

<g transform="translate(0.000000,174.000000) scale(0.100000,-0.100000)"
fill="#000000" stroke="none">
<path d="M682 1145 c-92 -25 -118 -58 -104 -131 10 -56 142 -89 316 -82 94 4
123 10 170 31 l57 26 -3 57 c-3 54 -5 58 -38 75 -20 10 -60 23 -89 29 -76 14
-246 11 -309 -5z"/>
<path d="M1309 963 c0 -5 -1 -56 -2 -115 -2 -105 -1 -108 20 -108 21 0 22 5
25 81 l3 81 43 -81 c39 -73 46 -81 73 -81 l29 0 0 115 c0 108 -1 115 -20 115
-18 0 -20 -7 -20 -87 l0 -88 -41 75 c-23 41 -46 81 -51 88 -11 13 -57 17 -59
5z"/>
<path d="M1758 950 c-55 -42 -31 -98 49 -115 42 -8 60 -30 43 -50 -16 -20 -49
-19 -71 1 -9 8 -28 14 -40 12 l-22 -3 24 -27 c44 -49 137 -42 159 12 18 42 -5
73 -70 95 -37 12 -50 22 -50 36 0 15 7 19 30 19 18 0 33 -6 36 -15 6 -16 54
-21 54 -6 0 23 -38 53 -75 58 -31 4 -46 0 -67 -17z"/>
<path d="M1982 951 c-80 -51 -65 -185 23 -210 20 -5 43 -7 51 -4 9 3 29 -4 45
-16 31 -23 59 -22 59 1 0 7 -9 19 -20 26 -19 12 -20 14 -4 44 23 44 14 113
-18 145 -35 34 -93 40 -136 14z m98 -41 c24 -24 27 -87 6 -115 -18 -25 -72
-24 -91 1 -35 46 -6 134 45 134 11 0 29 -9 40 -20z"/>
<path d="M2190 856 l0 -116 80 0 c73 0 80 2 80 20 0 18 -7 20 -55 20 l-54 0
-3 93 c-3 87 -4 92 -25 95 -23 3 -23 2 -23 -112z"/>
<path d="M577 869 c1 -55 6 -74 20 -85 85 -65 408 -69 493 -6 22 17 25 28 28
90 l3 70 -53 -21 c-47 -19 -72 -22 -218 -22 -148 0 -171 3 -220 23 -30 12 -55
22 -55 22 -1 0 0 -32 2 -71z"/>
<path d="M1555 885 c-54 -53 -15 -149 60 -149 54 0 89 42 82 98 -7 49 -36 76
-84 76 -23 0 -42 -8 -58 -25z m84 -19 c17 -20 10 -77 -11 -89 -24 -16 -48 8
-48 47 0 49 34 73 59 42z"/>
<path d="M578 671 c3 -49 8 -74 20 -84 82 -73 417 -71 505 1 13 12 17 31 17
84 0 37 -1 68 -2 68 -2 0 -28 -10 -58 -22 -49 -20 -73 -22 -210 -22 -125 0
-164 3 -200 18 -81 31 -75 35 -72 -43z"/>
</g>
</svg>
