<svg version="1.1" id="Layer_1" xmlns="http://www.w3.org/2000/svg" xmlns:xlink="http://www.w3.org/1999/xlink" x="0px" y="0px"
	 width="100%" viewBox="0 0 300 168" enable-background="new 0 0 300 168" xml:space="preserve">
<path fill="#FFFEFE" opacity="1.000000" stroke="none" 
	d="
M194.000000,169.000000 
	C129.333344,169.000000 65.166679,169.000000 1.000017,169.000000 
	C1.000011,113.000015 1.000011,57.000031 1.000006,1.000032 
	C100.999969,1.000021 200.999939,1.000021 300.999939,1.000011 
	C300.999939,56.999969 300.999939,112.999939 300.999969,168.999954 
	C265.500000,169.000000 230.000000,169.000000 194.000000,169.000000 
M267.883728,95.991409 
	C268.186554,95.464592 268.489410,94.937775 268.944641,94.145866 
	C268.156525,94.145866 267.575653,94.145866 266.066803,94.018028 
	C264.265961,94.012436 262.459045,94.100182 260.665527,93.982613 
	C256.399689,93.702988 252.140182,93.326233 248.042419,92.066071 
	C248.049255,88.958878 248.197845,85.843727 248.023865,82.746696 
	C247.842606,79.519676 247.350143,76.310143 246.334732,72.970695 
	C245.891678,73.011765 245.448624,73.052826 244.179184,73.087936 
	C243.947586,80.410522 243.666870,87.732445 243.566437,95.056831 
	C243.557205,95.729889 244.707748,97.018044 245.304626,97.009102 
	C252.657700,96.899048 260.007965,96.600555 267.347534,96.322174 
	C267.347534,96.322174 267.374359,96.326355 267.883728,95.991409 
M192.057922,90.769958 
	C193.955093,94.842651 197.627716,92.262886 200.414978,93.000511 
	C202.647873,93.591431 205.761719,93.476784 206.924622,94.926559 
	C209.158600,97.711662 210.407410,96.663254 212.597656,94.977219 
	C208.313034,88.304955 204.330582,81.805969 200.022903,75.530220 
	C198.093933,72.719955 194.852310,72.832504 193.080444,75.321693 
	C188.409744,81.883354 184.274216,88.825966 179.925583,95.616882 
	C180.262177,96.133583 180.598770,96.650284 180.935364,97.166985 
	C182.330414,96.463814 184.014801,96.046822 185.056244,94.993896 
	C186.855896,93.174423 188.256424,90.960182 190.365601,89.138710 
	C190.879913,89.415985 191.394226,89.693260 192.057922,90.769958 
M170.037537,73.014671 
	C163.481079,73.014671 156.924637,73.014671 149.959366,73.014671 
	C149.959366,79.152977 149.868500,84.886909 150.006729,90.615326 
	C150.057785,92.730759 150.648300,94.833183 151.655502,97.129532 
	C152.106049,97.066864 152.556580,97.004204 153.888870,96.749336 
	C153.964493,90.506744 154.040115,84.264160 154.748947,77.478157 
	C159.386246,77.359695 164.062027,76.854156 168.642288,77.309479 
	C170.526917,77.496834 173.460693,79.542229 173.723129,81.109802 
	C174.309723,84.613724 171.233887,85.145103 168.346771,85.122452 
	C164.838211,85.094917 161.329285,85.115913 157.127258,85.115913 
	C170.003693,97.029266 170.003693,97.029266 174.695908,96.478111 
	C173.790756,95.079895 173.192169,93.863411 172.322586,92.888657 
	C171.322159,91.767220 170.082108,90.859558 168.457031,89.428291 
	C175.338623,88.648582 178.031876,86.427322 178.414688,81.919189 
	C178.804688,77.326210 176.498871,74.610611 170.037537,73.014671 
M27.861307,56.108528 
	C12.500855,61.484779 4.771297,72.861473 5.994553,88.292938 
	C7.065091,101.797836 17.533665,113.222870 32.391037,114.487495 
	C46.271111,115.668930 60.402390,115.684593 74.289925,114.563538 
	C93.865479,112.983330 104.297569,94.564590 100.048782,77.190765 
	C97.051880,64.936058 86.984901,55.950623 73.045708,55.289722 
	C58.302261,54.590683 43.474380,55.672455 27.861307,56.108528 
M146.900513,87.922493 
	C147.716995,76.735405 141.477768,71.601273 130.207687,73.803101 
	C127.167061,74.397148 123.907722,73.812752 120.752510,73.901703 
	C118.911682,73.953590 116.870651,73.816811 115.280441,74.548721 
	C110.526375,76.736824 108.090317,82.156761 109.034721,87.516869 
	C109.936905,92.637390 114.372025,96.690865 119.768600,97.024345 
	C123.255180,97.239807 126.776970,96.911247 130.259811,97.156067 
	C137.510635,97.665756 143.804611,96.542503 146.900513,87.922493 
M293.912842,73.995728 
	C288.675079,73.789986 283.410645,73.165428 278.207031,73.496376 
	C273.010895,73.826836 268.865601,79.680443 268.947937,85.429092 
	C269.032501,91.335266 273.405609,96.467850 279.250183,96.968262 
	C283.386230,97.322395 287.579803,97.231354 291.733429,97.035583 
	C293.280090,96.962685 294.786163,96.027267 296.310730,95.485161 
	C296.216248,94.988708 296.121735,94.492256 296.027252,93.995804 
	C291.475830,93.995804 286.915833,93.820633 282.375305,94.042992 
	C277.418060,94.285759 275.613220,91.216721 273.945404,87.094955 
	C278.097443,87.094955 281.756653,87.094955 285.415863,87.094955 
	C293.586243,87.094955 293.586243,87.094955 294.892151,83.740807 
	C287.831757,83.740807 280.968506,83.740807 273.511719,83.740807 
	C275.133606,79.187752 277.772858,77.195862 281.867126,77.136780 
	C285.697815,77.081512 289.545135,77.305229 293.351532,76.994476 
	C294.436981,76.905861 295.405243,75.382072 296.427246,74.516403 
	C295.876617,74.342339 295.325958,74.168274 293.912842,73.995728 
M231.450089,97.115746 
	C234.009033,96.438980 237.507217,98.627304 240.110474,93.995415 
	C234.568695,93.995415 230.139572,94.020607 225.710876,93.988518 
	C221.042267,93.954697 216.277405,89.550850 216.195404,85.248962 
	C216.107590,80.642349 220.050461,77.221733 225.625000,77.133392 
	C228.784836,77.083313 231.961472,77.304771 235.099533,77.038506 
	C236.449356,76.923973 237.720520,75.882446 239.027420,75.262070 
	C238.875015,74.832146 238.722610,74.402214 238.570206,73.972282 
	C233.424667,73.972282 228.266281,73.758324 223.139221,74.066048 
	C220.716690,74.211449 217.952118,74.796577 216.047867,76.164429 
	C212.049057,79.036842 210.808685,84.542908 212.546127,89.179726 
	C214.342972,93.975113 217.841324,96.707924 222.997849,97.045563 
	C225.483185,97.208298 227.986221,97.100861 231.450089,97.115746 
z"/>
<path fill="#FF1821" opacity="1.000000" stroke="none" 
	d="
M28.272345,56.042442 
	C43.474380,55.672455 58.302261,54.590683 73.045708,55.289722 
	C86.984901,55.950623 97.051880,64.936058 100.048782,77.190765 
	C104.297569,94.564590 93.865479,112.983330 74.289925,114.563538 
	C60.402390,115.684593 46.271111,115.668930 32.391037,114.487495 
	C17.533665,113.222870 7.065091,101.797836 5.994553,88.292938 
	C4.771297,72.861473 12.500855,61.484779 28.272345,56.042442 
M33.496586,65.946625 
	C23.330078,68.138649 16.528393,76.510178 17.167995,86.043900 
	C17.855333,96.289162 26.133678,104.148155 37.136890,104.407631 
	C48.269341,104.670135 59.418758,104.244240 70.549126,104.546951 
	C74.296959,104.648880 77.259056,103.305031 80.211494,101.612030 
	C87.430740,97.472343 91.022194,88.854279 89.106140,80.712959 
	C86.902809,71.351006 79.583313,65.715706 69.030098,65.551826 
	C57.732941,65.376381 46.432564,65.408272 34.874233,64.937668 
	C34.618240,65.166260 34.362247,65.394859 33.496586,65.946625 
z"/>
<path fill="#FF181F" opacity="1.000000" stroke="none" 
	d="
M146.826172,88.328217 
	C143.804611,96.542503 137.510635,97.665756 130.259811,97.156067 
	C126.776970,96.911247 123.255180,97.239807 119.768600,97.024345 
	C114.372025,96.690865 109.936905,92.637390 109.034721,87.516869 
	C108.090317,82.156761 110.526375,76.736824 115.280441,74.548721 
	C116.870651,73.816811 118.911682,73.953590 120.752510,73.901703 
	C123.907722,73.812752 127.167061,74.397148 130.207687,73.803101 
	C141.477768,71.601273 147.716995,76.735405 146.826172,88.328217 
M113.752304,87.606087 
	C115.912102,91.812744 118.864883,94.659218 124.087242,94.026154 
	C127.808815,93.575043 131.578827,93.492905 135.285538,92.957588 
	C140.036194,92.271523 143.148727,88.707413 142.873627,84.667465 
	C142.595520,80.583099 139.011597,77.297478 134.381561,77.145599 
	C130.230225,77.009422 126.068062,77.017433 121.915863,77.139038 
	C116.146812,77.307991 113.253143,80.723709 113.752304,87.606087 
z"/>
<path fill="#FF171F" opacity="1.000000" stroke="none" 
	d="
M294.344086,73.994965 
	C295.325958,74.168274 295.876617,74.342339 296.427246,74.516403 
	C295.405243,75.382072 294.436981,76.905861 293.351532,76.994476 
	C289.545135,77.305229 285.697815,77.081512 281.867126,77.136780 
	C277.772858,77.195862 275.133606,79.187752 273.511719,83.740807 
	C280.968506,83.740807 287.831757,83.740807 294.892151,83.740807 
	C293.586243,87.094955 293.586243,87.094955 285.415863,87.094955 
	C281.756653,87.094955 278.097443,87.094955 273.945404,87.094955 
	C275.613220,91.216721 277.418060,94.285759 282.375305,94.042992 
	C286.915833,93.820633 291.475830,93.995804 296.027252,93.995804 
	C296.121735,94.492256 296.216248,94.988708 296.310730,95.485161 
	C294.786163,96.027267 293.280090,96.962685 291.733429,97.035583 
	C287.579803,97.231354 283.386230,97.322395 279.250183,96.968262 
	C273.405609,96.467850 269.032501,91.335266 268.947937,85.429092 
	C268.865601,79.680443 273.010895,73.826836 278.207031,73.496376 
	C283.410645,73.165428 288.675079,73.789986 294.344086,73.994965 
z"/>
<path fill="#FF161E" opacity="1.000000" stroke="none" 
	d="
M153.007126,96.941536 
	C152.556580,97.004204 152.106049,97.066864 151.331970,96.570778 
	C151.006546,90.212128 151.226349,84.400681 150.924835,78.616402 
	C150.723740,74.758575 152.203735,73.852829 155.800766,73.909920 
	C160.849197,73.990044 165.907806,73.428947 170.962051,73.142105 
	C176.498871,74.610611 178.804688,77.326210 178.414688,81.919189 
	C178.031876,86.427322 175.338623,88.648582 168.457031,89.428291 
	C170.082108,90.859558 171.322159,91.767220 172.322586,92.888657 
	C173.192169,93.863411 173.790756,95.079895 174.695908,96.478111 
	C170.003693,97.029266 170.003693,97.029266 157.127258,85.115913 
	C161.329285,85.115913 164.838211,85.094917 168.346771,85.122452 
	C171.233887,85.145103 174.309723,84.613724 173.723129,81.109802 
	C173.460693,79.542229 170.526917,77.496834 168.642288,77.309479 
	C164.062027,76.854156 159.386246,77.359695 154.104507,78.013092 
	C153.309082,84.679199 153.158112,90.810364 153.007126,96.941536 
z"/>
<path fill="#FF161D" opacity="1.000000" stroke="none" 
	d="
M189.824387,88.911545 
	C188.256424,90.960182 186.855896,93.174423 185.056244,94.993896 
	C184.014801,96.046822 182.330414,96.463814 180.935364,97.166985 
	C180.598770,96.650284 180.262177,96.133583 179.925583,95.616882 
	C184.274216,88.825966 188.409744,81.883354 193.080444,75.321693 
	C194.852310,72.832504 198.093933,72.719955 200.022903,75.530220 
	C204.330582,81.805969 208.313034,88.304955 212.597656,94.977219 
	C210.407410,96.663254 209.158600,97.711662 206.924622,94.926559 
	C205.761719,93.476784 202.647873,93.591431 200.414978,93.000511 
	C197.627716,92.262886 193.955093,94.842651 192.432709,90.342422 
	C196.115601,89.662186 199.423691,89.409477 203.495575,89.098419 
	C200.652832,84.645065 198.647263,81.503212 196.360565,77.920944 
	C194.011002,81.871750 191.917694,85.391655 189.824387,88.911545 
z"/>
<path fill="#FF171F" opacity="1.000000" stroke="none" 
	d="
M230.965668,97.115753 
	C227.986221,97.100861 225.483185,97.208298 222.997849,97.045563 
	C217.841324,96.707924 214.342972,93.975113 212.546127,89.179726 
	C210.808685,84.542908 212.049057,79.036842 216.047867,76.164429 
	C217.952118,74.796577 220.716690,74.211449 223.139221,74.066048 
	C228.266281,73.758324 233.424667,73.972282 238.570206,73.972282 
	C238.722610,74.402214 238.875015,74.832146 239.027420,75.262070 
	C237.720520,75.882446 236.449356,76.923973 235.099533,77.038506 
	C231.961472,77.304771 228.784836,77.083313 225.625000,77.133392 
	C220.050461,77.221733 216.107590,80.642349 216.195404,85.248962 
	C216.277405,89.550850 221.042267,93.954697 225.710876,93.988518 
	C230.139572,94.020607 234.568695,93.995415 240.110474,93.995415 
	C237.507217,98.627304 234.009033,96.438980 230.965668,97.115753 
z"/>
<path fill="#FF1F22" opacity="1.000000" stroke="none" 
	d="
M267.358948,96.350716 
	C260.007965,96.600555 252.657700,96.899048 245.304626,97.009102 
	C244.707748,97.018044 243.557205,95.729889 243.566437,95.056831 
	C243.666870,87.732445 243.947586,80.410522 244.584351,73.553413 
	C244.988922,79.840927 245.151306,85.669289 244.925949,91.482613 
	C244.793060,94.910896 245.858658,96.190086 249.420288,96.089813 
	C255.392654,95.921692 261.378662,96.238167 267.358948,96.350716 
z"/>
<path fill="#FFEAEA" opacity="1.000000" stroke="none" 
	d="
M190.095001,89.025131 
	C191.917694,85.391655 194.011002,81.871750 196.360565,77.920944 
	C198.647263,81.503212 200.652832,84.645065 203.495575,89.098419 
	C199.423691,89.409477 196.115601,89.662186 192.358032,89.942711 
	C191.394226,89.693260 190.879913,89.415985 190.095001,89.025131 
z"/>
<path fill="#FF141D" opacity="1.000000" stroke="none" 
	d="
M267.353241,96.336441 
	C261.378662,96.238167 255.392654,95.921692 249.420288,96.089813 
	C245.858658,96.190086 244.793060,94.910896 244.925949,91.482613 
	C245.151306,85.669289 244.988922,79.840927 244.997543,73.556389 
	C245.448624,73.052826 245.891678,73.011765 246.672760,73.494095 
	C247.299896,80.341232 247.589005,86.664970 247.878128,92.988716 
	C252.140182,93.326233 256.399689,93.702988 260.665527,93.982613 
	C262.459045,94.100182 264.265961,94.012436 266.557983,94.451141 
	C267.157562,95.364952 267.265961,95.845657 267.374359,96.326355 
	C267.374359,96.326355 267.347534,96.322174 267.353241,96.336441 
z"/>
<path fill="#FF0000" opacity="1.000000" stroke="none" 
	d="
M170.499786,73.078384 
	C165.907806,73.428947 160.849197,73.990044 155.800766,73.909920 
	C152.203735,73.852829 150.723740,74.758575 150.924835,78.616402 
	C151.226349,84.400681 151.006546,90.212128 151.000610,96.476776 
	C150.648300,94.833183 150.057785,92.730759 150.006729,90.615326 
	C149.868500,84.886909 149.959366,79.152977 149.959366,73.014671 
	C156.924637,73.014671 163.481079,73.014671 170.499786,73.078384 
z"/>
<path fill="#FF1F22" opacity="1.000000" stroke="none" 
	d="
M247.960266,92.527390 
	C247.589005,86.664970 247.299896,80.341232 247.002274,73.555229 
	C247.350143,76.310143 247.842606,79.519676 248.023865,82.746696 
	C248.197845,85.843727 248.049255,88.958878 247.960266,92.527390 
z"/>
<path fill="#FF0000" opacity="1.000000" stroke="none" 
	d="
M153.447998,96.845436 
	C153.158112,90.810364 153.309082,84.679199 153.787903,78.284798 
	C154.040115,84.264160 153.964493,90.506744 153.447998,96.845436 
z"/>
<path fill="#FF1F22" opacity="1.000000" stroke="none" 
	d="
M267.629028,96.158882 
	C267.265961,95.845657 267.157562,95.364952 267.021973,94.515060 
	C267.575653,94.145866 268.156525,94.145866 268.944641,94.145866 
	C268.489410,94.937775 268.186554,95.464592 267.629028,96.158882 
z"/>
<path fill="#FFFEFE" opacity="1.000000" stroke="none" 
	d="
M35.133591,65.349670 
	C46.432564,65.408272 57.732941,65.376381 69.030098,65.551826 
	C79.583313,65.715706 86.902809,71.351006 89.106140,80.712959 
	C91.022194,88.854279 87.430740,97.472343 80.211494,101.612030 
	C77.259056,103.305031 74.296959,104.648880 70.549126,104.546951 
	C59.418758,104.244240 48.269341,104.670135 37.136890,104.407631 
	C26.133678,104.148155 17.855333,96.289162 17.167995,86.043900 
	C16.528393,76.510178 23.330078,68.138649 34.075050,65.779526 
	C34.813541,65.524841 34.973568,65.437256 35.133591,65.349670 
z"/>
<path fill="#FF0009" opacity="1.000000" stroke="none" 
	d="
M35.003914,65.143669 
	C34.973568,65.437256 34.813541,65.524841 34.379883,65.617943 
	C34.362247,65.394859 34.618240,65.166260 35.003914,65.143669 
z"/>
<path fill="#FFFAFA" opacity="1.000000" stroke="none" 
	d="
M113.598801,87.252472 
	C113.253143,80.723709 116.146812,77.307991 121.915863,77.139038 
	C126.068062,77.017433 130.230225,77.009422 134.381561,77.145599 
	C139.011597,77.297478 142.595520,80.583099 142.873627,84.667465 
	C143.148727,88.707413 140.036194,92.271523 135.285538,92.957588 
	C131.578827,93.492905 127.808815,93.575043 124.087242,94.026154 
	C118.864883,94.659218 115.912102,91.812744 113.598801,87.252472 
z"/>
</svg>