<svg version="1.1" id="Layer_1" xmlns="http://www.w3.org/2000/svg" xmlns:xlink="http://www.w3.org/1999/xlink" x="0px" y="0px"
	 width="100%" viewBox="0 0 306 165" enable-background="new 0 0 306 165" xml:space="preserve">
<path fill="#FEFEFE" opacity="1.000000" stroke="none" 
	d="
M210.000000,166.000000 
	C140.000015,166.000000 70.500015,166.000000 1.000019,166.000000 
	C1.000012,111.000015 1.000012,56.000031 1.000006,1.000033 
	C102.999969,1.000022 204.999939,1.000022 306.999939,1.000011 
	C306.999939,55.999966 306.999939,110.999931 306.999969,165.999939 
	C274.833344,166.000000 242.666672,166.000000 210.000000,166.000000 
M205.472305,10.106520 
	C202.981644,9.754937 200.490982,9.403356 197.236588,8.848530 
	C195.160202,8.579474 193.083801,8.310418 190.241959,7.840268 
	C188.164322,7.585289 186.086670,7.330311 183.158966,6.928477 
	C178.102539,6.606401 173.046112,6.284326 167.339813,5.850871 
	C166.903030,5.884208 166.466263,5.917546 165.334869,5.863067 
	C164.869049,5.877513 164.403244,5.891959 163.190521,5.588666 
	C159.152908,5.506531 155.115311,5.424396 150.207047,5.175135 
	C147.240387,5.407302 144.276169,5.799822 141.306656,5.845292 
	C123.657967,6.115532 106.319839,8.742142 89.281960,13.138268 
	C68.280426,18.557096 48.189766,26.135817 30.366051,40.191746 
	C26.270926,44.148960 22.175800,48.106174 17.528322,52.433811 
	C14.300603,58.268612 11.072885,64.103416 7.367920,70.530731 
	C6.767905,74.290199 6.167889,78.049675 5.318795,82.545341 
	C5.350662,93.662048 8.776119,103.561569 16.151682,112.754807 
	C27.304731,127.122749 42.116768,136.365921 59.196747,143.670471 
	C68.139915,146.735382 77.083084,149.800278 86.499359,153.017044 
	C86.499359,153.017044 86.994469,152.975174 87.677948,153.334015 
	C91.122406,154.154709 94.566872,154.975388 98.802292,155.987701 
	C104.543121,156.956802 110.283943,157.925888 116.499741,159.009720 
	C116.499741,159.009720 116.982666,158.935303 117.656754,159.153290 
	C118.359200,159.236298 119.061646,159.319305 120.449783,159.883347 
	C127.954330,160.277451 135.458878,160.671570 143.730148,161.342407 
	C178.155518,162.688110 211.751831,158.386337 243.936081,145.711823 
	C262.515228,138.395172 279.611725,128.588074 292.148010,112.394775 
	C306.197968,94.246239 306.307281,72.610336 292.058105,54.537029 
	C277.072296,35.529362 256.495453,25.122507 233.467331,17.393433 
	C229.647842,16.293074 225.828369,15.192713 221.279221,13.855639 
	C218.519897,13.244114 215.760590,12.632589 212.280823,11.724450 
	C210.230255,11.295257 208.179672,10.866063 205.472305,10.106520 
z"/>
<path fill="#777BB3" opacity="1.000000" stroke="none" 
	d="
M191.007416,8.041363 
	C193.083801,8.310418 195.160202,8.579474 197.617050,9.360046 
	C197.319443,16.289673 202.498276,15.049014 206.393280,16.041439 
	C208.852448,16.394627 210.923233,16.701418 213.236847,17.283567 
	C216.658096,18.363409 219.836502,19.167892 223.357590,20.124443 
	C227.119232,21.204451 230.538177,22.132395 234.197754,23.319550 
	C252.582809,30.432762 269.870483,38.661289 283.553284,53.018379 
	C299.697266,69.957970 300.993622,91.117500 286.837402,109.795219 
	C276.229858,123.790848 261.531647,132.175446 245.832413,138.817139 
	C216.860931,151.073746 186.224030,155.119400 154.574554,156.035980 
	C145.403046,155.690277 136.704666,155.367813 127.727165,154.740768 
	C119.968681,153.620819 112.489334,152.805466 104.749008,151.706955 
	C94.325569,148.948593 84.163124,146.473389 73.773994,143.724060 
	C64.031784,139.299545 54.516251,135.149155 44.859505,130.709778 
	C43.812347,129.946976 42.906399,129.473175 42.000225,128.999695 
	C42.000000,129.000000 42.000317,128.999390 41.859306,128.710297 
	C40.812599,127.947075 39.906902,127.472931 38.860001,126.710785 
	C37.479301,125.615089 36.239807,124.807388 34.859291,123.710541 
	C33.812283,122.947495 32.906292,122.473595 32.000153,121.999847 
	C32.000000,122.000000 32.000225,121.999695 31.855770,121.700165 
	C25.500034,114.447784 19.117641,107.637909 13.143398,100.487038 
	C9.709039,96.376289 7.867861,91.514969 10.269116,86.100891 
	C10.702277,82.803780 10.851653,79.403236 11.275185,75.776367 
	C14.372581,69.405670 17.195822,63.261299 20.311401,56.947258 
	C24.071121,53.215187 27.538502,49.652794 31.310944,45.935699 
	C44.123344,36.207134 57.909027,29.077381 72.774712,23.901058 
	C100.044456,14.405562 128.222168,10.964214 157.406891,10.957493 
	C161.918411,11.008303 165.960220,11.032169 170.297928,11.339008 
	C175.386444,12.068347 180.179077,12.514711 185.404007,12.974222 
	C187.738785,12.987368 189.641266,12.987368 191.975510,12.987368 
	C191.554321,10.835503 191.280869,9.438433 191.007416,8.041363 
M219.476120,109.882690 
	C221.308319,109.866089 223.142746,109.902359 224.972351,109.824753 
	C244.551315,108.994339 258.825562,97.249397 262.620728,78.869370 
	C266.211426,61.479492 257.262146,47.446857 240.872574,46.205688 
	C228.115067,45.239567 215.254807,45.634235 202.440414,45.412178 
	C199.264740,45.357147 197.527100,46.834278 197.018143,50.013618 
	C196.552902,52.920063 195.829712,55.785217 195.115265,59.164928 
	C189.731918,49.425041 185.040070,46.557461 174.160034,45.950199 
	C168.731079,45.647190 163.302689,45.334007 157.399826,44.998466 
	C158.332794,39.609615 159.197998,34.726738 160.017944,29.836269 
	C160.580566,26.480528 159.273453,24.788988 155.712799,24.882757 
	C151.717758,24.987970 147.683670,25.231197 143.728378,24.819876 
	C138.611877,24.287800 136.724442,26.421667 135.931976,31.316364 
	C134.194489,42.048283 131.883926,52.687420 129.750854,63.655079 
	C124.130272,52.513771 120.196991,47.931217 110.113785,46.904320 
	C96.103462,45.477482 81.903679,45.816414 67.782974,45.729687 
	C66.520386,45.721935 64.574303,47.929337 64.102951,49.463528 
	C62.889969,53.411575 62.306347,57.555298 61.508125,61.628063 
	C57.388786,82.646141 53.276463,103.665596 49.173351,124.686844 
	C48.412468,128.585037 49.714035,130.842377 54.024727,130.782501 
	C58.354912,130.722321 62.688900,130.681931 67.016891,130.796600 
	C70.664658,130.893250 72.621094,129.322983 73.001289,125.658638 
	C73.171967,124.013634 73.677513,122.406380 73.943848,120.767807 
	C75.438065,111.574776 75.431541,111.604897 84.403091,110.876297 
	C86.195137,110.730759 87.955826,109.977325 89.736877,109.953926 
	C102.532036,109.785805 113.521683,105.674553 121.906364,95.631836 
	C122.033508,95.479553 122.502647,95.612808 122.990509,95.612808 
	C122.990509,96.642342 123.100861,97.643311 122.973648,98.613121 
	C121.495155,109.883980 121.485878,109.925873 132.886749,109.871498 
	C146.246796,109.807793 144.134903,111.564613 146.944107,97.707062 
	C149.076111,87.190002 151.074432,76.645844 153.164505,65.948555 
	C156.608246,65.948555 159.457657,66.219025 162.238800,65.898041 
	C170.711517,64.920166 171.326843,65.574478 169.638687,74.008575 
	C167.650162,83.943237 165.751358,93.896439 163.896683,103.857063 
	C162.975555,108.804024 164.734146,110.844185 169.835800,110.898735 
	C174.787506,110.951683 179.740219,110.910225 185.160538,110.910225 
	C184.145187,116.101723 183.295761,120.651222 182.356461,125.182091 
	C181.607742,128.793640 183.054886,130.681259 186.684937,130.743866 
	C191.514236,130.827148 196.346039,130.764893 201.176773,130.765289 
	C204.168030,130.765533 205.605667,129.295654 206.111816,126.305435 
	C207.020523,120.937149 208.256470,115.624260 209.439255,109.882553 
	C212.570297,109.882553 215.537827,109.882553 219.476120,109.882690 
z"/>
<path fill="#4A4E8B" opacity="1.000000" stroke="none" 
	d="
M155.047699,156.059189 
	C186.224030,155.119400 216.860931,151.073746 245.832413,138.817139 
	C261.531647,132.175446 276.229858,123.790848 286.837402,109.795219 
	C300.993622,91.117500 299.697266,69.957970 283.553284,53.018379 
	C269.870483,38.661289 252.582809,30.432762 234.210602,22.887697 
	C233.985428,20.763134 233.988037,19.329632 233.990662,17.896132 
	C256.495453,25.122507 277.072296,35.529362 292.058105,54.537029 
	C306.307281,72.610336 306.197968,94.246239 292.148010,112.394775 
	C279.611725,128.588074 262.515228,138.395172 243.936081,145.711823 
	C211.751831,158.386337 178.155518,162.688110 143.626801,160.898346 
	C148.088470,159.857162 152.653488,159.260040 157.218521,158.662918 
	C157.144379,158.233429 157.070236,157.803925 156.996094,157.374435 
	C156.346619,156.936020 155.697159,156.497604 155.047699,156.059189 
z"/>
<path fill="#AFB3D5" opacity="1.000000" stroke="none" 
	d="
M156.937195,10.930548 
	C128.222168,10.964214 100.044456,14.405562 72.774712,23.901058 
	C57.909027,29.077381 44.123344,36.207134 31.309383,45.490616 
	C30.991962,43.427876 30.981161,41.655510 30.970362,39.883148 
	C48.189766,26.135817 68.280426,18.557096 89.281960,13.138268 
	C106.319839,8.742142 123.657967,6.115532 141.306656,5.845292 
	C144.276169,5.799822 147.240387,5.407302 150.708099,5.571421 
	C153.118515,7.621987 155.027847,9.276268 156.937195,10.930548 
z"/>
<path fill="#7175A7" opacity="1.000000" stroke="none" 
	d="
M45.000717,130.998779 
	C54.516251,135.149155 64.031784,139.299545 73.527054,144.002777 
	C71.105736,144.242828 68.710876,143.865204 66.301933,143.635086 
	C63.774193,143.393616 61.232944,143.293549 58.697601,143.131699 
	C42.116768,136.365921 27.304731,127.122749 16.226490,112.177368 
	C17.868214,112.732658 19.676210,113.644897 20.954056,115.042030 
	C24.028120,118.403053 27.062843,121.662857 32.000225,121.999695 
	C32.000225,121.999695 32.000000,122.000000 32.053219,122.344330 
	C33.071064,123.125664 34.035686,123.562675 35.000309,123.999695 
	C36.239807,124.807388 37.479301,125.615089 38.912834,127.055336 
	C40.071350,128.125061 41.035835,128.562225 42.000320,128.999390 
	C42.000317,128.999390 42.000000,129.000000 42.053299,129.344177 
	C43.071301,130.125168 44.036007,130.561981 45.000717,130.998779 
z"/>
<path fill="#6B6FA3" opacity="1.000000" stroke="none" 
	d="
M58.947174,143.401093 
	C61.232944,143.293549 63.774193,143.393616 66.301933,143.635086 
	C68.710876,143.865204 71.105736,144.242828 73.753723,144.276886 
	C84.163124,146.473389 94.325569,148.948593 104.406700,151.857697 
	C102.220703,153.459747 100.116020,154.627914 98.011337,155.796066 
	C94.566872,154.975388 91.122406,154.154709 87.259186,152.991791 
	C86.569038,152.721451 86.297646,152.793320 86.026253,152.865204 
	C77.083084,149.800278 68.139915,146.735382 58.947174,143.401093 
z"/>
<path fill="#7579AA" opacity="1.000000" stroke="none" 
	d="
M31.855770,121.700165 
	C27.062843,121.662857 24.028120,118.403053 20.954056,115.042030 
	C19.676210,113.644897 17.868214,112.732658 16.114656,111.862228 
	C8.776119,103.561569 5.350662,93.662048 5.814614,82.251205 
	C7.535399,83.303871 8.760365,84.650665 9.985332,85.997459 
	C7.867861,91.514969 9.709039,96.376289 13.143398,100.487038 
	C19.117641,107.637909 25.500034,114.447784 31.855770,121.700165 
z"/>
<path fill="#565A93" opacity="1.000000" stroke="none" 
	d="
M154.574554,156.035980 
	C155.697159,156.497604 156.346619,156.936020 156.996094,157.374435 
	C157.070236,157.803925 157.144379,158.233429 157.218521,158.662918 
	C152.653488,159.260040 148.088470,159.857162 143.243439,160.759979 
	C135.458878,160.671570 127.954330,160.277451 120.330887,159.312469 
	C122.810089,157.509521 125.408195,156.277435 128.006302,155.045349 
	C136.704666,155.367813 145.403046,155.690277 154.574554,156.035980 
z"/>
<path fill="#64689E" opacity="1.000000" stroke="none" 
	d="
M127.727165,154.740753 
	C125.408195,156.277435 122.810089,157.509521 119.988037,159.071960 
	C119.061646,159.319305 118.359200,159.236298 117.238731,158.883072 
	C116.555397,158.706894 116.290085,158.800949 116.024773,158.894989 
	C110.283943,157.925888 104.543121,156.956802 98.406815,155.891876 
	C100.116020,154.627914 102.220703,153.459747 104.667679,152.140839 
	C112.489334,152.805466 119.968681,153.620819 127.727165,154.740753 
z"/>
<path fill="#9094BF" opacity="1.000000" stroke="none" 
	d="
M20.019066,57.116936 
	C17.195822,63.261299 14.372581,69.405670 11.276197,75.385269 
	C9.950427,73.459740 8.897798,71.698975 7.845167,69.938217 
	C11.072885,64.103416 14.300603,58.268612 18.062632,52.463192 
	C19.070982,54.034027 19.545023,55.575481 20.019066,57.116936 
z"/>
<path fill="#8F93BF" opacity="1.000000" stroke="none" 
	d="
M184.971710,12.961077 
	C180.179077,12.514711 175.386444,12.068347 170.167694,11.017899 
	C169.157608,8.929961 168.573639,7.446107 167.989685,5.962252 
	C173.046112,6.284326 178.102539,6.606401 183.583054,7.379437 
	C184.328659,9.540625 184.650177,11.250851 184.971710,12.961077 
z"/>
<path fill="#A1A4CA" opacity="1.000000" stroke="none" 
	d="
M20.311403,56.947258 
	C19.545023,55.575481 19.070982,54.034027 18.338806,52.277985 
	C22.175800,48.106174 26.270926,44.148960 30.668205,40.037445 
	C30.981161,41.655510 30.991962,43.427876 31.004322,45.645317 
	C27.538502,49.652794 24.071121,53.215187 20.311403,56.947258 
z"/>
<path fill="#A0A4C9" opacity="1.000000" stroke="none" 
	d="
M167.664734,5.906563 
	C168.573639,7.446107 169.157608,8.929961 169.871811,10.734924 
	C165.960220,11.032169 161.918411,11.008303 157.406891,10.957493 
	C155.027847,9.276268 153.118515,7.621987 151.143433,5.654984 
	C155.115311,5.424396 159.152908,5.506531 163.716614,5.988741 
	C164.838303,6.242839 165.433884,6.096862 166.029480,5.950884 
	C166.466263,5.917546 166.903030,5.884208 167.664734,5.906563 
z"/>
<path fill="#595D95" opacity="1.000000" stroke="none" 
	d="
M233.729004,17.644783 
	C233.988037,19.329632 233.985428,20.763134 233.969971,22.628487 
	C230.538177,22.132395 227.119232,21.204451 223.351151,19.744873 
	C222.670975,17.506277 222.339920,15.799314 222.008881,14.092353 
	C225.828369,15.192713 229.647842,16.293074 233.729004,17.644783 
z"/>
<path fill="#8387B4" opacity="1.000000" stroke="none" 
	d="
M7.606544,70.234474 
	C8.897798,71.698975 9.950427,73.459740 11.002043,75.611603 
	C10.851653,79.403236 10.702277,82.803780 10.269117,86.100891 
	C8.760365,84.650665 7.535399,83.303871 5.939153,81.883110 
	C6.167889,78.049675 6.767905,74.290199 7.606544,70.234474 
z"/>
<path fill="#64689D" opacity="1.000000" stroke="none" 
	d="
M221.644043,13.973995 
	C222.339920,15.799314 222.670975,17.506277 223.008469,19.592808 
	C219.836502,19.167892 216.658096,18.363409 213.239044,16.867611 
	C212.999374,14.791220 213.000320,13.406141 213.001266,12.021064 
	C215.760590,12.632589 218.519897,13.244114 221.644043,13.973995 
z"/>
<path fill="#7478AA" opacity="1.000000" stroke="none" 
	d="
M206.004883,15.995044 
	C202.498276,15.049014 197.319443,16.289673 197.998917,9.461668 
	C200.490982,9.403356 202.981644,9.754937 205.767120,10.739326 
	C206.042923,12.913102 206.023911,14.454073 206.004883,15.995044 
z"/>
<path fill="#8589B6" opacity="1.000000" stroke="none" 
	d="
M185.404007,12.974222 
	C184.650177,11.250851 184.328659,9.540625 184.008087,7.452865 
	C186.086670,7.330311 188.164322,7.585289 190.624695,7.940815 
	C191.280869,9.438433 191.554321,10.835503 191.975510,12.987368 
	C189.641266,12.987368 187.738785,12.987368 185.404007,12.974222 
z"/>
<path fill="#6B6FA3" opacity="1.000000" stroke="none" 
	d="
M206.393280,16.041439 
	C206.023911,14.454073 206.042923,12.913102 206.095520,10.904501 
	C208.179672,10.866063 210.230255,11.295257 212.641052,11.872757 
	C213.000320,13.406141 212.999374,14.791220 212.996216,16.592255 
	C210.923233,16.701418 208.852448,16.394627 206.393280,16.041439 
z"/>
<path fill="#8F93BF" opacity="1.000000" stroke="none" 
	d="
M165.682175,5.906976 
	C165.433884,6.096862 164.838303,6.242839 164.090057,6.147611 
	C164.403244,5.891959 164.869049,5.877513 165.682175,5.906976 
z"/>
<path fill="#64689E" opacity="1.000000" stroke="none" 
	d="
M86.262802,152.941132 
	C86.297646,152.793320 86.569038,152.721451 86.917450,152.812378 
	C86.994469,152.975174 86.499359,153.017044 86.262802,152.941132 
z"/>
<path fill="#565A93" opacity="1.000000" stroke="none" 
	d="
M116.262253,158.952362 
	C116.290085,158.800949 116.555397,158.706894 116.901688,158.774078 
	C116.982666,158.935303 116.499741,159.009720 116.262253,158.952362 
z"/>
<path fill="#F1F1F3" opacity="1.000000" stroke="none" 
	d="
M218.990753,109.882622 
	C215.537827,109.882553 212.570297,109.882553 209.439255,109.882553 
	C208.256470,115.624260 207.020523,120.937149 206.111816,126.305435 
	C205.605667,129.295654 204.168030,130.765533 201.176773,130.765289 
	C196.346039,130.764893 191.514236,130.827148 186.684937,130.743866 
	C183.054886,130.681259 181.607742,128.793640 182.356461,125.182091 
	C183.295761,120.651222 184.145187,116.101723 185.160538,110.910225 
	C179.740219,110.910225 174.787506,110.951683 169.835800,110.898735 
	C164.734146,110.844185 162.975555,108.804024 163.896683,103.857063 
	C165.751358,93.896439 167.650162,83.943237 169.638687,74.008575 
	C171.326843,65.574478 170.711517,64.920166 162.238800,65.898041 
	C159.457657,66.219025 156.608246,65.948555 153.164505,65.948555 
	C151.074432,76.645844 149.076111,87.190002 146.944107,97.707062 
	C144.134903,111.564613 146.246796,109.807793 132.886749,109.871498 
	C121.485878,109.925873 121.495155,109.883980 122.973648,98.613121 
	C123.100861,97.643311 122.990509,96.642342 122.990509,95.612808 
	C122.502647,95.612808 122.033508,95.479553 121.906364,95.631836 
	C113.521683,105.674553 102.532036,109.785805 89.736877,109.953926 
	C87.955826,109.977325 86.195137,110.730759 84.403091,110.876297 
	C75.431541,111.604897 75.438065,111.574776 73.943848,120.767807 
	C73.677513,122.406380 73.171967,124.013634 73.001289,125.658638 
	C72.621094,129.322983 70.664658,130.893250 67.016891,130.796600 
	C62.688900,130.681931 58.354912,130.722321 54.024727,130.782501 
	C49.714035,130.842377 48.412468,128.585037 49.173351,124.686844 
	C53.276463,103.665596 57.388786,82.646141 61.508125,61.628063 
	C62.306347,57.555298 62.889969,53.411575 64.102951,49.463528 
	C64.574303,47.929337 66.520386,45.721935 67.782974,45.729687 
	C81.903679,45.816414 96.103462,45.477482 110.113785,46.904320 
	C120.196991,47.931217 124.130272,52.513771 129.750854,63.655079 
	C131.883926,52.687420 134.194489,42.048283 135.931976,31.316364 
	C136.724442,26.421667 138.611877,24.287800 143.728378,24.819876 
	C147.683670,25.231197 151.717758,24.987970 155.712799,24.882757 
	C159.273453,24.788988 160.580566,26.480528 160.017944,29.836269 
	C159.197998,34.726738 158.332794,39.609615 157.399826,44.998466 
	C163.302689,45.334007 168.731079,45.647190 174.160034,45.950199 
	C185.040070,46.557461 189.731918,49.425041 195.115265,59.164928 
	C195.829712,55.785217 196.552902,52.920063 197.018143,50.013618 
	C197.527100,46.834278 199.264740,45.357147 202.440414,45.412178 
	C215.254807,45.634235 228.115067,45.239567 240.872574,46.205688 
	C257.262146,47.446857 266.211426,61.479492 262.620728,78.869370 
	C258.825562,97.249397 244.551315,108.994339 224.972351,109.824753 
	C223.142746,109.902359 221.308319,109.866089 218.990753,109.882622 
M195.926819,74.467422 
	C192.517227,91.846230 189.107620,109.225029 185.665619,126.768974 
	C191.572418,126.768974 196.986282,126.768974 202.476837,126.768974 
	C203.840530,119.867645 205.150284,113.239273 206.572159,106.043541 
	C213.516907,106.043541 220.317322,106.246063 227.101700,106.002419 
	C242.395889,105.453171 255.056839,95.066582 258.742523,80.318802 
	C263.212433,62.433167 255.334549,50.345482 237.554337,49.214634 
	C225.457138,48.445240 213.271423,49.067574 200.820908,49.067574 
	C199.195145,57.366512 197.603470,65.491295 195.926819,74.467422 
M96.942368,105.902786 
	C111.892624,103.383163 121.410622,94.799644 125.344055,80.181084 
	C130.310394,61.723747 120.768272,49.182671 101.714447,49.032314 
	C93.049866,48.963936 84.384308,49.019573 75.719193,49.019054 
	C72.946732,49.018887 70.174271,49.019028 67.500984,49.019028 
	C62.396793,75.345703 57.421257,101.008804 52.402237,126.896164 
	C58.287582,126.896164 63.580666,126.896164 69.118484,126.896164 
	C70.520569,120.000404 71.899155,113.220154 73.372368,105.974556 
	C81.073433,105.974556 88.555412,105.974556 96.942368,105.902786 
M126.857315,97.326851 
	C126.284233,100.170013 125.711143,103.013176 125.125732,105.917496 
	C130.962173,105.917496 136.387497,105.917496 141.765732,105.917496 
	C144.673248,91.026001 147.527649,76.406624 150.457840,61.398960 
	C155.713577,61.398960 160.857941,61.101791 165.954346,61.469574 
	C173.343918,62.002850 175.007812,64.651024 173.523575,72.078178 
	C171.286179,83.274117 169.138290,94.487923 166.899399,105.965630 
	C172.620544,105.965630 178.054047,105.965630 183.872772,105.965630 
	C186.269302,93.456894 189.055313,81.018318 190.945587,68.445076 
	C192.760559,56.372753 188.918930,51.725628 176.720779,49.789352 
	C173.132126,49.219707 169.449905,49.151127 165.805038,49.047016 
	C161.573029,48.926144 157.334885,49.018845 152.850235,49.018845 
	C154.264786,41.693275 155.551376,35.030392 156.873062,28.185722 
	C151.295258,28.185722 145.850769,28.185722 140.198471,28.185722 
	C135.777847,51.007679 131.373932,73.743332 126.857315,97.326851 
z"/>
<path fill="#7579AA" opacity="1.000000" stroke="none" 
	d="
M34.859291,123.710541 
	C34.035686,123.562675 33.071064,123.125664 32.053371,122.344177 
	C32.906292,122.473595 33.812283,122.947495 34.859291,123.710541 
z"/>
<path fill="#7579AA" opacity="1.000000" stroke="none" 
	d="
M41.859306,128.710297 
	C41.035835,128.562225 40.071350,128.125061 39.054039,127.343338 
	C39.906902,127.472931 40.812599,127.947075 41.859306,128.710297 
z"/>
<path fill="#7579AA" opacity="1.000000" stroke="none" 
	d="
M44.859505,130.709778 
	C44.036007,130.561981 43.071301,130.125168 42.053520,129.343872 
	C42.906399,129.473175 43.812347,129.946976 44.859505,130.709778 
z"/>
<path fill="#020202" opacity="1.000000" stroke="none" 
	d="
M195.969315,74.041748 
	C197.603470,65.491295 199.195145,57.366512 200.820908,49.067574 
	C213.271423,49.067574 225.457138,48.445240 237.554337,49.214634 
	C255.334549,50.345482 263.212433,62.433167 258.742523,80.318802 
	C255.056839,95.066582 242.395889,105.453171 227.101700,106.002419 
	C220.317322,106.246063 213.516907,106.043541 206.572159,106.043541 
	C205.150284,113.239273 203.840530,119.867645 202.476837,126.768974 
	C196.986282,126.768974 191.572418,126.768974 185.665619,126.768974 
	C189.107620,109.225029 192.517227,91.846230 195.969315,74.041748 
M218.474731,94.053291 
	C235.941696,95.062462 241.938919,85.488808 242.129395,71.117470 
	C242.196732,66.037292 239.696732,62.700928 234.742920,62.081898 
	C228.366348,61.285076 221.908310,61.140358 215.407700,60.709618 
	C213.199081,71.841637 211.136475,82.228714 209.085266,92.618042 
	C209.022156,92.937714 209.077286,93.280731 209.077286,94.053429 
	C211.905762,94.053429 214.707199,94.053429 218.474731,94.053291 
z"/>
<path fill="#020202" opacity="1.000000" stroke="none" 
	d="
M96.489876,105.938675 
	C88.555412,105.974556 81.073433,105.974556 73.372368,105.974556 
	C71.899155,113.220154 70.520569,120.000404 69.118484,126.896164 
	C63.580666,126.896164 58.287582,126.896164 52.402237,126.896164 
	C57.421257,101.008804 62.396793,75.345703 67.500984,49.019028 
	C70.174271,49.019028 72.946732,49.018887 75.719193,49.019054 
	C84.384308,49.019573 93.049866,48.963936 101.714447,49.032314 
	C120.768272,49.182671 130.310394,61.723747 125.344055,80.181084 
	C121.410622,94.799644 111.892624,103.383163 96.489876,105.938675 
M79.003265,76.412727 
	C77.915970,82.173111 76.828682,87.933495 75.677757,94.030991 
	C79.958214,94.030991 83.603569,93.935822 87.242569,94.047562 
	C102.455147,94.514702 108.495422,85.530716 108.950203,71.571686 
	C109.126976,66.145866 106.723457,62.849575 101.427597,62.090393 
	C95.094223,61.182480 88.636635,61.141056 82.165077,60.719921 
	C81.032928,66.157829 80.054504,70.857361 79.003265,76.412727 
z"/>
<path fill="#020202" opacity="1.000000" stroke="none" 
	d="
M126.913666,96.902916 
	C131.373932,73.743332 135.777847,51.007679 140.198471,28.185722 
	C145.850769,28.185722 151.295258,28.185722 156.873062,28.185722 
	C155.551376,35.030392 154.264786,41.693275 152.850235,49.018845 
	C157.334885,49.018845 161.573029,48.926144 165.805038,49.047016 
	C169.449905,49.151127 173.132126,49.219707 176.720779,49.789352 
	C188.918930,51.725628 192.760559,56.372753 190.945587,68.445076 
	C189.055313,81.018318 186.269302,93.456894 183.872772,105.965630 
	C178.054047,105.965630 172.620544,105.965630 166.899399,105.965630 
	C169.138290,94.487923 171.286179,83.274117 173.523575,72.078178 
	C175.007812,64.651024 173.343918,62.002850 165.954346,61.469574 
	C160.857941,61.101791 155.713577,61.398960 150.457840,61.398960 
	C147.527649,76.406624 144.673248,91.026001 141.765732,105.917496 
	C136.387497,105.917496 130.962173,105.917496 125.125732,105.917496 
	C125.711143,103.013176 126.284233,100.170013 126.913666,96.902916 
z"/>
<path fill="#F0F0F2" opacity="1.000000" stroke="none" 
	d="
M217.991669,94.053360 
	C214.707199,94.053429 211.905762,94.053429 209.077286,94.053429 
	C209.077286,93.280731 209.022156,92.937714 209.085266,92.618042 
	C211.136475,82.228714 213.199081,71.841637 215.407700,60.709618 
	C221.908310,61.140358 228.366348,61.285076 234.742920,62.081898 
	C239.696732,62.700928 242.196732,66.037292 242.129395,71.117470 
	C241.938919,85.488808 235.941696,95.062462 217.991669,94.053360 
M238.478073,74.899338 
	C239.520752,67.612427 237.806412,65.304756 230.693848,64.940178 
	C226.599365,64.730309 222.485306,64.902100 218.157745,64.902100 
	C216.432755,73.651184 214.779907,82.034424 213.118469,90.461258 
	C231.941345,91.890739 236.515259,87.273056 238.478073,74.899338 
z"/>
<path fill="#F0F0F3" opacity="1.000000" stroke="none" 
	d="
M79.039673,75.984818 
	C80.054504,70.857361 81.032928,66.157829 82.165077,60.719921 
	C88.636635,61.141056 95.094223,61.182480 101.427597,62.090393 
	C106.723457,62.849575 109.126976,66.145866 108.950203,71.571686 
	C108.495422,85.530716 102.455147,94.514702 87.242569,94.047562 
	C83.603569,93.935822 79.958214,94.030991 75.677757,94.030991 
	C76.828682,87.933495 77.915970,82.173111 79.039673,75.984818 
M80.977791,84.488083 
	C80.629303,86.410789 80.280815,88.333496 79.933067,90.252113 
	C96.065773,93.349174 105.629715,86.180397 105.373421,71.731911 
	C105.300102,67.598442 103.323502,65.489510 99.541214,65.107269 
	C95.920219,64.741325 92.240593,64.992699 88.604195,64.730522 
	C85.682922,64.519905 84.449028,65.727013 83.988739,68.544342 
	C83.162491,73.601646 82.047699,78.611801 80.977791,84.488083 
z"/>
<path fill="#787CB4" opacity="1.000000" stroke="none" 
	d="
M238.390656,75.297745 
	C236.515259,87.273056 231.941345,91.890739 213.118469,90.461258 
	C214.779907,82.034424 216.432755,73.651184 218.157745,64.902100 
	C222.485306,64.902100 226.599365,64.730309 230.693848,64.940178 
	C237.806412,65.304756 239.520752,67.612427 238.390656,75.297745 
z"/>
<path fill="#787CB4" opacity="1.000000" stroke="none" 
	d="
M81.015640,84.064873 
	C82.047699,78.611801 83.162491,73.601646 83.988739,68.544342 
	C84.449028,65.727013 85.682922,64.519905 88.604195,64.730522 
	C92.240593,64.992699 95.920219,64.741325 99.541214,65.107269 
	C103.323502,65.489510 105.300102,67.598442 105.373421,71.731911 
	C105.629715,86.180397 96.065773,93.349174 79.933067,90.252113 
	C80.280815,88.333496 80.629303,86.410789 81.015640,84.064873 
z"/>
</svg>