<svg version="1.1" id="Layer_1" xmlns="http://www.w3.org/2000/svg" xmlns:xlink="http://www.w3.org/1999/xlink" x="0px" y="0px"
	 width="100%" viewBox="0 0 221 228" enable-background="new 0 0 221 228" xml:space="preserve">
<path fill="#FEFEFE" opacity="1.000000" stroke="none" 
	d="
M126.000000,229.000000 
	C84.397369,229.000000 42.794743,229.000000 1.000000,229.000000 
	C1.000000,175.979263 1.000000,122.958290 1.377360,69.612350 
	C5.816518,86.512863 9.357819,103.883224 14.100327,120.919197 
	C18.089588,135.249374 23.394386,149.271942 33.107880,160.967331 
	C42.304104,172.039886 52.022617,173.481735 64.205971,165.995178 
	C76.025131,175.163345 89.081146,175.488953 102.601151,171.146088 
	C103.386497,180.410507 103.757179,189.567184 105.041725,198.593811 
	C106.331581,207.657852 108.805748,216.568115 116.103333,222.905960 
	C118.989471,225.412552 122.677238,226.996140 126.000000,229.000000 
z"/>
<path fill="#070707" opacity="1.000000" stroke="none" 
	d="
M126.399994,229.000000 
	C122.677238,226.996140 118.989471,225.412552 116.103333,222.905960 
	C108.805748,216.568115 106.331581,207.657852 105.041725,198.593811 
	C103.757179,189.567184 103.386497,180.410507 102.601151,171.146088 
	C89.081146,175.488953 76.025131,175.163345 64.205971,165.995178 
	C52.022617,173.481735 42.304104,172.039886 33.107880,160.967331 
	C23.394386,149.271942 18.089588,135.249374 14.100327,120.919197 
	C9.357819,103.883224 5.816518,86.512863 1.377360,69.143692 
	C1.000000,67.285645 1.000000,65.571281 1.360036,63.222996 
	C1.757641,60.043800 1.795210,57.498535 1.886371,54.606434 
	C1.626642,53.506397 1.313321,52.753201 1.000000,52.000000 
	C1.000000,50.933331 1.000000,49.866661 1.369001,48.280769 
	C2.149820,45.817108 2.598635,43.879665 2.967759,41.927158 
	C6.855308,21.363646 22.281702,7.322759 42.868378,4.774299 
	C57.228115,2.996683 70.907425,5.665562 84.602943,9.269363 
	C86.498695,9.768206 89.008858,10.017805 90.617920,9.187604 
	C102.552078,3.030161 115.288269,2.811021 128.061966,4.290039 
	C135.537155,5.155563 142.148239,2.859297 149.000000,1.000000 
	C155.354401,1.000000 161.708786,1.000000 168.717987,1.364832 
	C179.836182,2.408419 189.483459,5.721839 198.402161,11.089527 
	C215.773682,21.544504 223.663437,36.153404 220.471375,57.029903 
	C216.864502,80.619423 209.039551,102.533508 198.067932,123.512192 
	C196.659927,126.204430 195.226440,128.883362 193.447083,132.243988 
	C197.576920,131.670258 200.943481,131.560043 204.101974,130.692429 
	C211.643005,128.620956 217.590271,130.478455 222.000000,137.000000 
	C222.000000,139.370560 222.000000,141.741104 221.641510,144.557556 
	C218.953232,147.965134 217.040695,151.421524 214.219742,153.800903 
	C203.344696,162.973694 190.201416,165.014786 176.601852,164.798096 
	C175.399368,174.770966 174.641495,184.705048 172.928268,194.471527 
	C169.797485,212.318924 160.022446,224.289139 141.457138,227.763672 
	C139.947189,228.046280 138.484604,228.581940 137.000000,229.000000 
	C136.555557,229.000000 136.111099,229.000000 135.138550,228.697754 
	C133.073624,228.597000 131.536804,228.798508 130.000000,229.000000 
	C128.933334,229.000000 127.866661,229.000000 126.399994,229.000000 
M207.571701,136.011719 
	C199.571045,136.944550 191.528137,140.062088 183.286087,135.910782 
	C183.880386,134.932892 184.218887,134.372284 184.560822,133.813751 
	C200.051041,108.512825 211.373047,81.710953 214.492325,51.868149 
	C215.783157,39.518623 212.507675,29.179590 202.357208,21.511286 
	C199.841782,19.610979 197.360596,17.623945 194.662903,16.012978 
	C176.142197,4.953039 156.461777,5.293561 136.294327,10.119290 
	C133.824448,10.710291 131.071701,10.859983 128.571442,10.458405 
	C115.965416,8.433698 103.789459,8.902794 92.169258,15.009776 
	C90.321014,15.981118 87.488220,16.163088 85.467354,15.544509 
	C73.142860,11.772040 60.678097,9.456115 47.715267,10.014376 
	C29.891802,10.781967 15.407448,20.379814 10.830582,36.799004 
	C8.296872,45.888512 7.175266,55.884792 7.925735,65.271774 
	C9.582496,85.994835 15.262218,106.017090 22.051168,125.656288 
	C25.903967,136.801727 30.255230,147.758408 37.913544,156.965912 
	C45.805099,166.453812 55.071056,166.536896 63.236492,157.342697 
	C68.429909,151.494965 73.527176,145.560898 78.784637,139.771881 
	C79.637985,138.832260 81.255257,137.722168 82.254974,137.934708 
	C85.892532,138.708084 89.417824,140.009506 92.911156,141.088898 
	C89.776230,148.229401 83.199959,148.921204 76.864265,150.416672 
	C72.970314,151.335800 68.028221,152.176407 67.872932,157.502380 
	C67.713692,162.963257 72.705612,164.011292 76.593468,165.751389 
	C76.889259,165.883774 77.242241,165.885193 77.566185,165.958359 
	C88.368866,168.398819 98.584015,167.605392 108.391624,160.338379 
	C109.039879,172.065186 108.613617,183.666550 109.159996,195.221924 
	C109.704262,206.732788 113.527168,217.122711 125.307289,221.657990 
	C141.551773,227.911987 162.073441,216.523346 165.821442,199.631683 
	C166.791061,195.261810 167.353348,190.794128 167.953400,186.351196 
	C169.238312,176.837601 170.425751,167.310852 171.628845,157.977676 
	C176.473846,157.977676 180.950912,158.198135 185.399109,157.933472 
	C195.846588,157.311844 205.289612,153.901718 212.647827,146.261276 
	C214.292038,144.554016 215.450928,141.091049 214.871460,138.973175 
	C214.469849,137.505325 210.704117,136.957916 207.571701,136.011719 
z"/>
<path fill="#FEFEFE" opacity="1.000000" stroke="none" 
	d="
M137.468658,229.000000 
	C138.484604,228.581940 139.947189,228.046280 141.457138,227.763672 
	C160.022446,224.289139 169.797485,212.318924 172.928268,194.471527 
	C174.641495,184.705048 175.399368,174.770966 176.601852,164.798096 
	C190.201416,165.014786 203.344696,162.973694 214.219742,153.800903 
	C217.040695,151.421524 218.953232,147.965134 221.641510,145.001740 
	C222.000000,172.927322 222.000000,200.854660 222.000000,229.000000 
	C193.979477,229.000000 165.958405,229.000000 137.468658,229.000000 
z"/>
<path fill="#FCFCFC" opacity="1.000000" stroke="none" 
	d="
M222.000000,136.531342 
	C217.590271,130.478455 211.643005,128.620956 204.101974,130.692429 
	C200.943481,131.560043 197.576920,131.670258 193.447083,132.243988 
	C195.226440,128.883362 196.659927,126.204430 198.067932,123.512192 
	C209.039551,102.533508 216.864502,80.619423 220.471375,57.029903 
	C223.663437,36.153404 215.773682,21.544504 198.402161,11.089527 
	C189.483459,5.721839 179.836182,2.408419 169.186386,1.364832 
	C186.625687,1.000000 204.251358,1.000000 222.000000,1.000000 
	C222.000000,46.020824 222.000000,91.041756 222.000000,136.531342 
z"/>
<path fill="#F9F9F9" opacity="1.000000" stroke="none" 
	d="
M148.531342,1.000000 
	C142.148239,2.859297 135.537155,5.155563 128.061966,4.290039 
	C115.288269,2.811021 102.552078,3.030161 90.617920,9.187604 
	C89.008858,10.017805 86.498695,9.768206 84.602943,9.269363 
	C70.907425,5.665562 57.228115,2.996683 42.868378,4.774299 
	C22.281702,7.322759 6.855308,21.363646 2.967759,41.927158 
	C2.598635,43.879665 2.149820,45.817108 1.369001,47.880772 
	C1.000000,32.368557 1.000000,16.737114 1.000000,1.000000 
	C50.020847,1.000000 99.041763,1.000000 148.531342,1.000000 
z"/>
<path fill="#767676" opacity="1.000000" stroke="none" 
	d="
M1.832779,54.953270 
	C1.795210,57.498535 1.757641,60.043800 1.360036,62.794533 
	C1.000000,60.629444 1.000000,58.258884 1.208117,55.431107 
	C1.416235,54.973881 1.832779,54.953270 1.832779,54.953270 
z"/>
<path fill="#444444" opacity="1.000000" stroke="none" 
	d="
M130.416656,229.000000 
	C131.536804,228.798508 133.073624,228.597000 134.805206,228.697754 
	C133.611115,229.000000 132.222214,229.000000 130.416656,229.000000 
z"/>
<path fill="#979797" opacity="1.000000" stroke="none" 
	d="
M1.886371,54.606434 
	C1.832779,54.953270 1.416235,54.973881 1.208117,54.986938 
	C1.000000,54.250000 1.000000,53.500000 1.000000,52.375000 
	C1.313321,52.753201 1.626642,53.506397 1.886371,54.606434 
z"/>
<path fill="#F7F8F9" opacity="1.000000" stroke="none" 
	d="
M208.006592,136.005493 
	C210.704117,136.957916 214.469849,137.505325 214.871460,138.973175 
	C215.450928,141.091049 214.292038,144.554016 212.647827,146.261276 
	C205.289612,153.901718 195.846588,157.311844 185.399109,157.933472 
	C180.950912,158.198135 176.473846,157.977676 171.628845,157.977676 
	C170.425751,167.310852 169.238312,176.837601 167.953400,186.351196 
	C167.353348,190.794128 166.791061,195.261810 165.821442,199.631683 
	C162.073441,216.523346 141.551773,227.911987 125.307289,221.657990 
	C113.527168,217.122711 109.704262,206.732788 109.159996,195.221924 
	C108.613617,183.666550 109.039879,172.065186 108.391624,160.338379 
	C98.584015,167.605392 88.368866,168.398819 77.566185,165.958359 
	C77.242241,165.885193 76.889259,165.883774 76.593468,165.751389 
	C72.705612,164.011292 67.713692,162.963257 67.872932,157.502380 
	C68.028221,152.176407 72.970314,151.335800 76.864265,150.416672 
	C83.199959,148.921204 89.776230,148.229401 92.911156,141.088898 
	C89.417824,140.009506 85.892532,138.708084 82.254974,137.934708 
	C81.255257,137.722168 79.637985,138.832260 78.784637,139.771881 
	C73.527176,145.560898 68.429909,151.494965 63.236492,157.342697 
	C55.071056,166.536896 45.805099,166.453812 37.913544,156.965912 
	C30.255230,147.758408 25.903967,136.801727 22.051168,125.656288 
	C15.262218,106.017090 9.582496,85.994835 7.925735,65.271774 
	C7.175266,55.884792 8.296872,45.888512 10.830582,36.799004 
	C15.407448,20.379814 29.891802,10.781967 47.715267,10.014376 
	C60.678097,9.456115 73.142860,11.772040 85.467354,15.544509 
	C87.488220,16.163088 90.321014,15.981118 92.169258,15.009776 
	C103.789459,8.902794 115.965416,8.433698 128.571442,10.458405 
	C131.071701,10.859983 133.824448,10.710291 136.294327,10.119290 
	C156.461777,5.293561 176.142197,4.953039 194.662903,16.012978 
	C197.360596,17.623945 199.841782,19.610979 202.357208,21.511286 
	C212.507675,29.179590 215.783157,39.518623 214.492325,51.868149 
	C211.373047,81.710953 200.051041,108.512825 184.560822,133.813751 
	C184.218887,134.372284 183.880386,134.932892 183.286087,135.910782 
	C191.528137,140.062088 199.571045,136.944550 208.006592,136.005493 
M102.449554,75.729561 
	C102.449554,75.729561 102.455101,75.565506 102.351730,74.886803 
	C100.238174,72.685364 98.124619,70.483932 95.289268,68.033165 
	C94.153442,68.265907 93.017609,68.498650 91.247719,68.810196 
	C90.833694,68.900970 90.419678,68.991745 89.122726,68.960175 
	C84.463402,70.211334 79.667160,71.120689 75.220146,72.901924 
	C73.695419,73.512650 72.255180,76.251617 72.128395,78.110489 
	C71.507294,87.217278 71.455162,96.360924 70.989807,105.480728 
	C70.269730,119.592583 78.110008,131.081909 90.319725,133.672516 
	C92.990524,134.239212 94.536140,134.007294 95.366325,130.829956 
	C96.406570,126.848679 98.016891,122.959099 99.825081,119.246132 
	C106.007988,106.550003 106.385094,93.402695 103.317879,79.174889 
	C102.977264,78.045822 102.636650,76.916756 102.449554,75.729561 
M152.147079,210.760498 
	C157.246277,207.012360 159.114624,201.449280 159.931046,195.637878 
	C162.036407,180.651703 164.130005,165.648102 165.540024,150.587036 
	C166.187332,143.672867 167.253754,137.721695 173.997726,135.417938 
	C168.612320,125.500778 163.133606,116.084801 158.334274,106.334427 
	C155.198242,99.963242 152.435577,93.273415 150.576920,86.435143 
	C146.065048,69.835480 153.753433,60.123680 170.842804,59.993942 
	C172.371353,59.982338 173.898422,59.777096 176.152252,59.606979 
	C175.004089,56.967728 174.346451,55.121449 173.433731,53.411312 
	C166.568390,40.547871 157.541199,30.143824 144.227066,23.068275 
	C129.858902,15.432584 115.249321,14.385148 100.301498,18.759329 
	C83.419518,23.699505 73.129707,45.173225 72.499062,66.031593 
	C77.602463,64.483894 82.746658,62.499916 88.073441,61.400833 
	C97.740067,59.406319 106.310791,64.067482 108.609756,72.869942 
	C112.811935,88.959610 113.812012,105.006386 106.241669,120.632355 
	C104.103241,125.046280 102.620338,129.777786 100.817467,134.413315 
	C112.147644,137.532394 114.599815,141.317947 114.723824,152.845200 
	C114.886719,167.987701 115.175415,183.149017 116.129990,198.256760 
	C116.969856,211.548889 126.053482,218.331711 139.015015,215.807312 
	C143.322037,214.968475 147.360641,212.751465 152.147079,210.760498 
M14.803553,69.592056 
	C18.806934,93.925735 24.548719,117.792252 35.105598,140.202805 
	C37.543934,145.379013 41.058887,150.212326 44.830254,154.549728 
	C48.543777,158.820602 53.185696,158.626938 57.008934,154.484314 
	C63.307411,147.659653 69.279427,140.533676 75.515640,133.389709 
	C67.617661,125.831810 63.949135,116.714981 64.326088,105.967049 
	C64.663574,96.344826 64.749207,86.709572 65.299393,77.100311 
	C65.754089,69.158829 66.178497,61.147667 67.595367,53.345165 
	C69.719376,41.648617 74.654175,31.037998 83.754166,21.189547 
	C74.991867,19.626562 67.421715,17.860508 59.750843,17.062017 
	C55.061279,16.573860 50.219414,17.613655 45.441715,17.895308 
	C30.076481,18.801105 20.554655,25.875635 16.348553,40.031170 
	C13.562427,49.407795 13.218491,59.029156 14.803553,69.592056 
M182.894852,17.366934 
	C170.456177,11.838311 157.569504,15.595528 144.833771,15.157164 
	C161.830780,24.198236 173.677612,37.559521 181.269272,54.919704 
	C183.611908,60.276752 184.063171,65.679390 183.447403,71.445869 
	C182.656189,78.855499 182.226425,86.321159 182.034515,93.772812 
	C181.809265,102.518959 181.982391,111.276237 182.070709,120.027802 
	C182.077164,120.667053 182.796951,121.299103 183.334351,122.178841 
	C184.024078,121.455376 184.591034,121.062416 184.886917,120.521255 
	C196.440933,99.388840 205.110703,77.230095 207.781265,53.126038 
	C208.503311,46.608990 209.637436,39.264160 204.949326,33.887356 
	C199.053970,27.125973 192.678665,20.492798 182.894852,17.366934 
M172.335648,119.134750 
	C172.715302,120.037254 173.094955,120.939766 173.741776,122.477348 
	C176.921387,116.585632 176.972168,110.796379 176.684494,104.788803 
	C176.233353,95.367188 176.151520,85.923996 176.111618,76.489105 
	C176.100616,73.886787 176.793488,71.281494 177.147354,68.790413 
	C170.505020,65.804802 162.909683,65.946487 159.053589,69.560585 
	C154.541290,73.789696 154.991119,79.536957 156.951462,84.437035 
	C161.555283,95.944763 166.949524,107.136269 172.335648,119.134750 
M104.593254,153.980545 
	C108.585068,149.364182 109.033409,145.395355 105.551949,143.020172 
	C100.744667,139.740417 99.034164,144.397018 97.115738,147.008438 
	C93.436745,152.016342 88.537674,154.549652 82.699585,155.888153 
	C81.033089,156.270248 79.501419,157.240448 77.907921,157.940979 
	C87.674156,161.963547 96.403107,161.427429 104.593254,153.980545 
M190.070755,150.889923 
	C194.430405,149.359985 198.790039,147.830063 203.149689,146.300125 
	C195.080185,142.973099 186.691147,146.124084 179.322342,141.453766 
	C176.785797,139.846085 173.218079,142.901566 172.253525,146.524643 
	C171.253021,150.282745 173.215805,151.392731 176.355164,151.379608 
	C180.646133,151.361694 184.936249,151.138397 190.070755,150.889923 
z"/>
<path fill="#336791" opacity="1.000000" stroke="none" 
	d="
M151.834534,210.962524 
	C147.360641,212.751465 143.322037,214.968475 139.015015,215.807312 
	C126.053482,218.331711 116.969856,211.548889 116.129990,198.256760 
	C115.175415,183.149017 114.886719,167.987701 114.723824,152.845200 
	C114.599815,141.317947 112.147644,137.532394 100.817467,134.413315 
	C102.620338,129.777786 104.103241,125.046280 106.241669,120.632355 
	C113.812012,105.006386 112.811935,88.959610 108.609756,72.869942 
	C106.310791,64.067482 97.740067,59.406319 88.073441,61.400833 
	C82.746658,62.499916 77.602463,64.483894 72.499062,66.031593 
	C73.129707,45.173225 83.419518,23.699505 100.301498,18.759329 
	C115.249321,14.385148 129.858902,15.432584 144.227066,23.068275 
	C157.541199,30.143824 166.568390,40.547871 173.433731,53.411312 
	C174.346451,55.121449 175.004089,56.967728 176.152252,59.606979 
	C173.898422,59.777096 172.371353,59.982338 170.842804,59.993942 
	C153.753433,60.123680 146.065048,69.835480 150.576920,86.435143 
	C152.435577,93.273415 155.198242,99.963242 158.334274,106.334427 
	C163.133606,116.084801 168.612320,125.500778 173.997726,135.417938 
	C167.253754,137.721695 166.187332,143.672867 165.540024,150.587036 
	C164.130005,165.648102 162.036407,180.651703 159.931046,195.637878 
	C159.114624,201.449280 157.246277,207.012360 151.834534,210.962524 
z"/>
<path fill="#346791" opacity="1.000000" stroke="none" 
	d="
M14.738653,69.148605 
	C13.218491,59.029156 13.562427,49.407795 16.348553,40.031170 
	C20.554655,25.875635 30.076481,18.801105 45.441715,17.895308 
	C50.219414,17.613655 55.061279,16.573860 59.750843,17.062017 
	C67.421715,17.860508 74.991867,19.626562 83.754166,21.189547 
	C74.654175,31.037998 69.719376,41.648617 67.595367,53.345165 
	C66.178497,61.147667 65.754089,69.158829 65.299393,77.100311 
	C64.749207,86.709572 64.663574,96.344826 64.326088,105.967049 
	C63.949135,116.714981 67.617661,125.831810 75.515640,133.389709 
	C69.279427,140.533676 63.307411,147.659653 57.008934,154.484314 
	C53.185696,158.626938 48.543777,158.820602 44.830254,154.549728 
	C41.058887,150.212326 37.543934,145.379013 35.105598,140.202805 
	C24.548719,117.792252 18.806934,93.925735 14.738653,69.148605 
z"/>
<path fill="#346892" opacity="1.000000" stroke="none" 
	d="
M183.240982,17.547407 
	C192.678665,20.492798 199.053970,27.125973 204.949326,33.887356 
	C209.637436,39.264160 208.503311,46.608990 207.781265,53.126038 
	C205.110703,77.230095 196.440933,99.388840 184.886917,120.521255 
	C184.591034,121.062416 184.024078,121.455376 183.334351,122.178841 
	C182.796951,121.299103 182.077164,120.667053 182.070709,120.027802 
	C181.982391,111.276237 181.809265,102.518959 182.034515,93.772812 
	C182.226425,86.321159 182.656189,78.855499 183.447403,71.445869 
	C184.063171,65.679390 183.611908,60.276752 181.269272,54.919704 
	C173.677612,37.559521 161.830780,24.198236 144.833771,15.157164 
	C157.569504,15.595528 170.456177,11.838311 183.240982,17.547407 
z"/>
<path fill="#346892" opacity="1.000000" stroke="none" 
	d="
M103.355080,79.916039 
	C106.385094,93.402695 106.007988,106.550003 99.825081,119.246132 
	C98.016891,122.959099 96.406570,126.848679 95.366325,130.829956 
	C94.536140,134.007294 92.990524,134.239212 90.319725,133.672516 
	C78.110008,131.081909 70.269730,119.592583 70.989807,105.480728 
	C71.455162,96.360924 71.507294,87.217278 72.128395,78.110489 
	C72.255180,76.251617 73.695419,73.512650 75.220146,72.901924 
	C79.667160,71.120689 84.463402,70.211334 89.564041,69.359947 
	C90.013779,70.211090 90.022209,70.662453 89.820618,71.377960 
	C85.611633,77.096024 92.478134,77.072990 93.512123,80.454353 
	C95.950073,78.763939 97.951912,77.375923 100.377586,75.972527 
	C101.352646,75.826607 101.903877,75.696053 102.455101,75.565506 
	C102.455101,75.565506 102.449554,75.729561 102.276428,76.154663 
	C102.520561,77.691864 102.937820,78.803947 103.355080,79.916039 
z"/>
<path fill="#346892" opacity="1.000000" stroke="none" 
	d="
M172.179764,118.795250 
	C166.949524,107.136269 161.555283,95.944763 156.951462,84.437035 
	C154.991119,79.536957 154.541290,73.789696 159.053589,69.560585 
	C162.909683,65.946487 170.505020,65.804802 177.147354,68.790413 
	C176.793488,71.281494 176.100616,73.886787 176.111618,76.489105 
	C176.151520,85.923996 176.233353,95.367188 176.684494,104.788803 
	C176.972168,110.796379 176.921387,116.585632 173.741776,122.477348 
	C173.094955,120.939766 172.715302,120.037254 172.179764,118.795250 
M167.325867,69.449966 
	C166.676727,69.509262 165.844925,69.333374 165.411346,69.670174 
	C163.862701,70.873169 162.449234,72.250175 160.984634,73.561340 
	C163.302353,74.250481 165.640442,75.483360 167.929153,75.397682 
	C169.061035,75.355316 170.101959,72.882942 171.184036,71.510033 
	C170.136292,70.931000 169.088547,70.351967 167.325867,69.449966 
z"/>
<path fill="#356992" opacity="1.000000" stroke="none" 
	d="
M104.318848,154.231842 
	C96.403107,161.427429 87.674156,161.963547 77.907921,157.940979 
	C79.501419,157.240448 81.033089,156.270248 82.699585,155.888153 
	C88.537674,154.549652 93.436745,152.016342 97.115738,147.008438 
	C99.034164,144.397018 100.744667,139.740417 105.551949,143.020172 
	C109.033409,145.395355 108.585068,149.364182 104.318848,154.231842 
z"/>
<path fill="#386B94" opacity="1.000000" stroke="none" 
	d="
M189.648743,150.946533 
	C184.936249,151.138397 180.646133,151.361694 176.355164,151.379608 
	C173.215805,151.392731 171.253021,150.282745 172.253525,146.524643 
	C173.218079,142.901566 176.785797,139.846085 179.322342,141.453766 
	C186.691147,146.124084 195.080185,142.973099 203.149689,146.300125 
	C198.790039,147.830063 194.430405,149.359985 189.648743,150.946533 
z"/>
<path fill="#2A6490" opacity="1.000000" stroke="none" 
	d="
M90.030640,71.113823 
	C90.022209,70.662453 90.013779,70.211090 90.005501,69.421120 
	C90.419678,68.991745 90.833694,68.900970 91.755493,69.066193 
	C93.512535,68.975624 94.761795,68.629059 96.011063,68.282486 
	C98.124619,70.483932 100.238174,72.685364 102.403412,75.226151 
	C101.903877,75.696053 101.352646,75.826607 100.379303,75.591904 
	C98.331970,69.792145 93.767998,71.450516 90.030640,71.113823 
z"/>
<path fill="#346892" opacity="1.000000" stroke="none" 
	d="
M95.650162,68.157822 
	C94.761795,68.629059 93.512535,68.975624 92.072525,69.026794 
	C93.017609,68.498650 94.153442,68.265907 95.650162,68.157822 
z"/>
<path fill="#2A6490" opacity="1.000000" stroke="none" 
	d="
M103.336479,79.545464 
	C102.937820,78.803947 102.520561,77.691864 102.199669,76.183731 
	C102.636650,76.916756 102.977264,78.045822 103.336479,79.545464 
z"/>
<path fill="#F2F4F7" opacity="1.000000" stroke="none" 
	d="
M89.820618,71.377960 
	C93.767998,71.450516 98.331970,69.792145 99.955460,75.607277 
	C97.951912,77.375923 95.950073,78.763939 93.512123,80.454353 
	C92.478134,77.072990 85.611633,77.096024 89.820618,71.377960 
z"/>
<path fill="#F3F5F8" opacity="1.000000" stroke="none" 
	d="
M167.683334,69.611450 
	C169.088547,70.351967 170.136292,70.931000 171.184036,71.510033 
	C170.101959,72.882942 169.061035,75.355316 167.929153,75.397682 
	C165.640442,75.483360 163.302353,74.250481 160.984634,73.561340 
	C162.449234,72.250175 163.862701,70.873169 165.411346,69.670174 
	C165.844925,69.333374 166.676727,69.509262 167.683334,69.611450 
z"/>
</svg>