<?xml version="1.0" encoding="UTF-8"?>
<svg version="1.1" xmlns="http://www.w3.org/2000/svg" width="311" height="162">
<path d="M0 0 C102.63 0 205.26 0 311 0 C311 53.46 311 106.92 311 162 C208.37 162 105.74 162 0 162 C0 108.54 0 55.08 0 0 Z " fill="#FEFEFE" transform="translate(0,0)"/>
<path d="M0 0 C0.91507324 0.00644531 1.83014648 0.01289062 2.77294922 0.01953125 C18.27718971 0.43203686 30.47378784 6.59156771 41.1875 17.75 C51.63994648 30.17703596 54.09209668 44.28014701 53.16064453 59.99511719 C52.00213133 70.15438678 46.69312585 79.07446873 39.875 86.5 C39.38902344 87.09941406 38.90304688 87.69882813 38.40234375 88.31640625 C31.15878591 96.5974046 18.8152955 102.75632432 7.875 103.5 C-7.39395715 104.44760507 -20.71202085 101.37586957 -32.375 91.125 C-33.97599093 89.60167843 -35.56100642 88.06128301 -37.125 86.5 C-38.00865234 85.63375 -38.00865234 85.63375 -38.91015625 84.75 C-49.06000366 73.95118537 -50.81289301 59.63470333 -50.5 45.49609375 C-49.80629562 32.3528732 -42.61202706 21.49796578 -33.25 12.6875 C-23.42947962 4.26354379 -12.96893641 -0.09636958 0 0 Z " fill="#FB6C36" transform="translate(154.125,7.5)"/>
<path d="M0 0 C0.66 0.66 1.32 1.32 2 2 C0.02 3.98 -1.96 5.96 -4 8 C-2.79618552 10.49361571 -1.54571278 12.68143083 0 15 C-2.31 15 -4.62 15 -7 15 C-7.144375 15.61875 -7.28875 16.2375 -7.4375 16.875 C-8 19 -8 19 -9 21 C-8.505 21.99 -8.505 21.99 -8 23 C-18.51612258 37.66332585 -30.76327991 48.12690763 -47 56 C-47 57.65 -47 59.3 -47 61 C-48.65 59.68 -50.3 58.36 -52 57 C-51.41866631 53.61189291 -50.35926312 51.99862031 -47.91015625 49.6171875 C-47.29076172 49.00746094 -46.67136719 48.39773437 -46.03320312 47.76953125 C-45.38287109 47.14433594 -44.73253906 46.51914063 -44.0625 45.875 C-43.41603516 45.24207031 -42.76957031 44.60914063 -42.10351562 43.95703125 C-40.90448658 42.78414925 -39.70240522 41.61437382 -38.49633789 40.44873047 C-35.90854334 37.98641368 -35.90854334 37.98641368 -34 35 C-36.64 35.33 -39.28 35.66 -42 36 C-42 35.34 -42 34.68 -42 34 C-40.56640625 32.58984375 -40.56640625 32.58984375 -38.5625 30.9375 C-35.3786787 28.24694679 -32.44813838 25.44506676 -29.5625 22.4375 C-19.4000495 12.18729086 -19.4000495 12.18729086 -13.234375 11.84765625 C-12.12835938 11.92306641 -12.12835938 11.92306641 -11 12 C-11.1546875 10.4221875 -11.1546875 10.4221875 -11.3125 8.8125 C-11 5 -11 5 -8.875 2.0625 C-5.54095495 -0.32931492 -4.01298073 -0.62424145 0 0 Z " fill="#F3CBB9" transform="translate(183,27)"/>
<path d="M0 0 C1.69140625 1.05859375 1.69140625 1.05859375 3 3 C3.29899615 5.740798 3.41906272 8.20316327 3.375 10.9375 C3.38660156 11.65357422 3.39820312 12.36964844 3.41015625 13.10742188 C3.39254857 16.27386901 3.18225027 18.6450033 1.7265625 21.48046875 C-0.35245409 23.3101915 -1.26474867 23.48896881 -4 23.375 C-4.680625 23.36210937 -5.36125 23.34921875 -6.0625 23.3359375 C-8 23 -8 23 -11 21 C-11.65179698 17.89697377 -11.46310455 14.72582521 -11.4375 11.5625 C-11.4674707 10.25442383 -11.4674707 10.25442383 -11.49804688 8.91992188 C-11.4931702 2.57536523 -11.4931702 2.57536523 -9.1953125 -0.10546875 C-5.84263949 -1.47159352 -3.45096685 -0.87842793 0 0 Z " fill="#FDF7F3" transform="translate(109,131)"/>
<path d="M0 0 C11 0 11 0 13.6875 1.5625 C15.53692533 4.99714704 15.6171165 7.16016401 15 11 C12.9375 13.4375 12.9375 13.4375 10 15 C6.1875 15.25 6.1875 15.25 3 15 C3 17.97 3 20.94 3 24 C2.01 24 1.02 24 0 24 C0 16.08 0 8.16 0 0 Z " fill="#F66A32" transform="translate(73,130)"/>
<path d="M0 0 C4 1 4 1 5.265625 2.77734375 C5.59046875 3.49019531 5.9153125 4.20304688 6.25 4.9375 C6.58515625 5.64777344 6.9203125 6.35804688 7.265625 7.08984375 C8 9 8 9 8 11 C8.66 11 9.32 11 10 11 C10.268125 10.113125 10.53625 9.22625 10.8125 8.3125 C11.93113051 5.19210962 13.03803137 2.66827733 15 0 C15.99 0 16.98 0 18 0 C18 7.92 18 15.84 18 24 C17.01 24 16.02 24 15 24 C14.67 19.05 14.34 14.1 14 9 C12.68 11.31 11.36 13.62 10 16 C9.34 16 8.68 16 8 16 C6.02 12.535 6.02 12.535 4 9 C3.67 13.95 3.34 18.9 3 24 C2.01 24 1.02 24 0 24 C0 16.08 0 8.16 0 0 Z " fill="#F17443" transform="translate(169,130)"/>
<path d="M0 0 C0.66 1.32 1.32 2.64 2 4 C-4.7242373 8.93013494 -11.59997094 13.1593005 -19 17 C-19 18.65 -19 20.3 -19 22 C-20.65 20.68 -22.3 19.36 -24 18 C-23.08972712 12.96039834 -19.97213246 10.30893578 -16.5 6.75 C-15.9121875 6.1003125 -15.324375 5.450625 -14.71875 4.78125 C-10.03816895 -0.02038056 -6.61881786 -0.92117568 0 0 Z " fill="#FCF7F3" transform="translate(155,66)"/>
<path d="M0 0 C0.99 0 1.98 0 3 0 C5.64 5.28 8.28 10.56 11 16 C11.33 10.72 11.66 5.44 12 0 C12.99 0.33 13.98 0.66 15 1 C15 8.59 15 16.18 15 24 C11 23 11 23 9.078125 20.05859375 C8.45494127 18.8586336 7.84597971 17.65120116 7.25 16.4375 C6.93417969 15.82197266 6.61835938 15.20644531 6.29296875 14.57226562 C5.51638111 13.05438979 4.75654439 11.52796466 4 10 C3.67 14.62 3.34 19.24 3 24 C2.01 24 1.02 24 0 24 C0 16.08 0 8.16 0 0 Z " fill="#F37C4B" transform="translate(223,130)"/>
<path d="M0 0 C1.69140625 1.05859375 1.69140625 1.05859375 3 3 C3.29899615 5.740798 3.41906272 8.20316327 3.375 10.9375 C3.38660156 11.65357422 3.39820312 12.36964844 3.41015625 13.10742188 C3.39254857 16.27386901 3.18225027 18.6450033 1.7265625 21.48046875 C-0.35245409 23.3101915 -1.26474867 23.48896881 -4 23.375 C-4.680625 23.36210937 -5.36125 23.34921875 -6.0625 23.3359375 C-8 23 -8 23 -11 21 C-11.65179698 17.89697377 -11.46310455 14.72582521 -11.4375 11.5625 C-11.4674707 10.25442383 -11.4674707 10.25442383 -11.49804688 8.91992188 C-11.4931702 2.57536523 -11.4931702 2.57536523 -9.1953125 -0.10546875 C-5.84263949 -1.47159352 -3.45096685 -0.87842793 0 0 Z M-9 4 C-9.32077211 7.2537327 -9.32077211 7.2537327 -9.25 10.9375 C-9.25515625 12.18402344 -9.2603125 13.43054688 -9.265625 14.71484375 C-9.25627355 18.14191449 -9.25627355 18.14191449 -7 21 C-4.5 21.41666667 -4.5 21.41666667 -2 21 C0.49210439 18.50789561 0.26015661 16.99639212 0.2734375 13.58984375 C0.26570313 12.90019531 0.25796875 12.21054688 0.25 11.5 C0.25773437 10.81035156 0.26546875 10.12070313 0.2734375 9.41015625 C0.3761305 5.24785614 0.3761305 5.24785614 -2 2 C-5.9674509 1.56530472 -5.9674509 1.56530472 -9 4 Z " fill="#F17544" transform="translate(109,131)"/>
<path d="M0 0 C-1.45745424 3.36335594 -3.31117854 5.54534005 -5.9140625 8.109375 C-6.67460937 8.86347656 -7.43515625 9.61757813 -8.21875 10.39453125 C-9.0128125 11.17183594 -9.806875 11.94914062 -10.625 12.75 C-11.42679688 13.54277344 -12.22859375 14.33554687 -13.0546875 15.15234375 C-15.03202846 17.10614493 -17.01388909 19.05512103 -19 21 C-20.32 20.34 -21.64 19.68 -23 19 C-23 16 -23 16 -21.12890625 13.73046875 C-7.2718894 0 -7.2718894 0 0 0 Z " fill="#FDF7F3" transform="translate(171,39)"/>
<path d="M0 0 C1.8871875 0.061875 1.8871875 0.061875 3.8125 0.125 C4.1425 1.445 4.4725 2.765 4.8125 4.125 C1.8425 4.125 -1.1275 4.125 -4.1875 4.125 C-4.1875 5.445 -4.1875 6.765 -4.1875 8.125 C-3.63320312 8.39054688 -3.07890625 8.65609375 -2.5078125 8.9296875 C-1.78335938 9.28289062 -1.05890625 9.63609375 -0.3125 10 C0.76644531 10.52207031 0.76644531 10.52207031 1.8671875 11.0546875 C3.8125 12.125 3.8125 12.125 5.8125 14.125 C6.3772482 20.33723022 6.3772482 20.33723022 4.5859375 22.8359375 C2.28945154 24.50518941 0.93276158 24.43457659 -1.875 24.3125 C-2.68324219 24.28542969 -3.49148437 24.25835937 -4.32421875 24.23046875 C-4.93910156 24.19566406 -5.55398437 24.16085938 -6.1875 24.125 C-6.8475 22.805 -7.5075 21.485 -8.1875 20.125 C-5.2175 20.455 -2.2475 20.785 0.8125 21.125 C1.1425 19.475 1.4725 17.825 1.8125 16.125 C1.090625 15.7125 0.36875 15.3 -0.375 14.875 C-1.303125 14.2975 -2.23125 13.72 -3.1875 13.125 C-4.610625 12.25875 -4.610625 12.25875 -6.0625 11.375 C-8.1875 9.125 -8.1875 9.125 -8.1875 5.5 C-6.77062375 0.71804267 -4.69481591 -0.15392839 0 0 Z " fill="#F27847" transform="translate(130.1875,129.875)"/>
<path d="M0 0 C0.99 0.33 1.98 0.66 3 1 C4.03479859 3.37166266 4.86339135 5.60392749 5.625 8.0625 C5.84373779 8.7419165 6.06247559 9.42133301 6.2878418 10.12133789 C7.74079217 14.77378173 8.7028352 19.14630824 9 24 C8.01 24 7.02 24 6 24 C6 22.35 6 20.7 6 19 C2.7 19 -0.6 19 -4 19 C-4.33 20.65 -4.66 22.3 -5 24 C-5.99 24 -6.98 24 -8 24 C-7.55123384 22.35153231 -7.09069512 20.70626545 -6.625 19.0625 C-6.36976563 18.14597656 -6.11453125 17.22945312 -5.8515625 16.28515625 C-5 14 -5 14 -3 13 C-3 14.32 -3 15.64 -3 17 C-0.36 17 2.28 17 5 17 C4.34 16.01 3.68 15.02 3 14 C2.5859375 11.73828125 2.5859375 11.73828125 2.375 9.3125 C2.30023438 8.50425781 2.22546875 7.69601563 2.1484375 6.86328125 C2.09945312 6.24839844 2.05046875 5.63351563 2 5 C0.68 5 -0.64 5 -2 5 C-1.34 3.35 -0.68 1.7 0 0 Z " fill="#F17C4D" transform="translate(204,130)"/>
<path d="M0 0 C0.66 0.66 1.32 1.32 2 2 C-0.97 4.97 -0.97 4.97 -4 8 C-2.79618552 10.49361571 -1.54571278 12.68143083 0 15 C-3.25 15.3125 -3.25 15.3125 -7 15 C-9.5 12.9375 -9.5 12.9375 -11 10 C-11 6.1862249 -10.84985071 3.97575452 -8.3125 1.0625 C-5.34831544 -0.29942264 -3.22654537 -0.35071145 0 0 Z " fill="#FDF9F6" transform="translate(183,27)"/>
<path d="M0 0 C5.28 0 10.56 0 16 0 C15.67 0.99 15.34 1.98 15 3 C13.35 3 11.7 3 10 3 C10 9.93 10 16.86 10 24 C9.01 24 8.02 24 7 24 C7 16.74 7 9.48 7 2 C4.69 2 2.38 2 0 2 C0 1.34 0 0.68 0 0 Z " fill="#F37F50" transform="translate(144,130)"/>
<path d="M0 0 C0.33 0.66 0.66 1.32 1 2 C-3.82997802 8.56939133 -9.11782635 14.35791507 -15 20 C-16.32 18.68 -17.64 17.36 -19 16 C-16.77172107 14.0822931 -14.54241095 12.16580761 -12.3125 10.25 C-11.68666016 9.71117187 -11.06082031 9.17234375 -10.41601562 8.6171875 C-6.9934917 5.67847585 -3.5444177 2.79216079 0 0 Z " fill="#FEF9F5" transform="translate(174,48)"/>
<path d="M0 0 C1.32 0 2.64 0 4 0 C4.13277344 0.61488281 4.26554688 1.22976562 4.40234375 1.86328125 C4.57894531 2.67152344 4.75554687 3.47976562 4.9375 4.3125 C5.11152344 5.11300781 5.28554687 5.91351563 5.46484375 6.73828125 C5.99886159 9.145401 5.99886159 9.145401 7 12 C4.36 12 1.72 12 -1 12 C-2.1875 9.9375 -2.1875 9.9375 -3 7 C-2.27873258 4.45187276 -1.21291073 2.37917104 0 0 Z " fill="#EE9068" transform="translate(202,135)"/>
<path d="M0 0 C3.375 -0.125 3.375 -0.125 7 0 C9 2 9 2 9.25 4.5 C9 7 9 7 7 9 C3.375 9.125 3.375 9.125 0 9 C0 6.03 0 3.06 0 0 Z " fill="#FDFAF7" transform="translate(76,133)"/>
<path d="M0 0 C0.33 0 0.66 0 1 0 C1.06058594 1.05960938 1.12117188 2.11921875 1.18359375 3.2109375 C1.26800127 4.59897221 1.35264917 5.98699232 1.4375 7.375 C1.47681641 8.07367188 1.51613281 8.77234375 1.55664062 9.4921875 C1.74280134 13.37360492 1.74280134 13.37360492 3 17 C3.7425 17 4.485 17 5.25 17 C7.5 17 9.75 17 12 17 C11.34 17.99 10.68 18.98 10 20 C2.85106383 20.56737589 2.85106383 20.56737589 -1 18 C-1.24817926 15.06616664 -1.32643881 12.36367315 -1.25 9.4375 C-1.24484375 8.64408203 -1.2396875 7.85066406 -1.234375 7.03320312 C-1.15404491 1.15404491 -1.15404491 1.15404491 0 0 Z " fill="#F56B34" transform="translate(99,134)"/>
<path d="M0 0 C0.99 0 1.98 0 3 0 C3.99 2.31 4.98 4.62 6 7 C4.68 7 3.36 7 2 7 C2 12.61 2 18.22 2 24 C1.34 24 0.68 24 0 24 C0 16.08 0 8.16 0 0 Z " fill="#F36D38" transform="translate(223,130)"/>
<path d="M0 0 C0.75 3.25 0.75 3.25 1 7 C-0.9375 9.4375 -0.9375 9.4375 -3 11 C-4.32 9.68 -5.64 8.36 -7 7 C-3.86206897 0 -3.86206897 0 0 0 Z " fill="#F6DFD1" transform="translate(187,30)"/>
<path d="M0 0 C11 0 11 0 14 2 C14 2.66 14 3.32 14 4 C13.01 4.33 12.02 4.66 11 5 C10.67 4.67 10.34 4.34 10 4 C8.865625 3.855625 7.73125 3.71125 6.5625 3.5625 C3 3 3 3 1 1 C1 8.59 1 16.18 1 24 C0.67 24 0.34 24 0 24 C0 16.08 0 8.16 0 0 Z " fill="#EE9673" transform="translate(73,130)"/>
<path d="M0 0 C0.99 0 1.98 0 3 0 C3.48 6.36 3.48 6.36 1.5 9 C-2.25929446 10.50371778 -5.04379351 9.72530452 -9 9 C-9 8.67 -9 8.34 -9 8 C-5.535 7.505 -5.535 7.505 -2 7 C-1.34 4.69 -0.68 2.38 0 0 Z " fill="#EF7E51" transform="translate(85,134)"/>
<path d="M0 0 C3.51716303 3.51716303 3.54676163 5.19567333 4 10 C2.02 10 0.04 10 -2 10 C-1.34 6.7 -0.68 3.4 0 0 Z " fill="#FDF9F6" transform="translate(204,136)"/>
<path d="M0 0 C2.475 0.495 2.475 0.495 5 1 C6.3125 3.5625 6.3125 3.5625 7 6 C6.01 6.33 5.02 6.66 4 7 C3.34 5.68 2.68 4.36 2 3 C1.67 7.62 1.34 12.24 1 17 C0.67 17 0.34 17 0 17 C0 11.39 0 5.78 0 0 Z " fill="#EE8257" transform="translate(225,137)"/>
<path d="M0 0 C0.33 1.32 0.66 2.64 1 4 C3.31 4 5.62 4 8 4 C8 4.33 8 4.66 8 5 C5.36 5 2.72 5 0 5 C-0.33 6.98 -0.66 8.96 -1 11 C-1.99 11 -2.98 11 -4 11 C-3.5247412 9.35303396 -3.04468109 7.70745272 -2.5625 6.0625 C-2.29566406 5.14597656 -2.02882812 4.22945312 -1.75390625 3.28515625 C-1 1 -1 1 0 0 Z " fill="#F66F3A" transform="translate(200,143)"/>
<path d="M0 0 C0.515625 0.165 1.03125 0.33 1.5625 0.5 C5.38650845 1.28441199 9.44291427 1.77854287 13 0 C12.34 1.32 11.68 2.64 11 4 C8.03 4 5.06 4 2 4 C1.34 2.68 0.68 1.36 0 0 Z " fill="#F26B35" transform="translate(122,150)"/>
<path d="M0 0 C0.99 0.33 1.98 0.66 3 1 C3.33 3.97 3.66 6.94 4 10 C3.34 9.67 2.68 9.34 2 9 C2 7.68 2 6.36 2 5 C0.68 5 -0.64 5 -2 5 C-1.34 3.35 -0.68 1.7 0 0 Z " fill="#F5703C" transform="translate(204,130)"/>
<path d="M0 0 C2.0625 1.75 2.0625 1.75 4 4 C3.75 6.25 3.75 6.25 3 8 C2.67 7.01 2.34 6.02 2 5 C-0.95409701 6.37154504 -3.44008376 7.98863724 -6 10 C-4.34832443 6.4213696 -2.21713508 3.25179812 0 0 Z " fill="#E88F69" transform="translate(172,37)"/>
<path d="M0 0 C0 1.65 0 3.3 0 5 C0.66 5 1.32 5 2 5 C1.67 5.99 1.34 6.98 1 8 C-0.65 6.35 -2.3 4.7 -4 3 C-1.125 0 -1.125 0 0 0 Z " fill="#FEFEFB" transform="translate(184,33)"/>
<path d="M0 0 C3.875 1.75 3.875 1.75 5 4 C2.36 4 -0.28 4 -3 4 C-2.01 2.68 -1.02 1.36 0 0 Z " fill="#FBF2EC" transform="translate(128,84)"/>
<path d="M0 0 C1.32 0.66 2.64 1.32 4 2 C1.4345406 4.5654594 -0.47686668 4.54046087 -4 5 C-4 4.34 -4 3.68 -4 3 C-2 1.375 -2 1.375 0 0 Z " fill="#FBEEE6" transform="translate(145,58)"/>
<path d="M0 0 C2.64 0 5.28 0 8 0 C8.33 1.32 8.66 2.64 9 4 C5.625 3.6875 5.625 3.6875 2 3 C1.34 2.01 0.68 1.02 0 0 Z " fill="#EB8961" transform="translate(126,130)"/>
<path d="M0 0 C2.97 0 5.94 0 9 0 C9 0.33 9 0.66 9 1 C5.7 1.66 2.4 2.32 -1 3 C-0.67 2.01 -0.34 1.02 0 0 Z " fill="#F66F3A" transform="translate(124,131)"/>
</svg>
