<svg version="1.1" id="Layer_1" xmlns="http://www.w3.org/2000/svg" xmlns:xlink="http://www.w3.org/1999/xlink" x="0px" y="0px"
	 width="100%" viewBox="0 0 226 223" enable-background="new 0 0 226 223" xml:space="preserve">
<path fill="#E6532D" opacity="1.000000" stroke="none" 
	d="
M1.000000,126.000000 
	C1.000000,117.645767 1.000000,109.291534 1.363639,100.304092 
	C3.192998,93.034691 4.148262,86.235542 6.206295,79.788429 
	C20.873663,33.840557 60.766270,5.935088 103.389931,2.788673 
	C123.171959,1.328393 141.839386,4.959828 159.975891,13.513211 
	C176.422394,21.269569 190.025436,32.248577 200.550339,46.508980 
	C224.862762,79.450394 230.359528,115.954796 214.921616,153.881714 
	C198.156937,195.068054 166.494492,218.109039 121.676689,223.071655 
	C120.217102,223.057632 119.153725,223.105728 117.624748,223.103531 
	C113.406479,223.093521 109.653824,223.133804 105.537369,223.133301 
	C104.115723,223.395020 103.057861,223.697510 102.000000,224.000000 
	C102.000000,224.000000 101.500000,224.000000 101.068542,223.638153 
	C54.192295,216.643051 22.587231,191.531174 6.579717,147.314789 
	C4.090080,140.437836 2.829128,133.116074 1.000000,126.000000 
M59.943203,156.989456 
	C59.943203,162.909515 59.943203,168.829590 59.943203,174.700562 
	C95.016884,174.700562 129.407196,174.700562 163.988586,174.700562 
	C163.988586,168.281311 163.988586,162.154633 163.333176,155.520737 
	C162.362198,155.348953 161.391357,155.027878 160.420227,155.027008 
	C128.359375,154.998749 96.298477,154.987656 64.237709,155.044098 
	C62.830948,155.046570 61.425346,155.708420 59.943203,156.989456 
M141.499603,146.476044 
	C147.829865,146.475769 154.160965,146.530716 160.489716,146.432968 
	C161.916351,146.410950 163.856445,146.345123 164.675064,145.470779 
	C171.729248,137.936371 177.270874,129.466705 180.477676,118.586212 
	C168.593216,120.890495 157.554626,123.030769 145.900818,125.290337 
	C146.422974,123.769279 146.490448,123.261322 146.744705,122.876877 
	C157.894073,106.018585 157.007126,88.495201 148.554947,71.194656 
	C142.809891,59.435249 135.886490,48.290146 138.523361,34.091850 
	C136.289917,36.609360 134.107086,39.054455 133.198578,41.905605 
	C130.839493,49.309212 129.079269,56.902161 126.980072,64.391525 
	C126.633492,65.628082 125.781662,66.723030 125.163322,67.883415 
	C124.450958,66.788132 123.414085,65.782967 123.080688,64.582443 
	C121.357002,58.375675 120.008476,52.060490 118.162125,45.892979 
	C115.233986,36.111866 108.440933,27.245907 111.361359,15.711245 
	C108.959175,17.000717 106.939430,18.381987 105.472809,20.207617 
	C101.138275,25.603188 99.882088,32.031929 99.242714,38.797050 
	C98.573296,45.879971 97.477379,52.958786 95.978630,59.912395 
	C95.186058,63.589626 93.140335,66.996765 91.660370,70.525841 
	C89.124138,59.466309 88.823975,48.152409 78.973656,40.635643 
	C78.593544,46.020611 78.952065,50.935596 77.774933,55.450172 
	C75.604103,63.775757 72.540787,71.869263 69.833145,80.054108 
	C64.977814,94.731117 65.377068,108.821030 74.401878,121.995621 
	C74.893326,122.713058 74.980728,123.707268 75.498024,125.332199 
	C64.650002,123.056732 54.455444,120.918335 44.260891,118.779938 
	C43.814720,119.320396 43.368546,119.860847 42.922371,120.401299 
	C47.580578,127.758766 52.429256,135.005203 56.812103,142.523193 
	C58.832241,145.988388 61.444256,146.552170 65.035812,146.536011 
	C90.190002,146.422836 115.344940,146.475952 141.499603,146.476044 
M96.503281,183.584595 
	C91.224174,183.584595 85.945068,183.584595 80.685852,183.584595 
	C80.733971,199.247849 95.574837,209.605896 112.362442,209.657028 
	C131.048523,209.713943 144.442474,195.706131 143.270828,183.584457 
	C128.060867,183.584457 112.781609,183.584457 96.503281,183.584595 
z"/>
<path fill="#FFFEFE" opacity="1.000000" stroke="none" 
	d="
M122.072906,223.133759 
	C166.494492,218.109039 198.156937,195.068054 214.921616,153.881714 
	C230.359528,115.954796 224.862762,79.450394 200.550339,46.508980 
	C190.025436,32.248577 176.422394,21.269569 159.975891,13.513211 
	C141.839386,4.959828 123.171959,1.328393 103.389931,2.788673 
	C60.766270,5.935088 20.873663,33.840557 6.206295,79.788429 
	C4.148262,86.235542 3.192998,93.034691 1.363639,99.835442 
	C1.000000,67.022118 1.000000,34.044239 1.000000,1.033180 
	C76.260704,1.033180 151.521423,1.033180 226.891083,1.033180 
	C226.891083,75.210747 226.891083,149.421707 226.891083,224.000000 
	C192.313309,224.000000 157.625305,224.000000 122.473045,223.782272 
	C122.008774,223.564545 122.072906,223.133759 122.072906,223.133759 
z"/>
<path fill="#FFFEFE" opacity="1.000000" stroke="none" 
	d="
M1.000000,126.468658 
	C2.829128,133.116074 4.090080,140.437836 6.579717,147.314789 
	C22.587231,191.531174 54.192295,216.643051 100.818542,223.638153 
	C67.740471,224.000000 34.480942,224.000000 1.000000,224.000000 
	C1.000000,191.646103 1.000000,159.291718 1.000000,126.468658 
z"/>
<path fill="#ED8E7B" opacity="1.000000" stroke="none" 
	d="
M105.901161,223.174088 
	C109.653824,223.133804 113.406479,223.093521 117.592941,223.313812 
	C118.026741,223.574402 118.000000,224.000000 118.000000,224.000000 
	C114.307091,224.000000 110.614182,224.000000 106.442764,223.792694 
	C105.964264,223.585403 105.901161,223.174088 105.901161,223.174088 
z"/>
<path fill="#F4BBB1" opacity="1.000000" stroke="none" 
	d="
M105.537369,223.133301 
	C105.901161,223.174088 105.964264,223.585403 105.982132,223.792694 
	C104.933311,224.000000 103.866623,224.000000 102.399963,224.000000 
	C103.057861,223.697510 104.115723,223.395020 105.537369,223.133301 
z"/>
<path fill="#F4BBB1" opacity="1.000000" stroke="none" 
	d="
M118.400146,224.000000 
	C118.000000,224.000000 118.026741,223.574402 118.058548,223.364120 
	C119.153725,223.105728 120.217102,223.057632 121.676689,223.071655 
	C122.072906,223.133759 122.008774,223.564545 122.004387,223.782272 
	C120.933434,224.000000 119.866859,224.000000 118.400146,224.000000 
z"/>
<path fill="#FFFEFE" opacity="1.000000" stroke="none" 
	d="
M140.999619,146.475952 
	C115.344940,146.475952 90.190002,146.422836 65.035812,146.536011 
	C61.444256,146.552170 58.832241,145.988388 56.812103,142.523193 
	C52.429256,135.005203 47.580578,127.758766 42.922371,120.401299 
	C43.368546,119.860847 43.814720,119.320396 44.260891,118.779938 
	C54.455444,120.918335 64.650002,123.056732 75.498024,125.332199 
	C74.980728,123.707268 74.893326,122.713058 74.401878,121.995621 
	C65.377068,108.821030 64.977814,94.731117 69.833145,80.054108 
	C72.540787,71.869263 75.604103,63.775757 77.774933,55.450172 
	C78.952065,50.935596 78.593544,46.020611 78.973656,40.635643 
	C88.823975,48.152409 89.124138,59.466309 91.660370,70.525841 
	C93.140335,66.996765 95.186058,63.589626 95.978630,59.912395 
	C97.477379,52.958786 98.573296,45.879971 99.242714,38.797050 
	C99.882088,32.031929 101.138275,25.603188 105.472809,20.207617 
	C106.939430,18.381987 108.959175,17.000717 111.361359,15.711245 
	C108.440933,27.245907 115.233986,36.111866 118.162125,45.892979 
	C120.008476,52.060490 121.357002,58.375675 123.080688,64.582443 
	C123.414085,65.782967 124.450958,66.788132 125.163322,67.883415 
	C125.781662,66.723030 126.633492,65.628082 126.980072,64.391525 
	C129.079269,56.902161 130.839493,49.309212 133.198578,41.905605 
	C134.107086,39.054455 136.289917,36.609360 138.523361,34.091850 
	C135.886490,48.290146 142.809891,59.435249 148.554947,71.194656 
	C157.007126,88.495201 157.894073,106.018585 146.744705,122.876877 
	C146.490448,123.261322 146.422974,123.769279 145.900818,125.290337 
	C157.554626,123.030769 168.593216,120.890495 180.477676,118.586212 
	C177.270874,129.466705 171.729248,137.936371 164.675064,145.470779 
	C163.856445,146.345123 161.916351,146.410950 160.489716,146.432968 
	C154.160965,146.530716 147.829865,146.475769 140.999619,146.475952 
z"/>
<path fill="#FFFEFE" opacity="1.000000" stroke="none" 
	d="
M163.988586,156.027939 
	C163.988586,162.154633 163.988586,168.281311 163.988586,174.700562 
	C129.407196,174.700562 95.016884,174.700562 59.943203,174.700562 
	C59.943203,168.829590 59.943203,162.909515 60.448036,156.509094 
	C95.298111,156.028473 129.643341,156.028198 163.988586,156.027939 
z"/>
<path fill="#FFFDFD" opacity="1.000000" stroke="none" 
	d="
M97.002815,183.584534 
	C112.781609,183.584457 128.060867,183.584457 143.270828,183.584457 
	C144.442474,195.706131 131.048523,209.713943 112.362442,209.657028 
	C95.574837,209.605896 80.733971,199.247849 80.685852,183.584595 
	C85.945068,183.584595 91.224174,183.584595 97.002815,183.584534 
z"/>
<path fill="#E44000" opacity="1.000000" stroke="none" 
	d="
M163.660889,155.774338 
	C129.643341,156.028198 95.298111,156.028473 60.486038,156.045929 
	C61.425346,155.708420 62.830948,155.046570 64.237709,155.044098 
	C96.298477,154.987656 128.359375,154.998749 160.420227,155.027008 
	C161.391357,155.027878 162.362198,155.348953 163.660889,155.774338 
z"/>
</svg>