<svg version="1.1" id="Layer_1" xmlns="http://www.w3.org/2000/svg" xmlns:xlink="http://www.w3.org/1999/xlink" x="0px" y="0px"
	 width="100%" viewBox="0 0 225 225" enable-background="new 0 0 225 225" xml:space="preserve">
<path fill="#FEFEFE" opacity="1.000000" stroke="none" 
	d="
M0.999999,81.000000 
	C1.000000,54.399776 1.000000,27.799555 1.000000,1.000000 
	C32.687283,1.000000 64.374985,1.000000 96.536697,1.278363 
	C97.033577,1.740923 97.056442,1.925120 96.874329,2.402339 
	C91.604065,3.314937 86.367043,3.322176 81.509979,4.684276 
	C72.022331,7.344964 62.855507,10.895292 60.070518,22.005405 
	C60.047512,21.949619 59.929108,21.972975 59.739059,22.195284 
	C59.551102,23.325214 59.553196,24.232834 59.562683,25.599060 
	C59.547462,33.646809 59.524853,41.235950 59.366405,48.967476 
	C59.201126,49.237591 59.118603,49.382389 59.153069,49.489574 
	C59.229645,49.727726 59.364826,49.947029 59.691681,50.546997 
	C66.924736,51.190990 73.942230,51.462009 81.430801,51.744930 
	C92.613945,51.820858 103.325996,51.884884 114.016617,51.969242 
	C113.995186,51.989571 114.051491,51.972523 114.034943,52.357754 
	C114.084183,53.506882 114.149971,54.270782 114.157631,55.354771 
	C114.137001,56.105103 114.174492,56.535347 114.094154,57.392540 
	C112.218323,58.283028 110.462021,59.142536 108.702080,59.150040 
	C86.404045,59.245098 64.104858,59.131977 41.807590,59.294598 
	C37.427677,59.326538 33.054653,60.303223 28.306345,60.850548 
	C26.221363,61.452217 24.245071,61.688656 22.847977,62.714165 
	C19.470638,65.193237 16.680336,68.618927 13.069299,70.596436 
	C8.304255,73.205933 6.452959,77.070023 5.424794,82.083755 
	C4.757692,83.564079 4.446160,84.947899 4.142581,86.513489 
	C4.150534,86.695274 3.945899,86.996201 3.577693,86.998390 
	C2.472991,87.000389 1.736496,87.000198 1.000000,87.000000 
	C1.000000,85.933327 1.000000,84.866661 1.298715,83.360703 
	C1.916970,82.514381 2.236510,82.107338 2.556047,81.700294 
	C2.037363,81.466866 1.518681,81.233437 0.999999,81.000000 
z"/>
<path fill="#FFFEFE" opacity="1.000000" stroke="none" 
	d="
M226.000000,129.000000 
	C226.000000,161.260635 226.000000,193.521271 226.000000,226.000000 
	C193.646103,226.000000 161.291702,226.000000 128.714783,225.671478 
	C138.389816,224.744583 147.921494,222.603439 156.667084,217.849289 
	C163.932297,213.899872 167.906387,207.747559 167.784576,199.228928 
	C167.705994,193.732452 167.690262,188.232788 167.784256,182.736908 
	C167.859726,178.324493 168.622253,174.349457 161.427628,175.287567 
	C153.745575,176.289230 145.849564,175.650024 137.602402,175.571228 
	C129.443024,175.308594 121.728195,175.201874 113.931244,174.873383 
	C113.690277,174.366730 113.462288,174.157043 113.101364,173.590469 
	C113.354492,171.214676 113.671402,169.270966 114.431892,167.476898 
	C119.583916,167.488403 124.292351,167.350235 129.332397,167.283142 
	C130.111542,167.309494 130.559113,167.264786 131.437317,167.285583 
	C133.566650,167.529297 135.265335,167.707504 137.027405,168.230896 
	C137.844971,169.048706 138.584167,169.904739 139.355606,169.934845 
	C147.372986,170.247742 155.397537,170.604477 163.415146,170.513336 
	C165.286804,170.492035 167.139755,168.825272 169.465363,167.843048 
	C176.717148,167.662033 183.511337,167.704758 190.291306,167.414780 
	C206.275085,166.731140 216.232162,158.025208 221.473694,143.387833 
	C223.167358,138.658096 224.501434,133.799591 226.000000,129.000000 
z"/>
<path fill="#FEFFFF" opacity="1.000000" stroke="none" 
	d="
M91.000000,226.000000 
	C61.069969,226.000000 31.139936,226.000000 1.000000,226.000000 
	C1.000000,193.646072 1.000000,161.291702 1.267642,128.529526 
	C1.743177,128.415695 1.951071,128.709656 2.096600,129.403351 
	C3.572770,135.566086 5.111307,141.329071 6.698873,147.402100 
	C7.044119,148.232193 7.340337,148.752243 7.612283,149.341782 
	C7.588011,149.411255 7.635866,149.550461 7.713848,149.870575 
	C10.864992,156.269409 14.614710,161.302261 20.916473,164.976273 
	C31.175354,170.957336 41.603298,168.992935 52.544765,168.008469 
	C53.837128,168.178116 54.792862,168.288589 55.720417,168.395798 
	C55.051601,165.872803 54.088596,163.891815 54.077591,161.905533 
	C54.035469,154.303864 54.348648,146.700668 54.370701,139.097580 
	C54.372845,138.360397 53.280632,137.620026 52.712685,136.511948 
	C52.881657,135.419998 53.034367,134.697220 53.410522,133.753784 
	C53.715233,132.920670 53.796501,132.308228 53.867188,131.505951 
	C53.856609,131.316116 54.075985,131.005493 54.420273,131.001205 
	C55.843651,130.664612 56.922741,130.332306 58.249794,130.000275 
	C58.497753,130.000534 58.993675,130.001221 58.996819,130.000610 
	C58.999962,130.000000 58.998940,130.006317 58.999096,130.252747 
	C58.999252,130.499191 58.999420,130.992065 58.772144,131.138824 
	C58.700813,131.855301 58.856758,132.425018 59.257141,133.167572 
	C59.670971,133.902420 59.840363,134.464462 59.989994,135.428558 
	C59.648415,138.554321 59.326599,141.278015 58.946114,144.467255 
	C58.800098,160.952209 58.712746,176.971603 58.369179,193.046509 
	C58.295422,193.737656 58.477882,194.373276 58.740837,195.427460 
	C58.930408,197.544693 59.039482,199.243408 59.139801,201.334351 
	C59.398685,203.000504 59.666332,204.274414 59.552650,205.718658 
	C58.799728,208.071625 58.428131,210.254242 58.056538,212.436859 
	C58.410805,212.432983 58.765072,212.429108 59.119335,212.425247 
	C59.975037,210.985489 60.830734,209.545746 61.861908,208.367157 
	C62.381683,209.358261 62.725979,210.088196 63.084885,211.174316 
	C63.803333,211.992722 64.507172,212.454971 65.517136,213.076630 
	C66.093933,213.839188 66.364601,214.442322 66.256226,215.097046 
	C64.857407,215.570206 63.837635,215.991760 62.817863,216.413330 
	C62.975834,216.735321 63.133801,217.057297 63.291771,217.379288 
	C64.530724,216.712021 65.769676,216.044754 67.371040,215.340073 
	C68.496597,215.849014 69.259750,216.395370 70.070602,217.305054 
	C71.147873,218.082962 72.177437,218.497528 73.414780,218.915802 
	C73.622566,218.919525 74.007622,219.076004 74.073372,219.225937 
	C74.139122,219.375870 74.538528,219.575668 74.538528,219.575668 
	C74.538528,219.575668 74.939201,219.341278 75.241341,219.420868 
	C76.320274,219.809174 77.097061,220.117874 78.083336,220.636703 
	C79.199898,221.191925 80.106979,221.537003 81.333496,221.965195 
	C82.091415,222.057053 82.529892,222.065796 83.287964,222.256607 
	C86.071709,223.625778 88.535851,224.812897 91.000000,226.000000 
M69.790466,221.052368 
	C69.387505,221.426331 68.984543,221.800293 68.581581,222.174271 
	C69.847084,222.372009 71.112595,222.569763 72.378098,222.767517 
	C72.430328,222.378677 72.482559,221.989838 72.534790,221.600998 
	C71.856590,221.407867 71.178383,221.214752 69.790466,221.052368 
z"/>
<path fill="#FEFEFE" opacity="1.000000" stroke="none" 
	d="
M127.000000,1.000000 
	C159.927292,1.000000 192.854599,1.000000 226.000000,1.000000 
	C226.000000,34.020573 226.000000,67.041626 225.688568,100.339600 
	C225.168030,99.415947 224.958954,98.215363 224.783661,96.692429 
	C224.594635,95.566612 224.371811,94.763161 224.156631,93.571106 
	C223.796371,91.734840 223.428452,90.287186 223.058167,88.617203 
	C223.055817,88.394875 222.908691,87.975227 222.898224,87.687576 
	C222.624008,87.129494 222.360275,86.859047 222.109131,86.211594 
	C220.763901,82.217766 219.406052,78.600945 218.040344,74.670898 
	C217.460785,73.535423 216.889069,72.713165 216.199783,71.558670 
	C209.365891,61.277130 200.009491,57.071690 188.084747,58.019791 
	C183.790558,58.361202 179.445068,58.057533 174.782593,58.009979 
	C173.452393,57.810448 172.462601,57.649189 171.472794,57.487930 
	C171.319794,57.834938 171.166794,58.181942 171.013794,58.528950 
	C172.272186,59.355194 173.530563,60.181438 174.885696,61.244858 
	C175.043945,61.641338 175.105469,61.800640 175.080704,62.218143 
	C174.938446,62.648975 174.882446,62.821613 174.452118,63.100998 
	C173.432465,66.438606 172.787140,69.669472 172.141800,72.900337 
	C171.628662,72.883583 171.115509,72.866829 170.602371,72.850075 
	C170.401169,71.396767 170.257645,69.932587 169.986038,68.492577 
	C169.513031,65.984932 168.961014,63.492203 168.347031,60.533794 
	C168.316803,51.016151 168.381668,41.957939 168.619202,32.661240 
	C168.658783,31.308653 168.525696,30.194548 168.280075,28.748802 
	C168.067093,27.962273 167.966644,27.507381 167.924805,26.765694 
	C167.844742,25.931307 167.706055,25.383718 167.469696,24.467125 
	C165.392258,18.866613 163.658905,13.431882 157.206070,11.487818 
	C151.317749,5.281068 143.218964,5.181044 136.003204,2.883481 
	C133.096893,1.958085 130.006577,1.610534 127.000000,1.000000 
z"/>
<path fill="#3775A7" opacity="1.000000" stroke="none" 
	d="
M126.535355,1.000000 
	C130.006577,1.610534 133.096893,1.958085 136.003204,2.883481 
	C143.218964,5.181044 151.317749,5.281068 156.904572,11.674481 
	C153.746262,14.211141 150.783112,16.140146 147.948517,18.242508 
	C147.118408,18.858189 146.731735,20.037085 146.008636,20.837511 
	C142.092865,25.172054 138.157867,29.490067 134.154099,33.742798 
	C133.790756,34.128723 132.788727,33.843540 132.267319,34.166813 
	C131.484314,34.652283 130.810333,35.351685 130.183350,36.044590 
	C125.743507,40.951160 121.348312,45.898502 116.861336,50.761292 
	C116.529961,51.120415 115.592400,50.920208 114.645309,50.692898 
	C103.249535,50.282001 92.145088,50.158245 81.028900,50.023808 
	C81.017151,50.013126 80.995674,49.989189 80.997025,49.543518 
	C80.999985,47.451481 81.014061,45.805004 81.000443,44.158760 
	C80.975830,41.183014 82.260635,40.039333 85.324600,40.584839 
	C88.630417,41.173412 95.830635,35.105564 95.703384,31.793476 
	C95.679054,31.160080 93.941521,30.592505 92.959518,29.661980 
	C92.988686,28.889795 93.052734,28.450195 93.458954,27.962734 
	C95.043419,26.860924 96.496819,24.732121 97.493645,24.927904 
	C103.843483,26.175064 105.298065,22.507137 105.417664,17.246462 
	C110.203339,17.361012 112.377411,15.895074 113.493004,10.729079 
	C114.294830,7.016083 113.058929,4.211449 113.000000,1.000000 
	C117.356903,1.000000 121.713799,1.000000 126.535355,1.000000 
z"/>
<path fill="#FECC3B" opacity="1.000000" stroke="none" 
	d="
M224.749878,97.014786 
	C224.958954,98.215363 225.168030,99.415947 225.688568,100.808258 
	C226.000000,110.020897 226.000000,119.041786 226.000000,128.531342 
	C224.501434,133.799591 223.167358,138.658096 221.473694,143.387833 
	C216.232162,158.025208 206.275085,166.731140 190.291306,167.414780 
	C183.511337,167.704758 176.717148,167.662033 169.015091,167.769958 
	C165.069977,167.674408 162.039169,167.579391 158.875992,167.160477 
	C157.009201,166.319061 155.274796,165.801529 152.105637,164.855881 
	C154.265228,164.347122 154.998596,163.975388 155.688828,164.043152 
	C161.314438,164.595428 166.389313,164.288025 171.945389,161.630539 
	C175.990738,159.695618 175.654526,156.795486 177.163223,154.229370 
	C178.841446,151.374832 184.512756,153.407852 184.431366,148.254242 
	C184.400436,146.294754 184.379822,144.152435 185.111664,142.411789 
	C185.946808,140.425507 187.432312,138.601410 188.977188,137.046661 
	C192.848740,133.150391 197.058594,129.585403 200.859634,125.625366 
	C204.660507,121.665512 207.397934,115.879906 211.949142,113.670044 
	C216.566132,111.428238 217.205414,108.996780 216.999390,105.000000 
	C217.000000,105.000000 217.000000,104.998779 217.386047,104.993134 
	C219.181381,103.332855 220.577911,101.667160 222.004547,100.027641 
	C222.896194,99.002945 223.833206,98.017715 224.749878,97.014786 
z"/>
<path fill="#FFD040" opacity="1.000000" stroke="none" 
	d="
M81.014061,221.882080 
	C80.106979,221.537003 79.199898,221.191925 78.045181,220.298859 
	C78.918892,216.854263 79.237808,212.520004 81.325508,211.354767 
	C85.934669,208.782181 88.005341,204.037918 91.852737,201.292908 
	C94.184464,199.629272 96.633194,198.919266 97.128845,195.647629 
	C97.267258,194.733994 98.398338,193.299988 99.141090,193.256760 
	C104.236031,192.960281 104.926575,189.160599 105.480713,185.478271 
	C112.687805,184.103027 113.042824,183.592545 113.231689,175.148651 
	C113.666054,175.164993 113.839714,175.130081 114.013367,175.095154 
	C121.728195,175.201874 129.443024,175.308594 137.773224,175.880981 
	C142.750183,176.712341 147.111801,177.078018 151.404129,177.437897 
	C152.527313,184.098145 151.795334,184.884827 145.407303,185.044815 
	C142.713608,185.112274 140.032318,185.674637 137.345383,186.012039 
	C137.400330,186.519974 137.455261,187.027908 137.510208,187.535843 
	C138.433228,187.734528 139.356232,187.933212 140.187180,188.473145 
	C138.043839,191.876785 135.992569,194.939163 133.683105,197.763062 
	C132.798523,196.057098 132.172165,194.589584 131.545792,193.122070 
	C129.962250,194.487457 129.108047,195.716721 129.230865,196.839066 
	C130.115280,204.921097 129.083588,204.392532 123.119850,208.624954 
	C119.292404,211.341263 116.078850,215.774078 112.332283,219.242569 
	C111.149742,220.337341 112.051918,223.683975 112.000000,226.000000 
	C108.969406,226.000000 105.938812,226.000000 102.223869,225.728058 
	C100.026344,225.637421 98.513176,225.818710 97.000000,226.000000 
	C95.285645,226.000000 93.571281,226.000000 91.428467,226.000000 
	C88.535851,224.812897 86.071709,223.625778 83.486465,221.989532 
	C84.241722,221.197937 85.118073,220.855469 87.318054,219.995743 
	C84.576843,219.995743 83.290016,219.995743 81.948189,219.857147 
	C81.806564,219.669540 81.719940,219.620544 81.633316,219.571548 
	C81.754173,219.715439 81.875031,219.859329 81.897491,220.250092 
	C81.537415,220.958679 81.275742,221.420395 81.014061,221.882080 
z"/>
<path fill="#3878AE" opacity="1.000000" stroke="none" 
	d="
M3.945899,86.996201 
	C3.945899,86.996201 4.150534,86.695274 4.387582,86.273087 
	C5.009876,84.563019 5.395121,83.275139 5.780366,81.987251 
	C6.452959,77.070023 8.304255,73.205933 13.069299,70.596436 
	C16.680336,68.618927 19.470638,65.193237 22.847977,62.714165 
	C24.245071,61.688656 26.221363,61.452217 28.798199,60.903000 
	C44.437119,60.959755 59.212074,60.970421 73.924759,61.360256 
	C70.812164,65.775047 66.457565,63.735474 62.710133,63.877304 
	C58.937111,64.020103 56.490219,64.606712 56.966389,69.105453 
	C57.254726,71.829666 55.810127,73.145340 53.089577,72.991974 
	C50.070797,72.821800 49.200459,74.352562 48.823841,77.196266 
	C48.640034,78.584129 46.745724,80.664902 45.452084,80.802719 
	C42.371807,81.130867 41.098316,82.105171 40.811634,85.320007 
	C40.694241,86.636429 38.650906,88.691017 37.338207,88.810448 
	C34.140781,89.101334 33.125271,90.334625 32.804253,93.434120 
	C32.670010,94.730263 30.598923,96.636444 29.214415,96.822670 
	C26.385773,97.203140 24.821770,98.039612 24.993179,101.070969 
	C25.146488,103.782196 23.867189,105.147675 21.120720,104.991417 
	C18.125607,104.821022 16.828932,106.244698 16.987450,109.188438 
	C17.137310,111.971367 15.675866,113.104012 12.999011,113.005997 
	C11.334740,112.945061 9.666301,112.997910 7.999866,112.999847 
	C8.000000,113.000000 8.000267,113.000305 7.991836,112.596657 
	C7.471832,109.598312 6.960259,107.003609 6.650222,105.431099 
	C4.306219,105.252258 2.653109,105.126129 1.000000,105.000000 
	C1.000000,103.611107 1.000000,102.222221 1.350307,100.236565 
	C2.449042,95.425270 3.197471,91.210732 3.945899,86.996201 
z"/>
<path fill="#FDCC3D" opacity="1.000000" stroke="none" 
	d="
M140.279251,188.131882 
	C139.356232,187.933212 138.433228,187.734528 137.510208,187.535843 
	C137.455261,187.027908 137.400330,186.519974 137.345383,186.012039 
	C140.032318,185.674637 142.713608,185.112274 145.407303,185.044815 
	C151.795334,184.884827 152.527313,184.098145 151.404129,177.437897 
	C147.111801,177.078018 142.750183,176.712341 138.217773,176.036896 
	C145.849564,175.650024 153.745575,176.289230 161.427628,175.287567 
	C168.622253,174.349457 167.859726,178.324493 167.784256,182.736908 
	C167.690262,188.232788 167.705994,193.732452 167.784576,199.228928 
	C167.906387,207.747559 163.932297,213.899872 156.667084,217.849289 
	C147.921494,222.603439 138.389816,224.744583 128.246124,225.671478 
	C122.977905,226.000000 117.955818,226.000000 112.466858,226.000000 
	C112.051918,223.683975 111.149742,220.337341 112.332283,219.242569 
	C116.078850,215.774078 119.292404,211.341263 123.119850,208.624954 
	C129.083588,204.392532 130.115280,204.921097 129.230865,196.839066 
	C129.108047,195.716721 129.962250,194.487457 131.545792,193.122070 
	C132.172165,194.589584 132.798523,196.057098 133.731796,198.146759 
	C135.084061,204.870331 138.734787,208.635117 143.861145,208.898239 
	C148.147736,209.118271 152.590073,205.400650 153.737793,200.632828 
	C154.748749,196.433151 152.381134,191.648422 147.879318,189.786972 
	C145.521042,188.811844 142.823547,188.657120 140.279251,188.131882 
z"/>
<path fill="#3979AF" opacity="1.000000" stroke="none" 
	d="
M112.600006,1.000000 
	C113.058929,4.211449 114.294830,7.016083 113.493004,10.729079 
	C112.377411,15.895074 110.203339,17.361012 105.417664,17.246462 
	C105.298065,22.507137 103.843483,26.175064 97.493645,24.927904 
	C96.496819,24.732121 95.043419,26.860924 93.364731,27.605312 
	C91.865524,21.924963 88.590370,18.600933 83.187057,18.259544 
	C78.853180,17.985723 75.188789,20.368473 74.065842,24.520275 
	C73.323051,27.266529 73.553978,30.954851 74.861221,33.419224 
	C76.866562,37.199612 80.274841,39.788616 85.308250,37.849728 
	C89.148575,36.370422 92.384941,34.529087 92.994392,29.994562 
	C93.941521,30.592505 95.679054,31.160080 95.703384,31.793476 
	C95.830635,35.105564 88.630417,41.173412 85.324600,40.584839 
	C82.260635,40.039333 80.975830,41.183014 81.000443,44.158760 
	C81.014061,45.805004 80.999985,47.451481 80.529022,49.545937 
	C76.573563,49.995125 73.086899,50.036827 69.601448,49.989628 
	C59.636765,49.854706 61.227993,51.380871 60.972767,41.206547 
	C60.812595,34.821426 60.395401,28.442755 60.093521,22.061190 
	C62.855507,10.895292 72.022331,7.344964 81.509979,4.684276 
	C86.367043,3.322176 91.604065,3.314937 97.257401,2.371937 
	C98.871300,1.994654 99.897171,1.940797 101.321968,1.939886 
	C102.788582,1.970847 103.856270,1.948863 105.296753,1.956000 
	C106.779701,1.656747 107.889854,1.328373 109.000000,0.999999 
	C110.066673,1.000000 111.133339,1.000000 112.600006,1.000000 
z"/>
<path fill="#3878AE" opacity="1.000000" stroke="none" 
	d="
M2.158967,129.003616 
	C1.951071,128.709656 1.743177,128.415695 1.267642,128.060867 
	C1.000000,127.250000 1.000000,126.500000 1.299185,125.336761 
	C1.918094,124.515633 2.237818,124.107735 2.557543,123.699837 
	C2.038363,123.466553 1.519183,123.233276 1.000001,123.000000 
	C1.000000,122.555557 1.000000,122.111107 1.368770,121.324921 
	C2.436325,120.037842 3.135111,119.092499 3.833897,118.147171 
	C2.889265,118.098114 1.944632,118.049057 1.000000,118.000000 
	C1.000000,114.969406 1.000000,111.938812 1.328462,108.600098 
	C4.488218,108.895638 3.711873,114.359726 8.000267,113.000305 
	C8.000267,113.000305 8.000000,113.000000 7.994584,113.382263 
	C6.678069,118.033592 5.427091,122.322807 4.008487,126.555855 
	C3.700408,127.475136 2.791270,128.192993 2.158967,129.003616 
z"/>
<path fill="#3774A7" opacity="1.000000" stroke="none" 
	d="
M7.991836,112.596657 
	C3.711873,114.359726 4.488218,108.895638 1.328462,108.145981 
	C1.000000,107.250000 1.000000,106.500000 1.000000,105.375000 
	C2.653109,105.126129 4.306219,105.252258 6.650222,105.431099 
	C6.960259,107.003609 7.471832,109.598312 7.991836,112.596657 
z"/>
<path fill="#F1F8FA" opacity="1.000000" stroke="none" 
	d="
M3.577693,86.998390 
	C3.197471,91.210732 2.449042,95.425270 1.350307,99.819901 
	C1.000000,95.975456 1.000000,91.950912 1.000000,87.463181 
	C1.736496,87.000198 2.472991,87.000389 3.577693,86.998390 
z"/>
<path fill="#3774A7" opacity="1.000000" stroke="none" 
	d="
M1.000000,118.375000 
	C1.944632,118.049057 2.889265,118.098114 3.833897,118.147171 
	C3.135111,119.092499 2.436325,120.037842 1.368770,120.991592 
	C1.000000,120.250000 1.000000,119.500000 1.000000,118.375000 
z"/>
<path fill="#FDF6E0" opacity="1.000000" stroke="none" 
	d="
M97.416664,226.000000 
	C98.513176,225.818710 100.026344,225.637421 101.769760,225.728058 
	C100.611107,226.000000 99.222221,226.000000 97.416664,226.000000 
z"/>
<path fill="#F1F8FA" opacity="1.000000" stroke="none" 
	d="
M0.999999,81.333328 
	C1.518681,81.233437 2.037363,81.466866 2.556047,81.700294 
	C2.236510,82.107338 1.916970,82.514381 1.298715,82.960709 
	C1.000000,82.555557 1.000000,82.111107 0.999999,81.333328 
z"/>
<path fill="#B8D1F2" opacity="1.000000" stroke="none" 
	d="
M100.923035,1.886941 
	C99.897171,1.940797 98.871300,1.994654 97.462372,2.078913 
	C97.056442,1.925120 97.033577,1.740923 97.005356,1.278363 
	C98.066750,1.000000 99.133492,1.000000 100.591599,1.222666 
	C100.982956,1.445331 100.923035,1.886941 100.923035,1.886941 
z"/>
<path fill="#8AA1CC" opacity="1.000000" stroke="none" 
	d="
M101.321968,1.939886 
	C100.923035,1.886941 100.982956,1.445331 100.991478,1.222666 
	C102.066719,1.000000 103.133438,1.000000 104.586761,1.232187 
	C104.973366,1.464374 104.923950,1.926879 104.923950,1.926879 
	C103.856270,1.948863 102.788582,1.970847 101.321968,1.939886 
z"/>
<path fill="#508FC5" opacity="1.000000" stroke="none" 
	d="
M105.296753,1.956000 
	C104.923950,1.926879 104.973366,1.464374 104.986679,1.232187 
	C106.066673,1.000000 107.133339,1.000000 108.600006,0.999999 
	C107.889854,1.328373 106.779701,1.656747 105.296753,1.956000 
z"/>
<path fill="#3774A7" opacity="1.000000" stroke="none" 
	d="
M1.000001,123.333328 
	C1.519183,123.233276 2.038363,123.466553 2.557543,123.699837 
	C2.237818,124.107735 1.918094,124.515633 1.299185,124.961761 
	C1.000000,124.555557 1.000000,124.111107 1.000001,123.333328 
z"/>
<path fill="#3770A1" opacity="1.000000" stroke="none" 
	d="
M114.936653,50.980034 
	C115.592400,50.920208 116.529961,51.120415 116.861336,50.761292 
	C121.348312,45.898502 125.743507,40.951160 130.183350,36.044590 
	C130.810333,35.351685 131.484314,34.652283 132.267319,34.166813 
	C132.788727,33.843540 133.790756,34.128723 134.154099,33.742798 
	C138.157867,29.490067 142.092865,25.172054 146.008636,20.837511 
	C146.731735,20.037085 147.118408,18.858189 147.948517,18.242508 
	C150.783112,16.140146 153.746262,14.211141 156.961853,12.029324 
	C163.658905,13.431882 165.392258,18.866613 167.079269,24.516809 
	C166.525864,24.957317 166.265213,24.979134 165.713013,25.274651 
	C165.280655,28.032164 165.139847,30.515980 164.666214,33.000153 
	C163.890015,33.000683 163.446655,33.000847 162.749832,33.001621 
	C162.327377,33.002998 162.158401,33.003761 161.702682,33.281212 
	C161.277084,36.038651 161.138245,38.519402 160.617691,41.043716 
	C158.225479,42.024448 154.919617,42.545345 154.458466,43.980392 
	C153.288910,47.619900 151.552872,49.716587 147.776367,50.340427 
	C147.101425,50.451927 146.678253,51.821156 146.051178,52.532379 
	C142.171768,56.932446 138.290100,61.331268 134.332718,65.660606 
	C133.972351,66.054832 132.989243,65.809586 132.443085,66.120689 
	C131.630219,66.583710 130.409470,67.194092 130.301544,67.887871 
	C129.703918,71.729729 127.596588,73.719231 123.798317,74.327805 
	C123.121231,74.436287 122.703674,75.817261 122.052727,76.502853 
	C120.268478,78.382095 118.422333,80.202538 116.603539,82.049057 
	C115.746063,82.919609 114.857384,83.763130 114.047585,84.676323 
	C110.254219,88.954086 107.213760,94.644905 102.485153,97.124107 
	C98.320244,99.307777 97.793991,101.390717 97.543571,104.997009 
	C93.723541,104.997551 90.361771,104.996315 87.000000,104.564468 
	C87.023361,96.354759 87.212227,96.106033 94.696899,94.317093 
	C94.528473,89.135849 97.369270,86.596642 102.766396,86.662827 
	C102.441246,80.908676 105.629105,78.716522 110.842598,78.571304 
	C110.327888,72.667702 113.897217,70.850525 118.830261,70.477646 
	C118.650650,67.138390 120.699760,63.121300 114.997444,62.654636 
	C114.982765,61.850609 114.968506,61.390858 114.987610,60.610165 
	C114.751305,59.181347 114.481644,58.073467 114.211990,56.965588 
	C114.174492,56.535347 114.137001,56.105103 114.469360,55.281616 
	C114.576645,53.916420 114.314064,52.944473 114.051491,51.972523 
	C114.051491,51.972523 113.995186,51.989571 114.122345,51.768532 
	C114.412811,51.278717 114.641861,51.089561 114.936653,50.980034 
z"/>
<path fill="#5380A8" opacity="1.000000" stroke="none" 
	d="
M114.094154,57.392540 
	C114.481644,58.073467 114.751305,59.181347 114.524338,60.621986 
	C100.680809,60.963528 87.333923,60.972309 73.987030,60.981091 
	C59.212074,60.970421 44.437119,60.959755 29.170307,60.896637 
	C33.054653,60.303223 37.427677,59.326538 41.807590,59.294598 
	C64.104858,59.131977 86.404045,59.245098 108.702080,59.150040 
	C110.462021,59.142536 112.218323,58.283028 114.094154,57.392540 
z"/>
<path fill="#3770A1" opacity="1.000000" stroke="none" 
	d="
M60.070518,22.005405 
	C60.395401,28.442755 60.812595,34.821426 60.972767,41.206547 
	C61.227993,51.380871 59.636765,49.854706 69.601448,49.989628 
	C73.086899,50.036827 76.573563,49.995125 80.527672,49.991604 
	C80.995674,49.989189 81.017151,50.013126 81.016006,50.306458 
	C80.996475,50.977531 80.978104,51.355282 80.959724,51.733028 
	C73.942230,51.462009 66.924736,51.190990 59.811974,50.211754 
	C59.645226,49.277386 59.573738,49.051243 59.502243,48.825096 
	C59.524853,41.235950 59.547462,33.646809 59.733681,25.228432 
	C59.907894,23.590458 59.918503,22.781715 59.929108,21.972975 
	C59.929108,21.972975 60.047512,21.949619 60.070518,22.005405 
z"/>
<path fill="#5380A8" opacity="1.000000" stroke="none" 
	d="
M81.430801,51.744930 
	C80.978104,51.355282 80.996475,50.977531 81.027756,50.317139 
	C92.145088,50.158245 103.249535,50.282001 114.645309,50.692894 
	C114.641861,51.089561 114.412811,51.278717 114.143784,51.748203 
	C103.325996,51.884884 92.613945,51.820858 81.430801,51.744930 
z"/>
<path fill="#F1F8FA" opacity="1.000000" stroke="none" 
	d="
M5.424794,82.083755 
	C5.395121,83.275139 5.009876,84.563019 4.379630,86.091309 
	C4.446160,84.947899 4.757692,83.564079 5.424794,82.083755 
z"/>
<path fill="#5380A8" opacity="1.000000" stroke="none" 
	d="
M114.034943,52.357754 
	C114.314064,52.944473 114.576645,53.916420 114.527496,54.961525 
	C114.149971,54.270782 114.084183,53.506882 114.034943,52.357754 
z"/>
<path fill="#A1B7D6" opacity="1.000000" stroke="none" 
	d="
M59.739059,22.195284 
	C59.918503,22.781715 59.907894,23.590458 59.726288,24.769827 
	C59.553196,24.232834 59.551102,23.325214 59.739059,22.195284 
z"/>
<path fill="#A1B7D6" opacity="1.000000" stroke="none" 
	d="
M59.366409,48.967476 
	C59.573738,49.051243 59.645226,49.277386 59.596416,49.838772 
	C59.364826,49.947029 59.229645,49.727726 59.153069,49.489574 
	C59.118603,49.382389 59.201126,49.237591 59.366409,48.967476 
z"/>
<path fill="#FFD546" opacity="1.000000" stroke="none" 
	d="
M112.970978,175.097397 
	C113.042824,183.592545 112.687805,184.103027 105.480713,185.478271 
	C104.926575,189.160599 104.236031,192.960281 99.141090,193.256760 
	C98.398338,193.299988 97.267258,194.733994 97.128845,195.647629 
	C96.633194,198.919266 94.184464,199.629272 91.852737,201.292908 
	C88.005341,204.037918 85.934669,208.782181 81.325508,211.354767 
	C79.237808,212.520004 78.918892,216.854263 77.835709,220.088730 
	C77.097061,220.117874 76.320274,219.809174 75.028046,219.285645 
	C74.344284,219.072571 74.175949,219.074295 74.007622,219.076004 
	C74.007622,219.076004 73.622566,218.919525 73.231567,218.649414 
	C71.901337,217.900101 70.962112,217.420914 70.022896,216.941727 
	C69.259750,216.395370 68.496597,215.849014 67.282745,215.318832 
	C66.832039,215.335007 66.635269,215.045471 66.635269,215.045471 
	C66.364601,214.442322 66.093933,213.839188 65.395737,212.784576 
	C64.335571,211.828125 63.702923,211.323135 63.070274,210.818146 
	C62.725979,210.088196 62.381683,209.358261 61.814720,208.090714 
	C61.039364,206.884842 60.486671,206.216583 59.933979,205.548309 
	C59.666332,204.274414 59.398685,203.000504 59.391254,201.071777 
	C59.772175,198.944092 59.892887,197.471207 60.337246,195.953583 
	C60.769192,194.936172 60.877487,193.963516 60.987793,192.537323 
	C60.993248,189.055862 60.996700,186.027939 61.389839,183.087097 
	C62.186424,185.000793 62.966404,186.837341 62.917992,188.651794 
	C62.832676,191.849442 63.773033,193.805252 67.219620,193.979218 
	C70.605904,194.150101 73.406357,193.894379 74.162827,189.495575 
	C74.447548,187.839920 76.430939,186.356033 77.867188,185.042297 
	C81.542374,181.680618 83.558517,176.518631 88.831978,174.868561 
	C88.973869,174.824158 88.833511,174.145020 89.020020,173.936447 
	C92.774590,169.737579 96.545097,165.552628 100.361427,161.410049 
	C100.643150,161.104233 101.444275,161.293976 101.754463,160.994736 
	C105.528763,157.353760 109.262451,153.670456 112.978004,149.969376 
	C113.167549,149.780563 112.975449,149.208740 113.164970,149.019775 
	C117.165451,145.031326 121.182739,141.059326 125.245644,137.134720 
	C125.537697,136.852615 126.270836,137.080490 126.682556,136.856979 
	C127.376457,136.480270 128.499863,135.966492 128.534225,135.449951 
	C128.809799,131.307968 128.872299,127.151817 129.000000,122.579376 
	C129.001755,120.479980 129.003494,118.801224 129.468094,117.065506 
	C134.626724,116.949219 139.322495,116.889877 144.258347,116.876549 
	C144.498428,116.922554 144.978729,116.831322 145.319427,116.886978 
	C146.116669,116.905525 146.573242,116.868401 147.328186,116.838745 
	C147.937668,116.617050 148.248764,116.387878 148.906403,116.229439 
	C150.179962,116.152199 151.106995,116.004234 152.353424,115.900894 
	C153.245224,115.679764 153.817596,115.414009 154.551208,115.170364 
	C154.712433,115.192474 154.994370,115.029823 155.305115,114.988571 
	C155.925995,114.679008 156.236099,114.410698 156.883575,114.159912 
	C158.477203,113.695168 159.733505,113.212898 161.260712,112.674179 
	C162.007767,112.074318 162.483887,111.530914 163.260132,110.884140 
	C164.731949,109.582970 165.903625,108.385162 167.338074,107.041420 
	C168.066254,106.264885 168.531677,105.634285 168.998856,105.001999 
	C169.000610,105.000305 169.003494,104.995430 169.195374,104.904083 
	C169.669647,104.631699 169.753723,104.383507 169.757172,103.789070 
	C169.905197,103.310341 169.935562,103.110710 170.241882,102.742416 
	C171.000504,101.381218 171.483139,100.188675 172.127899,98.665779 
	C172.659225,96.915970 173.028458,95.496529 173.578903,93.863976 
	C173.823517,93.099411 173.886917,92.547958 174.060959,91.654968 
	C174.271988,90.603386 174.372360,89.893341 174.652008,88.804367 
	C174.829666,79.948372 174.828064,71.471313 174.826462,62.994251 
	C174.882446,62.821613 174.938446,62.648975 175.314606,62.107304 
	C176.089203,61.492889 176.543625,61.247513 177.088226,61.398621 
	C183.003510,62.435059 188.828644,63.075008 194.653763,63.714954 
	C194.701279,63.142563 194.748795,62.570168 194.796310,61.997776 
	C189.059998,59.833992 182.910599,61.548283 176.897339,60.749607 
	C176.276627,60.017582 175.761002,59.533760 175.211548,58.799911 
	C175.159485,58.382675 175.141235,58.215462 175.123001,58.048252 
	C179.445068,58.057533 183.790558,58.361202 188.084747,58.019791 
	C200.009491,57.071690 209.365891,61.277130 215.780884,71.598068 
	C207.928558,73.137604 207.291916,82.119476 201.047073,84.796890 
	C200.797073,84.904060 200.995682,85.825005 200.740692,86.200851 
	C200.190689,87.011497 199.549393,88.286560 198.826813,88.372360 
	C191.544205,89.237152 193.154816,95.233643 191.882324,99.713516 
	C191.421570,101.335663 189.883469,102.947533 188.413788,103.932938 
	C183.653061,107.124969 181.114410,112.628937 176.099075,115.510635 
	C175.935364,115.604706 176.159241,116.269875 175.980606,116.456764 
	C172.338531,120.266808 167.844070,123.269371 165.118073,127.952034 
	C165.071625,128.031860 164.771378,127.926979 164.638458,127.998787 
	C159.545227,130.750168 157.481674,136.851730 152.134567,139.356873 
	C151.908005,139.463028 152.209671,140.454834 151.947739,140.770828 
	C151.011795,141.899887 149.963669,143.794113 148.913498,143.823792 
	C144.012543,143.962265 144.809067,148.037186 143.287491,150.715591 
	C141.824600,153.290726 136.225571,151.031509 136.026703,156.001083 
	C136.013397,156.333862 136.008713,156.667023 135.771423,157.171356 
	C136.028366,157.895157 136.513870,158.447571 136.983246,159.415558 
	C135.743057,160.553467 134.545212,161.841019 133.290344,161.899216 
	C128.158966,162.137192 123.009804,162.035812 117.867966,161.983551 
	C115.705658,161.961594 113.748047,162.012756 114.000046,165.293030 
	C113.996162,166.166458 113.992241,166.746841 113.988312,167.327240 
	C113.671402,169.270966 113.354492,171.214676 113.035881,173.856110 
	C113.013115,174.735016 112.992043,174.916199 112.970978,175.097397 
z"/>
<path fill="#FFD141" opacity="1.000000" stroke="none" 
	d="
M114.000000,165.000000 
	C113.748047,162.012756 115.705658,161.961594 117.867966,161.983551 
	C123.009804,162.035812 128.158966,162.137192 133.290344,161.899216 
	C134.545212,161.841019 135.743057,160.553467 136.962830,159.117706 
	C136.639038,157.936188 136.319519,157.468094 136.000000,157.000000 
	C136.008713,156.667023 136.013397,156.333862 136.026703,156.001083 
	C136.225571,151.031509 141.824600,153.290726 143.287491,150.715591 
	C144.809067,148.037186 144.012543,143.962265 148.913498,143.823792 
	C149.963669,143.794113 151.011795,141.899887 151.947739,140.770828 
	C152.209671,140.454834 151.908005,139.463028 152.134567,139.356873 
	C157.481674,136.851730 159.545227,130.750168 164.638458,127.998787 
	C164.771378,127.926979 165.071625,128.031860 165.118073,127.952034 
	C167.844070,123.269371 172.338531,120.266808 175.980606,116.456764 
	C176.159241,116.269875 175.935364,115.604706 176.099075,115.510635 
	C181.114410,112.628937 183.653061,107.124969 188.413788,103.932938 
	C189.883469,102.947533 191.421570,101.335663 191.882324,99.713516 
	C193.154816,95.233643 191.544205,89.237152 198.826813,88.372360 
	C199.549393,88.286560 200.190689,87.011497 200.740692,86.200851 
	C200.995682,85.825005 200.797073,84.904060 201.047073,84.796890 
	C207.291916,82.119476 207.928558,73.137604 215.898468,71.930313 
	C216.889069,72.713165 217.460785,73.535423 217.769150,74.876617 
	C217.669785,76.931290 217.833755,78.467018 217.831329,80.089844 
	C217.601547,80.283478 217.460098,80.450516 217.487915,80.486435 
	C217.632370,80.672913 217.819992,80.825958 218.000488,81.369186 
	C217.672256,89.498077 217.336136,97.248428 217.000000,104.998779 
	C217.000000,104.998779 217.000000,105.000000 216.579636,105.000137 
	C212.377518,104.795059 209.140564,105.089302 208.783661,110.149796 
	C208.711945,111.166801 206.569473,112.123100 205.282593,112.953735 
	C200.649506,115.944244 198.574020,121.745010 193.204102,123.929749 
	C193.043716,123.995003 193.200851,124.661362 193.012527,124.863792 
	C189.264236,128.892258 185.907333,133.469437 181.539291,136.659515 
	C179.328964,138.273773 178.272919,140.144867 176.686295,141.831207 
	C173.189056,145.548233 169.717239,149.548859 165.782104,152.659973 
	C163.593369,154.390396 161.224823,154.874176 160.821304,158.280350 
	C160.661133,159.632431 158.706757,161.667038 157.371353,161.837097 
	C149.673981,162.817398 141.902771,163.210678 134.196381,164.134827 
	C133.026627,164.275085 132.064713,166.148376 131.006668,167.220062 
	C130.559113,167.264786 130.111542,167.309494 129.291718,166.877213 
	C126.695091,165.642502 124.506981,164.424744 122.237045,164.245956 
	C119.527962,164.032578 116.748802,164.709030 114.000000,165.000000 
z"/>
<path fill="#FED043" opacity="1.000000" stroke="none" 
	d="
M131.437317,167.285583 
	C132.064713,166.148376 133.026627,164.275085 134.196381,164.134827 
	C141.902771,163.210678 149.673981,162.817398 157.371353,161.837097 
	C158.706757,161.667038 160.661133,159.632431 160.821304,158.280350 
	C161.224823,154.874176 163.593369,154.390396 165.782104,152.659973 
	C169.717239,149.548859 173.189056,145.548233 176.686295,141.831207 
	C178.272919,140.144867 179.328964,138.273773 181.539291,136.659515 
	C185.907333,133.469437 189.264236,128.892258 193.012527,124.863792 
	C193.200851,124.661362 193.043716,123.995003 193.204102,123.929749 
	C198.574020,121.745010 200.649506,115.944244 205.282593,112.953735 
	C206.569473,112.123100 208.711945,111.166801 208.783661,110.149796 
	C209.140564,105.089302 212.377518,104.795059 216.579025,105.000137 
	C217.205414,108.996780 216.566132,111.428238 211.949142,113.670044 
	C207.397934,115.879906 204.660507,121.665512 200.859634,125.625366 
	C197.058594,129.585403 192.848740,133.150391 188.977188,137.046661 
	C187.432312,138.601410 185.946808,140.425507 185.111664,142.411789 
	C184.379822,144.152435 184.400436,146.294754 184.431366,148.254242 
	C184.512756,153.407852 178.841446,151.374832 177.163223,154.229370 
	C175.654526,156.795486 175.990738,159.695618 171.945389,161.630539 
	C166.389313,164.288025 161.314438,164.595428 155.688828,164.043152 
	C154.998596,163.975388 154.265228,164.347122 152.105637,164.855881 
	C155.274796,165.801529 157.009201,166.319061 158.420105,167.252533 
	C151.052399,167.740906 144.008194,167.813309 136.964005,167.885712 
	C135.265335,167.707504 133.566650,167.529297 131.437317,167.285583 
z"/>
<path fill="#FEFDFA" opacity="1.000000" stroke="none" 
	d="
M137.027405,168.230896 
	C144.008194,167.813309 151.052399,167.740906 158.552490,167.576447 
	C162.039169,167.579391 165.069977,167.674408 168.551056,167.842499 
	C167.139755,168.825272 165.286804,170.492035 163.415146,170.513336 
	C155.397537,170.604477 147.372986,170.247742 139.355606,169.934845 
	C138.584167,169.904739 137.844971,169.048706 137.027405,168.230896 
z"/>
<path fill="#FED043" opacity="1.000000" stroke="none" 
	d="
M114.000046,165.293030 
	C116.748802,164.709030 119.527962,164.032578 122.237045,164.245956 
	C124.506981,164.424744 126.695091,165.642502 128.960114,166.806152 
	C124.292351,167.350235 119.583916,167.488403 114.431892,167.476898 
	C113.992241,166.746841 113.996162,166.166458 114.000046,165.293030 
z"/>
<path fill="#FFFAF8" opacity="1.000000" stroke="none" 
	d="
M113.231689,175.148651 
	C112.992043,174.916199 113.013115,174.735016 113.099670,174.288177 
	C113.462288,174.157043 113.690277,174.366730 113.931244,174.873383 
	C113.839714,175.130081 113.666054,175.164993 113.231689,175.148651 
z"/>
<path fill="#3774A7" opacity="1.000000" stroke="none" 
	d="
M73.924759,61.360256 
	C87.333923,60.972309 100.680809,60.963528 114.490982,60.942924 
	C114.968506,61.390858 114.982765,61.850609 114.583099,62.707817 
	C110.237862,63.404537 106.310402,63.848892 102.373917,63.953667 
	C99.604469,64.027382 98.411087,64.891930 97.817825,67.860992 
	C97.368942,70.107506 95.462227,72.248901 93.769592,74.022125 
	C90.206917,77.754440 86.316376,81.171257 82.638359,84.796654 
	C78.032959,89.336151 73.488869,93.938431 68.961983,98.556419 
	C68.221458,99.311859 67.705765,100.287704 67.086159,101.161674 
	C68.057442,101.774040 69.028717,102.386414 70.250229,102.999222 
	C70.667274,102.999748 70.834099,102.999832 70.946259,103.349915 
	C69.145081,104.781044 67.012184,107.124519 65.717827,106.728348 
	C59.578621,104.849304 59.713783,110.308830 57.004383,112.787659 
	C54.121616,115.425117 49.492363,116.082542 49.960155,121.447853 
	C50.051853,122.499603 49.631752,123.595985 49.331932,125.348457 
	C45.377373,121.981613 42.875774,122.898399 41.215626,127.096733 
	C40.825989,128.082077 39.596302,128.727585 38.774815,129.551117 
	C34.317677,134.019302 29.953899,138.585342 25.381193,142.931686 
	C22.771723,145.411987 20.059647,147.997040 16.916948,149.600235 
	C15.638414,150.252457 13.133922,148.101883 11.110742,147.856033 
	C10.036939,147.725555 8.799459,148.942032 7.635867,149.550461 
	C7.635866,149.550461 7.588011,149.411255 7.703422,148.997604 
	C7.429170,148.086655 7.039507,147.589371 6.649844,147.092072 
	C5.111307,141.329071 3.572770,135.566086 2.096601,129.403351 
	C2.791270,128.192993 3.700408,127.475136 4.008487,126.555855 
	C5.427091,122.322807 6.678069,118.033592 7.994451,113.382111 
	C9.666301,112.997910 11.334740,112.945061 12.999011,113.005997 
	C15.675866,113.104012 17.137310,111.971367 16.987450,109.188438 
	C16.828932,106.244698 18.125607,104.821022 21.120720,104.991417 
	C23.867189,105.147675 25.146488,103.782196 24.993179,101.070969 
	C24.821770,98.039612 26.385773,97.203140 29.214415,96.822670 
	C30.598923,96.636444 32.670010,94.730263 32.804253,93.434120 
	C33.125271,90.334625 34.140781,89.101334 37.338207,88.810448 
	C38.650906,88.691017 40.694241,86.636429 40.811634,85.320007 
	C41.098316,82.105171 42.371807,81.130867 45.452084,80.802719 
	C46.745724,80.664902 48.640034,78.584129 48.823841,77.196266 
	C49.200459,74.352562 50.070797,72.821800 53.089577,72.991974 
	C55.810127,73.145340 57.254726,71.829666 56.966389,69.105453 
	C56.490219,64.606712 58.937111,64.020103 62.710133,63.877304 
	C66.457565,63.735474 70.812164,65.775047 73.924759,61.360256 
z"/>
<path fill="#3871A1" opacity="1.000000" stroke="none" 
	d="
M7.713848,149.870575 
	C8.799459,148.942032 10.036939,147.725555 11.110742,147.856033 
	C13.133922,148.101883 15.638414,150.252457 16.916948,149.600235 
	C20.059647,147.997040 22.771723,145.411987 25.381193,142.931686 
	C29.953899,138.585342 34.317677,134.019302 38.774815,129.551117 
	C39.596302,128.727585 40.825989,128.082077 41.215626,127.096733 
	C42.875774,122.898399 45.377373,121.981613 49.331932,125.348457 
	C49.631752,123.595985 50.051853,122.499603 49.960155,121.447853 
	C49.492363,116.082542 54.121616,115.425117 57.004383,112.787659 
	C59.713783,110.308830 59.578621,104.849304 65.717827,106.728348 
	C67.012184,107.124519 69.145081,104.781044 71.321533,103.340317 
	C72.537918,102.036804 73.324379,101.092888 74.110840,100.148972 
	C73.432587,99.747215 72.754333,99.345459 72.076080,98.943703 
	C71.384056,100.295395 70.692024,101.647087 70.000000,102.998779 
	C69.028717,102.386414 68.057442,101.774040 67.086159,101.161674 
	C67.705765,100.287704 68.221458,99.311859 68.961983,98.556419 
	C73.488869,93.938431 78.032959,89.336151 82.638359,84.796654 
	C86.316376,81.171257 90.206917,77.754440 93.769592,74.022125 
	C95.462227,72.248901 97.368942,70.107506 97.817825,67.860992 
	C98.411087,64.891930 99.604469,64.027382 102.373917,63.953667 
	C106.310402,63.848892 110.237862,63.404537 114.583519,63.052094 
	C120.699760,63.121300 118.650650,67.138390 118.830261,70.477646 
	C113.897217,70.850525 110.327888,72.667702 110.842598,78.571304 
	C105.629105,78.716522 102.441246,80.908676 102.766396,86.662827 
	C97.369270,86.596642 94.528473,89.135849 94.696899,94.317093 
	C87.212227,96.106033 87.023361,96.354759 86.571564,104.566055 
	C84.428848,104.999138 82.714577,105.000023 80.936806,104.649582 
	C77.768379,101.474968 76.797478,103.704544 76.380768,106.368774 
	C76.196243,107.548561 76.791382,108.850304 76.952309,110.280594 
	C76.872025,110.464508 76.730347,110.840019 76.429016,110.820099 
	C75.744545,110.916290 75.361397,111.032402 74.641418,111.106857 
	C73.741829,111.356766 73.179070,111.648346 72.483856,111.994766 
	C72.184479,112.150558 72.048882,112.283470 71.918747,112.462311 
	C71.892899,112.476273 71.834152,112.475212 71.688118,112.363617 
	C71.542084,112.252022 71.180023,112.315529 71.006348,112.214073 
	C70.558769,112.106049 70.292091,112.146851 69.785187,112.177139 
	C69.346207,112.380936 69.154686,112.642616 68.592911,112.959808 
	C65.502815,114.049721 62.782982,115.084122 59.840370,115.832687 
	C55.198097,115.362938 52.474213,117.673637 52.003548,122.418106 
	C51.075066,127.586281 49.260410,132.346130 52.030510,137.080353 
	C51.997974,137.073929 51.995312,137.007660 51.699142,137.300659 
	C51.268440,143.353867 50.988914,149.115524 51.046532,154.873810 
	C51.090397,159.257538 51.562328,163.636993 51.930157,167.976105 
	C52.016502,167.933853 52.208134,167.949280 52.208134,167.949280 
	C41.603298,168.992935 31.175354,170.957336 20.916473,164.976273 
	C14.614710,161.302261 10.864992,156.269409 7.713848,149.870575 
M80.129074,97.784950 
	C80.893974,95.829102 81.658867,93.873245 82.423767,91.917397 
	C81.761948,91.531082 81.100136,91.144760 80.438316,90.758438 
	C78.546646,92.717598 76.654984,94.676758 73.799011,97.634636 
	C76.824417,97.803543 78.082474,97.873779 80.129074,97.784950 
M86.732254,84.140236 
	C85.461220,85.751434 84.190193,87.362625 82.277878,89.786720 
	C85.210770,89.786720 87.138573,90.357185 87.959122,89.647476 
	C89.074623,88.682663 89.461472,86.768120 89.848557,85.184540 
	C89.906326,84.948235 88.259949,84.295364 86.732254,84.140236 
M93.007210,77.536247 
	C92.375069,78.759834 91.742920,79.983429 91.032700,81.358139 
	C97.659561,82.490623 98.489868,81.660698 97.357651,75.034241 
	C95.994720,75.737862 94.765266,76.372574 93.007210,77.536247 
M100.990669,73.976402 
	C102.497833,73.532120 104.301361,73.438499 105.399544,72.510323 
	C106.044785,71.964973 105.890495,69.962273 105.450447,68.876694 
	C105.253372,68.390526 102.762138,68.111458 102.532700,68.486061 
	C101.524704,70.131836 100.962616,72.050705 100.990669,73.976402 
M60.760365,112.855461 
	C61.096886,112.247574 61.433407,111.639679 61.769928,111.031784 
	C61.391846,110.863739 61.013763,110.695694 60.635681,110.527649 
	C60.473839,111.295662 60.311996,112.063667 60.760365,112.855461 
z"/>
<path fill="#FFDD4F" opacity="1.000000" stroke="none" 
	d="
M59.004780,144.001709 
	C59.326599,141.278015 59.648415,138.554321 60.272820,135.245148 
	C61.389366,132.792587 62.203335,130.925507 63.242294,128.944061 
	C63.633545,128.554947 63.799801,128.280182 64.165611,127.781921 
	C65.300529,126.526382 66.235886,125.494331 67.487717,124.332390 
	C69.217354,123.140808 70.630508,122.079117 72.356232,120.939865 
	C73.456367,120.525520 74.243919,120.188751 75.298325,119.825272 
	C75.835159,119.571877 76.105133,119.345192 76.668121,119.108376 
	C77.327034,118.965164 77.692940,118.832092 78.291290,118.784256 
	C78.523743,118.869507 78.990265,119.035515 79.060753,119.271530 
	C79.335091,119.833763 79.621910,119.943855 80.349686,119.890961 
	C81.918549,119.007896 83.129410,118.071678 84.712326,117.154488 
	C86.073372,117.169670 87.062355,117.165817 88.256790,117.487167 
	C93.308662,118.208244 98.155090,118.604118 103.007095,119.382225 
	C103.156197,120.404007 103.178276,121.104149 103.462334,121.673607 
	C105.901382,126.563240 105.399292,127.469681 99.972145,129.119110 
	C98.827164,129.467087 97.270988,130.823914 97.176086,131.835220 
	C96.853699,135.270676 94.099442,135.617233 92.156303,137.345215 
	C88.380760,140.702698 84.470825,144.285660 81.342827,148.197006 
	C79.624451,150.345718 79.170967,152.862671 75.768684,153.183350 
	C74.775787,153.276962 73.300758,154.932205 73.142540,156.029648 
	C72.513199,160.395111 70.519737,161.839157 66.300507,160.262329 
	C64.614883,159.632385 62.776703,159.410629 61.005089,158.539337 
	C60.675861,153.726471 60.349510,149.377289 59.913979,144.803070 
	C59.602985,144.295898 59.336311,144.103790 59.004780,144.001709 
z"/>
<path fill="#FEFEFE" opacity="1.000000" stroke="none" 
	d="
M67.171249,124.462280 
	C66.235886,125.494331 65.300529,126.526382 63.946857,127.895340 
	C63.258476,128.445953 63.088058,128.721359 63.017300,129.058441 
	C62.203335,130.925507 61.389366,132.792587 60.292580,134.843079 
	C59.840363,134.464462 59.670971,133.902420 59.253529,132.833923 
	C59.003456,131.882339 59.001438,131.437195 58.999420,130.992065 
	C58.999420,130.992065 58.999252,130.499191 59.218697,130.144760 
	C59.712151,129.592133 59.902409,129.332565 60.149094,128.954269 
	C60.188892,128.928284 60.088516,128.959656 59.770226,129.102051 
	C59.281139,129.415543 59.094929,129.678268 58.993675,130.001221 
	C58.993675,130.001221 58.497753,130.000534 58.108265,129.707352 
	C57.590084,128.230545 56.897121,126.483406 57.424679,125.955154 
	C60.739140,122.636253 64.406013,119.671242 67.761589,116.390022 
	C68.547142,115.621872 68.582596,114.086617 68.963165,112.904297 
	C69.154686,112.642616 69.346207,112.380936 69.952164,112.345856 
	C70.366600,112.572464 70.836311,112.644142 70.836311,112.644142 
	C70.836311,112.644142 71.180023,112.315529 71.180023,112.315529 
	C71.180023,112.315529 71.542084,112.252022 71.500816,112.529175 
	C71.621231,112.687004 71.782913,112.567673 71.944603,112.448341 
	C72.048882,112.283470 72.184479,112.150558 72.817780,112.007889 
	C73.848854,111.693611 74.413551,111.421066 74.978249,111.148514 
	C75.361397,111.032402 75.744545,110.916290 76.745293,111.060478 
	C77.978371,115.442589 80.741531,115.463081 83.063118,114.931030 
	C82.395058,113.392166 81.698387,111.787415 81.464767,110.105042 
	C100.294426,109.964325 118.661018,109.901237 136.986008,109.918701 
	C136.944397,109.999260 136.943405,110.180595 137.003799,110.459366 
	C137.390472,111.028725 137.716751,111.319305 138.043030,111.609886 
	C138.363571,111.127274 138.684113,110.644661 139.375183,110.086548 
	C140.500320,110.008682 141.254944,110.006310 142.379791,110.013763 
	C143.489731,110.026253 144.229462,110.028931 144.979736,110.422119 
	C145.560852,111.794617 146.131409,112.776596 146.701981,113.758568 
	C147.104111,113.300713 147.506241,112.842865 147.908386,112.385017 
	C146.949478,111.579704 145.990555,110.774391 145.026566,109.690506 
	C145.017960,109.039711 145.014435,108.667473 145.379211,108.183914 
	C146.514893,108.088814 147.282303,108.105026 148.212952,108.334122 
	C148.918304,108.094254 149.460419,107.641502 150.263519,107.125610 
	C151.232773,107.082985 151.941040,107.103485 152.833160,107.515511 
	C154.368164,108.201035 156.620270,109.129120 156.929428,108.689827 
	C159.671494,104.793533 165.197968,102.610405 164.843414,96.774170 
	C165.026505,96.903152 164.650269,96.662132 164.987885,96.734680 
	C165.725403,96.613510 166.125305,96.419785 166.525208,96.226059 
	C166.194489,95.760872 165.863754,95.295692 165.624969,94.598053 
	C165.716934,94.365585 166.063736,94.005409 166.406219,93.945343 
	C167.070480,92.223137 167.392273,90.560989 167.736115,88.459526 
	C167.993149,85.682426 168.228104,83.344650 168.861755,81.007439 
	C171.818985,80.722786 173.142014,81.528419 173.090897,84.442101 
	C173.063324,86.013931 173.981339,87.602356 174.472748,89.183296 
	C174.372360,89.893341 174.271988,90.603386 173.691681,91.656708 
	C172.127716,92.367714 171.043701,92.735435 169.959671,93.103157 
	C170.052673,93.427803 170.145691,93.752441 170.238693,94.077087 
	C171.291702,94.077087 172.344696,94.077087 173.397690,94.077087 
	C173.028458,95.496529 172.659225,96.915970 171.784561,98.672508 
	C167.581543,99.212860 170.333557,101.586998 169.965912,102.911079 
	C169.935562,103.110710 169.905197,103.310341 169.606445,103.908035 
	C169.160782,104.503944 169.049271,104.733719 169.003494,104.995430 
	C169.003494,104.995430 169.000610,105.000305 168.664261,105.048447 
	C167.910385,105.793518 167.492844,106.490440 167.075302,107.187363 
	C165.903625,108.385162 164.731949,109.582970 162.963287,110.917587 
	C161.907471,111.613152 161.448624,112.171883 160.989792,112.730621 
	C159.733505,113.212898 158.477203,113.695168 156.566650,114.195526 
	C155.606369,114.485680 155.300369,114.757751 154.994370,115.029823 
	C154.994370,115.029823 154.712433,115.192474 154.219330,115.135445 
	C153.162140,115.337700 152.598083,115.596985 152.034012,115.856270 
	C151.106995,116.004234 150.179962,116.152199 148.610489,116.241348 
	C147.655289,116.398788 147.342545,116.615028 147.029800,116.831276 
	C146.573242,116.868401 146.116669,116.905525 145.227646,116.747566 
	C144.460541,116.361328 144.201569,116.454010 144.018265,116.830544 
	C139.322495,116.889877 134.626724,116.949219 129.025024,117.004105 
	C125.735374,117.046326 123.351646,117.092995 120.590485,117.017075 
	C109.492485,116.983650 98.771912,117.072807 88.051346,117.161972 
	C87.062355,117.165817 86.073372,117.169670 84.298744,117.110626 
	C82.339310,117.977760 81.165504,118.907791 79.991699,119.837814 
	C79.621910,119.943855 79.335091,119.833763 79.007721,119.103989 
	C78.609085,118.699966 78.333969,118.699493 78.058846,118.699020 
	C77.692940,118.832092 77.327034,118.965164 76.395905,119.133965 
	C75.564270,119.397118 75.297874,119.624550 75.031471,119.851974 
	C74.243919,120.188751 73.456367,120.525520 71.932770,120.932083 
	C68.755203,120.876076 66.459015,120.919350 67.171249,124.462280 
M153.483109,113.592026 
	C153.483109,113.592026 153.413086,113.476601 153.483109,113.592026 
M73.407555,117.482048 
	C73.407555,117.482048 73.523911,117.411438 73.407555,117.482048 
z"/>
<path fill="#F9FAF6" opacity="1.000000" stroke="none" 
	d="
M68.592911,112.959808 
	C68.582596,114.086617 68.547142,115.621872 67.761589,116.390022 
	C64.406013,119.671242 60.739140,122.636253 57.424679,125.955154 
	C56.897121,126.483406 57.590084,128.230545 57.860306,129.707092 
	C56.922741,130.332306 55.843651,130.664612 54.404327,130.624146 
	C55.750309,126.186241 57.456520,122.121132 59.422234,117.924286 
	C59.808876,117.234543 59.936012,116.676537 60.063152,116.118515 
	C62.782982,115.084122 65.502815,114.049721 68.592911,112.959808 
z"/>
<path fill="#F9FAF6" opacity="1.000000" stroke="none" 
	d="
M52.696415,136.881134 
	C53.280632,137.620026 54.372845,138.360397 54.370701,139.097580 
	C54.348648,146.700668 54.035469,154.303864 54.077591,161.905533 
	C54.088596,163.891815 55.051601,165.872803 55.720417,168.395798 
	C54.792862,168.288589 53.837128,168.178116 52.544765,168.008469 
	C52.208134,167.949280 52.016502,167.933853 52.007866,167.511917 
	C51.997921,157.062546 51.996616,147.035095 51.995312,137.007660 
	C51.995312,137.007660 51.997974,137.073929 52.182625,137.009918 
	C52.367271,136.945892 52.696415,136.881134 52.696415,136.881134 
z"/>
<path fill="#F5DC34" opacity="1.000000" stroke="none" 
	d="
M58.946114,144.467255 
	C59.336311,144.103790 59.602985,144.295898 59.902313,145.268280 
	C60.012630,161.628021 60.025436,177.297531 60.026142,193.346222 
	C60.013893,194.483063 60.013748,195.240692 60.013596,195.998337 
	C59.892887,197.471207 59.772175,198.944092 59.400009,200.679535 
	C59.039482,199.243408 58.930408,197.544693 58.819290,195.092957 
	C58.753292,193.890289 58.689342,193.440659 58.625393,192.991013 
	C58.712746,176.971603 58.800098,160.952209 58.946114,144.467255 
z"/>
<path fill="#3D77A8" opacity="1.000000" stroke="none" 
	d="
M52.712685,136.511948 
	C52.696415,136.881134 52.367271,136.945892 52.215160,137.016327 
	C49.260410,132.346130 51.075066,127.586281 52.378841,122.408997 
	C54.890209,120.677254 57.026474,119.366638 59.162735,118.056023 
	C57.456520,122.121132 55.750309,126.186241 54.060043,130.628418 
	C54.075985,131.005493 53.856609,131.316116 53.637672,131.725739 
	C53.341515,132.748398 53.264297,133.361435 53.187080,133.974457 
	C53.034367,134.697220 52.881657,135.419998 52.712685,136.511948 
z"/>
<path fill="#F9FAF6" opacity="1.000000" stroke="none" 
	d="
M59.552654,205.718658 
	C60.486671,206.216583 61.039364,206.884842 61.639244,207.829559 
	C60.830734,209.545746 59.975037,210.985489 59.119335,212.425247 
	C58.765072,212.429108 58.410805,212.432983 58.056538,212.436859 
	C58.428131,210.254242 58.799728,208.071625 59.552654,205.718658 
z"/>
<path fill="#F9FAF6" opacity="1.000000" stroke="none" 
	d="
M70.145325,221.036987 
	C71.178383,221.214752 71.856590,221.407867 72.534790,221.600998 
	C72.482559,221.989838 72.430328,222.378677 72.378098,222.767517 
	C71.112595,222.569763 69.847084,222.372009 68.581573,222.174255 
	C68.984543,221.800293 69.387505,221.426331 70.145325,221.036987 
z"/>
<path fill="#FFD546" opacity="1.000000" stroke="none" 
	d="
M81.333496,221.965210 
	C81.275742,221.420395 81.537415,220.958679 81.899544,220.248489 
	C82.000000,220.000000 82.003197,219.995743 82.003197,219.995743 
	C83.290016,219.995743 84.576843,219.995743 87.318054,219.995743 
	C85.118073,220.855469 84.241722,221.197937 83.166870,221.807465 
	C82.529892,222.065796 82.091415,222.057053 81.333496,221.965210 
z"/>
<path fill="#F9FAF6" opacity="1.000000" stroke="none" 
	d="
M66.256226,215.097046 
	C66.635269,215.045471 66.832039,215.335007 66.920334,215.356247 
	C65.769676,216.044754 64.530724,216.712021 63.291771,217.379288 
	C63.133801,217.057297 62.975834,216.735321 62.817863,216.413330 
	C63.837635,215.991760 64.857407,215.570206 66.256226,215.097046 
z"/>
<path fill="#F9FAF6" opacity="1.000000" stroke="none" 
	d="
M70.070602,217.305054 
	C70.962112,217.420914 71.901337,217.900101 73.023773,218.645691 
	C72.177437,218.497528 71.147873,218.082962 70.070602,217.305054 
z"/>
<path fill="#F9FAF6" opacity="1.000000" stroke="none" 
	d="
M63.084888,211.174316 
	C63.702923,211.323135 64.335571,211.828125 65.089615,212.625168 
	C64.507172,212.454971 63.803333,211.992722 63.084888,211.174316 
z"/>
<path fill="#F9FAF6" opacity="1.000000" stroke="none" 
	d="
M58.369179,193.046509 
	C58.689342,193.440659 58.753292,193.890289 58.738792,194.674423 
	C58.477882,194.373276 58.295422,193.737656 58.369179,193.046509 
z"/>
<path fill="#F9FAF6" opacity="1.000000" stroke="none" 
	d="
M58.772144,131.138824 
	C59.001438,131.437195 59.003456,131.882339 59.009090,132.661102 
	C58.856758,132.425018 58.700813,131.855301 58.772144,131.138824 
z"/>
<path fill="#F9FAF6" opacity="1.000000" stroke="none" 
	d="
M53.410522,133.753784 
	C53.264297,133.361435 53.341515,132.748398 53.648247,131.915588 
	C53.796501,132.308228 53.715233,132.920670 53.410522,133.753784 
z"/>
<path fill="#3871A1" opacity="1.000000" stroke="none" 
	d="
M6.698873,147.402100 
	C7.039507,147.589371 7.429170,148.086655 7.727694,148.928131 
	C7.340337,148.752243 7.044119,148.232193 6.698873,147.402100 
z"/>
<path fill="#F9FAF6" opacity="1.000000" stroke="none" 
	d="
M74.073372,219.225937 
	C74.175949,219.074295 74.344284,219.072571 74.725906,219.206055 
	C74.939201,219.341278 74.538528,219.575668 74.538528,219.575668 
	C74.538528,219.575668 74.139122,219.375870 74.073372,219.225937 
z"/>
<path fill="#FED043" opacity="1.000000" stroke="none" 
	d="
M217.997742,80.002754 
	C217.833755,78.467018 217.669785,76.931290 217.777008,75.189835 
	C219.406052,78.600945 220.763901,82.217766 222.152069,86.492455 
	C222.424500,87.425293 222.666595,87.700256 222.908691,87.975220 
	C222.908691,87.975227 223.055817,88.394875 223.038330,88.983383 
	C223.004410,90.059616 222.987991,90.547340 222.748581,91.174812 
	C222.682465,91.874435 222.839325,92.434303 223.123993,93.222961 
	C223.550858,93.621078 223.849915,93.790398 224.148972,93.959717 
	C224.371811,94.763161 224.594635,95.566612 224.783661,96.692421 
	C223.833206,98.017715 222.896194,99.002945 222.004547,100.027641 
	C220.577911,101.667160 219.181381,103.332855 217.386047,104.993134 
	C217.336136,97.248428 217.672256,89.498077 218.002899,81.122284 
	C217.997406,80.496841 217.997742,80.002754 217.997742,80.002754 
z"/>
<path fill="#F9FAF6" opacity="1.000000" stroke="none" 
	d="
M174.652008,88.804367 
	C173.981339,87.602356 173.063324,86.013931 173.090897,84.442101 
	C173.142014,81.528419 171.818985,80.722786 168.762009,80.549820 
	C168.165558,75.059875 168.067520,70.028107 168.058075,64.600739 
	C168.245148,63.134506 168.343628,62.063866 168.442108,60.993225 
	C168.961014,63.492203 169.513031,65.984932 169.986038,68.492577 
	C170.257645,69.932587 170.401169,71.396767 170.602371,72.850075 
	C171.115509,72.866829 171.628662,72.883583 172.141800,72.900337 
	C172.787140,69.669472 173.432465,66.438606 174.452118,63.100998 
	C174.828064,71.471313 174.829666,79.948372 174.652008,88.804367 
z"/>
<path fill="#2F6FA7" opacity="1.000000" stroke="none" 
	d="
M166.004547,25.000952 
	C166.265213,24.979134 166.525864,24.957317 167.176941,24.885815 
	C167.706055,25.383718 167.844742,25.931307 167.655197,27.074766 
	C167.221481,40.114052 167.115982,52.557465 167.006348,65.469147 
	C166.668335,72.289787 166.334473,78.642159 166.000824,84.526207 
	C166.002197,64.372246 166.003372,44.686600 166.004547,25.000952 
z"/>
<path fill="#256991" opacity="1.000000" stroke="none" 
	d="
M167.010498,65.000877 
	C167.115982,52.557465 167.221481,40.114052 167.596588,27.361565 
	C167.966644,27.507381 168.067093,27.962273 168.197861,29.126751 
	C168.300964,30.857468 168.373734,31.878597 168.446518,32.899727 
	C168.381668,41.957939 168.316803,51.016151 168.347031,60.533794 
	C168.343628,62.063866 168.245148,63.134506 167.818329,64.601990 
	C167.489990,64.998833 167.010483,65.000877 167.010498,65.000877 
z"/>
<path fill="#F9FAF6" opacity="1.000000" stroke="none" 
	d="
M174.782593,58.009979 
	C175.141235,58.215462 175.159485,58.382675 175.097717,59.116505 
	C174.941467,60.124641 174.865219,60.566162 174.788956,61.007683 
	C173.530563,60.181438 172.272186,59.355194 171.013794,58.528950 
	C171.166794,58.181942 171.319794,57.834938 171.472794,57.487930 
	C172.462601,57.649189 173.452393,57.810448 174.782593,58.009979 
z"/>
<path fill="#FFD141" opacity="1.000000" stroke="none" 
	d="
M222.971558,91.035057 
	C222.987991,90.547340 223.004410,90.059616 223.040680,89.205719 
	C223.428452,90.287186 223.796371,91.734840 224.156631,93.571106 
	C223.849915,93.790398 223.550858,93.621078 223.123322,92.896225 
	C222.987076,91.905487 222.979309,91.470268 222.971558,91.035057 
z"/>
<path fill="#F9FAF6" opacity="1.000000" stroke="none" 
	d="
M168.619202,32.661240 
	C168.373734,31.878597 168.300964,30.857468 168.310394,29.458389 
	C168.525696,30.194548 168.658783,31.308653 168.619202,32.661240 
z"/>
<path fill="#F6DA3C" opacity="1.000000" stroke="none" 
	d="
M174.885696,61.244858 
	C174.865219,60.566162 174.941467,60.124641 175.131546,59.366531 
	C175.761002,59.533760 176.276627,60.017582 176.896118,60.750702 
	C177.000000,61.000000 176.998047,61.002136 176.998047,61.002136 
	C176.543625,61.247513 176.089203,61.492889 175.400879,61.849106 
	C175.105469,61.800640 175.043945,61.641338 174.885696,61.244858 
z"/>
<path fill="#FECC3B" opacity="1.000000" stroke="none" 
	d="
M222.898224,87.687576 
	C222.666595,87.700256 222.424500,87.425293 222.139465,86.869461 
	C222.360275,86.859047 222.624008,87.129494 222.898224,87.687576 
z"/>
<path fill="#F5FAFB" opacity="1.000000" stroke="none" 
	d="
M92.959518,29.661980 
	C92.384941,34.529087 89.148575,36.370422 85.308250,37.849728 
	C80.274841,39.788616 76.866562,37.199612 74.861221,33.419224 
	C73.553978,30.954851 73.323051,27.266529 74.065842,24.520275 
	C75.188789,20.368473 78.853180,17.985723 83.187057,18.259544 
	C88.590370,18.600933 91.865524,21.924963 93.022552,27.653173 
	C93.052734,28.450195 92.988686,28.889795 92.959518,29.661980 
z"/>
<path fill="#FDFBF5" opacity="1.000000" stroke="none" 
	d="
M140.187180,188.473145 
	C142.823547,188.657120 145.521042,188.811844 147.879318,189.786972 
	C152.381134,191.648422 154.748749,196.433151 153.737793,200.632828 
	C152.590073,205.400650 148.147736,209.118271 143.861145,208.898239 
	C138.734787,208.635117 135.084061,204.870331 133.990005,198.385223 
	C135.992569,194.939163 138.043839,191.876785 140.187180,188.473145 
z"/>
<path fill="#FFD546" opacity="1.000000" stroke="none" 
	d="
M81.997940,220.001617 
	C81.875031,219.859329 81.754173,219.715439 81.633316,219.571548 
	C81.719940,219.620544 81.806564,219.669540 81.948189,219.857147 
	C82.003197,219.995743 82.000000,220.000000 81.997940,220.001617 
z"/>
<path fill="#376E9C" opacity="1.000000" stroke="none" 
	d="
M98.001831,104.995239 
	C97.793991,101.390717 98.320244,99.307777 102.485153,97.124107 
	C107.213760,94.644905 110.254219,88.954086 114.047585,84.676323 
	C114.857384,83.763130 115.746063,82.919609 116.603539,82.049057 
	C118.422333,80.202538 120.268478,78.382095 122.052727,76.502853 
	C122.703674,75.817261 123.121231,74.436287 123.798317,74.327805 
	C127.596588,73.719231 129.703918,71.729729 130.301544,67.887871 
	C130.409470,67.194092 131.630219,66.583710 132.443085,66.120689 
	C132.989243,65.809586 133.972351,66.054832 134.332718,65.660606 
	C138.290100,61.331268 142.171768,56.932446 146.051178,52.532379 
	C146.678253,51.821156 147.101425,50.451927 147.776367,50.340427 
	C151.552872,49.716587 153.288910,47.619900 154.458466,43.980392 
	C154.919617,42.545345 158.225479,42.024448 160.866058,41.043243 
	C161.496124,40.999210 161.992844,40.995491 161.995667,41.440147 
	C161.997925,44.257984 161.997345,46.631172 161.712967,49.270378 
	C161.619278,52.024067 161.809402,54.511730 162.001083,57.443291 
	C162.003601,60.255955 162.004547,62.624725 162.003754,65.438477 
	C162.001328,68.256149 162.000671,70.628845 161.710220,73.276466 
	C161.279480,76.033958 161.138519,78.516518 160.577896,80.999458 
	C156.072021,80.676201 154.563156,82.387566 152.395325,86.274811 
	C150.315399,90.004494 145.958359,94.602364 142.410904,96.280945 
	C137.600769,98.557007 136.793335,100.828781 136.522766,105.008263 
	C123.370399,105.001984 110.686119,104.998611 98.001831,104.995239 
z"/>
<path fill="#3E6A95" opacity="1.000000" stroke="none" 
	d="
M165.713013,25.274651 
	C166.003372,44.686600 166.002197,64.372246 166.000183,84.926712 
	C165.999359,86.862877 165.999374,87.930214 165.665039,88.996674 
	C164.884949,88.988510 164.439209,88.981239 163.994736,88.508049 
	C163.998093,85.225586 164.114716,82.403412 163.976868,79.593735 
	C163.737793,74.721138 163.341217,69.856262 163.009064,64.522125 
	C163.665100,55.374458 164.322784,46.692806 164.986847,37.610027 
	C164.994263,36.140232 164.995300,35.071564 164.997772,33.752125 
	C164.999176,33.334164 164.999115,33.166981 164.999054,32.999794 
	C165.139847,30.515980 165.280655,28.032164 165.713013,25.274651 
z"/>
<path fill="#2D6EA9" opacity="1.000000" stroke="none" 
	d="
M97.543571,104.997009 
	C110.686119,104.998611 123.370399,105.001984 136.522308,105.252258 
	C136.989929,105.499176 136.989044,105.987457 136.993896,105.993698 
	C136.998749,105.999947 137.001862,105.994095 136.532974,105.993546 
	C117.712044,106.001007 99.359993,106.009018 81.005417,105.763008 
	C81.002014,105.339622 81.001160,105.170265 81.000305,105.000916 
	C82.714577,105.000023 84.428848,104.999138 86.571564,104.996666 
	C90.361771,104.996315 93.723541,104.997551 97.543571,104.997009 
z"/>
<path fill="#3F6FA9" opacity="1.000000" stroke="none" 
	d="
M164.980469,38.011158 
	C164.322784,46.692806 163.665100,55.374458 162.757706,64.526047 
	C162.340500,64.995163 162.172989,64.994331 162.005493,64.993492 
	C162.004547,62.624725 162.003601,60.255955 162.001678,56.999290 
	C161.999390,53.742382 161.998077,51.373371 161.996765,49.004356 
	C161.997345,46.631172 161.997925,44.257984 161.997375,40.996590 
	C161.993988,37.740429 161.991714,35.372478 161.989426,33.004528 
	C162.158401,33.003761 162.327377,33.002998 162.749695,33.248466 
	C163.003006,33.494698 163.010635,33.988441 163.007050,34.365334 
	C163.662460,35.831867 164.321457,36.921513 164.980469,38.011158 
z"/>
<path fill="#346D93" opacity="1.000000" stroke="none" 
	d="
M161.702682,33.281212 
	C161.991714,35.372478 161.993988,37.740429 161.994568,40.551933 
	C161.992844,40.995491 161.496124,40.999210 161.247772,40.999680 
	C161.138245,38.519402 161.277084,36.038651 161.702682,33.281212 
z"/>
<path fill="#367395" opacity="1.000000" stroke="none" 
	d="
M163.010635,33.988441 
	C163.010635,33.988441 163.003006,33.494698 163.003143,33.247856 
	C163.446655,33.000847 163.890015,33.000683 164.666199,33.000153 
	C164.999115,33.166981 164.999176,33.334164 164.666809,33.751251 
	C163.893127,33.996918 163.451874,33.992680 163.010635,33.988441 
z"/>
<path fill="#FED84C" opacity="1.000000" stroke="none" 
	d="
M120.967926,117.139664 
	C123.351646,117.092995 125.735374,117.046326 128.562164,117.061058 
	C129.003494,118.801224 129.001755,120.479980 128.715332,122.843651 
	C128.397110,127.457825 126.177582,128.140900 122.659058,128.079117 
	C112.707619,127.904404 112.068161,128.696472 111.999214,138.789658 
	C111.992409,139.786652 112.186417,140.849884 111.900047,141.760651 
	C111.646866,142.565903 110.885147,143.787155 110.293358,143.819305 
	C105.373260,144.086380 104.281052,147.670837 103.508331,151.864288 
	C99.961731,152.253769 96.549492,152.830826 93.121964,152.943619 
	C90.151436,153.041382 89.046021,154.245712 88.942436,157.174805 
	C88.821320,160.599579 88.232628,164.007843 88.010910,165.970444 
	C84.880318,168.340500 81.595642,169.551392 80.988777,171.568085 
	C79.921486,175.114838 77.957375,175.980148 74.849281,176.615509 
	C66.111229,178.401779 65.066833,177.668961 64.987068,168.979675 
	C64.957054,165.710312 65.510193,162.077881 61.008575,160.669678 
	C61.005798,159.891891 61.006882,159.447479 61.007969,159.003052 
	C62.776703,159.410629 64.614883,159.632385 66.300507,160.262329 
	C70.519737,161.839157 72.513199,160.395111 73.142540,156.029648 
	C73.300758,154.932205 74.775787,153.276962 75.768684,153.183350 
	C79.170967,152.862671 79.624451,150.345718 81.342827,148.197006 
	C84.470825,144.285660 88.380760,140.702698 92.156303,137.345215 
	C94.099442,135.617233 96.853699,135.270676 97.176086,131.835220 
	C97.270988,130.823914 98.827164,129.467087 99.972145,129.119110 
	C105.399292,127.469681 105.901382,126.563240 103.462334,121.673607 
	C103.178276,121.104149 103.156197,120.404007 103.474846,119.381714 
	C108.330444,118.999100 112.731049,119.139084 117.112892,118.913986 
	C118.424820,118.846588 119.684380,117.759560 120.967926,117.139664 
z"/>
<path fill="#FED848" opacity="1.000000" stroke="none" 
	d="
M61.012428,161.003052 
	C65.510193,162.077881 64.957054,165.710312 64.987068,168.979675 
	C65.066833,177.668961 66.111229,178.401779 74.849281,176.615509 
	C77.957375,175.980148 79.921486,175.114838 80.988777,171.568085 
	C81.595642,169.551392 84.880318,168.340500 88.010910,165.970444 
	C88.232628,164.007843 88.821320,160.599579 88.942436,157.174805 
	C89.046021,154.245712 90.151436,153.041382 93.121964,152.943619 
	C96.549492,152.830826 99.961731,152.253769 103.508331,151.864288 
	C104.281052,147.670837 105.373260,144.086380 110.293358,143.819305 
	C110.885147,143.787155 111.646866,142.565903 111.900047,141.760651 
	C112.186417,140.849884 111.992409,139.786652 111.999214,138.789658 
	C112.068161,128.696472 112.707619,127.904404 122.659058,128.079117 
	C126.177582,128.140900 128.397110,127.457825 128.715332,123.264282 
	C128.872299,127.151817 128.809799,131.307968 128.534225,135.449951 
	C128.499863,135.966492 127.376457,136.480270 126.682556,136.856979 
	C126.270836,137.080490 125.537697,136.852615 125.245644,137.134720 
	C121.182739,141.059326 117.165451,145.031326 113.164970,149.019775 
	C112.975449,149.208740 113.167549,149.780563 112.978004,149.969376 
	C109.262451,153.670456 105.528763,157.353760 101.754463,160.994736 
	C101.444275,161.293976 100.643150,161.104233 100.361427,161.410049 
	C96.545097,165.552628 92.774590,169.737579 89.020020,173.936447 
	C88.833511,174.145020 88.973869,174.824158 88.831978,174.868561 
	C83.558517,176.518631 81.542374,181.680618 77.867188,185.042297 
	C76.430939,186.356033 74.447548,187.839920 74.162827,189.495575 
	C73.406357,193.894379 70.605904,194.150101 67.219620,193.979218 
	C63.773033,193.805252 62.832676,191.849442 62.917992,188.651794 
	C62.966404,186.837341 62.186424,185.000793 61.387875,182.618530 
	C61.001629,175.042923 61.007030,168.022980 61.012428,161.003052 
z"/>
<path fill="#FFDA5F" opacity="1.000000" stroke="none" 
	d="
M61.008572,160.669678 
	C61.007030,168.022980 61.001629,175.042923 60.998192,182.531433 
	C60.996700,186.027939 60.993248,189.055862 60.750881,192.535553 
	C60.511967,192.987305 60.038246,192.967041 60.038246,192.967041 
	C60.025436,177.297531 60.012630,161.628021 60.011490,145.493317 
	C60.349510,149.377289 60.675861,153.726471 61.005089,158.539337 
	C61.006882,159.447479 61.005798,159.891891 61.008572,160.669678 
z"/>
<path fill="#F6DA3C" opacity="1.000000" stroke="none" 
	d="
M177.001221,60.998905 
	C182.910599,61.548283 189.059998,59.833992 194.796310,61.997776 
	C194.748795,62.570168 194.701279,63.142563 194.653763,63.714954 
	C188.828644,63.075008 183.003510,62.435059 177.088226,61.398621 
	C176.998047,61.002136 177.000000,61.000000 177.001221,60.998905 
z"/>
<path fill="#F9FAF6" opacity="1.000000" stroke="none" 
	d="
M173.578903,93.863976 
	C172.344696,94.077087 171.291702,94.077087 170.238693,94.077087 
	C170.145691,93.752441 170.052673,93.427803 169.959671,93.103157 
	C171.043701,92.735435 172.127716,92.367714 173.581024,91.998253 
	C173.886917,92.547958 173.823517,93.099411 173.578903,93.863976 
z"/>
<path fill="#F9FAF6" opacity="1.000000" stroke="none" 
	d="
M170.241882,102.742416 
	C170.333557,101.586998 167.581543,99.212860 171.622452,99.002869 
	C171.483139,100.188675 171.000504,101.381218 170.241882,102.742416 
z"/>
<path fill="#FED848" opacity="1.000000" stroke="none" 
	d="
M60.026146,193.346222 
	C60.038246,192.967041 60.511967,192.987305 60.748878,192.989075 
	C60.877487,193.963516 60.769192,194.936172 60.337250,195.953583 
	C60.013748,195.240692 60.013893,194.483063 60.026146,193.346222 
z"/>
<path fill="#FED043" opacity="1.000000" stroke="none" 
	d="
M135.771423,157.171356 
	C136.319519,157.468094 136.639038,157.936188 136.978973,158.702148 
	C136.513870,158.447571 136.028366,157.895157 135.771423,157.171356 
z"/>
<path fill="#F9FAF6" opacity="1.000000" stroke="none" 
	d="
M167.338074,107.041428 
	C167.492844,106.490440 167.910385,105.793518 168.662506,105.050140 
	C168.531677,105.634285 168.066254,106.264885 167.338074,107.041428 
z"/>
<path fill="#F9FAF6" opacity="1.000000" stroke="none" 
	d="
M161.260712,112.674179 
	C161.448624,112.171883 161.907471,111.613152 162.663147,111.020958 
	C162.483887,111.530914 162.007767,112.074318 161.260712,112.674179 
z"/>
<path fill="#F9FAF6" opacity="1.000000" stroke="none" 
	d="
M152.353424,115.900894 
	C152.598083,115.596985 153.162140,115.337700 154.058090,115.113335 
	C153.817596,115.414009 153.245224,115.679764 152.353424,115.900894 
z"/>
<path fill="#F9FAF6" opacity="1.000000" stroke="none" 
	d="
M147.328186,116.838745 
	C147.342545,116.615028 147.655289,116.398788 148.263947,116.170624 
	C148.248764,116.387878 147.937668,116.617050 147.328186,116.838745 
z"/>
<path fill="#F9FAF6" opacity="1.000000" stroke="none" 
	d="
M144.258347,116.876549 
	C144.201569,116.454010 144.460541,116.361328 144.886963,116.691910 
	C144.978729,116.831322 144.498428,116.922554 144.258347,116.876549 
z"/>
<path fill="#F9FAF6" opacity="1.000000" stroke="none" 
	d="
M169.195374,104.904083 
	C169.049271,104.733719 169.160782,104.503944 169.488770,104.187134 
	C169.753723,104.383507 169.669647,104.631699 169.195374,104.904083 
z"/>
<path fill="#F9FAF6" opacity="1.000000" stroke="none" 
	d="
M155.305115,114.988571 
	C155.300369,114.757751 155.606369,114.485680 156.229294,114.177994 
	C156.236099,114.410698 155.925995,114.679008 155.305115,114.988571 
z"/>
<path fill="#FFD546" opacity="1.000000" stroke="none" 
	d="
M217.831329,80.089844 
	C217.997742,80.002754 217.997406,80.496841 217.994995,80.743744 
	C217.819992,80.825958 217.632370,80.672913 217.487915,80.486435 
	C217.460098,80.450516 217.601547,80.283478 217.831329,80.089844 
z"/>
<path fill="#3770A1" opacity="1.000000" stroke="none" 
	d="
M70.250229,102.999222 
	C70.692024,101.647087 71.384056,100.295395 72.076080,98.943703 
	C72.754333,99.345459 73.432587,99.747215 74.110840,100.148972 
	C73.324379,101.092888 72.537918,102.036804 71.376190,102.990311 
	C70.834099,102.999832 70.667274,102.999748 70.250229,102.999222 
z"/>
<path fill="#3770A1" opacity="1.000000" stroke="none" 
	d="
M80.936806,104.649582 
	C81.001160,105.170265 81.002014,105.339622 81.300385,106.056244 
	C97.396347,106.739044 113.194809,106.874588 128.994522,107.338051 
	C128.994125,108.102875 128.992493,108.539787 128.547241,108.982002 
	C125.735268,108.985268 123.366890,108.983231 120.702148,108.688156 
	C107.833794,108.282448 95.261871,108.157631 82.689629,108.097221 
	C82.130730,108.094536 81.569023,108.678391 80.802750,109.077538 
	C80.332924,109.329826 80.144966,109.556595 79.663681,109.928070 
	C78.540443,110.038750 77.786514,110.067711 77.032593,110.096680 
	C76.791382,108.850304 76.196243,107.548561 76.380768,106.368774 
	C76.797478,103.704544 77.768379,101.474968 80.936806,104.649582 
z"/>
<path fill="#3770A1" opacity="1.000000" stroke="none" 
	d="
M79.734802,97.864487 
	C78.082474,97.873779 76.824417,97.803543 73.799011,97.634636 
	C76.654984,94.676758 78.546646,92.717598 80.438316,90.758438 
	C81.100136,91.144760 81.761948,91.531082 82.423767,91.917397 
	C81.658867,93.873245 80.893974,95.829102 79.734802,97.864487 
z"/>
<path fill="#3770A1" opacity="1.000000" stroke="none" 
	d="
M87.067093,83.987717 
	C88.259949,84.295364 89.906326,84.948235 89.848557,85.184540 
	C89.461472,86.768120 89.074623,88.682663 87.959122,89.647476 
	C87.138573,90.357185 85.210770,89.786720 82.277878,89.786720 
	C84.190193,87.362625 85.461220,85.751434 87.067093,83.987717 
z"/>
<path fill="#3770A1" opacity="1.000000" stroke="none" 
	d="
M93.271515,77.271767 
	C94.765266,76.372574 95.994720,75.737862 97.357651,75.034241 
	C98.489868,81.660698 97.659561,82.490623 91.032700,81.358139 
	C91.742920,79.983429 92.375069,78.759834 93.271515,77.271767 
z"/>
<path fill="#3770A1" opacity="1.000000" stroke="none" 
	d="
M100.614777,73.923492 
	C100.962616,72.050705 101.524704,70.131836 102.532700,68.486061 
	C102.762138,68.111458 105.253372,68.390526 105.450447,68.876694 
	C105.890495,69.962273 106.044785,71.964973 105.399544,72.510323 
	C104.301361,73.438499 102.497833,73.532120 100.614777,73.923492 
z"/>
<path fill="#126894" opacity="1.000000" stroke="none" 
	d="
M51.699142,137.300659 
	C51.996616,147.035095 51.997921,157.062546 51.921516,167.554169 
	C51.562328,163.636993 51.090397,159.257538 51.046532,154.873810 
	C50.988914,149.115524 51.268440,143.353867 51.699142,137.300659 
z"/>
<path fill="#3770A1" opacity="1.000000" stroke="none" 
	d="
M59.422237,117.924286 
	C57.026474,119.366638 54.890209,120.677254 52.378647,121.996979 
	C52.474213,117.673637 55.198097,115.362938 59.840370,115.832695 
	C59.936012,116.676537 59.808876,117.234543 59.422237,117.924286 
z"/>
<path fill="#F9FAF6" opacity="1.000000" stroke="none" 
	d="
M76.952309,110.280594 
	C77.786514,110.067711 78.540443,110.038750 79.904984,110.014725 
	C80.677643,110.074005 80.839684,110.128334 81.001717,110.182655 
	C81.698387,111.787415 82.395058,113.392166 83.063118,114.931030 
	C80.741531,115.463081 77.978371,115.442589 77.046616,111.080399 
	C76.730347,110.840019 76.872025,110.464508 76.952309,110.280594 
z"/>
<path fill="#3770A1" opacity="1.000000" stroke="none" 
	d="
M60.455261,112.843567 
	C60.311996,112.063667 60.473839,111.295662 60.635681,110.527649 
	C61.013763,110.695694 61.391846,110.863739 61.769928,111.031784 
	C61.433407,111.639679 61.096886,112.247574 60.455261,112.843567 
z"/>
<path fill="#F9FAF6" opacity="1.000000" stroke="none" 
	d="
M74.641418,111.106857 
	C74.413551,111.421066 73.848854,111.693611 72.950233,111.953041 
	C73.179070,111.648346 73.741829,111.356766 74.641418,111.106857 
z"/>
<path fill="#F9FAF6" opacity="1.000000" stroke="none" 
	d="
M71.918747,112.462311 
	C71.782913,112.567673 71.621231,112.687004 71.646851,112.640778 
	C71.834152,112.475212 71.892899,112.476273 71.918747,112.462311 
z"/>
<path fill="#F9FAF6" opacity="1.000000" stroke="none" 
	d="
M71.006348,112.214073 
	C71.180023,112.315529 70.836311,112.644142 70.836311,112.644142 
	C70.836311,112.644142 70.366600,112.572464 70.199631,112.403748 
	C70.292091,112.146851 70.558769,112.106049 71.006348,112.214073 
z"/>
<path fill="#FCDD41" opacity="1.000000" stroke="none" 
	d="
M120.590485,117.017075 
	C119.684380,117.759560 118.424820,118.846588 117.112892,118.913986 
	C112.731049,119.139084 108.330444,118.999100 103.469276,118.999496 
	C98.155090,118.604118 93.308662,118.208244 88.256790,117.487167 
	C98.771912,117.072807 109.492485,116.983650 120.590485,117.017075 
z"/>
<path fill="#F9FAF6" opacity="1.000000" stroke="none" 
	d="
M80.349686,119.890961 
	C81.165504,118.907791 82.339310,117.977760 83.926697,117.091599 
	C83.129410,118.071678 81.918549,119.007896 80.349686,119.890961 
z"/>
<path fill="#F9FAF6" opacity="1.000000" stroke="none" 
	d="
M67.487724,124.332397 
	C66.459015,120.919350 68.755203,120.876076 71.620193,121.009644 
	C70.630508,122.079117 69.217354,123.140808 67.487724,124.332397 
z"/>
<path fill="#F9FAF6" opacity="1.000000" stroke="none" 
	d="
M78.291290,118.784271 
	C78.333969,118.699493 78.609085,118.699966 78.937241,118.867981 
	C78.990265,119.035515 78.523743,118.869507 78.291290,118.784271 
z"/>
<path fill="#F9FAF6" opacity="1.000000" stroke="none" 
	d="
M75.298325,119.825272 
	C75.297874,119.624550 75.564270,119.397118 76.102890,119.144104 
	C76.105133,119.345192 75.835159,119.571877 75.298325,119.825272 
z"/>
<path fill="#F9FAF6" opacity="1.000000" stroke="none" 
	d="
M63.242294,128.944061 
	C63.088058,128.721359 63.258476,128.445953 63.747303,128.118835 
	C63.799801,128.280182 63.633545,128.554947 63.242294,128.944061 
z"/>
<path fill="#376B96" opacity="1.000000" stroke="none" 
	d="
M136.989044,105.987457 
	C136.989044,105.987457 136.989929,105.499176 136.990387,105.255173 
	C136.793335,100.828781 137.600769,98.557007 142.410904,96.280945 
	C145.958359,94.602364 150.315399,90.004494 152.395325,86.274811 
	C154.563156,82.387566 156.072021,80.676201 160.828522,80.999702 
	C161.665878,80.999207 161.832932,80.998840 162.001495,81.432190 
	C162.666489,84.235260 163.329971,86.604614 163.993454,88.973969 
	C164.439209,88.981239 164.884949,88.988510 165.521301,89.300392 
	C162.859985,91.486786 163.450073,94.194855 163.980774,96.918427 
	C163.997192,96.952133 163.927505,96.979820 163.718536,97.116875 
	C163.356735,97.545731 163.203918,97.837532 163.045074,98.084839 
	C163.039032,98.040344 163.128677,98.045837 162.872528,98.160500 
	C162.468185,98.606812 162.319992,98.938461 162.186493,99.212631 
	C162.201218,99.155159 162.284668,99.239510 161.908752,99.188354 
	C160.036194,100.781761 158.539566,102.426323 157.028046,104.035446 
	C157.013153,104.000015 157.075653,104.044785 156.754272,104.063065 
	C155.975830,104.463692 155.518784,104.846031 154.918335,105.452011 
	C154.066376,106.158440 153.357834,106.641212 152.649292,107.123985 
	C151.941040,107.103485 151.232773,107.082985 149.959900,107.077850 
	C148.946747,107.435890 148.498215,107.778564 148.049698,108.121239 
	C147.282303,108.105026 146.514893,108.088814 145.067108,108.160660 
	C143.762817,108.256630 143.138916,108.264542 142.137283,108.179214 
	C140.169388,107.386467 138.579208,106.686958 136.989044,105.987457 
z"/>
<path fill="#1F6598" opacity="1.000000" stroke="none" 
	d="
M81.464767,110.105042 
	C80.839684,110.128334 80.677643,110.074005 80.274292,109.933006 
	C80.144966,109.556595 80.332924,109.329826 81.270309,109.080658 
	C94.962013,108.990585 107.980270,108.985886 120.998520,108.981186 
	C123.366890,108.983231 125.735268,108.985268 128.974411,108.990143 
	C132.239334,109.274704 134.633469,109.556427 137.027618,109.838150 
	C118.661018,109.901237 100.294426,109.964325 81.464767,110.105042 
z"/>
<path fill="#2F658D" opacity="1.000000" stroke="none" 
	d="
M163.964355,96.884720 
	C163.450073,94.194855 162.859985,91.486786 165.855652,89.301285 
	C165.999374,87.930214 165.999359,86.862877 165.999969,85.395027 
	C166.334473,78.642159 166.668335,72.289787 167.006332,65.469147 
	C167.010483,65.000877 167.489990,64.998833 167.729736,64.997589 
	C168.067520,70.028107 168.165558,75.059875 168.363312,80.549255 
	C168.228104,83.344650 167.993149,85.682426 167.507019,88.711029 
	C166.858459,90.936371 166.461105,92.470894 166.063736,94.005409 
	C166.063736,94.005409 165.716934,94.365585 165.436676,94.779449 
	C164.987701,95.682930 164.818985,96.172531 164.650269,96.662132 
	C164.650269,96.662132 165.026505,96.903152 164.661011,96.807892 
	C164.295502,96.712639 163.964355,96.884720 163.964355,96.884720 
z"/>
<path fill="#F9FAF6" opacity="1.000000" stroke="none" 
	d="
M163.980774,96.918427 
	C163.964355,96.884720 164.295502,96.712639 164.477905,96.678917 
	C165.197968,102.610405 159.671494,104.793533 156.929428,108.689827 
	C156.620270,109.129120 154.368164,108.201035 152.833160,107.515511 
	C153.357834,106.641212 154.066376,106.158440 155.222427,105.408035 
	C156.138504,104.775200 156.607071,104.409996 157.075653,104.044785 
	C157.075653,104.044785 157.013153,104.000015 157.350708,103.950935 
	C159.220413,102.347740 160.752533,100.793625 162.284668,99.239510 
	C162.284668,99.239510 162.201218,99.155159 162.445206,99.105026 
	C162.835693,98.718552 162.982193,98.382195 163.128677,98.045837 
	C163.128677,98.045837 163.039032,98.040344 163.281540,97.970490 
	C163.658539,97.593689 163.793030,97.286758 163.927521,96.979828 
	C163.927505,96.979820 163.997192,96.952133 163.980774,96.918427 
z"/>
<path fill="#386E98" opacity="1.000000" stroke="none" 
	d="
M136.986008,109.918701 
	C134.633469,109.556427 132.239334,109.274704 129.418015,108.984833 
	C128.992493,108.539787 128.994125,108.102875 129.425110,107.334023 
	C132.236908,106.666084 134.619385,106.330093 137.001862,105.994095 
	C137.001862,105.994095 136.998749,105.999947 136.993896,105.993698 
	C138.579208,106.686958 140.169388,107.386467 142.122986,108.486542 
	C142.327469,109.259392 142.168533,109.631660 142.009583,110.003937 
	C141.254944,110.006310 140.500320,110.008682 139.033173,110.020218 
	C137.861588,110.079788 137.402496,110.130188 136.943405,110.180588 
	C136.943405,110.180595 136.944397,109.999260 136.986008,109.918701 
z"/>
<path fill="#F9FAF6" opacity="1.000000" stroke="none" 
	d="
M145.031647,109.969078 
	C145.990555,110.774391 146.949478,111.579704 147.908386,112.385017 
	C147.506241,112.842865 147.104111,113.300713 146.701981,113.758568 
	C146.131409,112.776596 145.560852,111.794617 144.995392,110.406158 
	C145.000488,109.999664 145.031647,109.969078 145.031647,109.969078 
z"/>
<path fill="#F9FAF6" opacity="1.000000" stroke="none" 
	d="
M166.406219,93.945343 
	C166.461105,92.470894 166.858459,90.936371 167.484940,89.150352 
	C167.392273,90.560989 167.070480,92.223137 166.406219,93.945343 
z"/>
<path fill="#F9FAF6" opacity="1.000000" stroke="none" 
	d="
M142.379791,110.013763 
	C142.168533,109.631660 142.327469,109.259392 142.500717,108.579788 
	C143.138916,108.264542 143.762817,108.256630 144.698822,108.271980 
	C145.014435,108.667473 145.017960,109.039711 145.026566,109.690506 
	C145.031647,109.969078 145.000488,109.999664 144.984833,110.015633 
	C144.229462,110.028931 143.489731,110.026253 142.379791,110.013763 
z"/>
<path fill="#F9FAF6" opacity="1.000000" stroke="none" 
	d="
M164.987885,96.734680 
	C164.818985,96.172531 164.987701,95.682930 165.344727,95.011917 
	C165.863754,95.295692 166.194489,95.760872 166.525208,96.226059 
	C166.125305,96.419785 165.725403,96.613510 164.987885,96.734680 
z"/>
<path fill="#F9FAF6" opacity="1.000000" stroke="none" 
	d="
M148.212952,108.334122 
	C148.498215,107.778564 148.946747,107.435890 149.698898,107.140976 
	C149.460419,107.641502 148.918304,108.094254 148.212952,108.334122 
z"/>
<path fill="#F9FAF6" opacity="1.000000" stroke="none" 
	d="
M137.003799,110.459366 
	C137.402496,110.130188 137.861588,110.079788 138.662674,110.095718 
	C138.684113,110.644661 138.363571,111.127274 138.043030,111.609886 
	C137.716751,111.319305 137.390472,111.028725 137.003799,110.459366 
z"/>
<path fill="#F9FAF6" opacity="1.000000" stroke="none" 
	d="
M153.448090,113.534317 
	C153.413086,113.476601 153.483109,113.592026 153.448090,113.534317 
z"/>
<path fill="#F9FAF6" opacity="1.000000" stroke="none" 
	d="
M73.465729,117.446747 
	C73.523911,117.411438 73.407555,117.482048 73.465729,117.446747 
z"/>
<path fill="#F9FAF6" opacity="1.000000" stroke="none" 
	d="
M59.988144,128.991028 
	C60.088516,128.959656 60.188892,128.928284 60.144539,128.948456 
	C59.999809,129.000000 59.988144,128.991028 59.988144,128.991028 
z"/>
<path fill="#F9FAF6" opacity="1.000000" stroke="none" 
	d="
M58.996819,130.000610 
	C59.094929,129.678268 59.281139,129.415543 59.770229,129.102051 
	C59.988144,128.991028 59.999809,129.000000 60.004364,129.005798 
	C59.902409,129.332565 59.712151,129.592133 59.218540,129.898315 
	C58.998940,130.006317 58.999962,130.000000 58.996819,130.000610 
z"/>
<path fill="#FECC3B" opacity="1.000000" stroke="none" 
	d="
M222.748566,91.174812 
	C222.979309,91.470268 222.987076,91.905487 222.995514,92.667435 
	C222.839325,92.434303 222.682465,91.874435 222.748566,91.174812 
z"/>
<path fill="#306EA1" opacity="1.000000" stroke="none" 
	d="
M163.994736,88.508049 
	C163.329971,86.604614 162.666489,84.235260 162.001801,80.988235 
	C162.000397,77.740891 162.000198,75.371216 162.000000,73.001541 
	C162.000671,70.628845 162.001328,68.256149 162.003754,65.438477 
	C162.172989,64.994331 162.340500,64.995163 162.759338,64.992065 
	C163.341217,69.856262 163.737793,74.721138 163.976868,79.593735 
	C164.114716,82.403412 163.998093,85.225586 163.994736,88.508049 
z"/>
<path fill="#346D93" opacity="1.000000" stroke="none" 
	d="
M161.712967,49.270378 
	C161.998077,51.373371 161.999390,53.742382 162.000092,56.555397 
	C161.809402,54.511730 161.619278,52.024067 161.712967,49.270378 
z"/>
<path fill="#346D93" opacity="1.000000" stroke="none" 
	d="
M161.710220,73.276466 
	C162.000198,75.371216 162.000397,77.740891 162.000305,80.554520 
	C161.832932,80.998840 161.665878,80.999207 161.248184,80.999329 
	C161.138519,78.516518 161.279480,76.033958 161.710220,73.276466 
z"/>
<path fill="#3770A1" opacity="1.000000" stroke="none" 
	d="
M163.007050,34.365334 
	C163.451874,33.992680 163.893127,33.996918 164.665344,34.002029 
	C164.995300,35.071564 164.994263,36.140232 164.986847,37.610027 
	C164.321457,36.921513 163.662460,35.831867 163.007050,34.365334 
z"/>
<path fill="#456A8D" opacity="1.000000" stroke="none" 
	d="
M136.532974,105.993546 
	C134.619385,106.330093 132.236908,106.666084 129.423859,107.006104 
	C113.194809,106.874588 97.396347,106.739044 81.302917,106.310272 
	C99.359993,106.009018 117.712044,106.001007 136.532974,105.993546 
z"/>
<path fill="#386E98" opacity="1.000000" stroke="none" 
	d="
M120.702148,108.688156 
	C107.980270,108.985886 94.962013,108.990585 81.476196,108.992157 
	C81.569023,108.678391 82.130730,108.094536 82.689629,108.097221 
	C95.261871,108.157631 107.833794,108.282448 120.702148,108.688156 
z"/>
<path fill="#2F658D" opacity="1.000000" stroke="none" 
	d="
M161.908752,99.188354 
	C160.752533,100.793625 159.220413,102.347740 157.365601,103.986366 
	C158.539566,102.426323 160.036194,100.781761 161.908752,99.188354 
z"/>
<path fill="#2F658D" opacity="1.000000" stroke="none" 
	d="
M156.754272,104.063065 
	C156.607071,104.409996 156.138504,104.775200 155.365829,105.184387 
	C155.518784,104.846031 155.975830,104.463692 156.754272,104.063065 
z"/>
<path fill="#2F658D" opacity="1.000000" stroke="none" 
	d="
M163.718536,97.116882 
	C163.793030,97.286758 163.658539,97.593689 163.287567,98.014984 
	C163.203918,97.837532 163.356735,97.545731 163.718536,97.116882 
z"/>
<path fill="#2F658D" opacity="1.000000" stroke="none" 
	d="
M162.872528,98.160500 
	C162.982193,98.382195 162.835693,98.718552 162.430481,99.162506 
	C162.319992,98.938461 162.468185,98.606812 162.872528,98.160500 
z"/>
</svg>