<svg version="1.1" id="Layer_1" xmlns="http://www.w3.org/2000/svg" xmlns:xlink="http://www.w3.org/1999/xlink" x="0px" y="0px"
	 width="100%" viewBox="0 0 230 219" enable-background="new 0 0 230 219" xml:space="preserve">
<path fill="#FFFFFF" opacity="1.000000" stroke="none" 
	d="
M188.000000,220.000000 
	C125.740036,220.000000 63.480068,220.000000 1.000000,220.000000 
	C1.000000,158.645950 1.000000,97.291634 1.447045,35.502228 
	C104.593376,36.274307 187.135147,117.244858 188.000000,220.000000 
z"/>
<path fill="#FEFEFF" opacity="1.000000" stroke="none" 
	d="
M231.000000,89.000000 
	C231.000000,132.548431 231.000000,176.096848 231.000000,220.000000 
	C220.981903,220.000000 210.959610,220.000000 200.552322,219.537567 
	C199.722748,210.769745 199.918991,202.371353 198.729385,194.174088 
	C191.122498,141.757431 166.887939,98.465065 125.155205,65.853767 
	C88.891045,37.515797 47.999588,21.287252 1.000000,24.000000 
	C1.000000,16.352657 1.000000,8.705314 1.000000,1.000000 
	C51.020882,1.000000 101.041779,1.000000 151.531372,1.249082 
	C152.000076,1.498163 151.998764,1.996325 151.918152,2.337059 
	C150.804153,4.501691 149.770782,6.325590 148.685211,8.241609 
	C181.809052,29.171505 206.774460,56.767471 223.340698,91.740784 
	C226.061493,90.767181 228.530746,89.883591 231.000000,89.000000 
M164.103683,69.401115 
	C186.298904,92.987656 201.375580,120.514465 209.273239,152.032639 
	C212.759033,151.154114 215.780655,150.392563 219.365204,149.489151 
	C210.468323,113.789902 193.036011,83.392830 167.341675,57.645687 
	C142.838470,33.092110 114.029991,15.851081 80.494125,5.999681 
	C79.492302,9.676754 78.677902,12.665889 77.746819,16.083296 
	C111.252625,26.142410 139.789108,43.734749 164.103683,69.401115 
z"/>
<path fill="#4A9CD2" opacity="1.000000" stroke="none" 
	d="
M1.000000,24.458069 
	C47.999588,21.287252 88.891045,37.515797 125.155205,65.853767 
	C166.887939,98.465065 191.122498,141.757431 198.729385,194.174088 
	C199.918991,202.371353 199.722748,210.769745 200.083664,219.537567 
	C196.307098,220.000000 192.614182,220.000000 188.460632,220.000000 
	C187.135147,117.244858 104.593376,36.274307 1.447045,35.033569 
	C1.000000,31.638712 1.000000,28.277426 1.000000,24.458069 
z"/>
<path fill="#FEFFFF" opacity="1.000000" stroke="none" 
	d="
M154.000000,1.000002 
	C179.597595,1.000000 205.195175,1.000000 231.000000,1.000000 
	C231.000000,29.353891 231.000000,57.708286 230.658676,86.437897 
	C217.229828,59.633251 199.064743,36.414993 175.696213,17.350863 
	C168.684387,11.630590 161.244034,6.435624 154.000000,1.000002 
z"/>
<path fill="#4A9DD2" opacity="1.000000" stroke="none" 
	d="
M153.750000,1.000002 
	C161.244034,6.435624 168.684387,11.630590 175.696213,17.350863 
	C199.064743,36.414993 217.229828,59.633251 230.658676,86.906555 
	C231.000000,87.444443 231.000000,87.888893 231.000000,88.666672 
	C228.530746,89.883591 226.061493,90.767181 223.340698,91.740784 
	C206.774460,56.767471 181.809052,29.171505 148.685211,8.241609 
	C149.770782,6.325590 150.804153,4.501691 152.147964,2.228763 
	C152.638931,1.519822 152.819473,1.259910 153.000000,0.999999 
	C153.000000,1.000000 153.500000,1.000000 153.750000,1.000002 
z"/>
<path fill="#FEFFFF" opacity="1.000000" stroke="none" 
	d="
M152.750000,0.999999 
	C152.819473,1.259910 152.638931,1.519822 152.228577,1.888029 
	C151.998764,1.996325 152.000076,1.498163 152.000031,1.249082 
	C152.000000,1.000000 152.500000,1.000000 152.750000,0.999999 
z"/>
<path fill="#4A9DD2" opacity="1.000000" stroke="none" 
	d="
M163.865265,69.140198 
	C139.789108,43.734749 111.252625,26.142410 77.746819,16.083296 
	C78.677902,12.665889 79.492302,9.676754 80.494125,5.999681 
	C114.029991,15.851081 142.838470,33.092110 167.341675,57.645687 
	C193.036011,83.392830 210.468323,113.789902 219.365204,149.489151 
	C215.780655,150.392563 212.759033,151.154114 209.273239,152.032639 
	C201.375580,120.514465 186.298904,92.987656 163.865265,69.140198 
z"/>
</svg>