<svg version="1.1" id="Layer_1" xmlns="http://www.w3.org/2000/svg" xmlns:xlink="http://www.w3.org/1999/xlink" x="0px" y="0px"
	 width="100%" viewBox="0 0 310 163" enable-background="new 0 0 310 163" xml:space="preserve">
<path fill="#000000" opacity="1.000000" stroke="none" 
	d="
M233.000000,164.000000 
	C155.333344,164.000000 78.166687,164.000000 1.000021,164.000000 
	C1.000014,109.666679 1.000014,55.333366 1.000007,1.000035 
	C104.333305,1.000024 207.666611,1.000024 310.999939,1.000012 
	C310.999939,55.333298 310.999939,109.666595 310.999969,163.999939 
	C285.166656,164.000000 259.333344,164.000000 233.000000,164.000000 
M86.995613,130.997131 
	C86.995613,130.997131 86.994209,131.063019 87.489998,130.874405 
	C87.674637,130.583527 87.859276,130.292648 88.748528,129.922836 
	C89.122543,129.651352 89.638626,129.462036 89.850021,129.096512 
	C97.323601,116.174599 104.529716,103.089508 112.336426,90.372971 
	C115.413284,85.360992 115.531960,80.853371 112.882019,76.092537 
	C106.255135,64.186798 99.564224,52.313545 92.669662,40.561813 
	C90.544456,36.939404 88.286324,32.973724 82.582962,32.288078 
	C67.380028,32.203674 52.177116,32.106358 36.974068,32.076149 
	C36.274475,32.074760 35.573681,32.675964 34.143543,33.010777 
	C31.741610,34.794544 28.516184,36.078041 27.077162,38.446781 
	C20.021381,50.061131 13.624983,62.074951 6.619611,73.721466 
	C2.763530,80.132248 3.151231,86.063385 6.739718,92.229050 
	C12.761356,102.575340 18.785503,112.920784 24.706816,123.324516 
	C26.913616,127.201866 28.768223,131.311798 34.426022,132.732605 
	C50.602001,132.804291 66.777969,132.887833 82.954010,132.907547 
	C83.655769,132.908401 84.358246,132.322159 85.533188,131.912827 
	C85.533188,131.912827 85.990669,131.759247 86.492355,131.805267 
	C86.681755,131.539612 86.871162,131.273956 86.995613,130.997131 
M235.698654,108.702156 
	C235.698654,108.702156 235.720734,108.527763 236.248093,108.106934 
	C236.065552,106.558708 235.882996,105.010483 235.686813,103.303864 
	C235.686813,103.303864 235.528412,103.290176 235.051193,102.699844 
	C233.757523,102.296661 232.463867,101.893486 231.692719,101.653152 
	C231.026489,98.857727 230.469376,96.520149 229.246170,93.789902 
	C223.914413,92.395592 222.494003,93.401146 221.897934,98.223106 
	C221.696320,99.854080 219.955109,101.255417 219.569931,102.913284 
	C219.117874,104.859001 218.636536,108.313057 219.460312,108.766869 
	C222.378586,110.374557 221.844025,112.689293 222.047165,115.095512 
	C222.496628,120.419960 220.434906,126.096687 224.268890,131.591644 
	C224.857605,131.756165 225.446335,131.920700 225.997620,132.003525 
	C225.997620,132.003525 225.915939,132.040985 226.409546,132.718979 
	C229.640274,132.497543 232.871002,132.276108 236.033340,132.052414 
	C236.033340,132.052414 236.035934,132.120789 236.746719,131.990799 
	C237.676498,130.368500 238.606277,128.746216 239.536057,127.123924 
	C237.974930,126.402451 236.413818,125.680984 234.157822,124.987274 
	C233.462967,124.973259 232.768112,124.959251 231.968826,124.325768 
	C231.653931,123.835037 231.339035,123.344307 231.002350,121.969925 
	C231.020691,118.018417 231.039032,114.066902 231.765488,110.030991 
	C233.018463,109.595802 234.271439,109.160622 235.698654,108.702156 
M199.948929,51.254681 
	C200.968613,46.122948 204.449234,43.324692 209.184357,42.051163 
	C212.801453,41.078342 213.780853,38.419601 212.716766,35.671642 
	C212.185776,34.300358 209.110443,32.976479 207.405762,33.213272 
	C204.726257,33.585480 202.232498,35.294815 199.660080,36.437973 
	C197.452728,34.694569 194.400955,32.794388 192.195175,33.508244 
	C190.562180,34.036724 189.300598,37.920952 189.147858,40.389099 
	C188.738037,47.010635 188.919342,53.676476 189.058228,60.320702 
	C189.119385,63.245979 189.364548,66.227974 190.032150,69.065140 
	C190.926163,72.864418 193.325821,74.161522 197.680969,71.752335 
	C201.783051,65.525375 199.465714,58.613434 199.948929,51.254681 
M294.708954,69.690971 
	C294.840454,69.822830 294.971985,69.954697 295.011902,70.807114 
	C293.121704,72.208618 291.417755,74.077599 289.304596,74.919472 
	C284.044220,77.015213 278.954315,75.181145 274.196991,73.003807 
	C271.252228,71.656036 268.913849,72.135040 268.320068,74.905350 
	C267.953064,76.617706 269.438202,80.194359 270.736938,80.545044 
	C276.682526,82.150421 282.927032,84.081833 288.931732,83.717018 
	C299.277100,83.088478 306.459076,75.988602 306.062927,65.291092 
	C305.748718,56.807034 306.205780,48.293831 305.867584,39.811626 
	C305.777252,37.546410 304.489105,33.989437 302.922119,33.454876 
	C300.870819,32.755077 297.996826,34.466824 295.476715,35.141220 
	C288.382751,32.267494 280.750946,30.488150 273.308868,36.040359 
	C266.540894,41.089642 265.197266,48.617737 266.144257,56.396420 
	C266.926971,62.826069 269.894501,68.200508 276.298645,71.099663 
	C282.726105,74.009369 288.693848,73.731705 294.708954,69.690971 
M186.963867,48.030170 
	C185.651993,41.546764 182.465591,36.414062 176.198975,33.719685 
	C169.084885,30.660919 162.888214,32.532459 157.461487,38.367546 
	C156.254227,34.286747 154.295319,32.118572 150.434219,33.062824 
	C146.400085,34.049381 147.009308,37.349888 147.009918,40.306679 
	C147.012543,52.959808 146.972565,65.613205 147.049744,78.265884 
	C147.069702,81.537178 148.081100,84.094986 152.199112,84.019531 
	C156.122650,83.947624 156.759979,81.285744 156.932892,78.369835 
	C157.123230,75.159424 156.976288,71.929016 156.976288,68.266113 
	C169.053406,76.776932 180.722809,73.639618 185.899185,60.634560 
	C187.290634,57.138710 186.680893,52.846317 186.963867,48.030170 
M263.956055,60.403442 
	C263.952759,56.243652 264.328918,52.041729 263.872681,47.932232 
	C262.664612,37.051762 258.548157,32.029572 247.937592,33.139835 
	C244.665298,33.482243 241.531784,35.151234 238.334732,36.212814 
	C236.162277,34.461926 233.369308,32.893906 231.079803,33.439304 
	C229.679733,33.772827 228.533615,37.274761 228.201675,39.492645 
	C227.714233,42.749550 228.050507,46.130680 228.047333,49.458897 
	C228.041931,55.116135 227.576126,60.831707 228.268524,66.402870 
	C228.559082,68.740807 230.889236,71.894707 233.033966,72.698631 
	C236.885406,74.142296 237.712357,70.169937 238.702103,67.472809 
	C239.139771,66.280128 238.985428,64.847412 238.991379,63.523178 
	C239.013092,58.697330 239.018143,53.871006 238.973373,49.045387 
	C238.935226,44.932247 240.823685,42.383129 244.965683,41.997086 
	C248.778000,41.641766 252.659653,41.911217 253.036438,46.946117 
	C253.553192,53.851360 253.889191,60.784512 253.904175,67.706566 
	C253.911163,70.939308 255.603806,72.636917 258.136780,72.658165 
	C259.781097,72.671959 262.300110,71.062119 262.901733,69.566208 
	C263.896423,67.093079 263.659302,64.124535 263.956055,60.403442 
M116.020691,123.331863 
	C116.020790,124.662140 115.655212,126.133728 116.102516,127.291183 
	C116.866730,129.268661 117.748581,132.023880 119.305824,132.650146 
	C121.010185,133.335556 123.536324,131.977554 126.594643,131.318146 
	C130.882492,135.002243 138.895111,133.178833 142.742477,129.700409 
	C147.015488,125.837151 148.869003,114.622581 145.771149,108.845100 
	C144.582245,106.627777 142.753876,103.824829 140.656403,103.214256 
	C136.130219,101.896690 131.241287,101.825256 125.937683,101.174919 
	C125.937683,100.950645 125.976219,99.470573 125.929893,97.993164 
	C125.824066,94.618408 125.929802,91.060532 121.039940,91.051300 
	C116.215515,91.042191 116.066460,94.475426 116.051247,97.929001 
	C116.015358,106.076874 116.026260,114.224945 116.020691,123.331863 
M128.690979,33.001484 
	C121.980728,33.182610 118.051147,35.853157 116.012543,41.228603 
	C114.154480,46.127995 115.451508,50.274670 119.593765,52.828579 
	C123.266846,55.093208 127.724289,56.046379 131.655258,57.950546 
	C133.315323,58.754684 134.513367,60.512608 135.921417,61.836994 
	C134.223923,62.883926 132.396576,64.964645 130.854935,64.770981 
	C127.206978,64.312706 123.746864,62.515568 120.105629,61.781326 
	C118.296097,61.416439 115.236229,61.538662 114.540680,62.609196 
	C113.278694,64.551491 113.451492,67.107536 116.258308,68.806664 
	C121.526215,71.995613 127.107384,73.583580 133.199371,72.912872 
	C139.259369,72.245689 144.466278,67.533691 144.972000,62.619572 
	C145.620895,56.314102 142.759964,52.416599 135.746323,49.943451 
	C132.970261,48.964558 130.113449,48.102226 127.531509,46.736649 
	C126.383492,46.129463 125.824883,44.407867 124.998741,43.192093 
	C126.289909,42.447514 127.635315,41.001823 128.861557,41.096668 
	C131.904984,41.332058 134.872070,42.606075 137.912872,42.804985 
	C139.829880,42.930386 141.824463,41.870018 143.784241,41.341560 
	C142.889069,39.277355 142.494049,36.012474 140.998520,35.389492 
	C137.476685,33.922428 133.429855,33.715637 128.690979,33.001484 
M197.030228,132.973221 
	C198.358414,132.980774 199.686920,133.010483 201.014755,132.992172 
	C208.450684,132.889679 213.859085,128.699417 215.731674,121.604530 
	C217.407288,115.255928 214.229233,106.469803 209.278534,103.764046 
	C201.515717,99.521339 194.121887,100.209404 188.910568,105.659470 
	C180.736847,114.207695 184.289505,127.510002 197.030228,132.973221 
M180.127151,123.491753 
	C180.510941,121.745697 181.081390,120.017082 181.246353,118.250595 
	C181.977859,110.417282 178.663040,105.349648 170.757416,101.974701 
	C166.041946,99.961639 157.069473,101.819496 153.846207,105.755959 
	C149.122070,111.525383 148.707443,118.151962 151.482483,124.738632 
	C153.499939,129.527191 157.533493,132.408310 162.904404,132.996628 
	C170.513672,133.830154 176.503006,131.487228 180.127151,123.491753 
M225.011383,54.471798 
	C225.008636,48.979950 225.347305,43.454273 224.808426,38.015549 
	C224.632080,36.235683 222.483215,33.919685 220.691605,33.194057 
	C217.607712,31.945036 215.278717,34.221035 215.207901,37.116734 
	C214.955887,47.423195 214.914474,57.752937 215.428131,68.042175 
	C215.513977,69.761887 218.757080,71.323982 220.541290,72.958908 
	C221.837875,71.251640 223.928101,69.687607 224.267380,67.807579 
	C224.994766,63.776939 224.818130,59.583157 225.011383,54.471798 
M216.018082,23.302746 
	C217.519470,24.805534 218.807343,26.970968 220.606216,27.550613 
	C221.608139,27.873465 224.215256,25.809263 224.703354,24.353050 
	C225.133316,23.070223 224.075302,20.301239 222.881439,19.656252 
	C219.911804,18.051912 217.120560,18.728542 216.018082,23.302746 
z"/>
<path fill="#6CB13F" opacity="1.000000" stroke="none" 
	d="
M85.990669,131.759247 
	C85.990669,131.759247 85.533188,131.912827 84.823830,131.959595 
	C67.377892,132.015442 50.641308,132.024506 33.904724,132.033585 
	C28.768223,131.311798 26.913616,127.201866 24.706816,123.324516 
	C18.785503,112.920784 12.761356,102.575340 6.739718,92.229050 
	C3.151231,86.063385 2.763530,80.132248 6.619611,73.721466 
	C13.624983,62.074951 20.021381,50.061131 27.077162,38.446781 
	C28.516184,36.078041 31.741610,34.794544 34.986580,33.015221 
	C51.584724,33.012840 67.339828,33.006012 83.094933,32.999184 
	C88.286324,32.973724 90.544456,36.939404 92.669662,40.561813 
	C99.564224,52.313545 106.255135,64.186798 112.882019,76.092537 
	C115.531960,80.853371 115.413284,85.360992 112.336426,90.372971 
	C104.529716,103.089508 97.323601,116.174599 89.850021,129.096512 
	C89.638626,129.462036 89.122543,129.651352 88.213272,130.130829 
	C87.438965,130.569733 87.211021,130.811127 86.994209,131.063019 
	C86.994209,131.063019 86.995613,130.997131 86.842361,131.117371 
	C86.445358,131.396866 86.212547,131.570740 85.990669,131.759247 
M59.386585,103.962448 
	C41.941250,103.732658 31.975237,87.286377 37.366150,72.813972 
	C38.839382,68.858940 42.747223,65.857773 45.206993,62.196621 
	C46.019527,60.987232 45.792824,59.079628 46.041294,57.491264 
	C44.295135,57.333096 42.542278,57.020004 40.806194,57.095005 
	C40.136395,57.123940 39.473068,57.998955 38.860332,58.548218 
	C29.110640,67.287903 26.066347,82.124207 32.185059,94.290527 
	C37.335484,104.531532 49.160336,112.978592 63.585087,110.194893 
	C75.453072,107.904594 83.343979,101.257629 86.857933,90.055511 
	C90.286140,79.126724 88.182846,68.768822 80.466339,60.028042 
	C78.478508,57.776352 75.996223,53.898544 72.390709,57.239761 
	C68.397369,60.940395 73.411217,62.552803 75.101898,64.590004 
	C80.832565,71.495239 83.596626,78.834511 80.581284,87.862404 
	C77.266747,97.786087 70.218094,102.617188 59.386585,103.962448 
M54.978992,58.674911 
	C54.978245,65.652908 54.747406,72.643806 55.137352,79.599899 
	C55.235722,81.354752 57.136684,84.213211 58.530369,84.422081 
	C60.907513,84.778328 63.014278,82.985214 63.008213,79.918388 
	C62.991459,71.445412 63.222786,62.962833 62.835266,54.507923 
	C62.763538,52.943020 60.258255,51.489655 58.876160,49.984810 
	C57.579487,51.404137 56.059319,52.687218 55.077225,54.298309 
	C54.559738,55.147224 54.981644,56.568779 54.978992,58.674911 
z"/>
<path fill="#6DAE41" opacity="1.000000" stroke="none" 
	d="
M294.315765,69.294006 
	C288.693848,73.731705 282.726105,74.009369 276.298645,71.099663 
	C269.894501,68.200508 266.926971,62.826069 266.144257,56.396420 
	C265.197266,48.617737 266.540894,41.089642 273.308868,36.040359 
	C280.750946,30.488150 288.382751,32.267494 295.476715,35.141220 
	C297.996826,34.466824 300.870819,32.755077 302.922119,33.454876 
	C304.489105,33.989437 305.777252,37.546410 305.867584,39.811626 
	C306.205780,48.293831 305.748718,56.807034 306.062927,65.291092 
	C306.459076,75.988602 299.277100,83.088478 288.931732,83.717018 
	C282.927032,84.081833 276.682526,82.150421 270.736938,80.545044 
	C269.438202,80.194359 267.953064,76.617706 268.320068,74.905350 
	C268.913849,72.135040 271.252228,71.656036 274.196991,73.003807 
	C278.954315,75.181145 284.044220,77.015213 289.304596,74.919472 
	C291.417755,74.077599 293.121704,72.208618 295.312012,70.321259 
	C295.654053,69.398666 295.695984,68.961922 295.737885,68.525177 
	C295.263855,68.781456 294.789795,69.037727 294.315765,69.294006 
M276.973450,58.128910 
	C280.295502,64.110718 286.002563,65.998367 291.332550,62.878292 
	C296.556183,59.820480 298.333893,50.942856 294.813629,45.493797 
	C291.828217,40.872585 285.276215,39.668125 280.430267,42.849678 
	C276.253052,45.592197 274.941895,50.712132 276.973450,58.128910 
z"/>
<path fill="#6DAE40" opacity="1.000000" stroke="none" 
	d="
M186.976822,48.474873 
	C186.680893,52.846317 187.290634,57.138710 185.899185,60.634560 
	C180.722809,73.639618 169.053406,76.776932 156.976288,68.266113 
	C156.976288,71.929016 157.123230,75.159424 156.932892,78.369835 
	C156.759979,81.285744 156.122650,83.947624 152.199112,84.019531 
	C148.081100,84.094986 147.069702,81.537178 147.049744,78.265884 
	C146.972565,65.613205 147.012543,52.959808 147.009918,40.306679 
	C147.009308,37.349888 146.400085,34.049381 150.434219,33.062824 
	C154.295319,32.118572 156.254227,34.286747 157.461487,38.367546 
	C162.888214,32.532459 169.084885,30.660919 176.198975,33.719685 
	C182.465591,36.414062 185.651993,41.546764 186.976822,48.474873 
M169.488419,64.145927 
	C177.464462,60.452545 180.028458,53.447048 175.178055,45.944851 
	C173.571136,43.459381 169.401367,41.313423 166.404846,41.315369 
	C159.971741,41.319546 156.149414,47.535423 156.964417,54.879242 
	C157.651993,61.074829 162.484970,65.028160 169.488419,64.145927 
z"/>
<path fill="#6CAD40" opacity="1.000000" stroke="none" 
	d="
M263.948669,60.884098 
	C263.659302,64.124535 263.896423,67.093079 262.901733,69.566208 
	C262.300110,71.062119 259.781097,72.671959 258.136780,72.658165 
	C255.603806,72.636917 253.911163,70.939308 253.904175,67.706566 
	C253.889191,60.784512 253.553192,53.851360 253.036438,46.946117 
	C252.659653,41.911217 248.778000,41.641766 244.965683,41.997086 
	C240.823685,42.383129 238.935226,44.932247 238.973373,49.045387 
	C239.018143,53.871006 239.013092,58.697330 238.991379,63.523178 
	C238.985428,64.847412 239.139771,66.280128 238.702103,67.472809 
	C237.712357,70.169937 236.885406,74.142296 233.033966,72.698631 
	C230.889236,71.894707 228.559082,68.740807 228.268524,66.402870 
	C227.576126,60.831707 228.041931,55.116135 228.047333,49.458897 
	C228.050507,46.130680 227.714233,42.749550 228.201675,39.492645 
	C228.533615,37.274761 229.679733,33.772827 231.079803,33.439304 
	C233.369308,32.893906 236.162277,34.461926 238.334732,36.212814 
	C241.531784,35.151234 244.665298,33.482243 247.937592,33.139835 
	C258.548157,32.029572 262.664612,37.051762 263.872681,47.932232 
	C264.328918,52.041729 263.952759,56.243652 263.948669,60.884098 
z"/>
<path fill="#6DAD41" opacity="1.000000" stroke="none" 
	d="
M116.019463,122.852402 
	C116.026260,114.224945 116.015358,106.076874 116.051247,97.929001 
	C116.066460,94.475426 116.215515,91.042191 121.039940,91.051300 
	C125.929802,91.060532 125.824066,94.618408 125.929893,97.993164 
	C125.976219,99.470573 125.937683,100.950645 125.937683,101.174919 
	C131.241287,101.825256 136.130219,101.896690 140.656403,103.214256 
	C142.753876,103.824829 144.582245,106.627777 145.771149,108.845100 
	C148.869003,114.622581 147.015488,125.837151 142.742477,129.700409 
	C138.895111,133.178833 130.882492,135.002243 126.594643,131.318146 
	C123.536324,131.977554 121.010185,133.335556 119.305824,132.650146 
	C117.748581,132.023880 116.866730,129.268661 116.102516,127.291183 
	C115.655212,126.133728 116.020790,124.662140 116.019463,122.852402 
M130.800827,109.072174 
	C125.952370,112.126999 124.392235,118.184525 127.310623,122.623505 
	C129.032150,125.241997 133.396225,126.067017 134.811157,123.408394 
	C136.368820,120.481598 136.984024,116.649635 136.700989,113.323380 
	C136.566895,111.747597 133.386520,110.431030 130.800827,109.072174 
z"/>
<path fill="#6DAC41" opacity="1.000000" stroke="none" 
	d="
M129.143204,33.000237 
	C133.429855,33.715637 137.476685,33.922428 140.998520,35.389492 
	C142.494049,36.012474 142.889069,39.277355 143.784241,41.341560 
	C141.824463,41.870018 139.829880,42.930386 137.912872,42.804985 
	C134.872070,42.606075 131.904984,41.332058 128.861557,41.096668 
	C127.635315,41.001823 126.289909,42.447514 124.998741,43.192093 
	C125.824883,44.407867 126.383492,46.129463 127.531509,46.736649 
	C130.113449,48.102226 132.970261,48.964558 135.746323,49.943451 
	C142.759964,52.416599 145.620895,56.314102 144.972000,62.619572 
	C144.466278,67.533691 139.259369,72.245689 133.199371,72.912872 
	C127.107384,73.583580 121.526215,71.995613 116.258308,68.806664 
	C113.451492,67.107536 113.278694,64.551491 114.540680,62.609196 
	C115.236229,61.538662 118.296097,61.416439 120.105629,61.781326 
	C123.746864,62.515568 127.206978,64.312706 130.854935,64.770981 
	C132.396576,64.964645 134.223923,62.883926 135.921417,61.836994 
	C134.513367,60.512608 133.315323,58.754684 131.655258,57.950546 
	C127.724289,56.046379 123.266846,55.093208 119.593765,52.828579 
	C115.451508,50.274670 114.154480,46.127995 116.012543,41.228603 
	C118.051147,35.853157 121.980728,33.182610 129.143204,33.000237 
z"/>
<path fill="#6CAD40" opacity="1.000000" stroke="none" 
	d="
M196.609344,132.941711 
	C184.289505,127.510002 180.736847,114.207695 188.910568,105.659470 
	C194.121887,100.209404 201.515717,99.521339 209.278534,103.764046 
	C214.229233,106.469803 217.407288,115.255928 215.731674,121.604530 
	C213.859085,128.699417 208.450684,132.889679 201.014755,132.992172 
	C199.686920,133.010483 198.358414,132.980774 196.609344,132.941711 
M206.009827,117.421783 
	C206.009018,116.924339 206.051376,116.422440 206.000504,115.930176 
	C205.643845,112.480415 204.830170,108.815842 200.575333,109.240784 
	C198.586716,109.439400 195.496643,111.920883 195.266556,113.677002 
	C194.769485,117.470802 193.398651,122.233604 197.985443,124.813225 
	C199.186066,125.488457 201.865860,125.368187 202.681549,124.500046 
	C204.238251,122.843254 204.942825,120.385826 206.009827,117.421783 
z"/>
<path fill="#6CAD40" opacity="1.000000" stroke="none" 
	d="
M180.059021,123.874832 
	C176.503006,131.487228 170.513672,133.830154 162.904404,132.996628 
	C157.533493,132.408310 153.499939,129.527191 151.482483,124.738632 
	C148.707443,118.151962 149.122070,111.525383 153.846207,105.755959 
	C157.069473,101.819496 166.041946,99.961639 170.757416,101.974701 
	C178.663040,105.349648 181.977859,110.417282 181.246353,118.250595 
	C181.081390,120.017082 180.510941,121.745697 180.059021,123.874832 
M167.054794,109.069267 
	C160.671402,109.217422 157.358719,115.956825 161.095947,121.937943 
	C162.073441,123.502312 164.692581,124.708328 166.612137,124.789261 
	C167.961182,124.846138 169.954346,122.996735 170.700195,121.515358 
	C173.063629,116.821190 171.954391,112.642494 167.054794,109.069267 
z"/>
<path fill="#6DAE3F" opacity="1.000000" stroke="none" 
	d="
M196.978745,72.063744 
	C193.325821,74.161522 190.926163,72.864418 190.032150,69.065140 
	C189.364548,66.227974 189.119385,63.245979 189.058228,60.320702 
	C188.919342,53.676476 188.738037,47.010635 189.147858,40.389099 
	C189.300598,37.920952 190.562180,34.036724 192.195175,33.508244 
	C194.400955,32.794388 197.452728,34.694569 199.660080,36.437973 
	C202.232498,35.294815 204.726257,33.585480 207.405762,33.213272 
	C209.110443,32.976479 212.185776,34.300358 212.716766,35.671642 
	C213.780853,38.419601 212.801453,41.078342 209.184357,42.051163 
	C204.449234,43.324692 200.968613,46.122948 199.671432,51.941151 
	C198.588882,59.106331 197.783813,65.585037 196.978745,72.063744 
z"/>
<path fill="#6CB13E" opacity="1.000000" stroke="none" 
	d="
M232.073273,124.945236 
	C232.768112,124.959251 233.462967,124.973259 234.713623,125.208725 
	C237.945862,127.383018 236.961624,129.755264 236.035934,132.120789 
	C236.035934,132.120789 236.033340,132.052414 235.604279,132.046677 
	C232.088806,132.040955 229.002365,132.040970 225.915939,132.040985 
	C225.915939,132.040985 225.997620,132.003525 225.801056,131.879364 
	C225.129852,131.495773 224.655228,131.236343 224.180603,130.976898 
	C220.434906,126.096687 222.496628,120.419960 222.047165,115.095512 
	C221.844025,112.689293 222.378586,110.374557 219.460312,108.766869 
	C218.636536,108.313057 219.117874,104.859001 219.569931,102.913284 
	C219.955109,101.255417 221.696320,99.854080 221.897934,98.223106 
	C222.494003,93.401146 223.914413,92.395592 229.589386,94.390671 
	C229.610886,103.927277 229.610886,103.927277 235.528412,103.290176 
	C235.528412,103.290176 235.686813,103.303864 235.616608,103.887848 
	C235.604523,105.823814 235.662628,107.175789 235.720734,108.527763 
	C235.720734,108.527763 235.698654,108.702156 235.250671,108.651794 
	C233.554245,109.106087 232.305817,109.610741 231.057373,110.115395 
	C231.039032,114.066902 231.020691,118.018417 231.025085,122.629257 
	C231.389618,123.840805 231.731445,124.393021 232.073273,124.945236 
z"/>
<path fill="#6EAC3C" opacity="1.000000" stroke="none" 
	d="
M225.011536,54.963989 
	C224.818130,59.583157 224.994766,63.776939 224.267380,67.807579 
	C223.928101,69.687607 221.837875,71.251640 220.541290,72.958908 
	C218.757080,71.323982 215.513977,69.761887 215.428131,68.042175 
	C214.914474,57.752937 214.955887,47.423195 215.207901,37.116734 
	C215.278717,34.221035 217.607712,31.945036 220.691605,33.194057 
	C222.483215,33.919685 224.632080,36.235683 224.808426,38.015549 
	C225.347305,43.454273 225.008636,48.979950 225.011536,54.963989 
z"/>
<path fill="#6CB03E" opacity="1.000000" stroke="none" 
	d="
M216.019470,22.914631 
	C217.120560,18.728542 219.911804,18.051912 222.881439,19.656252 
	C224.075302,20.301239 225.133316,23.070223 224.703354,24.353050 
	C224.215256,25.809263 221.608139,27.873465 220.606216,27.550613 
	C218.807343,26.970968 217.519470,24.805534 216.019470,22.914631 
z"/>
<path fill="#73A94B" opacity="1.000000" stroke="none" 
	d="
M34.165375,132.383087 
	C50.641308,132.024506 67.377892,132.015442 84.587433,132.007889 
	C84.358246,132.322159 83.655769,132.908401 82.954010,132.907547 
	C66.777969,132.887833 50.602001,132.804291 34.165375,132.383087 
z"/>
<path fill="#7FA15D" opacity="1.000000" stroke="none" 
	d="
M82.838943,32.643631 
	C67.339828,33.006012 51.584724,33.012840 35.351532,33.008095 
	C35.573681,32.675964 36.274475,32.074760 36.974068,32.076149 
	C52.177116,32.106358 67.380028,32.203674 82.838943,32.643631 
z"/>
<path fill="#75A44D" opacity="1.000000" stroke="none" 
	d="
M197.329865,71.908035 
	C197.783813,65.585037 198.588882,59.106331 199.592178,52.305519 
	C199.465714,58.613434 201.783051,65.525375 197.329865,71.908035 
z"/>
<path fill="#71A24F" opacity="1.000000" stroke="none" 
	d="
M235.289795,102.995010 
	C229.610886,103.927277 229.610886,103.927277 229.922424,94.587006 
	C230.469376,96.520149 231.026489,98.857727 231.692719,101.653152 
	C232.463867,101.893486 233.757523,102.296661 235.289795,102.995010 
z"/>
<path fill="#75A34D" opacity="1.000000" stroke="none" 
	d="
M236.391327,132.055786 
	C236.961624,129.755264 237.945862,127.383018 235.061050,125.194847 
	C236.413818,125.680984 237.974930,126.402451 239.536057,127.123924 
	C238.606277,128.746216 237.676498,130.368500 236.391327,132.055786 
z"/>
<path fill="#75A34D" opacity="1.000000" stroke="none" 
	d="
M226.162750,132.379974 
	C229.002365,132.040970 232.088806,132.040955 235.638489,132.047806 
	C232.871002,132.276108 229.640274,132.497543 226.162750,132.379974 
z"/>
<path fill="#71A24F" opacity="1.000000" stroke="none" 
	d="
M235.984406,108.317352 
	C235.662628,107.175789 235.604523,105.823814 235.623428,103.967049 
	C235.882996,105.010483 236.065552,106.558708 235.984406,108.317352 
z"/>
<path fill="#71A24F" opacity="1.000000" stroke="none" 
	d="
M231.411438,110.073196 
	C232.305817,109.610741 233.554245,109.106087 235.163544,108.663437 
	C234.271439,109.160622 233.018463,109.595802 231.411438,110.073196 
z"/>
<path fill="#75A34D" opacity="1.000000" stroke="none" 
	d="
M232.021057,124.635498 
	C231.731445,124.393021 231.389618,123.840805 231.035980,123.071083 
	C231.339035,123.344307 231.653931,123.835037 232.021057,124.635498 
z"/>
<path fill="#75A34D" opacity="1.000000" stroke="none" 
	d="
M224.224747,131.284271 
	C224.655228,131.236343 225.129852,131.495773 225.819763,131.920212 
	C225.446335,131.920700 224.857605,131.756165 224.224747,131.284271 
z"/>
<path fill="#73A94B" opacity="1.000000" stroke="none" 
	d="
M87.242104,130.968719 
	C87.211021,130.811127 87.438965,130.569733 87.860970,130.170303 
	C87.859276,130.292648 87.674637,130.583527 87.242104,130.968719 
z"/>
<path fill="#73A94B" opacity="1.000000" stroke="none" 
	d="
M86.241516,131.782257 
	C86.212547,131.570740 86.445358,131.396866 86.874832,131.122955 
	C86.871162,131.273956 86.681755,131.539612 86.241516,131.782257 
z"/>
<path fill="#000000" opacity="1.000000" stroke="none" 
	d="
M59.822083,103.960281 
	C70.218094,102.617188 77.266747,97.786087 80.581284,87.862404 
	C83.596626,78.834511 80.832565,71.495239 75.101898,64.590004 
	C73.411217,62.552803 68.397369,60.940395 72.390709,57.239761 
	C75.996223,53.898544 78.478508,57.776352 80.466339,60.028042 
	C88.182846,68.768822 90.286140,79.126724 86.857933,90.055511 
	C83.343979,101.257629 75.453072,107.904594 63.585087,110.194893 
	C49.160336,112.978592 37.335484,104.531532 32.185059,94.290527 
	C26.066347,82.124207 29.110640,67.287903 38.860332,58.548218 
	C39.473068,57.998955 40.136395,57.123940 40.806194,57.095005 
	C42.542278,57.020004 44.295135,57.333096 46.041294,57.491264 
	C45.792824,59.079628 46.019527,60.987232 45.206993,62.196621 
	C42.747223,65.857773 38.839382,68.858940 37.366150,72.813972 
	C31.975237,87.286377 41.941250,103.732658 59.822083,103.960281 
z"/>
<path fill="#000000" opacity="1.000000" stroke="none" 
	d="
M54.979195,58.203346 
	C54.981644,56.568779 54.559738,55.147224 55.077225,54.298309 
	C56.059319,52.687218 57.579487,51.404137 58.876160,49.984810 
	C60.258255,51.489655 62.763538,52.943020 62.835266,54.507923 
	C63.222786,62.962833 62.991459,71.445412 63.008213,79.918388 
	C63.014278,82.985214 60.907513,84.778328 58.530369,84.422081 
	C57.136684,84.213211 55.235722,81.354752 55.137352,79.599899 
	C54.747406,72.643806 54.978245,65.652908 54.979195,58.203346 
z"/>
<path fill="#000000" opacity="1.000000" stroke="none" 
	d="
M276.844482,57.742241 
	C274.941895,50.712132 276.253052,45.592197 280.430267,42.849678 
	C285.276215,39.668125 291.828217,40.872585 294.813629,45.493797 
	C298.333893,50.942856 296.556183,59.820480 291.332550,62.878292 
	C286.002563,65.998367 280.295502,64.110718 276.844482,57.742241 
z"/>
<path fill="#000000" opacity="1.000000" stroke="none" 
	d="
M294.512360,69.492493 
	C294.789795,69.037727 295.263855,68.781456 295.737885,68.525177 
	C295.695984,68.961922 295.654053,69.398666 295.357849,69.960983 
	C294.971985,69.954697 294.840454,69.822830 294.512360,69.492493 
z"/>
<path fill="#000000" opacity="1.000000" stroke="none" 
	d="
M169.179352,64.382004 
	C162.484970,65.028160 157.651993,61.074829 156.964417,54.879242 
	C156.149414,47.535423 159.971741,41.319546 166.404846,41.315369 
	C169.401367,41.313423 173.571136,43.459381 175.178055,45.944851 
	C180.028458,53.447048 177.464462,60.452545 169.179352,64.382004 
z"/>
<path fill="#000000" opacity="1.000000" stroke="none" 
	d="
M131.193542,109.034592 
	C133.386520,110.431030 136.566895,111.747597 136.700989,113.323380 
	C136.984024,116.649635 136.368820,120.481598 134.811157,123.408394 
	C133.396225,126.067017 129.032150,125.241997 127.310623,122.623505 
	C124.392235,118.184525 125.952370,112.126999 131.193542,109.034592 
z"/>
<path fill="#000000" opacity="1.000000" stroke="none" 
	d="
M206.005478,117.841263 
	C204.942825,120.385826 204.238251,122.843254 202.681549,124.500046 
	C201.865860,125.368187 199.186066,125.488457 197.985443,124.813225 
	C193.398651,122.233604 194.769485,117.470802 195.266556,113.677002 
	C195.496643,111.920883 198.586716,109.439400 200.575333,109.240784 
	C204.830170,108.815842 205.643845,112.480415 206.000504,115.930176 
	C206.051376,116.422440 206.009018,116.924339 206.005478,117.841263 
z"/>
<path fill="#000000" opacity="1.000000" stroke="none" 
	d="
M167.427200,109.205833 
	C171.954391,112.642494 173.063629,116.821190 170.700195,121.515358 
	C169.954346,122.996735 167.961182,124.846138 166.612137,124.789261 
	C164.692581,124.708328 162.073441,123.502312 161.095947,121.937943 
	C157.358719,115.956825 160.671402,109.217422 167.427200,109.205833 
z"/>
</svg>