<svg version="1.1" id="Layer_1" xmlns="http://www.w3.org/2000/svg" xmlns:xlink="http://www.w3.org/1999/xlink" x="0px" y="0px"
	 width="100%" viewBox="0 0 409 123" enable-background="new 0 0 409 123" xml:space="preserve">
<path fill="#FCFCFC" opacity="1.000000" stroke="none" 
	d="
M266.000000,124.000000 
	C177.333359,124.000000 89.166710,124.000000 1.000047,124.000000 
	C1.000031,83.000031 1.000031,42.000061 1.000016,1.000069 
	C137.333267,1.000046 273.666534,1.000046 409.999878,1.000023 
	C409.999908,41.999928 409.999908,82.999855 409.999939,123.999893 
	C362.166656,124.000000 314.333344,124.000000 266.000000,124.000000 
M12.722234,76.104378 
	C12.815738,76.070290 12.909242,76.036201 13.276860,75.892601 
	C13.183841,75.927490 13.090821,75.962372 12.722234,76.104378 
M29.432590,58.010708 
	C29.249096,58.645741 29.065601,59.280769 28.189575,60.055714 
	C26.723270,61.715889 25.174604,63.311199 23.806276,65.048538 
	C19.879177,70.034714 16.025082,75.078377 12.013258,80.266312 
	C15.230469,80.566330 17.633673,80.790436 20.006592,81.785835 
	C20.541729,85.518394 22.204250,89.441437 18.069550,91.584770 
	C17.040005,90.726540 16.010462,89.868301 14.999413,88.998619 
	C14.999413,88.998619 14.990588,89.017487 14.986927,88.284256 
	C14.474154,86.936493 13.961380,85.588722 13.448607,84.240959 
	C13.043137,84.360382 12.637666,84.479805 12.232195,84.599228 
	C12.488175,86.066757 12.744157,87.534294 12.324942,89.341354 
	C10.773508,89.596939 9.222075,89.852524 7.416609,90.149948 
	C7.416609,88.507935 7.416609,87.412552 7.416609,85.947632 
	C2.144051,91.710205 1.917197,97.447227 6.996417,102.304306 
	C13.919325,108.924423 22.354012,112.403549 32.469181,113.306671 
	C33.100410,113.717712 33.731640,114.128754 34.873051,114.872009 
	C34.439964,113.016068 34.188717,111.939377 34.216457,110.319389 
	C33.141449,109.881950 32.066441,109.444511 30.914520,108.271263 
	C31.519115,107.133820 32.271023,106.049255 32.701805,104.849411 
	C34.243107,100.556473 36.704094,98.917465 41.232784,101.075851 
	C42.897373,101.869194 45.022907,101.695374 47.517048,102.208702 
	C48.186115,102.195755 48.855183,102.182808 49.524254,102.169853 
	C48.680847,101.780663 47.837440,101.391472 46.250404,100.899567 
	C43.682938,100.054420 41.115471,99.209274 38.356636,98.301132 
	C39.105106,96.910362 39.608456,95.975075 40.658951,95.277367 
	C41.449165,94.860985 42.239384,94.444611 43.590511,93.940277 
	C43.906773,93.630157 44.223030,93.320045 44.539288,93.009926 
	C44.330284,92.828705 44.121281,92.647491 43.912273,92.466270 
	C43.599792,92.968727 43.287312,93.471191 42.226982,93.987343 
	C41.478584,93.995171 40.730190,94.002998 39.998547,93.998711 
	C39.998547,93.998711 39.990021,94.015144 39.997326,93.325768 
	C39.990440,92.865921 39.983555,92.406082 40.064594,91.272659 
	C40.750179,89.851074 41.435760,88.429489 42.637596,86.956566 
	C42.735065,86.268539 42.832531,85.580521 43.020535,84.209244 
	C44.015255,83.145531 45.009972,82.081818 45.999687,80.995537 
	C45.999687,80.995537 45.977524,81.003944 46.044674,81.486809 
	C46.365631,81.318840 46.686588,81.150864 47.007072,80.178543 
	C46.685490,78.442741 46.363903,76.706932 46.239113,74.461205 
	C46.490993,73.976379 46.742874,73.491554 47.581467,72.938850 
	C47.713806,72.285652 47.846146,71.632462 47.987946,70.315971 
	C47.990437,69.872940 47.992931,69.429909 48.734993,69.076385 
	C50.314163,69.334816 51.893330,69.593239 54.253620,69.979492 
	C53.198151,67.646767 52.601131,66.327278 51.806919,64.394020 
	C53.765259,63.943825 55.723595,63.493629 57.801998,63.859348 
	C57.479515,66.218887 57.157036,68.578430 56.356911,70.762497 
	C55.939060,71.118614 55.521206,71.474731 55.103355,71.830849 
	C55.737232,71.886444 56.371105,71.942039 57.280117,72.740547 
	C56.857204,76.827675 56.434292,80.914803 55.530380,85.293518 
	C53.691879,84.855927 51.853382,84.418327 49.895874,83.709091 
	C49.807251,83.662422 49.718628,83.615753 49.630005,83.569084 
	C49.747200,83.717506 49.864399,83.865936 50.003159,84.769676 
	C50.161480,87.120804 50.319801,89.471931 50.468708,91.683205 
	C51.913330,91.560585 53.563789,91.420502 55.214279,91.904381 
	C54.935619,92.660225 54.656956,93.416077 53.802559,94.094002 
	C53.513870,94.273132 53.225182,94.452263 52.936489,94.631386 
	C53.353580,94.746742 53.770676,94.862099 54.200626,95.790169 
	C53.401623,99.005005 52.602619,102.219841 51.803616,105.434677 
	C52.340332,105.508133 52.877045,105.581589 53.413761,105.655045 
	C53.746368,105.102859 54.150326,104.580566 54.396706,103.992271 
	C54.907211,102.773308 55.329388,101.517532 55.795868,100.279907 
	C60.825802,86.934898 60.328262,73.033272 60.659927,58.849682 
	C64.041786,57.867638 67.423653,56.885597 71.415375,55.985176 
	C71.941864,55.731480 72.468346,55.477783 73.581863,54.959560 
	C74.003235,54.883400 74.424606,54.807240 75.188553,55.297726 
	C75.793800,55.506355 76.399048,55.714985 77.360016,56.425503 
	C78.240898,55.617744 79.121780,54.809986 80.432503,53.799019 
	C80.697678,53.614704 80.907776,53.380898 81.799492,53.094231 
	C86.440056,52.365311 91.080627,51.636391 95.913460,50.877270 
	C95.763382,46.958912 93.978493,44.199001 89.979645,42.248001 
	C85.747177,37.234135 81.807732,31.862032 74.659897,29.514416 
	C74.106903,29.341936 73.553909,29.169456 72.506378,28.958664 
	C72.506378,28.958664 72.010521,28.971701 71.817848,28.213221 
	C69.751892,27.864880 67.685928,27.516539 65.054672,27.147299 
	C64.701103,27.020376 64.347534,26.893456 63.528927,26.315182 
	C62.896027,26.267893 62.263126,26.220604 61.070507,26.138781 
	C60.713032,26.031332 60.355556,25.923885 59.513138,25.324203 
	C58.608101,25.246668 57.703060,25.169130 56.387173,25.121464 
	C56.387173,25.121464 56.012444,24.950373 55.471035,24.400269 
	C54.185146,24.325190 52.899261,24.250113 50.899643,24.178431 
	C49.596504,23.711296 48.293365,23.244160 46.798759,22.502274 
	C46.460800,22.316236 46.197670,22.408663 45.364052,22.958338 
	C44.921627,22.949646 44.479202,22.940954 43.911407,22.528282 
	C43.911407,22.528282 43.798180,22.120731 44.387413,21.704134 
	C44.593800,20.804741 44.800182,19.905350 45.007298,18.281273 
	C44.198334,17.269638 43.579880,15.709704 42.544430,15.349940 
	C39.527969,14.301883 36.278633,13.925779 33.258465,12.885850 
	C31.998409,12.451978 31.086779,11.006219 30.582525,10.224904 
	C31.716373,9.597381 32.850224,8.969856 33.984070,8.342333 
	C33.661293,7.852150 33.338516,7.361967 33.015736,6.871784 
	C32.010563,7.580141 31.005388,8.288498 29.454611,9.383480 
	C28.278078,10.399798 27.189455,11.549464 25.902327,12.398029 
	C24.360554,13.414474 22.649313,14.173866 20.705345,15.634300 
	C20.550261,17.196489 19.665085,19.448469 20.371778,20.196451 
	C22.872118,22.842880 25.916849,24.974966 28.909290,27.963665 
	C28.937658,28.647652 28.966028,29.331640 29.066553,30.616142 
	C29.623226,31.094080 30.179901,31.572020 31.111300,32.129822 
	C31.111300,32.129822 31.485741,32.048622 31.701244,32.660343 
	C31.859583,33.280499 32.017921,33.900650 32.174133,35.082882 
	C32.381882,35.382858 32.589630,35.682835 33.028404,36.400936 
	C33.028404,36.400936 33.057510,36.877758 32.961487,37.687840 
	C32.994892,38.769371 33.028301,39.850899 33.037594,41.488876 
	C33.037827,41.674534 33.038063,41.860188 33.360264,42.542645 
	C33.960831,43.039680 34.561401,43.536716 35.066509,44.518345 
	C35.066509,44.518345 35.013309,45.009377 34.313114,45.111095 
	C33.895340,46.099998 33.477562,47.088905 33.036289,48.865211 
	C32.569046,50.888111 32.101803,52.911007 31.044697,55.132690 
	C30.673529,56.064972 30.302362,56.997253 29.432590,58.010708 
M44.100533,13.313699 
	C44.194439,13.356730 44.288349,13.399763 44.382256,13.442794 
	C44.272587,13.281325 44.162918,13.119857 44.018608,12.180224 
	C43.366581,10.084943 42.714558,7.989661 42.062531,5.894378 
	C41.420891,6.182207 40.779251,6.470035 40.137611,6.757864 
	C41.412487,8.854844 42.687363,10.951825 44.100533,13.313699 
M193.002228,26.099262 
	C190.274933,31.720646 194.144745,37.131943 193.500259,42.683010 
	C194.042084,38.514103 194.583908,34.345196 195.178925,29.767052 
	C194.966599,29.045336 194.534027,27.574993 194.837967,25.934229 
	C195.980652,25.321722 197.123322,24.709215 198.266006,24.096706 
	C197.981171,23.609987 197.696350,23.123268 197.411514,22.636549 
	C196.069534,23.559782 194.727539,24.483013 193.002228,26.099262 
M163.692368,41.002747 
	C166.493561,37.599731 166.747147,33.050297 163.785385,30.856173 
	C160.652985,28.535624 157.373871,28.865736 154.146042,32.481567 
	C154.087173,35.332371 153.234451,38.511414 154.232513,40.925201 
	C154.968170,42.704376 158.039673,43.705433 160.265244,44.522266 
	C160.709671,44.685379 162.036163,42.445213 163.692368,41.002747 
M187.687271,41.871395 
	C191.237152,35.773361 190.192474,31.766254 183.694214,29.038691 
	C177.195877,31.557936 175.766220,33.684101 177.457077,39.621258 
	C177.926086,41.268112 179.684204,43.351070 181.194946,43.687130 
	C182.937302,44.074711 185.060532,42.750000 187.687271,41.871395 
M385.047913,69.125397 
	C385.047913,67.531631 385.047913,65.937866 385.047913,64.313980 
	C383.021240,64.313980 381.489899,64.313980 380.056244,64.313980 
	C380.056244,76.645081 380.056244,88.673958 380.056244,101.006065 
	C381.875916,100.922882 383.401398,100.853142 384.219208,100.815758 
	C385.098175,91.245682 385.925110,82.242432 387.228607,72.809433 
	C389.506073,68.912407 392.987457,68.264191 397.093109,69.538094 
	C397.093109,67.428856 397.093109,65.690598 397.093109,64.057968 
	C390.756561,61.854801 388.011627,66.238037 385.047913,69.125397 
M138.576065,88.731606 
	C141.196350,94.637543 145.215851,99.700798 151.620209,100.762054 
	C157.556580,101.745758 160.879364,104.978661 164.014740,109.419342 
	C167.571564,114.456886 167.724136,114.349159 174.500778,113.084450 
	C171.068314,109.100998 167.755737,105.256653 164.291397,101.236206 
	C171.292572,99.060806 176.273102,94.813667 178.716660,88.175079 
	C181.730545,79.987030 182.031540,71.581497 179.252960,63.221546 
	C176.232697,54.134476 169.326675,48.871815 160.062500,48.424969 
	C150.533752,47.965363 142.666153,52.623524 138.936234,61.287704 
	C135.159958,70.059593 135.005859,79.026962 138.576065,88.731606 
M112.791061,50.012707 
	C103.431686,53.970158 102.869202,68.651642 111.935516,74.266502 
	C115.597282,76.534279 119.135681,79.048691 122.493973,81.745102 
	C125.576370,84.220001 126.853363,87.576836 125.480583,91.516411 
	C124.089989,95.507072 120.673149,96.611366 117.085114,96.182236 
	C113.259743,95.724724 109.541862,94.368500 105.722031,93.390533 
	C104.208069,98.231194 106.227295,100.979530 111.512543,101.207626 
	C115.097923,101.362358 118.887360,101.843063 122.257912,100.946411 
	C131.326736,98.533905 134.858353,87.662956 129.101456,80.187721 
	C127.131493,77.629761 124.270172,75.716743 121.668388,73.699585 
	C119.445770,71.976387 116.874626,70.693222 114.704025,68.914719 
	C111.642159,66.405937 110.217461,63.102806 111.669250,59.178501 
	C113.145508,55.188084 116.501625,53.669025 120.420593,53.991234 
	C123.556763,54.249084 126.626923,55.309811 129.707947,56.010017 
	C129.949097,49.409054 129.494705,48.726513 122.790970,48.603775 
	C119.707443,48.547314 116.608253,49.346493 112.791061,50.012707 
M234.654572,75.841652 
	C237.851776,78.208450 241.656845,80.094864 244.037338,83.107079 
	C245.686859,85.194336 246.479996,89.236694 245.598251,91.655426 
	C244.846329,93.717995 241.167648,95.899918 238.770096,95.915329 
	C234.518982,95.942642 230.257568,94.367180 226.109268,93.485466 
	C225.709335,100.092133 225.709335,100.092140 233.102280,101.606407 
	C244.720688,103.986160 253.425415,96.775131 252.107422,85.854301 
	C251.489624,80.735291 247.995621,77.676849 244.140289,74.935623 
	C241.031189,72.724976 237.133713,71.184456 234.896301,68.322334 
	C233.037582,65.944626 231.797470,61.643715 232.683304,58.998425 
	C233.443817,56.727428 237.452332,54.659630 240.295181,54.208870 
	C243.395554,53.717281 246.807465,55.190468 250.028687,55.796833 
	C250.028687,53.913528 250.028687,51.982418 250.028687,49.241104 
	C246.073944,49.028725 242.285904,48.383106 238.585587,48.715168 
	C229.870773,49.497234 224.781357,56.104008 226.030060,64.553780 
	C226.769760,69.559212 230.118240,72.741684 234.654572,75.841652 
M369.423035,67.079926 
	C361.058868,60.268368 350.017731,62.615711 346.263458,72.655716 
	C344.595642,77.115944 344.108521,82.453415 344.645111,87.217003 
	C346.016266,99.389427 355.411102,104.787216 366.916382,100.812637 
	C370.413788,99.604431 372.313873,97.694817 370.827942,93.799240 
	C357.754822,99.558937 350.056610,96.061089 350.175354,83.995415 
	C357.907257,83.995415 365.654297,83.995415 373.738403,83.995415 
	C373.995636,77.881592 373.598175,72.405258 369.423035,67.079926 
M285.956390,77.879333 
	C285.750458,76.902534 285.561523,75.921791 285.335815,74.949577 
	C283.636169,67.628151 280.345520,64.197662 274.146332,63.271366 
	C267.937012,62.343548 261.652008,65.220726 259.161255,71.587608 
	C257.415405,76.050385 256.739502,81.254990 256.910553,86.081352 
	C257.352783,98.556816 266.936005,104.814621 278.730896,100.963539 
	C282.414459,99.760849 284.827606,97.920517 283.288757,93.527344 
	C270.734741,99.858543 262.573273,96.281494 262.361877,84.025536 
	C270.122650,84.025536 277.889099,84.025536 286.052643,84.025536 
	C286.052643,82.014366 286.052643,80.391182 285.956390,77.879333 
M194.017059,87.473495 
	C194.017059,74.761734 194.017059,62.049965 194.017059,49.127048 
	C191.652969,49.294228 190.085007,49.405106 188.533310,49.514835 
	C188.533310,66.810143 188.533310,83.694008 188.533310,100.771667 
	C196.827606,100.771667 204.872864,100.771667 213.117935,100.771667 
	C212.985947,98.919388 212.874023,97.348694 212.747726,95.576363 
	C206.423996,95.576363 200.467621,95.576363 194.016449,95.576363 
	C194.016449,93.055229 194.016449,90.762878 194.017059,87.473495 
M333.207245,75.711845 
	C331.253571,81.667442 329.299896,87.623039 327.038574,94.516388 
	C323.524353,83.588890 320.395538,73.859825 317.299103,64.231483 
	C315.166534,64.231483 313.409882,64.231483 311.235107,64.231483 
	C315.607788,76.743256 319.856476,88.900269 324.109009,101.068184 
	C326.212524,100.975800 327.833466,100.904610 329.538269,100.829742 
	C334.004913,88.564835 338.398071,76.501747 342.898010,64.145416 
	C340.700165,64.145416 339.073639,64.145416 337.200745,64.145416 
	C335.980103,67.806778 334.779938,71.406754 333.207245,75.711845 
M291.907227,88.489471 
	C291.907227,92.610802 291.907227,96.732140 291.907227,101.101212 
	C294.022858,100.955147 295.585938,100.847237 297.307922,100.728348 
	C297.307922,94.369919 296.893250,88.342239 297.457520,82.407654 
	C297.818024,78.616516 298.861969,74.396965 301.049500,71.443443 
	C302.550140,69.417351 306.543121,69.237206 309.552368,68.186378 
	C309.552368,67.217903 309.552368,65.638123 309.552368,64.197510 
	C304.164734,61.806648 301.204712,65.626823 297.666229,68.798866 
	C297.392944,66.852005 297.213074,65.570374 297.032196,64.281769 
	C295.343170,64.281769 293.774841,64.281769 291.907074,64.281769 
	C291.907074,72.201813 291.907074,79.846924 291.907227,88.489471 
M140.009949,31.086525 
	C140.626526,30.843618 141.243103,30.600712 141.923019,30.332857 
	C138.503952,30.516621 134.927902,30.191071 134.436447,35.043652 
	C134.095871,38.406498 134.276031,41.629955 137.778427,43.016788 
	C139.369446,43.646786 141.494659,42.927731 143.739319,42.800053 
	C140.711121,41.008945 137.322845,40.067539 137.092789,38.623093 
	C136.735550,36.380299 138.528809,33.794975 140.009949,31.086525 
M169.159744,36.191425 
	C170.616318,37.299191 172.072906,38.406956 174.761429,40.451645 
	C171.431564,41.070236 169.662872,41.398808 167.390137,41.821014 
	C170.305603,44.667099 173.073685,44.160095 174.615585,41.737801 
	C175.339355,40.600773 174.324966,36.994839 173.049240,36.207489 
	C169.473816,34.000793 169.000748,32.375229 174.110611,29.767811 
	C169.709549,30.732643 166.310364,31.069082 169.159744,36.191425 
M200.797958,28.033924 
	C200.181152,28.998720 198.957916,30.030102 199.055237,30.916485 
	C199.425629,34.289761 200.247040,37.611763 200.852234,40.961540 
	C201.363525,43.791492 202.678726,44.169567 205.713364,42.306126 
	C201.671127,40.686493 201.743500,33.696968 205.276428,30.821943 
	C204.462631,29.697451 203.785217,28.521856 202.858170,27.596336 
	C202.478317,27.217115 201.559189,27.378071 200.797958,28.033924 
M146.275467,33.788830 
	C146.275467,36.914799 146.275467,40.040768 146.275467,43.166737 
	C146.675949,43.168129 147.076431,43.169521 147.476898,43.170914 
	C148.548508,38.748440 149.620102,34.325966 150.691711,29.903494 
	C150.359924,32.014904 145.710510,27.493502 146.275467,33.788830 
M108.994667,41.879364 
	C110.006447,37.672104 106.915802,32.869663 111.019035,28.956882 
	C111.535019,28.464846 110.052254,25.876766 109.495560,24.259842 
	C108.862236,24.436947 108.228905,24.614052 107.595581,24.791159 
	C107.595581,27.544018 107.444206,30.307413 107.634895,33.047001 
	C107.860146,36.283058 108.381004,39.498539 108.994667,41.879364 
M129.136627,39.343792 
	C129.287354,40.604561 129.438065,41.865334 129.588791,43.126102 
	C129.975464,43.082016 130.362122,43.037926 130.748795,42.993839 
	C130.748795,38.682308 130.748795,34.370777 130.748795,30.059246 
	C130.206390,30.037062 129.663986,30.014875 129.121582,29.992691 
	C129.121582,32.795536 129.121582,35.598385 129.136627,39.343792 
M44.017929,114.889595 
	C42.027622,110.702660 40.384418,114.588341 38.577084,114.656738 
	C38.601715,115.066635 38.626350,115.476540 38.650982,115.886444 
	C40.229980,115.676888 41.808979,115.467339 44.017929,114.889595 
M40.401882,108.396378 
	C39.640854,108.426842 38.879822,108.457314 38.118793,108.487778 
	C38.499744,109.252151 38.880699,110.016533 39.261650,110.780907 
	C39.762783,110.172577 40.263916,109.564247 40.401882,108.396378 
M46.799187,105.786514 
	C47.680466,106.033607 48.561741,106.280701 49.443020,106.527794 
	C49.481468,105.957687 49.519917,105.387581 49.558365,104.817474 
	C48.511650,104.967537 47.464931,105.117607 46.799187,105.786514 
M50.477833,74.684990 
	C51.026966,75.024216 51.576099,75.363434 52.125237,75.702652 
	C52.260616,75.427689 52.395996,75.152718 52.531372,74.877754 
	C51.993767,74.672997 51.456158,74.468231 50.477833,74.684990 
M44.247013,106.174019 
	C44.413040,106.119179 44.579063,106.064346 44.745090,106.009506 
	C44.578060,105.955864 44.411026,105.902222 44.247013,106.174019 
M37.182640,103.264099 
	C37.026546,103.377403 36.870453,103.490715 36.714359,103.604019 
	C36.931240,103.581245 37.148121,103.558472 37.182640,103.264099 
M47.243145,91.175468 
	C47.410412,91.120049 47.577679,91.064629 47.744946,91.009224 
	C47.576859,90.955414 47.408772,90.901611 47.243145,91.175468 
M50.518085,110.414169 
	C50.518085,110.414169 50.582169,110.522606 50.518085,110.414169 
M18.411690,87.485191 
	C18.411690,87.485191 18.523394,87.418030 18.411690,87.485191 
M8.527078,84.394676 
	C8.527078,84.394676 8.398937,84.638443 8.398937,84.638443 
	C8.398937,84.638443 8.652761,84.596626 8.527078,84.394676 
M52.516876,80.414940 
	C52.516876,80.414940 52.580624,80.522781 52.516876,80.414940 
z"/>
<path fill="#101010" opacity="1.000000" stroke="none" 
	d="
M138.407318,88.381996 
	C135.005859,79.026962 135.159958,70.059593 138.936234,61.287704 
	C142.666153,52.623524 150.533752,47.965363 160.062500,48.424969 
	C169.326675,48.871815 176.232697,54.134476 179.252960,63.221546 
	C182.031540,71.581497 181.730545,79.987030 178.716660,88.175079 
	C176.273102,94.813667 171.292572,99.060806 164.291397,101.236206 
	C167.755737,105.256653 171.068314,109.100998 174.500778,113.084450 
	C167.724136,114.349159 167.571564,114.456886 164.014740,109.419342 
	C160.879364,104.978661 157.556580,101.745758 151.620209,100.762054 
	C145.215851,99.700798 141.196350,94.637543 138.407318,88.381996 
M157.641586,96.247963 
	C167.381470,95.863434 173.106812,91.558701 174.511139,82.032440 
	C175.288910,76.756363 174.907196,71.048096 173.768005,65.813202 
	C172.143829,58.349663 166.942841,54.440075 160.175537,54.004444 
	C152.985184,53.541580 147.312393,56.767124 144.283661,63.683155 
	C140.857086,71.507721 140.870911,79.550591 144.535736,87.306641 
	C146.924316,92.361748 150.790924,95.846466 157.641586,96.247963 
z"/>
<path fill="#101010" opacity="1.000000" stroke="none" 
	d="
M113.153610,49.885193 
	C116.608253,49.346493 119.707443,48.547314 122.790970,48.603775 
	C129.494705,48.726513 129.949097,49.409054 129.707947,56.010017 
	C126.626923,55.309811 123.556763,54.249084 120.420593,53.991234 
	C116.501625,53.669025 113.145508,55.188084 111.669250,59.178501 
	C110.217461,63.102806 111.642159,66.405937 114.704025,68.914719 
	C116.874626,70.693222 119.445770,71.976387 121.668388,73.699585 
	C124.270172,75.716743 127.131493,77.629761 129.101456,80.187721 
	C134.858353,87.662956 131.326736,98.533905 122.257912,100.946411 
	C118.887360,101.843063 115.097923,101.362358 111.512543,101.207626 
	C106.227295,100.979530 104.208069,98.231194 105.722031,93.390533 
	C109.541862,94.368500 113.259743,95.724724 117.085114,96.182236 
	C120.673149,96.611366 124.089989,95.507072 125.480583,91.516411 
	C126.853363,87.576836 125.576370,84.220001 122.493973,81.745102 
	C119.135681,79.048691 115.597282,76.534279 111.935516,74.266502 
	C102.869202,68.651642 103.431686,53.970158 113.153610,49.885193 
z"/>
<path fill="#0F0F0F" opacity="1.000000" stroke="none" 
	d="
M234.361084,75.635574 
	C230.118240,72.741684 226.769760,69.559212 226.030060,64.553780 
	C224.781357,56.104008 229.870773,49.497234 238.585587,48.715168 
	C242.285904,48.383106 246.073944,49.028725 250.028687,49.241104 
	C250.028687,51.982418 250.028687,53.913528 250.028687,55.796833 
	C246.807465,55.190468 243.395554,53.717281 240.295181,54.208870 
	C237.452332,54.659630 233.443817,56.727428 232.683304,58.998425 
	C231.797470,61.643715 233.037582,65.944626 234.896301,68.322334 
	C237.133713,71.184456 241.031189,72.724976 244.140289,74.935623 
	C247.995621,77.676849 251.489624,80.735291 252.107422,85.854301 
	C253.425415,96.775131 244.720688,103.986160 233.102280,101.606407 
	C225.709335,100.092140 225.709335,100.092133 226.109268,93.485466 
	C230.257568,94.367180 234.518982,95.942642 238.770096,95.915329 
	C241.167648,95.899918 244.846329,93.717995 245.598251,91.655426 
	C246.479996,89.236694 245.686859,85.194336 244.037338,83.107079 
	C241.656845,80.094864 237.851776,78.208450 234.361084,75.635574 
z"/>
<path fill="#0F0F0F" opacity="1.000000" stroke="none" 
	d="
M369.665222,67.364319 
	C373.598175,72.405258 373.995636,77.881592 373.738403,83.995415 
	C365.654297,83.995415 357.907257,83.995415 350.175354,83.995415 
	C350.056610,96.061089 357.754822,99.558937 370.827820,93.799164 
	C372.313873,97.694817 370.413788,99.604431 366.916382,100.812637 
	C355.411102,104.787216 346.016266,99.389427 344.645111,87.217003 
	C344.108521,82.453415 344.595642,77.115944 346.263458,72.655716 
	C350.017731,62.615711 361.058868,60.268368 369.665222,67.364319 
M367.995239,77.735855 
	C367.251984,71.385506 364.728668,68.357758 360.037872,68.187836 
	C354.930115,68.002808 351.351776,71.779465 350.238831,78.619553 
	C356.128357,78.619553 362.003174,78.619553 367.995239,77.735855 
z"/>
<path fill="#0F0F0F" opacity="1.000000" stroke="none" 
	d="
M286.004517,78.323669 
	C286.052643,80.391182 286.052643,82.014366 286.052643,84.025536 
	C277.889099,84.025536 270.122650,84.025536 262.361877,84.025536 
	C262.573273,96.281494 270.734741,99.858543 283.288757,93.527344 
	C284.827606,97.920517 282.414459,99.760849 278.730896,100.963539 
	C266.936005,104.814621 257.352783,98.556816 256.910553,86.081352 
	C256.739502,81.254990 257.415405,76.050385 259.161255,71.587608 
	C261.652008,65.220726 267.937012,62.343548 274.146332,63.271366 
	C280.345520,64.197662 283.636169,67.628151 285.335815,74.949577 
	C285.561523,75.921791 285.750458,76.902534 286.004517,78.323669 
M276.771484,69.652573 
	C269.164490,66.334862 263.615814,69.881332 262.566284,78.662781 
	C268.447754,78.662781 274.333893,78.662781 281.423370,78.662781 
	C279.822388,75.347885 278.578430,72.772270 276.771484,69.652573 
z"/>
<path fill="#141414" opacity="1.000000" stroke="none" 
	d="
M194.016754,87.972015 
	C194.016449,90.762878 194.016449,93.055229 194.016449,95.576363 
	C200.467621,95.576363 206.423996,95.576363 212.747726,95.576363 
	C212.874023,97.348694 212.985947,98.919388 213.117935,100.771667 
	C204.872864,100.771667 196.827606,100.771667 188.533310,100.771667 
	C188.533310,83.694008 188.533310,66.810143 188.533310,49.514835 
	C190.085007,49.405106 191.652969,49.294228 194.017059,49.127048 
	C194.017059,62.049965 194.017059,74.761734 194.016754,87.972015 
z"/>
<path fill="#111111" opacity="1.000000" stroke="none" 
	d="
M333.393494,75.359291 
	C334.779938,71.406754 335.980103,67.806778 337.200745,64.145416 
	C339.073639,64.145416 340.700165,64.145416 342.898010,64.145416 
	C338.398071,76.501747 334.004913,88.564835 329.538269,100.829742 
	C327.833466,100.904610 326.212524,100.975800 324.109009,101.068184 
	C319.856476,88.900269 315.607788,76.743256 311.235107,64.231483 
	C313.409882,64.231483 315.166534,64.231483 317.299103,64.231483 
	C320.395538,73.859825 323.524353,83.588890 327.038574,94.516388 
	C329.299896,87.623039 331.253571,81.667442 333.393494,75.359291 
z"/>
<path fill="#BEBEBE" opacity="1.000000" stroke="none" 
	d="
M46.938187,101.962723 
	C45.022907,101.695374 42.897373,101.869194 41.232784,101.075851 
	C36.704094,98.917465 34.243107,100.556473 32.701805,104.849411 
	C32.271023,106.049255 31.519115,107.133820 30.958046,108.635117 
	C31.001574,108.998978 31.012505,108.992004 30.695530,108.941650 
	C29.907099,109.267784 29.435646,109.644272 28.980900,110.009521 
	C28.997608,109.998291 29.029440,109.973625 28.802334,110.008156 
	C28.575230,110.042686 28.118546,110.092865 28.038528,110.022919 
	C27.958513,109.952972 27.800646,109.810638 27.816372,109.457954 
	C29.179951,106.257355 30.527802,103.409439 32.248882,99.772911 
	C27.186794,101.107216 23.158533,102.169022 19.130270,103.230820 
	C19.051975,102.894798 18.973680,102.558777 18.895386,102.222748 
	C22.941359,100.667534 26.987331,99.112320 31.698578,97.301384 
	C28.486620,94.447136 26.081093,92.309502 24.051178,90.505653 
	C21.197760,92.808006 18.598297,94.905441 16.039770,96.664955 
	C16.791023,95.021004 17.501339,93.714981 18.211657,92.408966 
	C22.204250,89.441437 20.541729,85.518394 20.250692,81.347549 
	C20.494793,80.909264 20.942316,80.764900 21.288946,80.872223 
	C22.451689,82.184151 23.267803,83.388756 23.960716,84.411507 
	C27.077414,79.713104 30.087072,75.176064 33.097237,71.039383 
	C31.483011,75.441811 29.868273,79.443886 27.798761,84.573097 
	C32.935009,82.627686 36.931702,81.113892 40.953262,79.590675 
	C38.752468,76.036560 36.885311,73.021240 35.005806,69.685211 
	C34.991005,69.150627 34.988548,68.936745 35.096306,68.541977 
	C35.206520,68.361084 35.595661,68.193779 35.595661,68.193779 
	C35.595661,68.193779 36.017056,68.236839 36.181343,68.495171 
	C36.940834,69.832054 37.536037,70.910606 38.248184,72.289963 
	C40.107807,74.657059 41.469780,77.473000 45.009468,76.349297 
	C45.331593,78.156830 45.668140,79.587463 46.004692,81.018105 
	C45.009972,82.081818 44.015255,83.145531 42.753098,84.749893 
	C42.364223,85.862999 42.242783,86.435455 42.121342,87.007904 
	C41.435760,88.429489 40.750179,89.851074 39.790855,91.771233 
	C39.674747,92.851585 39.832386,93.433365 39.990021,94.015144 
	C39.990021,94.015144 39.998547,93.998711 40.015038,94.262924 
	C40.058289,94.698021 40.085045,94.868904 40.111801,95.039780 
	C39.608456,95.975075 39.105106,96.910362 38.356636,98.301132 
	C41.115471,99.209274 43.682938,100.054420 46.625328,101.192017 
	C47.000248,101.484467 46.938187,101.962723 46.938187,101.962723 
M29.843815,86.195030 
	C28.605268,86.744720 27.366724,87.294403 25.226727,88.244179 
	C28.814480,91.127441 31.625044,93.386131 35.089550,96.170349 
	C37.232380,91.315536 38.875813,87.592155 40.519245,83.868774 
	C40.132957,83.607849 39.746670,83.346924 39.360382,83.085999 
	C36.434486,84.055069 33.508595,85.024132 29.843815,86.195030 
z"/>
<path fill="#FAD7E4" opacity="1.000000" stroke="none" 
	d="
M72.010521,28.971703 
	C72.010521,28.971701 72.506378,28.958664 72.759270,29.311525 
	C73.370087,30.294825 73.728012,30.925261 74.085945,31.555696 
	C74.390823,31.035757 74.695702,30.515820 75.000587,29.995880 
	C81.807732,31.862032 85.747177,37.234135 89.816544,42.799953 
	C88.733414,42.746342 87.882996,41.959156 86.878441,41.574131 
	C84.959412,40.838600 82.952591,40.332119 80.982208,39.730572 
	C80.486641,43.207375 74.471519,44.291443 76.701378,49.316692 
	C74.580498,50.149948 72.698959,50.719990 70.784698,51.224239 
	C70.751976,51.158447 70.776169,51.303425 70.838089,50.978249 
	C70.907181,50.433643 70.914368,50.214222 70.944427,49.626541 
	C72.399696,46.888512 73.916840,44.563709 75.212662,42.121471 
	C75.599693,41.392017 75.702187,40.119099 75.304695,39.499653 
	C75.025513,39.064571 73.570908,39.028400 72.827812,39.308754 
	C69.844719,40.434196 66.934349,41.752430 63.979523,42.750496 
	C63.806747,42.237793 63.651546,41.973988 63.496342,41.710182 
	C63.339527,42.140800 63.182713,42.571415 62.996758,43.311874 
	C62.652882,44.384510 62.338139,45.147308 61.670959,45.759811 
	C60.704788,43.131180 60.091057,40.652836 59.328358,37.572952 
	C58.378784,39.342201 57.670712,40.661480 56.733551,41.963345 
	C56.504456,41.945930 56.046200,41.911964 55.825790,41.642166 
	C51.159172,39.529106 46.712959,37.685841 42.142082,35.661240 
	C42.017414,35.479904 41.798615,35.098042 42.156372,35.063698 
	C43.346863,34.683716 44.179596,34.338078 45.333340,34.024609 
	C46.470154,34.322922 47.285957,34.589062 48.378387,34.762451 
	C49.387917,34.433029 50.120815,34.196358 51.009270,34.228912 
	C55.034050,35.488140 55.830605,32.499706 57.001900,29.744112 
	C57.005035,29.495808 57.008301,28.999166 57.240105,29.165257 
	C57.832802,29.936724 58.193703,30.542099 58.554604,31.147474 
	C58.712135,30.737720 58.869667,30.327967 59.450367,29.951412 
	C62.046257,30.256525 64.218979,30.528442 65.997421,30.886299 
	C64.215965,33.236469 62.828781,35.500702 61.441601,37.764935 
	C61.956223,38.419159 62.470844,39.073383 62.985470,39.727604 
	C67.120804,38.240528 71.256149,36.753448 75.647202,35.174412 
	C73.678787,33.898064 72.372787,33.051235 71.118744,31.836555 
	C71.107872,30.981649 71.045044,30.494596 71.206093,29.892849 
	C71.623489,29.509336 71.817009,29.240519 72.010521,28.971703 
M77.407150,40.480881 
	C77.407150,40.480881 77.515350,40.416092 77.407150,40.480881 
z"/>
<path fill="#0B0B0B" opacity="1.000000" stroke="none" 
	d="
M291.907166,87.990753 
	C291.907074,79.846924 291.907074,72.201813 291.907074,64.281769 
	C293.774841,64.281769 295.343170,64.281769 297.032196,64.281769 
	C297.213074,65.570374 297.392944,66.852005 297.666229,68.798866 
	C301.204712,65.626823 304.164734,61.806648 309.552368,64.197510 
	C309.552368,65.638123 309.552368,67.217903 309.552368,68.186378 
	C306.543121,69.237206 302.550140,69.417351 301.049500,71.443443 
	C298.861969,74.396965 297.818024,78.616516 297.457520,82.407654 
	C296.893250,88.342239 297.307922,94.369919 297.307922,100.728348 
	C295.585938,100.847237 294.022858,100.955147 291.907227,101.101212 
	C291.907227,96.732140 291.907227,92.610802 291.907166,87.990753 
M297.894653,69.569046 
	C297.690643,69.583939 297.486603,69.598839 297.282562,69.613739 
	C297.387054,69.897400 297.491516,70.181061 297.596008,70.464714 
	C297.676941,70.326744 297.757904,70.188766 297.894653,69.569046 
z"/>
<path fill="#030303" opacity="1.000000" stroke="none" 
	d="
M386.752045,73.239166 
	C385.925110,82.242432 385.098175,91.245682 384.219208,100.815758 
	C383.401398,100.853142 381.875916,100.922882 380.056244,101.006065 
	C380.056244,88.673958 380.056244,76.645081 380.056244,64.313980 
	C381.489899,64.313980 383.021240,64.313980 385.047913,64.313980 
	C385.047913,65.937866 385.047913,67.531631 384.738983,69.820953 
	C385.204071,71.424057 385.978058,72.331612 386.752045,73.239166 
z"/>
<path fill="#F9E0E8" opacity="1.000000" stroke="none" 
	d="
M76.940720,49.053478 
	C74.471519,44.291443 80.486641,43.207375 80.982208,39.730572 
	C82.952591,40.332119 84.959412,40.838600 86.878441,41.574131 
	C87.882996,41.959156 88.733414,42.746342 89.856544,43.147831 
	C93.978493,44.199001 95.763382,46.958912 95.913460,50.877270 
	C91.080627,51.636391 86.440056,52.365311 81.292114,52.786636 
	C79.503395,51.337185 78.222054,50.195332 76.940720,49.053478 
z"/>
<path fill="#BEBEBE" opacity="1.000000" stroke="none" 
	d="
M30.996502,109.003021 
	C32.066441,109.444511 33.141449,109.881950 33.755360,110.656769 
	C32.846245,111.651978 32.398228,112.309807 31.950209,112.967628 
	C22.354012,112.403549 13.919325,108.924423 6.996417,102.304306 
	C1.917197,97.447227 2.144051,91.710205 7.416609,85.947632 
	C7.416609,87.412552 7.416609,88.507935 7.416609,90.149948 
	C9.222075,89.852524 10.773508,89.596939 12.993860,89.194504 
	C14.105382,89.037598 14.547985,89.027542 14.990588,89.017487 
	C14.990588,89.017487 14.999413,88.998619 14.943623,89.375275 
	C12.295495,90.831215 9.703156,91.910507 7.157146,92.970505 
	C7.753042,98.707680 10.423376,102.305695 13.944908,102.558128 
	C17.133385,108.110130 22.349751,109.194992 27.800646,109.810638 
	C27.800646,109.810638 27.958513,109.952972 28.115683,110.195435 
	C28.525047,110.283142 28.777243,110.128380 29.029438,109.973618 
	C29.029440,109.973625 28.997608,109.998291 29.303825,110.039230 
	C30.077530,109.717453 30.545017,109.354729 31.012505,108.992004 
	C31.012505,108.992004 31.001574,108.998978 30.996502,109.003021 
z"/>
<path fill="#ECBCCD" opacity="1.000000" stroke="none" 
	d="
M43.798180,22.120731 
	C43.798180,22.120731 43.911407,22.528282 43.581375,22.785618 
	C41.971195,23.160660 40.691044,23.278366 39.110901,23.423653 
	C41.550838,25.193035 43.390377,26.527021 44.907249,27.798616 
	C42.082184,29.098328 39.579784,30.460428 36.707619,31.722343 
	C34.720486,31.764309 33.103115,31.906466 31.485741,32.048622 
	C31.485741,32.048622 31.111300,32.129822 30.987059,31.772846 
	C30.839449,30.989170 30.816080,30.562466 30.899712,29.879169 
	C29.836596,27.843363 32.564369,23.981915 27.778355,23.901768 
	C27.352251,23.519251 27.156858,23.246023 26.983700,22.735849 
	C27.005936,22.498903 27.018314,22.023088 27.014744,22.016884 
	C27.011171,22.010681 27.025082,22.002684 27.264742,21.850933 
	C28.336432,20.468834 29.168461,19.238487 30.253376,18.114735 
	C30.984829,18.486940 31.463394,18.752554 31.958988,19.260044 
	C31.976019,19.501925 32.003380,19.986280 32.044777,20.320133 
	C32.780273,21.047028 33.474377,21.440065 34.504616,21.837900 
	C36.044792,21.243427 37.248840,20.644159 37.878448,20.330795 
	C40.056530,20.989378 41.927353,21.555054 43.798180,22.120731 
z"/>
<path fill="#BCBABB" opacity="1.000000" stroke="none" 
	d="
M54.378292,94.171921 
	C54.656956,93.416077 54.935619,92.660225 55.439278,91.351166 
	C55.779972,88.865952 55.895676,86.933937 56.011379,85.001930 
	C56.434292,80.914803 56.857204,76.827675 57.110119,72.102547 
	C56.904930,71.289017 56.869743,71.113495 56.834557,70.937973 
	C57.157036,68.578430 57.479515,66.218887 57.823105,63.086460 
	C57.907246,61.572094 57.970284,60.830620 58.099220,59.842209 
	C58.255238,59.450665 58.345348,59.306057 58.688549,59.158005 
	C59.274738,59.150585 59.607838,59.146606 59.940937,59.142632 
	C60.328262,73.033272 60.825802,86.934898 55.795868,100.279907 
	C55.329388,101.517532 54.907211,102.773308 54.396706,103.992271 
	C54.150326,104.580566 53.746368,105.102859 53.413761,105.655045 
	C52.877045,105.581589 52.340332,105.508133 51.803616,105.434677 
	C52.602619,102.219841 53.401623,99.005005 54.229042,95.179703 
	C54.257458,94.569237 54.378292,94.171921 54.378292,94.171921 
z"/>
<path fill="#E6E6E6" opacity="1.000000" stroke="none" 
	d="
M187.018372,42.168854 
	C185.060532,42.750000 182.937302,44.074711 181.194946,43.687130 
	C179.684204,43.351070 177.926086,41.268112 177.457077,39.621258 
	C175.766220,33.684101 177.195877,31.557936 184.048645,29.494478 
	C186.674591,33.357849 188.689240,36.797775 186.274933,41.024086 
	C186.171555,41.205055 186.754913,41.778336 187.018372,42.168854 
z"/>
<path fill="#E6E6E6" opacity="1.000000" stroke="none" 
	d="
M162.955933,41.313210 
	C162.036163,42.445213 160.709671,44.685379 160.265244,44.522266 
	C158.039673,43.705433 154.968170,42.704376 154.232513,40.925201 
	C153.234451,38.511414 154.087173,35.332371 154.568497,32.575230 
	C155.560791,32.766369 156.145065,32.996750 156.697815,32.936783 
	C158.461380,32.745457 161.091278,31.629803 161.777328,32.367573 
	C163.007828,33.690838 163.229187,36.077389 163.548340,38.071438 
	C163.712036,39.094219 163.175842,40.229027 162.955933,41.313210 
z"/>
<path fill="#F0F0F0" opacity="1.000000" stroke="none" 
	d="
M30.000488,18.008142 
	C29.168461,19.238487 28.336432,20.468834 27.257324,21.470909 
	C25.010653,19.176620 23.011061,17.110601 21.011467,15.044582 
	C22.649313,14.173866 24.360554,13.414474 25.902327,12.398029 
	C27.189455,11.549464 28.278078,10.399798 29.729996,9.446136 
	C30.009161,9.679380 30.012941,9.849968 30.016722,10.020555 
	C31.086779,11.006219 31.998409,12.451978 33.258465,12.885850 
	C36.278633,13.925779 39.527969,14.301883 42.544430,15.349940 
	C43.579880,15.709704 44.198334,17.269638 44.684338,18.668205 
	C40.692421,17.831991 36.950256,16.788387 33.376663,15.331351 
	C30.275867,14.067088 30.032898,15.745556 30.000488,18.008142 
z"/>
<path fill="#FBFBFB" opacity="1.000000" stroke="none" 
	d="
M13.911684,102.214584 
	C10.423376,102.305695 7.753042,98.707680 7.157146,92.970505 
	C9.703156,91.910507 12.295495,90.831215 14.934376,89.380997 
	C16.010462,89.868301 17.040005,90.726540 18.140602,91.996872 
	C17.501339,93.714981 16.791023,95.021004 15.981977,97.016754 
	C15.226060,99.209190 14.568872,100.711884 13.911684,102.214584 
z"/>
<path fill="#FAEEF3" opacity="1.000000" stroke="none" 
	d="
M20.942314,80.764900 
	C20.942316,80.764900 20.494793,80.909264 20.265835,80.961899 
	C17.633673,80.790436 15.230469,80.566330 12.013258,80.266312 
	C16.025082,75.078377 19.879177,70.034714 23.806276,65.048538 
	C25.174604,63.311199 26.723270,61.715889 28.647530,60.075241 
	C29.105484,60.094769 29.324747,60.278755 29.163931,60.688553 
	C28.529285,61.833431 28.055454,62.568508 27.411949,63.340469 
	C27.133337,64.762192 27.024397,66.147026 26.670406,67.594803 
	C26.092619,67.699608 25.771570,67.785263 25.112862,67.903503 
	C24.499880,68.244858 24.236248,68.597389 23.983910,68.959915 
	C23.995207,68.969910 23.967094,68.977127 23.718269,69.071609 
	C23.147959,69.582741 22.826471,69.999390 22.446152,70.485519 
	C22.387321,70.555008 22.302666,70.716217 22.149826,70.892212 
	C21.873533,71.384918 21.906204,71.684662 22.062111,72.217827 
	C22.039120,72.636284 22.049015,72.804359 21.735941,73.134071 
	C21.256084,75.785446 21.099199,78.275169 20.942314,80.764900 
z"/>
<path fill="#141414" opacity="1.000000" stroke="none" 
	d="
M386.990326,73.024300 
	C385.978058,72.331612 385.204071,71.424057 384.693787,70.266342 
	C388.011627,66.238037 390.756561,61.854801 397.093109,64.057968 
	C397.093109,65.690598 397.093109,67.428856 397.093109,69.538094 
	C392.987457,68.264191 389.506073,68.912407 386.990326,73.024300 
z"/>
<path fill="#F6F4F5" opacity="1.000000" stroke="none" 
	d="
M30.253378,18.114735 
	C30.032898,15.745556 30.275867,14.067088 33.376663,15.331351 
	C36.950256,16.788387 40.692421,17.831991 44.683971,19.030548 
	C44.800182,19.905350 44.593800,20.804741 44.092796,21.912434 
	C41.927353,21.555054 40.056530,20.989378 37.878448,20.330795 
	C37.248840,20.644159 36.044792,21.243427 34.417702,21.568447 
	C33.662704,20.860605 33.330746,20.427011 32.883728,19.772038 
	C32.557205,19.273668 32.281635,19.096170 31.941957,19.018166 
	C31.463394,18.752554 30.984829,18.486940 30.253378,18.114735 
z"/>
<path fill="#B33058" opacity="1.000000" stroke="none" 
	d="
M60.300430,58.996155 
	C59.607838,59.146606 59.274738,59.150585 58.312939,59.092659 
	C57.087177,58.623001 56.490116,58.215248 56.161690,57.564026 
	C58.727692,56.568733 61.099094,55.978382 63.282192,54.977375 
	C64.044579,54.627804 64.342735,53.265789 64.892120,51.953793 
	C64.973412,50.990780 65.015488,50.440105 65.326225,50.073071 
	C66.271553,51.131889 66.948219,52.007076 67.587761,52.834236 
	C68.812645,52.246143 69.794411,51.774784 70.776169,51.303425 
	C70.776169,51.303425 70.751976,51.158447 70.964287,51.484268 
	C72.399727,52.783756 73.622849,53.757420 74.845978,54.731079 
	C74.424606,54.807240 74.003235,54.883400 72.984612,55.058502 
	C71.860077,55.406147 71.332794,55.654850 70.805511,55.903557 
	C67.423653,56.885597 64.041786,57.867638 60.300430,58.996155 
z"/>
<path fill="#F6D1E0" opacity="1.000000" stroke="none" 
	d="
M35.161968,44.033752 
	C34.561401,43.536716 33.960831,43.039680 33.581696,42.283653 
	C35.533260,42.347397 37.263397,42.670128 39.155010,43.233574 
	C39.905399,43.549644 40.494308,43.625004 41.083218,43.700367 
	C41.100548,43.554821 41.117878,43.409279 41.135208,43.263733 
	C40.698914,43.091404 40.262623,42.919071 40.017807,42.487396 
	C40.809879,41.138889 41.410473,40.049728 42.371075,38.996002 
	C43.483025,40.093460 44.234970,41.155487 44.934883,42.510056 
	C44.298710,44.885876 43.714565,46.969158 42.995529,49.370323 
	C41.442181,50.888702 40.352982,53.390713 37.999660,50.529633 
	C37.050266,48.106335 36.106117,46.070045 35.161968,44.033752 
z"/>
<path fill="#2D2D2D" opacity="1.000000" stroke="none" 
	d="
M139.710190,31.220688 
	C138.528809,33.794975 136.735550,36.380299 137.092789,38.623093 
	C137.322845,40.067539 140.711121,41.008945 143.739319,42.800053 
	C141.494659,42.927731 139.369446,43.646786 137.778427,43.016788 
	C134.276031,41.629955 134.095871,38.406498 134.436447,35.043652 
	C134.927902,30.191071 138.503952,30.516621 141.923019,30.332857 
	C141.243103,30.600712 140.626526,30.843618 139.710190,31.220688 
z"/>
<path fill="#222222" opacity="1.000000" stroke="none" 
	d="
M168.889038,35.892750 
	C166.310364,31.069082 169.709549,30.732643 174.110611,29.767811 
	C169.000748,32.375229 169.473816,34.000793 173.049240,36.207489 
	C174.324966,36.994839 175.339355,40.600773 174.615585,41.737801 
	C173.073685,44.160095 170.305603,44.667099 167.390137,41.821014 
	C169.662872,41.398808 171.431564,41.070236 174.761429,40.451645 
	C172.072906,38.406956 170.616318,37.299191 168.889038,35.892750 
z"/>
<path fill="#9B3251" opacity="1.000000" stroke="none" 
	d="
M45.229912,27.861008 
	C43.390377,26.527021 41.550838,25.193035 39.110901,23.423653 
	C40.691044,23.278366 41.971195,23.160660 43.644058,22.987608 
	C44.479202,22.940954 44.921627,22.949646 45.932060,22.915689 
	C46.500069,22.873041 46.990227,22.777025 46.990227,22.777025 
	C48.293365,23.244160 49.596504,23.711296 51.570114,24.398293 
	C53.497868,24.728895 54.755157,24.839634 56.012444,24.950373 
	C56.012444,24.950373 56.387173,25.121464 56.846539,25.335489 
	C58.203297,25.638489 59.100689,25.727463 59.998081,25.816439 
	C60.355556,25.923885 60.713032,26.031332 61.453884,26.360020 
	C61.837261,26.581261 62.136745,26.926664 61.763351,26.944952 
	C60.539345,27.367599 59.688736,27.771957 58.529064,28.184483 
	C57.806969,28.183277 57.393932,28.173903 56.705864,28.046001 
	C56.034431,27.918785 55.638035,27.910093 55.087151,27.766396 
	C54.667019,27.474752 54.408310,27.485365 53.800278,27.502653 
	C52.419266,27.184982 51.394508,27.027887 50.051125,26.705208 
	C48.557510,26.700460 47.382530,26.861300 46.103569,27.226095 
	C45.822762,27.716093 45.566200,27.859745 45.229912,27.861008 
z"/>
<path fill="#222222" opacity="1.000000" stroke="none" 
	d="
M200.841675,27.663610 
	C201.559189,27.378071 202.478317,27.217115 202.858170,27.596336 
	C203.785217,28.521856 204.462631,29.697451 205.276428,30.821943 
	C201.743500,33.696968 201.671127,40.686493 205.713364,42.306126 
	C202.678726,44.169567 201.363525,43.791492 200.852234,40.961540 
	C200.247040,37.611763 199.425629,34.289761 199.055237,30.916485 
	C198.957916,30.030102 200.181152,28.998720 200.841675,27.663610 
z"/>
<path fill="#F8CBDC" opacity="1.000000" stroke="none" 
	d="
M20.858406,15.339441 
	C23.011061,17.110601 25.010653,19.176620 27.017664,21.622662 
	C27.025082,22.002684 27.011171,22.010681 26.849297,22.093311 
	C26.620535,22.275309 26.475214,22.429647 26.499886,22.464848 
	C26.630146,22.650703 26.803234,22.806543 26.961466,22.972795 
	C27.156858,23.246023 27.352251,23.519251 27.919548,24.217823 
	C28.446045,25.529448 28.600636,26.415731 28.755228,27.302013 
	C25.916849,24.974966 22.872118,22.842880 20.371778,20.196451 
	C19.665085,19.448469 20.550261,17.196489 20.858406,15.339441 
z"/>
<path fill="#F6F4F5" opacity="1.000000" stroke="none" 
	d="
M45.023895,75.972404 
	C41.469780,77.473000 40.107807,74.657059 38.570866,72.230003 
	C39.822323,69.877296 40.868038,67.885353 41.885822,65.916245 
	C41.857891,65.939079 41.833603,65.871132 42.192062,65.921982 
	C43.032185,65.984329 43.513844,65.995834 43.996452,66.373215 
	C43.997398,67.859581 43.997398,68.980087 43.997398,69.932686 
	C45.542099,70.338768 46.760296,70.659012 47.978489,70.979263 
	C47.846146,71.632462 47.713806,72.285652 46.948887,73.023445 
	C45.894688,74.048271 45.473068,74.988495 45.043648,75.939606 
	C45.035851,75.950493 45.023895,75.972404 45.023895,75.972404 
z"/>
<path fill="#363636" opacity="1.000000" stroke="none" 
	d="
M146.268661,33.343178 
	C145.710510,27.493502 150.359924,32.014904 150.691711,29.903494 
	C149.620102,34.325966 148.548508,38.748440 147.476898,43.170914 
	C147.076431,43.169521 146.675949,43.168129 146.275467,43.166737 
	C146.275467,40.040768 146.275467,36.914799 146.268661,33.343178 
z"/>
<path fill="#0B0B0B" opacity="1.000000" stroke="none" 
	d="
M108.884186,42.301155 
	C108.381004,39.498539 107.860146,36.283058 107.634895,33.047001 
	C107.444206,30.307413 107.595581,27.544018 107.595581,24.791159 
	C108.228905,24.614052 108.862236,24.436947 109.495560,24.259842 
	C110.052254,25.876766 111.535019,28.464846 111.019035,28.956882 
	C106.915802,32.869663 110.006447,37.672104 108.884186,42.301155 
z"/>
<path fill="#F8CBDC" opacity="1.000000" stroke="none" 
	d="
M35.114239,44.276047 
	C36.106117,46.070045 37.050266,48.106335 37.657608,50.544373 
	C36.617023,50.826729 35.913250,50.707348 35.209480,50.587967 
	C35.269566,51.322361 35.180473,52.110981 35.423271,52.778965 
	C35.829151,53.895653 36.447041,54.935276 36.659149,56.146801 
	C35.603580,56.830845 34.864552,57.375431 34.134544,57.932941 
	C34.143566,57.945869 34.133900,57.917904 33.975677,58.069237 
	C33.817459,58.220566 33.419281,58.402744 33.293571,58.281441 
	C33.167866,58.160133 32.912384,57.921810 32.964897,57.555641 
	C32.686840,56.463421 32.356274,55.737370 31.924625,55.008614 
	C31.823542,55.005909 31.634558,54.933907 31.634558,54.933907 
	C32.101803,52.911007 32.569046,50.888111 33.360992,48.452400 
	C34.128231,47.029514 34.570770,46.019447 35.013309,45.009377 
	C35.013309,45.009377 35.066509,44.518345 35.114239,44.276047 
z"/>
<path fill="#363636" opacity="1.000000" stroke="none" 
	d="
M163.324158,41.157978 
	C163.175842,40.229027 163.712036,39.094219 163.548340,38.071438 
	C163.229187,36.077389 163.007828,33.690838 161.777328,32.367573 
	C161.091278,31.629803 158.461380,32.745457 156.697815,32.936783 
	C156.145065,32.996750 155.560791,32.766369 154.828888,32.319431 
	C157.373871,28.865736 160.652985,28.535624 163.785385,30.856173 
	C166.747147,33.050297 166.493561,37.599731 163.324158,41.157978 
z"/>
<path fill="#363636" opacity="1.000000" stroke="none" 
	d="
M187.352814,42.020126 
	C186.754913,41.778336 186.171555,41.205055 186.274933,41.024086 
	C188.689240,36.797775 186.674591,33.357849 184.400513,29.602327 
	C190.192474,31.766254 191.237152,35.773361 187.352814,42.020126 
z"/>
<path fill="#F8F8F8" opacity="1.000000" stroke="none" 
	d="
M55.770882,85.147720 
	C55.895676,86.933937 55.779972,88.865952 55.439262,91.039185 
	C53.563789,91.420502 51.913330,91.560585 50.468708,91.683205 
	C50.319801,89.471931 50.161480,87.120804 50.001625,84.384598 
	C50.000095,83.999519 50.014881,83.980736 50.014881,83.980736 
	C51.853382,84.418327 53.691879,84.855927 55.770882,85.147720 
z"/>
<path fill="#AC2D50" opacity="1.000000" stroke="none" 
	d="
M31.593493,32.354485 
	C33.103115,31.906466 34.720486,31.764309 36.869350,31.962934 
	C38.866768,33.235157 40.332691,34.166599 41.798615,35.098042 
	C41.798615,35.098042 42.017414,35.479904 41.776630,35.710106 
	C40.687195,36.309437 39.838539,36.678566 38.562401,37.055435 
	C36.442451,37.001366 34.749981,36.939564 33.057510,36.877758 
	C33.057510,36.877758 33.028404,36.400936 32.924026,35.907906 
	C32.605183,35.116848 32.390720,34.818829 32.176258,34.520805 
	C32.017921,33.900650 31.859583,33.280499 31.593493,32.354485 
z"/>
<path fill="#B33058" opacity="1.000000" stroke="none" 
	d="
M58.838127,28.176315 
	C59.688736,27.771957 60.539345,27.367599 62.072128,26.905014 
	C63.167526,26.820034 63.580742,26.793283 63.993961,26.766533 
	C64.347534,26.893456 64.701103,27.020376 65.622299,27.387264 
	C67.787361,28.420670 69.384789,29.214108 70.982216,30.007545 
	C71.045044,30.494596 71.107872,30.981649 70.784348,31.718395 
	C69.062561,31.578848 67.727135,31.189604 66.391701,30.800358 
	C64.218979,30.528442 62.046257,30.256525 59.421898,29.660511 
	C58.926216,28.949713 58.882172,28.563015 58.838127,28.176315 
z"/>
<path fill="#FADFE8" opacity="1.000000" stroke="none" 
	d="
M75.017265,55.014404 
	C73.622849,53.757420 72.399727,52.783756 70.997009,51.550064 
	C72.698959,50.719990 74.580498,50.149948 76.701378,49.316692 
	C78.222054,50.195332 79.503395,51.337185 80.923759,52.788322 
	C80.907776,53.380898 80.697678,53.614704 79.959381,53.726006 
	C78.618027,52.915855 77.749802,52.178715 76.307014,50.953766 
	C76.624168,53.214241 76.814232,54.568928 77.004295,55.923618 
	C76.399048,55.714985 75.793800,55.506355 75.017265,55.014404 
z"/>
<path fill="#F6F4F5" opacity="1.000000" stroke="none" 
	d="
M52.004116,65.007790 
	C52.601131,66.327278 53.198151,67.646767 54.253620,69.979492 
	C51.893330,69.593239 50.314163,69.334816 48.366058,68.788132 
	C47.997120,68.499878 47.999447,68.012550 47.901306,67.800812 
	C47.622303,67.319511 47.375641,67.140800 47.042904,66.801514 
	C47.011864,66.382278 47.001091,66.214462 47.000690,65.700691 
	C47.012856,64.894638 47.014645,64.434540 47.233665,63.974304 
	C47.450897,63.974163 47.884960,63.955528 48.216499,64.095734 
	C49.700062,64.493217 50.852089,64.750504 52.004116,65.007790 
z"/>
<path fill="#2D2D2D" opacity="1.000000" stroke="none" 
	d="
M129.129105,38.872513 
	C129.121582,35.598385 129.121582,32.795536 129.121582,29.992691 
	C129.663986,30.014875 130.206390,30.037062 130.748795,30.059246 
	C130.748795,34.370777 130.748795,38.682308 130.748795,42.993839 
	C130.362122,43.037926 129.975464,43.082016 129.588791,43.126102 
	C129.438065,41.865334 129.287354,40.604561 129.129105,38.872513 
z"/>
<path fill="#0B0B0B" opacity="1.000000" stroke="none" 
	d="
M194.101471,26.104650 
	C194.534027,27.574993 194.966599,29.045336 195.178925,29.767052 
	C194.583908,34.345196 194.042084,38.514103 193.500259,42.683010 
	C194.144745,37.131943 190.274933,31.720646 193.371582,25.928680 
	C193.861115,25.873617 193.981293,25.989134 194.101471,26.104650 
z"/>
<path fill="#FAEEF3" opacity="1.000000" stroke="none" 
	d="
M51.905518,64.700905 
	C50.852089,64.750504 49.700062,64.493217 48.383202,63.778664 
	C51.490025,62.243969 54.761673,61.166553 58.033325,60.089142 
	C57.970284,60.830620 57.907246,61.572094 57.763069,62.678505 
	C55.723595,63.493629 53.765259,63.943825 51.905518,64.700905 
z"/>
<path fill="#FAEEF3" opacity="1.000000" stroke="none" 
	d="
M42.011070,38.960567 
	C41.410473,40.049728 40.809879,41.138889 39.813301,42.560776 
	C39.417324,42.893505 38.993530,42.992863 38.993530,42.992863 
	C37.263397,42.670128 35.533260,42.347397 33.420712,42.035255 
	C33.038063,41.860188 33.037827,41.674534 33.421150,41.224556 
	C35.850300,39.974007 37.895889,38.987778 40.244148,38.020012 
	C41.034901,38.345837 41.522987,38.653202 42.011070,38.960567 
z"/>
<path fill="#F6D1E0" opacity="1.000000" stroke="none" 
	d="
M39.941479,38.001549 
	C37.895889,38.987778 35.850300,39.974007 33.433212,40.946335 
	C33.028301,39.850899 32.994892,38.769371 33.009499,37.282799 
	C34.749981,36.939564 36.442451,37.001366 38.723785,37.213371 
	C39.570351,37.528835 39.779961,37.741497 39.941479,38.001549 
z"/>
<path fill="#FAEEF3" opacity="1.000000" stroke="none" 
	d="
M46.990314,66.046646 
	C47.001091,66.214462 47.011864,66.382278 47.138092,67.012512 
	C47.442360,67.737099 47.690990,67.916298 47.999447,68.012550 
	C47.999447,68.012550 47.997120,68.499878 47.996269,68.743378 
	C47.992931,69.429909 47.990437,69.872940 47.983215,70.647614 
	C46.760296,70.659012 45.542099,70.338768 43.997398,69.932686 
	C43.997398,68.980087 43.997398,67.859581 44.371063,66.372299 
	C45.493259,66.019234 46.241787,66.032944 46.990314,66.046646 
z"/>
<path fill="#F8F8F8" opacity="1.000000" stroke="none" 
	d="
M43.702953,115.073685 
	C41.808979,115.467339 40.229980,115.676888 38.650982,115.886444 
	C38.626350,115.476540 38.601715,115.066635 38.577084,114.656738 
	C40.384418,114.588341 42.027622,110.702660 43.702953,115.073685 
z"/>
<path fill="#F6F4F5" opacity="1.000000" stroke="none" 
	d="
M43.962242,13.048805 
	C42.687363,10.951825 41.412487,8.854844 40.137611,6.757864 
	C40.779251,6.470035 41.420891,6.182207 42.062531,5.894378 
	C42.714558,7.989661 43.366581,10.084943 44.011597,12.590322 
	C44.004589,13.000422 43.962242,13.048804 43.962242,13.048805 
z"/>
<path fill="#F9E0E8" opacity="1.000000" stroke="none" 
	d="
M77.182159,56.174561 
	C76.814232,54.568928 76.624168,53.214241 76.307014,50.953766 
	C77.749802,52.178715 78.618027,52.915855 79.744461,53.827606 
	C79.121780,54.809986 78.240898,55.617744 77.182159,56.174561 
z"/>
<path fill="#F6D1E0" opacity="1.000000" stroke="none" 
	d="
M28.832260,27.632839 
	C28.600636,26.415731 28.446045,25.529448 28.150257,24.327110 
	C32.564369,23.981915 29.836596,27.843363 30.603573,29.836279 
	C29.798422,30.038532 29.396408,30.027081 28.994396,30.015627 
	C28.966028,29.331640 28.937658,28.647652 28.832260,27.632839 
z"/>
<path fill="#FADFE8" opacity="1.000000" stroke="none" 
	d="
M71.206093,29.892849 
	C69.384789,29.214108 67.787361,28.420670 65.904953,27.397713 
	C67.685928,27.516539 69.751892,27.864880 71.914185,28.592461 
	C71.817009,29.240519 71.623489,29.509336 71.206093,29.892849 
z"/>
<path fill="#F6F4F5" opacity="1.000000" stroke="none" 
	d="
M30.299623,10.122730 
	C30.012941,9.849968 30.009161,9.679380 30.002796,9.252825 
	C31.005388,8.288498 32.010563,7.580141 33.015736,6.871784 
	C33.338516,7.361967 33.661293,7.852150 33.984070,8.342333 
	C32.850224,8.969856 31.716373,9.597381 30.299623,10.122730 
z"/>
<path fill="#FBFBFB" opacity="1.000000" stroke="none" 
	d="
M14.988758,88.650871 
	C14.547985,89.027542 14.105382,89.037598 13.331459,89.024742 
	C12.744157,87.534294 12.488175,86.066757 12.232195,84.599228 
	C12.637666,84.479805 13.043137,84.360382 13.448607,84.240959 
	C13.961380,85.588722 14.474154,86.936493 14.988758,88.650871 
z"/>
<path fill="#F8F8F8" opacity="1.000000" stroke="none" 
	d="
M40.583466,108.676147 
	C40.263916,109.564247 39.762783,110.172577 39.261650,110.780907 
	C38.880699,110.016533 38.499744,109.252151 38.118793,108.487778 
	C38.879822,108.457314 39.640854,108.426842 40.583466,108.676147 
z"/>
<path fill="#F6F4F5" opacity="1.000000" stroke="none" 
	d="
M46.002190,81.006821 
	C45.668140,79.587463 45.331593,78.156830 45.009468,76.349297 
	C45.023895,75.972404 45.035851,75.950493 45.261147,75.843651 
	C45.748192,75.537117 45.933483,75.281891 46.042316,74.971130 
	C46.363903,76.706932 46.685490,78.442741 46.749275,80.561142 
	C46.320160,80.963806 46.148842,80.983871 45.977524,81.003944 
	C45.977524,81.003944 45.999687,80.995537 46.002190,81.006821 
z"/>
<path fill="#F8F8F8" opacity="1.000000" stroke="none" 
	d="
M46.608700,105.527092 
	C47.464931,105.117607 48.511650,104.967537 49.558365,104.817474 
	C49.519917,105.387581 49.481468,105.957687 49.443020,106.527794 
	C48.561741,106.280701 47.680466,106.033607 46.608700,105.527092 
z"/>
<path fill="#0B0B0B" opacity="1.000000" stroke="none" 
	d="
M193.563232,25.582172 
	C194.727539,24.483013 196.069534,23.559782 197.411514,22.636549 
	C197.696350,23.123268 197.981171,23.609987 198.266006,24.096706 
	C197.123322,24.709215 195.980652,25.321722 194.469727,26.019440 
	C193.981293,25.989134 193.861115,25.873617 193.563232,25.582172 
z"/>
<path fill="#F8F8F8" opacity="1.000000" stroke="none" 
	d="
M32.209694,113.137146 
	C32.398228,112.309807 32.846245,111.651978 33.615868,110.928421 
	C34.188717,111.939377 34.439964,113.016068 34.873051,114.872009 
	C33.731640,114.128754 33.100410,113.717712 32.209694,113.137146 
z"/>
<path fill="#FAEEF3" opacity="1.000000" stroke="none" 
	d="
M34.663212,45.060234 
	C34.570770,46.019447 34.128231,47.029514 33.372742,48.058697 
	C33.477562,47.088905 33.895340,46.099998 34.663212,45.060234 
z"/>
<path fill="#F6F4F5" opacity="1.000000" stroke="none" 
	d="
M50.698193,74.474228 
	C51.456158,74.468231 51.993767,74.672997 52.531372,74.877754 
	C52.395996,75.152718 52.260616,75.427689 52.125237,75.702652 
	C51.576099,75.363434 51.026966,75.024216 50.698193,74.474228 
z"/>
<path fill="#FADFE8" opacity="1.000000" stroke="none" 
	d="
M74.830246,29.755148 
	C74.695702,30.515820 74.390823,31.035757 74.085945,31.555696 
	C73.728012,30.925261 73.370087,30.294825 73.006538,29.330681 
	C73.553909,29.169456 74.106903,29.341936 74.830246,29.755148 
z"/>
<path fill="#F8F8F8" opacity="1.000000" stroke="none" 
	d="
M40.385376,95.158569 
	C40.085045,94.868904 40.058289,94.698021 40.006660,94.268982 
	C40.730190,94.002998 41.478584,93.995171 42.614326,93.994370 
	C43.001667,94.001396 43.029602,94.028236 43.029602,94.028236 
	C42.239384,94.444611 41.449165,94.860985 40.385376,95.158569 
z"/>
<path fill="#F8F8F8" opacity="1.000000" stroke="none" 
	d="
M47.227615,102.085709 
	C46.938187,101.962723 47.000248,101.484467 46.997143,101.243370 
	C47.837440,101.391472 48.680847,101.780663 49.524254,102.169861 
	C48.855183,102.182808 48.186115,102.195755 47.227615,102.085709 
z"/>
<path fill="#FAEEF3" opacity="1.000000" stroke="none" 
	d="
M29.931196,57.929535 
	C30.302362,56.997253 30.673529,56.064972 31.339626,55.033298 
	C31.634558,54.933907 31.823542,55.005909 31.915829,55.330219 
	C31.485752,56.557579 30.963387,57.460629 30.312904,58.255920 
	C30.184786,58.148163 29.931196,57.929535 29.931196,57.929535 
z"/>
<path fill="#F8F8F8" opacity="1.000000" stroke="none" 
	d="
M42.988251,93.987518 
	C43.287312,93.471191 43.599792,92.968727 43.912273,92.466270 
	C44.121281,92.647491 44.330284,92.828705 44.539288,93.009926 
	C44.223030,93.320045 43.906773,93.630157 43.310059,93.984253 
	C43.029602,94.028236 43.001667,94.001396 42.988251,93.987518 
z"/>
<path fill="#FADFE8" opacity="1.000000" stroke="none" 
	d="
M55.741737,24.675320 
	C54.755157,24.839634 53.497868,24.728895 51.926979,24.396595 
	C52.899261,24.250113 54.185146,24.325190 55.741737,24.675320 
z"/>
<path fill="#F6F4F5" opacity="1.000000" stroke="none" 
	d="
M56.595734,70.850235 
	C56.869743,71.113495 56.904930,71.289017 56.972549,71.731094 
	C56.371105,71.942039 55.737232,71.886444 55.103355,71.830849 
	C55.521206,71.474731 55.939060,71.118614 56.595734,70.850235 
z"/>
<path fill="#FAEEF3" opacity="1.000000" stroke="none" 
	d="
M46.140717,74.716171 
	C45.933483,75.281891 45.748192,75.537117 45.268944,75.832764 
	C45.473068,74.988495 45.894688,74.048271 46.655529,73.057381 
	C46.742874,73.491554 46.490993,73.976379 46.140717,74.716171 
z"/>
<path fill="#FAEEF3" opacity="1.000000" stroke="none" 
	d="
M29.030474,30.315884 
	C29.396408,30.027081 29.798422,30.038532 30.496574,30.092873 
	C30.816080,30.562466 30.839449,30.989170 30.799696,31.732914 
	C30.179901,31.572020 29.623226,31.094080 29.030474,30.315884 
z"/>
<path fill="#FAEEF3" opacity="1.000000" stroke="none" 
	d="
M28.993795,60.005287 
	C29.065601,59.280769 29.249096,58.645741 29.681892,57.970123 
	C29.931196,57.929535 30.184786,58.148163 30.204626,58.515007 
	C29.924561,59.347488 29.624653,59.813122 29.324747,60.278755 
	C29.324747,60.278755 29.105484,60.094769 28.993795,60.005287 
z"/>
<path fill="#F8F8F8" opacity="1.000000" stroke="none" 
	d="
M42.379471,86.982239 
	C42.242783,86.435455 42.364223,85.862999 42.707832,85.091522 
	C42.832531,85.580521 42.735065,86.268539 42.379471,86.982239 
z"/>
<path fill="#FADFE8" opacity="1.000000" stroke="none" 
	d="
M59.755608,25.570320 
	C59.100689,25.727463 58.203297,25.638489 57.051964,25.320553 
	C57.703060,25.169130 58.608101,25.246668 59.755608,25.570320 
z"/>
<path fill="#F9E0E8" opacity="1.000000" stroke="none" 
	d="
M71.110443,55.944366 
	C71.332794,55.654850 71.860077,55.406147 72.691101,55.190765 
	C72.468346,55.477783 71.941864,55.731480 71.110443,55.944366 
z"/>
<path fill="#FADFE8" opacity="1.000000" stroke="none" 
	d="
M63.761444,26.540857 
	C63.580742,26.793283 63.167526,26.820034 62.445526,26.886726 
	C62.136745,26.926664 61.837261,26.581261 61.733742,26.377289 
	C62.263126,26.220604 62.896027,26.267893 63.761444,26.540857 
z"/>
<path fill="#F8F8F8" opacity="1.000000" stroke="none" 
	d="
M44.245506,106.011299 
	C44.411026,105.902222 44.578060,105.955864 44.745090,106.009506 
	C44.579063,106.064346 44.413040,106.119179 44.245506,106.011299 
z"/>
<path fill="#F8F8F8" opacity="1.000000" stroke="none" 
	d="
M39.993675,93.670456 
	C39.832386,93.433365 39.674747,92.851585 39.746895,92.108017 
	C39.983555,92.406082 39.990440,92.865921 39.993675,93.670456 
z"/>
<path fill="#F8F8F8" opacity="1.000000" stroke="none" 
	d="
M37.273819,103.399902 
	C37.148121,103.558472 36.931240,103.581245 36.714359,103.604019 
	C36.870453,103.490715 37.026546,103.377403 37.273819,103.399902 
z"/>
<path fill="#F8F8F8" opacity="1.000000" stroke="none" 
	d="
M47.241913,91.011642 
	C47.408772,90.901611 47.576859,90.955414 47.744946,91.009216 
	C47.577679,91.064629 47.410412,91.120049 47.241913,91.011642 
z"/>
<path fill="#F8F8F8" opacity="1.000000" stroke="none" 
	d="
M54.090424,94.132965 
	C54.378292,94.171921 54.257458,94.569237 54.222610,94.773346 
	C53.770676,94.862099 53.353580,94.746742 52.936493,94.631386 
	C53.225182,94.452263 53.513870,94.273132 54.090424,94.132965 
z"/>
<path fill="#F8F8F8" opacity="1.000000" stroke="none" 
	d="
M50.550125,110.468384 
	C50.582169,110.522606 50.518085,110.414169 50.550125,110.468384 
z"/>
<path fill="#F6F4F5" opacity="1.000000" stroke="none" 
	d="
M44.028919,12.979404 
	C44.162918,13.119857 44.272587,13.281325 44.382256,13.442795 
	C44.288349,13.399763 44.194439,13.356730 44.031387,13.181252 
	C43.962242,13.048804 44.004589,13.000422 44.028919,12.979404 
z"/>
<path fill="#FAEEF3" opacity="1.000000" stroke="none" 
	d="
M46.894493,22.639648 
	C46.990227,22.777025 46.500069,22.873041 46.254715,22.826298 
	C46.197670,22.408663 46.460800,22.316236 46.894493,22.639648 
z"/>
<path fill="#FAEEF3" opacity="1.000000" stroke="none" 
	d="
M18.467541,87.451614 
	C18.523394,87.418030 18.411690,87.485191 18.467541,87.451614 
z"/>
<path fill="#BEBEBE" opacity="1.000000" stroke="none" 
	d="
M8.589919,84.495651 
	C8.652761,84.596626 8.398937,84.638443 8.398937,84.638443 
	C8.398937,84.638443 8.527078,84.394676 8.589919,84.495651 
z"/>
<path fill="#F8F8F8" opacity="1.000000" stroke="none" 
	d="
M49.990845,84.006943 
	C49.864399,83.865936 49.747200,83.717506 49.630005,83.569084 
	C49.718628,83.615753 49.807251,83.662422 49.955376,83.844910 
	C50.014881,83.980736 50.000095,83.999519 49.990845,84.006943 
z"/>
<path fill="#FAEEF3" opacity="1.000000" stroke="none" 
	d="
M32.175194,34.801842 
	C32.390720,34.818829 32.605183,35.116848 32.808510,35.698841 
	C32.589630,35.682835 32.381882,35.382858 32.175194,34.801842 
z"/>
<path fill="#BEBEBE" opacity="1.000000" stroke="none" 
	d="
M46.011101,81.245377 
	C46.148842,80.983871 46.320160,80.963806 46.749512,80.963318 
	C46.686588,81.150864 46.365631,81.318840 46.011101,81.245377 
z"/>
<path fill="#FBFBFB" opacity="1.000000" stroke="none" 
	d="
M52.548752,80.468857 
	C52.580624,80.522781 52.516876,80.414940 52.548752,80.468857 
z"/>
<path fill="#FAEEF3" opacity="1.000000" stroke="none" 
	d="
M13.002746,76.002113 
	C12.909242,76.036201 12.815738,76.070290 12.861116,76.052185 
	C13.000000,76.000000 13.002746,76.002113 13.002746,76.002113 
z"/>
<path fill="#FAEEF3" opacity="1.000000" stroke="none" 
	d="
M12.998901,75.998627 
	C13.090821,75.962372 13.183841,75.927490 13.139803,75.947357 
	C13.002746,76.002113 13.000000,76.000000 12.998901,75.998627 
z"/>
<path fill="#FBFBFB" opacity="1.000000" stroke="none" 
	d="
M157.209198,96.204193 
	C150.790924,95.846466 146.924316,92.361748 144.535736,87.306641 
	C140.870911,79.550591 140.857086,71.507721 144.283661,63.683155 
	C147.312393,56.767124 152.985184,53.541580 160.175537,54.004444 
	C166.942841,54.440075 172.143829,58.349663 173.768005,65.813202 
	C174.907196,71.048096 175.288910,76.756363 174.511139,82.032440 
	C173.106812,91.558701 167.381470,95.863434 157.209198,96.204193 
z"/>
<path fill="#F6F4F5" opacity="1.000000" stroke="none" 
	d="
M367.936615,78.177704 
	C362.003174,78.619553 356.128357,78.619553 350.238831,78.619553 
	C351.351776,71.779465 354.930115,68.002808 360.037872,68.187836 
	C364.728668,68.357758 367.251984,71.385506 367.936615,78.177704 
z"/>
<path fill="#F0F0F0" opacity="1.000000" stroke="none" 
	d="
M277.052979,69.924614 
	C278.578430,72.772270 279.822388,75.347885 281.423370,78.662781 
	C274.333893,78.662781 268.447754,78.662781 262.566284,78.662781 
	C263.615814,69.881332 269.164490,66.334862 277.052979,69.924614 
z"/>
<path fill="#F8F8F8" opacity="1.000000" stroke="none" 
	d="
M13.944909,102.558128 
	C14.568872,100.711884 15.226060,99.209190 15.941042,97.354691 
	C18.598297,94.905441 21.197760,92.808006 24.051178,90.505653 
	C26.081093,92.309502 28.486620,94.447136 31.698578,97.301384 
	C26.987331,99.112320 22.941359,100.667534 18.895386,102.222748 
	C18.973680,102.558777 19.051975,102.894798 19.130270,103.230820 
	C23.158533,102.169022 27.186794,101.107216 32.248882,99.772911 
	C30.527802,103.409439 29.179951,106.257355 27.816372,109.457954 
	C22.349751,109.194992 17.133385,108.110130 13.944909,102.558128 
z"/>
<path fill="#F8F8F8" opacity="1.000000" stroke="none" 
	d="
M30.213257,86.094116 
	C33.508595,85.024132 36.434486,84.055069 39.360382,83.085999 
	C39.746670,83.346924 40.132957,83.607849 40.519245,83.868774 
	C38.875813,87.592155 37.232380,91.315536 35.089550,96.170349 
	C31.625044,93.386131 28.814480,91.127441 25.226727,88.244179 
	C27.366724,87.294403 28.605268,86.744720 30.213257,86.094116 
z"/>
<path fill="#F8F8F8" opacity="1.000000" stroke="none" 
	d="
M35.018154,70.005920 
	C36.885311,73.021240 38.752468,76.036560 40.953262,79.590675 
	C36.931702,81.113892 32.935009,82.627686 27.798761,84.573097 
	C29.868273,79.443886 31.483011,75.441811 33.090260,70.926529 
	C33.082771,70.413322 33.034958,70.183533 33.047211,70.118790 
	C33.059464,70.054047 33.185356,70.092995 33.490852,70.084915 
	C34.203617,70.053192 34.610886,70.029556 35.018154,70.005920 
z"/>
<path fill="#EFE3E7" opacity="1.000000" stroke="none" 
	d="
M33.034958,70.183533 
	C33.034958,70.183533 33.082771,70.413322 33.089752,70.526169 
	C30.087072,75.176064 27.077414,79.713104 23.960716,84.411507 
	C23.267803,83.388756 22.451689,82.184151 21.288944,80.872223 
	C21.099199,78.275169 21.256084,75.785446 22.128139,73.177979 
	C24.581560,72.373077 26.319813,71.685913 28.418560,71.100128 
	C30.197689,70.862175 31.616323,70.522850 33.034958,70.183533 
z"/>
<path fill="#9B3251" opacity="1.000000" stroke="none" 
	d="
M33.047211,70.118790 
	C31.616323,70.522850 30.197689,70.862175 28.410915,70.870667 
	C28.042778,70.539825 28.054441,70.081245 28.313141,69.936935 
	C28.317011,69.071510 28.062183,68.350395 27.978413,67.354309 
	C30.160465,65.066193 32.171463,63.053024 34.437019,60.926693 
	C35.135983,60.498554 35.580379,60.183582 36.266106,60.049324 
	C35.451527,61.729202 34.395618,63.228371 32.775120,65.529144 
	C34.988285,64.909546 36.346592,64.157043 37.629269,64.269241 
	C39.066425,64.394943 40.435120,65.303322 41.833603,65.871132 
	C41.833603,65.871132 41.857891,65.939079 41.535095,65.941643 
	C39.480553,66.708412 37.748802,67.472626 36.017056,68.236839 
	C36.017056,68.236839 35.595661,68.193779 35.595661,68.193779 
	C35.595661,68.193779 35.206520,68.361084 34.797699,68.620163 
	C33.987701,69.283821 33.586529,69.688408 33.185356,70.092995 
	C33.185356,70.092995 33.059464,70.054047 33.047211,70.118790 
z"/>
<path fill="#FAEEF3" opacity="1.000000" stroke="none" 
	d="
M36.181343,68.495171 
	C37.748802,67.472626 39.480553,66.708412 41.563026,65.918808 
	C40.868038,67.885353 39.822323,69.877296 38.453926,71.929199 
	C37.536037,70.910606 36.940834,69.832054 36.181343,68.495171 
z"/>
<path fill="#FCFCFC" opacity="1.000000" stroke="none" 
	d="
M30.695530,108.941650 
	C30.545017,109.354729 30.077530,109.717453 29.287117,110.050461 
	C29.435646,109.644272 29.907099,109.267784 30.695530,108.941650 
z"/>
<path fill="#EFE3E7" opacity="1.000000" stroke="none" 
	d="
M33.490852,70.084915 
	C33.586529,69.688408 33.987701,69.283821 34.687481,68.801048 
	C34.988548,68.936745 34.991005,69.150627 35.005806,69.685211 
	C34.610886,70.029556 34.203617,70.053192 33.490852,70.084915 
z"/>
<path fill="#FCFCFC" opacity="1.000000" stroke="none" 
	d="
M28.802334,110.008148 
	C28.777243,110.128380 28.525047,110.283142 28.195698,110.265381 
	C28.118546,110.092865 28.575230,110.042686 28.802334,110.008148 
z"/>
<path fill="#FADFE8" opacity="1.000000" stroke="none" 
	d="
M42.156372,35.063698 
	C40.332691,34.166599 38.866768,33.235157 37.239113,32.063122 
	C39.579784,30.460428 42.082184,29.098328 44.907249,27.798616 
	C45.566200,27.859745 45.822762,27.716093 46.517136,27.225576 
	C48.146366,26.970999 49.258060,26.920897 50.369755,26.870792 
	C51.394508,27.027887 52.419266,27.184982 53.964600,27.597931 
	C54.485184,27.853783 54.859840,27.934084 54.859840,27.934084 
	C54.859840,27.934084 55.241642,27.901402 55.241642,27.901402 
	C55.638035,27.910093 56.034431,27.918785 56.711582,28.254700 
	C56.992340,28.581926 57.008301,28.999166 57.008301,28.999166 
	C57.008301,28.999166 57.005035,29.495808 56.690636,29.875463 
	C54.535397,31.489977 52.694557,32.724834 50.853714,33.959686 
	C50.120815,34.196358 49.387917,34.433029 48.346474,34.384972 
	C47.849075,32.825672 47.660229,31.551107 47.471378,30.276543 
	C46.997326,30.254627 46.523277,30.232712 46.049229,30.210796 
	C45.703594,31.471344 45.357964,32.731892 45.012329,33.992439 
	C44.179596,34.338078 43.346863,34.683716 42.156372,35.063698 
z"/>
<path fill="#F9E0E8" opacity="1.000000" stroke="none" 
	d="
M62.023396,45.910103 
	C62.338139,45.147308 62.652882,44.384510 63.239410,43.311066 
	C63.511192,43.000420 63.997101,42.999390 63.997101,42.999390 
	C66.934349,41.752430 69.844719,40.434196 72.827812,39.308754 
	C73.570908,39.028400 75.025513,39.064571 75.304695,39.499653 
	C75.702187,40.119099 75.599693,41.392017 75.212662,42.121471 
	C73.916840,44.563709 72.399696,46.888512 70.565628,49.621414 
	C68.424713,49.662766 66.685486,49.340984 64.672256,48.877895 
	C63.606636,47.794422 62.815014,46.852264 62.023396,45.910103 
z"/>
<path fill="#FADFE8" opacity="1.000000" stroke="none" 
	d="
M65.997421,30.886299 
	C67.727135,31.189604 69.062561,31.578848 70.732391,32.086250 
	C72.372787,33.051235 73.678787,33.898064 75.647202,35.174412 
	C71.256149,36.753448 67.120804,38.240528 62.985470,39.727604 
	C62.470844,39.073383 61.956223,38.419159 61.441601,37.764935 
	C62.828781,35.500702 64.215965,33.236469 65.997421,30.886299 
z"/>
<path fill="#AE234B" opacity="1.000000" stroke="none" 
	d="
M40.244148,38.020012 
	C39.779961,37.741497 39.570351,37.528835 39.151264,37.205635 
	C39.838539,36.678566 40.687195,36.309437 41.901299,35.891441 
	C46.712959,37.685841 51.159172,39.529106 55.691433,41.944138 
	C55.100506,43.052433 54.423534,43.588959 53.419601,44.025845 
	C50.471855,42.971809 48.414879,39.342804 44.986916,42.217514 
	C44.234970,41.155487 43.483025,40.093460 42.371075,38.996002 
	C41.522987,38.653202 41.034901,38.345837 40.244148,38.020012 
z"/>
<path fill="#B33058" opacity="1.000000" stroke="none" 
	d="
M53.746559,44.125481 
	C54.423534,43.588959 55.100506,43.052433 55.911842,42.213936 
	C56.046200,41.911964 56.504456,41.945930 57.076607,42.018547 
	C57.767288,43.697445 57.885818,45.303734 57.672829,47.002502 
	C55.261684,47.712231 53.182072,48.329479 50.992027,48.610664 
	C51.836586,46.891560 52.791573,45.508518 53.746559,44.125481 
z"/>
<path fill="#AE234B" opacity="1.000000" stroke="none" 
	d="
M58.004349,46.910019 
	C57.885818,45.303734 57.767288,43.697445 57.305698,42.035957 
	C57.670712,40.661480 58.378784,39.342201 59.328358,37.572952 
	C60.091057,40.652836 60.704788,43.131180 61.670959,45.759811 
	C62.815014,46.852264 63.606636,47.794422 64.705383,49.094776 
	C65.012505,49.452969 65.057571,49.889435 65.057571,49.889435 
	C65.015488,50.440105 64.973412,50.990780 64.590202,51.798500 
	C62.167496,50.340370 60.085922,48.625195 58.004349,46.910019 
z"/>
<path fill="#F6D1E0" opacity="1.000000" stroke="none" 
	d="
M51.009270,34.228916 
	C52.694557,32.724834 54.535397,31.489977 56.687500,30.123768 
	C55.830605,32.499706 55.034050,35.488140 51.009270,34.228916 
z"/>
<path fill="#F6D1E0" opacity="1.000000" stroke="none" 
	d="
M45.333340,34.024609 
	C45.357964,32.731892 45.703594,31.471344 46.049229,30.210796 
	C46.523277,30.232712 46.997326,30.254627 47.471378,30.276543 
	C47.660229,31.551107 47.849075,32.825672 48.069843,34.477722 
	C47.285957,34.589062 46.470154,34.322922 45.333340,34.024609 
z"/>
<path fill="#FADFE8" opacity="1.000000" stroke="none" 
	d="
M65.326233,50.073071 
	C65.057571,49.889435 65.012505,49.452969 64.979378,49.236088 
	C66.685486,49.340984 68.424713,49.662766 70.542747,49.989670 
	C70.914368,50.214222 70.907181,50.433643 70.838089,50.978249 
	C69.794411,51.774784 68.812645,52.246143 67.587761,52.834236 
	C66.948219,52.007076 66.271553,51.131889 65.326233,50.073071 
z"/>
<path fill="#F6D1E0" opacity="1.000000" stroke="none" 
	d="
M57.240105,29.165257 
	C57.008301,28.999166 56.992340,28.581926 56.986618,28.373226 
	C57.393932,28.173903 57.806969,28.183277 58.529064,28.184483 
	C58.882172,28.563015 58.926216,28.949713 58.998730,29.627312 
	C58.869667,30.327967 58.712135,30.737720 58.554604,31.147474 
	C58.193703,30.542099 57.832802,29.936724 57.240105,29.165257 
z"/>
<path fill="#FADFE8" opacity="1.000000" stroke="none" 
	d="
M63.979523,42.750496 
	C63.997101,42.999390 63.511192,43.000420 63.268543,43.001228 
	C63.182713,42.571415 63.339527,42.140800 63.496342,41.710182 
	C63.651546,41.973988 63.806747,42.237793 63.979523,42.750496 
z"/>
<path fill="#F9E0E8" opacity="1.000000" stroke="none" 
	d="
M77.461250,40.448486 
	C77.515350,40.416092 77.407150,40.480881 77.461250,40.448486 
z"/>
<path fill="#FCFCFC" opacity="1.000000" stroke="none" 
	d="
M297.866760,69.809921 
	C297.757904,70.188766 297.676941,70.326744 297.596008,70.464722 
	C297.491516,70.181061 297.387054,69.897400 297.282593,69.613739 
	C297.486603,69.598839 297.690643,69.583939 297.866760,69.809921 
z"/>
<path fill="#F8CBDC" opacity="1.000000" stroke="none" 
	d="
M32.998791,19.993416 
	C33.330746,20.427011 33.662704,20.860605 34.081570,21.563652 
	C33.474377,21.440065 32.780273,21.047028 32.293583,20.326584 
	C32.500996,19.999182 32.998791,19.993416 32.998791,19.993416 
z"/>
<path fill="#F0F0F0" opacity="1.000000" stroke="none" 
	d="
M32.883728,19.772038 
	C32.998791,19.993416 32.500996,19.999182 32.252190,19.992731 
	C32.003380,19.986280 31.976019,19.501925 31.958988,19.260044 
	C32.281635,19.096170 32.557205,19.273668 32.883728,19.772038 
z"/>
<path fill="#F6D1E0" opacity="1.000000" stroke="none" 
	d="
M26.983700,22.735849 
	C26.803234,22.806543 26.630146,22.650703 26.499886,22.464848 
	C26.475214,22.429647 26.620535,22.275309 26.852867,22.099514 
	C27.018314,22.023088 27.005936,22.498903 26.983700,22.735849 
z"/>
<path fill="#9B3251" opacity="1.000000" stroke="none" 
	d="
M58.099224,59.842209 
	C54.761673,61.166553 51.490025,62.243969 48.051666,63.638458 
	C47.884960,63.955528 47.450897,63.974163 47.068176,63.671371 
	C42.858467,61.891430 45.901432,61.034794 46.994759,60.001930 
	C46.999947,60.002266 47.003258,59.993561 47.368904,59.997559 
	C48.633274,59.734612 49.532001,59.467667 50.782345,59.156929 
	C52.720325,58.677925 54.306686,58.242710 55.893051,57.807495 
	C56.490116,58.215248 57.087177,58.623001 58.059849,59.096100 
	C58.345348,59.306057 58.255238,59.450665 58.099224,59.842209 
z"/>
<path fill="#9B3251" opacity="1.000000" stroke="none" 
	d="
M29.163931,60.688553 
	C29.624653,59.813122 29.924561,59.347488 30.332745,58.622768 
	C30.963387,57.460629 31.485752,56.557579 32.016914,55.332924 
	C32.356274,55.737370 32.686840,56.463421 32.735943,57.652603 
	C32.507885,58.392754 32.561287,58.669769 32.614693,58.946781 
	C32.882889,58.765434 33.151085,58.584087 33.419281,58.402744 
	C33.419281,58.402744 33.817459,58.220566 34.245506,58.361221 
	C34.092545,59.322731 33.511532,60.143589 32.541645,61.162827 
	C30.629057,62.008663 29.105341,62.656124 27.581623,63.303589 
	C28.055454,62.568508 28.529285,61.833431 29.163931,60.688553 
z"/>
<path fill="#F8CBDC" opacity="1.000000" stroke="none" 
	d="
M27.411951,63.340469 
	C29.105341,62.656124 30.629057,62.008663 32.854462,61.184494 
	C33.764919,61.018482 33.973690,61.029171 34.182457,61.039860 
	C32.171463,63.053024 30.160465,65.066193 27.983780,67.379974 
	C27.818089,67.680595 27.825869,67.730743 27.612074,67.770203 
	C27.398279,67.809669 26.994085,67.969940 26.973625,67.860565 
	C26.953167,67.751190 26.915459,67.531868 26.915459,67.531868 
	C27.024397,66.147026 27.133337,64.762192 27.411951,63.340469 
z"/>
<path fill="#AE234B" opacity="1.000000" stroke="none" 
	d="
M28.054443,70.081245 
	C28.054441,70.081245 28.042778,70.539825 28.050421,70.769287 
	C26.319813,71.685913 24.581560,72.373077 22.451111,73.016327 
	C22.049015,72.804359 22.039120,72.636284 22.250977,72.050346 
	C22.497339,71.522644 22.563255,71.402023 22.537973,71.305222 
	C22.484959,71.102249 22.383961,70.911804 22.302666,70.716217 
	C22.302666,70.716217 22.387321,70.555008 22.762398,70.549744 
	C23.414015,70.022026 23.690554,69.499573 23.967094,68.977127 
	C23.967094,68.977127 23.995207,68.969910 24.295675,68.959686 
	C24.803476,68.933243 25.010809,68.917038 25.458969,68.879280 
	C25.699795,68.857727 26.180227,68.801239 26.180227,68.801239 
	C26.180227,68.801239 26.663929,68.807465 26.857433,69.060516 
	C27.385439,69.569450 27.719942,69.825348 28.054443,70.081245 
z"/>
<path fill="#ECBCCD" opacity="1.000000" stroke="none" 
	d="
M26.663929,68.807465 
	C26.663929,68.807465 26.180227,68.801239 26.180227,68.801239 
	C26.180227,68.801239 25.699795,68.857727 25.470520,68.620560 
	C25.314899,68.227165 25.388554,68.070930 25.462210,67.914688 
	C25.771570,67.785263 26.092619,67.699608 26.670406,67.594803 
	C26.915459,67.531868 26.953167,67.751190 26.875786,68.061615 
	C26.798405,68.372047 26.779165,68.818802 26.750839,68.811050 
	C26.722513,68.803307 26.663929,68.807465 26.663929,68.807465 
z"/>
<path fill="#AC2D50" opacity="1.000000" stroke="none" 
	d="
M23.718269,69.071609 
	C23.690554,69.499573 23.414015,70.022026 22.821228,70.480255 
	C22.826471,69.999390 23.147959,69.582741 23.718269,69.071609 
z"/>
<path fill="#AC2D50" opacity="1.000000" stroke="none" 
	d="
M22.149826,70.892212 
	C22.383961,70.911804 22.484959,71.102249 22.537973,71.305222 
	C22.563255,71.402023 22.497339,71.522644 22.283867,71.799957 
	C21.906204,71.684662 21.873533,71.384918 22.149826,70.892212 
z"/>
<path fill="#B33058" opacity="1.000000" stroke="none" 
	d="
M25.112862,67.903503 
	C25.388554,68.070930 25.314899,68.227165 25.229694,68.642120 
	C25.010809,68.917038 24.803476,68.933243 24.284378,68.949692 
	C24.236248,68.597389 24.499880,68.244858 25.112862,67.903503 
z"/>
<path fill="#FADFE8" opacity="1.000000" stroke="none" 
	d="
M56.161690,57.564022 
	C54.306686,58.242710 52.720325,58.677925 50.521729,59.013680 
	C49.964962,57.968658 50.020435,57.023090 50.369942,56.008102 
	C50.808990,55.228275 51.015953,54.519886 51.039127,53.805534 
	C51.043072,53.683918 50.259338,53.536747 49.839504,53.401382 
	C49.835865,54.232609 49.832222,55.063835 49.455673,55.929459 
	C48.389591,57.307091 47.696426,58.650326 47.003258,59.993561 
	C47.003258,59.993561 46.999947,60.002266 46.581001,59.996754 
	C45.057507,59.975521 43.952957,59.959801 42.872765,59.609085 
	C42.885151,58.605042 42.873177,57.936001 42.999325,56.947533 
	C43.431591,55.534443 43.725731,54.440781 44.263474,53.151062 
	C44.931667,52.279118 45.356258,51.603233 46.158241,50.941643 
	C48.057907,50.286201 49.580181,49.616463 51.102455,48.946724 
	C53.182072,48.329479 55.261684,47.712231 57.672825,47.002502 
	C60.085922,48.625195 62.167496,50.340370 64.550980,52.210838 
	C64.342735,53.265789 64.044579,54.627804 63.282192,54.977375 
	C61.099094,55.978382 58.727692,56.568733 56.161690,57.564022 
z"/>
<path fill="#F8CBDC" opacity="1.000000" stroke="none" 
	d="
M50.992027,48.610664 
	C49.580181,49.616463 48.057907,50.286201 46.051296,50.673531 
	C44.754780,49.944897 43.942600,49.498669 43.130421,49.052441 
	C43.714565,46.969158 44.298710,44.885876 44.934883,42.510056 
	C48.414879,39.342804 50.471855,42.971809 53.419598,44.025841 
	C52.791573,45.508518 51.836586,46.891560 50.992027,48.610664 
z"/>
<path fill="#B33058" opacity="1.000000" stroke="none" 
	d="
M42.995529,49.370323 
	C43.942600,49.498669 44.754780,49.944897 45.673904,50.659233 
	C45.356258,51.603233 44.931667,52.279118 43.966160,53.267029 
	C43.237232,54.808357 43.049217,56.037659 42.861198,57.266960 
	C42.873177,57.936001 42.885151,58.605042 42.557461,59.590515 
	C40.822449,58.080765 39.024689,57.670193 36.931900,58.099937 
	C36.965240,57.204800 36.970467,56.606071 36.975693,56.007339 
	C36.447041,54.935276 35.829151,53.895653 35.423271,52.778965 
	C35.180473,52.110981 35.269566,51.322361 35.209480,50.587967 
	C35.913250,50.707348 36.617023,50.826729 37.662849,50.931374 
	C40.352982,53.390713 41.442181,50.888702 42.995529,49.370323 
z"/>
<path fill="#F8CBDC" opacity="1.000000" stroke="none" 
	d="
M39.155010,43.233574 
	C38.993530,42.992863 39.417324,42.893505 39.621826,42.820122 
	C40.262623,42.919071 40.698914,43.091404 41.135208,43.263733 
	C41.117878,43.409279 41.100548,43.554821 41.083218,43.700367 
	C40.494308,43.625004 39.905399,43.549644 39.155010,43.233574 
z"/>
<path fill="#F6D1E0" opacity="1.000000" stroke="none" 
	d="
M50.051125,26.705208 
	C49.258060,26.920897 48.146366,26.970999 46.621109,27.021622 
	C47.382530,26.861300 48.557510,26.700460 50.051125,26.705208 
z"/>
<path fill="#F6D1E0" opacity="1.000000" stroke="none" 
	d="
M55.087151,27.766396 
	C55.241642,27.901402 54.859840,27.934084 54.859840,27.934084 
	C54.859840,27.934084 54.485184,27.853783 54.320862,27.758507 
	C54.408310,27.485365 54.667019,27.474752 55.087151,27.766396 
z"/>
<path fill="#FAD7E4" opacity="1.000000" stroke="none" 
	d="
M36.903790,58.396343 
	C39.024689,57.670193 40.822449,58.080765 42.533104,59.925518 
	C43.952957,59.959801 45.057507,59.975521 46.575813,59.996418 
	C45.901432,61.034794 42.858467,61.891430 46.850945,63.671509 
	C47.014645,64.434540 47.012856,64.894638 47.000690,65.700691 
	C46.241787,66.032944 45.493259,66.019234 44.370117,66.006439 
	C43.513844,65.995834 43.032185,65.984329 42.192062,65.921982 
	C40.435120,65.303322 39.066425,64.394943 37.629269,64.269241 
	C36.346592,64.157043 34.988285,64.909546 32.775120,65.529144 
	C34.395618,63.228371 35.451527,61.729202 36.253433,59.801186 
	C35.999432,59.372337 35.954052,58.877480 36.159504,58.694065 
	C36.544567,58.472549 36.724178,58.434448 36.903790,58.396343 
z"/>
<path fill="#9B3251" opacity="1.000000" stroke="none" 
	d="
M36.931900,58.099937 
	C36.724178,58.434448 36.544567,58.472549 35.743942,58.705257 
	C34.790459,58.573246 34.457989,58.246632 34.125523,57.920013 
	C34.864552,57.375431 35.603580,56.830845 36.659149,56.146801 
	C36.970467,56.606071 36.965240,57.204800 36.931900,58.099937 
z"/>
<path fill="#ECBCCD" opacity="1.000000" stroke="none" 
	d="
M34.134544,57.932941 
	C34.457989,58.246632 34.790459,58.573246 35.538490,58.888672 
	C35.954052,58.877480 35.999432,59.372337 36.012108,59.620476 
	C35.580379,60.183582 35.135983,60.498554 34.437019,60.926693 
	C33.973690,61.029171 33.764919,61.018482 33.243336,60.986118 
	C33.511532,60.143589 34.092545,59.322731 34.403728,58.209892 
	C34.133900,57.917904 34.143566,57.945869 34.134544,57.932941 
z"/>
<path fill="#FCFCFC" opacity="1.000000" stroke="none" 
	d="
M47.901306,67.800812 
	C47.690990,67.916298 47.442360,67.737099 47.158360,67.263939 
	C47.375641,67.140800 47.622303,67.319511 47.901306,67.800812 
z"/>
<path fill="#B33058" opacity="1.000000" stroke="none" 
	d="
M28.313141,69.936935 
	C27.719942,69.825348 27.385439,69.569450 26.857433,69.060516 
	C26.663929,68.807465 26.722513,68.803307 27.024775,68.747223 
	C27.493313,68.371002 27.659592,68.050873 27.825869,67.730743 
	C27.825869,67.730743 27.818089,67.680595 27.812721,67.654938 
	C28.062183,68.350395 28.317011,69.071510 28.313141,69.936935 
z"/>
<path fill="#FAD7E4" opacity="1.000000" stroke="none" 
	d="
M47.368904,59.997559 
	C47.696426,58.650326 48.389591,57.307091 49.520569,55.970921 
	C49.958374,55.977989 50.075909,56.077526 50.075909,56.077526 
	C50.020435,57.023090 49.964962,57.968658 50.170113,59.057472 
	C49.532001,59.467667 48.633274,59.734612 47.368904,59.997559 
z"/>
<path fill="#F8CBDC" opacity="1.000000" stroke="none" 
	d="
M33.293571,58.281441 
	C33.151085,58.584087 32.882889,58.765434 32.614693,58.946781 
	C32.561287,58.669769 32.507885,58.392754 32.683434,58.018776 
	C32.912384,57.921810 33.167866,58.160133 33.293571,58.281441 
z"/>
<path fill="#9B3251" opacity="1.000000" stroke="none" 
	d="
M27.612074,67.770203 
	C27.659592,68.050873 27.493313,68.371002 27.053101,68.754967 
	C26.779165,68.818802 26.798405,68.372047 26.896244,68.170990 
	C26.994085,67.969940 27.398279,67.809669 27.612074,67.770203 
z"/>
<path fill="#FAD7E4" opacity="1.000000" stroke="none" 
	d="
M49.893478,55.936523 
	C49.832222,55.063835 49.835865,54.232609 49.839504,53.401382 
	C50.259338,53.536747 51.043072,53.683918 51.039127,53.805534 
	C51.015953,54.519886 50.808990,55.228275 50.369942,56.008102 
	C50.075909,56.077526 49.958374,55.977989 49.893478,55.936523 
z"/>
<path fill="#FAD7E4" opacity="1.000000" stroke="none" 
	d="
M42.999329,56.947533 
	C43.049217,56.037659 43.237232,54.808357 43.722557,53.463089 
	C43.725731,54.440781 43.431591,55.534443 42.999329,56.947533 
z"/>
</svg>