<?xml version="1.0" encoding="UTF-8"?>
<svg version="1.1" xmlns="http://www.w3.org/2000/svg" width="200" height="200">
<path d="M0 0 C66 0 132 0 200 0 C200 66 200 132 200 200 C134 200 68 200 0 200 C0 134 0 68 0 0 Z " fill="#6E9A02" transform="translate(0,0)"/>
<path d="M0 0 C66 0 132 0 200 0 C200 66 200 132 200 200 C134 200 68 200 0 200 C0 134 0 68 0 0 Z M79 17 C77.96875 17.2371875 76.9375 17.474375 75.875 17.71875 C55.48729216 23.258888 38.25854566 37.33003206 27 55 C18.67929144 69.59018876 14.82282674 83.12502212 14.8125 99.875 C14.80025391 100.91269531 14.78800781 101.95039062 14.77539062 103.01953125 C14.74014756 121.65136681 22.15978612 139.70342473 34 154 C34.64582031 154.79148438 35.29164062 155.58296875 35.95703125 156.3984375 C46.80718282 169.10582222 60.97681758 178.30886978 77.20703125 182.4921875 C79 183 79 183 80 184 C86.64286419 185.10323186 93.21498237 185.18332193 99.9375 185.1875 C100.97068359 185.19974609 102.00386719 185.21199219 103.06835938 185.22460938 C112.39208622 185.24232387 120.3338629 183.51009011 129 180.1875 C129.69351563 179.92324219 130.38703125 179.65898437 131.1015625 179.38671875 C146.46909962 173.40086159 160.89542547 162.90469406 170 149 C170.50144531 148.24074219 171.00289062 147.48148438 171.51953125 146.69921875 C175.47058376 140.42754806 178.31970181 133.89628323 181 127 C181.31066406 126.24332031 181.62132812 125.48664063 181.94140625 124.70703125 C185.32464223 116.25711336 185.18244605 108.04337174 185.1875 99.0625 C185.19974609 97.92103516 185.21199219 96.77957031 185.22460938 95.60351562 C185.23545817 89.34376311 184.84466729 83.98359818 183 78 C182.73960937 77.03835937 182.47921875 76.07671875 182.2109375 75.0859375 C175.67214535 53.88069568 160.6301312 35.7819952 141.25 25.0625 C136.57634601 22.68389421 131.96256022 20.6822238 127 19 C125.04874132 18.22100913 123.09834945 17.44046608 121.15234375 16.6484375 C114.30138406 14.58444601 107.21220099 14.81686942 100.125 14.8125 C99.08730469 14.80025391 98.04960938 14.78800781 96.98046875 14.77539062 C90.69005925 14.76349199 85.06532494 15.3548699 79 17 Z " fill="#FEFEFD" transform="translate(0,0)"/>
<path d="M0 0 C0.99386719 0.00902344 1.98773438 0.01804688 3.01171875 0.02734375 C4.15060547 0.04474609 4.15060547 0.04474609 5.3125 0.0625 C5.3125 3.3625 5.3125 6.6625 5.3125 10.0625 C3.00130208 10.48567708 0.69010417 10.90885417 -1.62109375 11.33203125 C-2.30300781 11.57308594 -2.98492187 11.81414063 -3.6875 12.0625 C-4.60303595 14.80910784 -4.83320614 16.57320671 -4.8984375 19.4140625 C-4.94097656 20.69216797 -4.94097656 20.69216797 -4.984375 21.99609375 C-5.03577241 23.76673457 -5.08023666 25.53759255 -5.1171875 27.30859375 C-5.40870291 35.41029293 -6.74643823 43.12143823 -12.6875 49.0625 C-13.3475 49.0625 -14.0075 49.0625 -14.6875 49.0625 C-14.6875 49.7225 -14.6875 50.3825 -14.6875 51.0625 C-14.0275 51.0625 -13.3675 51.0625 -12.6875 51.0625 C-5.95526601 57.96303984 -5.40659652 64.88794662 -5.125 74.1875 C-4.93635039 81.68605297 -4.93635039 81.68605297 -3.6875 89.0625 C-0.7175 89.3925 2.2525 89.7225 5.3125 90.0625 C5.3125 93.3625 5.3125 96.6625 5.3125 100.0625 C-6.9093234 100.38841529 -6.9093234 100.38841529 -12.375 95.8125 C-17.76833615 89.39880296 -17.06535278 81.71423849 -17.25390625 73.76171875 C-17.43834503 68.15638363 -17.64363313 63.02610696 -20.9375 58.25 C-23.40142205 56.5780529 -25.76626796 56.38708134 -28.6875 56.0625 C-28.6875 52.1025 -28.6875 48.1425 -28.6875 44.0625 C-26.66927083 43.63932292 -24.65104167 43.21614583 -22.6328125 42.79296875 C-20.31703451 42.13941162 -20.31703451 42.13941162 -18.6875 39.0625 C-17.84494136 35.77463848 -17.55063461 32.64695013 -17.4765625 29.26171875 C-17.43402344 27.91883789 -17.43402344 27.91883789 -17.390625 26.54882812 C-17.33887418 24.69485515 -17.294506 22.84066022 -17.2578125 20.98632812 C-17.01879632 14.03992033 -16.39782865 7.70507043 -11.1875 2.625 C-7.32036211 0.20803882 -4.46893227 -0.05257567 0 0 Z " fill="#FCFDFA" transform="translate(68.6875,49.9375)"/>
<path d="M0 0 C7.17008133 -0.4667684 12.2932795 -0.65854735 18 4 C22.27762154 9.95682323 22.55764717 15.87604119 22.5625 23 C22.5957342 29.96968697 22.79305436 35.70167433 26 42 C27.95943525 43.35187679 27.95943525 43.35187679 30.1875 43.5 C31.445625 43.665 32.70375 43.83 34 44 C34 47.96 34 51.92 34 56 C31.03 56.66 28.06 57.32 25 58 C22.92441749 65.11509684 22.65212456 71.75512309 22.609375 79.13476562 C22.4243575 86.17057017 21.11252601 92.78706993 16.0625 98 C10.8904798 100.50764616 5.62741361 100.08399125 0 100 C0 96.7 0 93.4 0 90 C1.27875 89.9175 2.5575 89.835 3.875 89.75 C6.04634555 89.69632215 6.04634555 89.69632215 8 89 C9.79051567 86.14112349 10.25437298 83.89226935 10.30859375 80.55078125 C10.33373047 79.70193359 10.35886719 78.85308594 10.38476562 77.97851562 C10.41953424 76.2207692 10.45086369 74.46295091 10.47851562 72.70507812 C10.7287776 64.60513551 12.05978987 56.94021013 18 51 C18.66 51 19.32 51 20 51 C20 50.34 20 49.68 20 49 C19.34 49 18.68 49 18 49 C11.34743854 42.34743854 10.56189226 33.58247892 10.375 24.625 C10.32397177 22.86707747 10.26943852 21.10925222 10.2109375 19.3515625 C10.19337402 18.58666504 10.17581055 17.82176758 10.15771484 17.03369141 C10.06675616 14.79705182 10.06675616 14.79705182 9 12 C6.89415562 11.19436362 6.89415562 11.19436362 4.4375 10.8125 C2.973125 10.544375 1.50875 10.27625 0 10 C0 6.7 0 3.4 0 0 Z " fill="#FCFDFA" transform="translate(126,50)"/>
<path d="M0 0 C2.57933662 0.04622467 3.85347187 0.09726543 6.125 1.375 C7.60401666 4.14815624 7.51101984 6.16184125 7.125 9.25 C6.125 11.125 6.125 11.125 4.125 12.25 C1.34372796 12.77148851 -1.10358751 12.85948075 -3.875 12.25 C-6 10.125 -6 10.125 -6.875 7.25 C-5.28054156 0.3406801 -5.28054156 0.3406801 0 0 Z " fill="#F9FAF4" transform="translate(123.875,93.75)"/>
<path d="M0 0 C2.91289646 0.08473881 3.77703881 0.15009119 6.125 2 C7.38106608 5.18203406 6.98320253 7.11712952 6.0625 10.375 C4.0625 12.375 4.0625 12.375 2.1875 12.640625 C1.48625 12.63546875 0.785 12.6303125 0.0625 12.625 C-0.63875 12.63015625 -1.34 12.6353125 -2.0625 12.640625 C-3.9375 12.375 -3.9375 12.375 -5.9375 10.375 C-6.203125 8.5 -6.203125 8.5 -6.1875 6.375 C-6.19265625 5.67375 -6.1978125 4.9725 -6.203125 4.25 C-5.64141538 0.2849909 -3.70326965 0.35269235 0 0 Z " fill="#FBFCF8" transform="translate(75.9375,93.625)"/>
<path d="M0 0 C0.70125 0.00515625 1.4025 0.0103125 2.125 0.015625 C2.82625 0.01046875 3.5275 0.0053125 4.25 0 C6.125 0.265625 6.125 0.265625 8.125 2.265625 C8.390625 4.140625 8.390625 4.140625 8.375 6.265625 C8.38015625 6.966875 8.3853125 7.668125 8.390625 8.390625 C8.125 10.265625 8.125 10.265625 6.125 12.265625 C4.25 12.53125 4.25 12.53125 2.125 12.515625 C1.42375 12.52078125 0.7225 12.5259375 0 12.53125 C-1.875 12.265625 -1.875 12.265625 -3.875 10.265625 C-4.140625 8.390625 -4.140625 8.390625 -4.125 6.265625 C-4.13015625 5.564375 -4.1353125 4.863125 -4.140625 4.140625 C-3.75603481 1.4258707 -2.7147543 0.38459019 0 0 Z " fill="#FCFDFA" transform="translate(97.875,93.734375)"/>
</svg>
