<?xml version="1.0" encoding="UTF-8"?>
<svg version="1.1" xmlns="http://www.w3.org/2000/svg" width="300" height="168">
<path d="M0 0 C99 0 198 0 300 0 C300 55.44 300 110.88 300 168 C201 168 102 168 0 168 C0 112.56 0 57.12 0 0 Z " fill="#FEFEFE" transform="translate(0,0)"/>
<path d="M0 0 C0.33 0 0.66 0 1 0 C1 2.97 1 5.94 1 9 C3.64 9 6.28 9 9 9 C9.33 8.01 9.66 7.02 10 6 C10.33 15.9 10.66 25.8 11 36 C14.96 36 18.92 36 23 36 C24.83219646 34.16780354 24.23901328 31.24286259 24.31640625 28.77734375 C24.35830078 27.51728516 24.40019531 26.25722656 24.44335938 24.95898438 C24.48317596 23.61849264 24.52288814 22.2779978 24.5625 20.9375 C24.60568042 19.59308477 24.64929456 18.2486834 24.69335938 16.90429688 C24.79985358 13.6029766 24.9018646 10.30157764 25 7 C25.33 7.66 25.66 8.32 26 9 C27.65 8.67 29.3 8.34 31 8 C32.41634833 10.83269666 32.3463005 13.47466438 32.5625 16.625 C32.64628906 17.81351563 32.73007812 19.00203125 32.81640625 20.2265625 C32.87699219 21.14179687 32.93757813 22.05703125 33 23 C36.96 23 40.92 23 45 23 C45.33 17.39 45.66 11.78 46 6 C46.495 7.485 46.495 7.485 47 9 C49.64 9 52.28 9 55 9 C55 6.03 55 3.06 55 0 C55.33 0 55.66 0 56 0 C56.10140493 6.4777286 56.17146717 12.95525261 56.21972656 19.43359375 C56.23984419 21.6374476 56.26714172 23.84124807 56.30175781 26.04492188 C56.35026833 29.21237356 56.37296736 32.37911968 56.390625 35.546875 C56.41127014 36.53242371 56.43191528 37.51797241 56.45318604 38.53338623 C56.45444844 42.38026577 56.42449076 45.17496372 54.6496582 48.62451172 C50.32033568 50.87194589 46.01700866 50.52860401 41.21484375 50.4609375 C40.1622084 50.46002106 39.10957306 50.45910461 38.02503967 50.4581604 C35.80172206 50.45212261 33.57841265 50.4363714 31.35522461 50.41162109 C27.94679907 50.37509964 24.5394602 50.37060185 21.13085938 50.37109375 C18.97134475 50.36126317 16.81183749 50.34960643 14.65234375 50.3359375 C13.63043442 50.33371185 12.60852509 50.33148621 11.5556488 50.32919312 C10.60779007 50.31643341 9.65993134 50.30367371 8.68334961 50.29052734 C7.43236732 50.27909195 7.43236732 50.27909195 6.15611267 50.26742554 C4 50 4 50 1 48 C0.05662624 45.16987873 -0.12172829 43.45700082 -0.11352539 40.52856445 C-0.11344986 39.62785721 -0.11337433 38.72714996 -0.11329651 37.79914856 C-0.10813522 36.83031235 -0.10297394 35.86147614 -0.09765625 34.86328125 C-0.0962413 33.86870407 -0.09482635 32.87412689 -0.09336853 31.84941101 C-0.08776761 28.67041018 -0.07521496 25.49147957 -0.0625 22.3125 C-0.05748512 20.15820414 -0.05292219 18.00390718 -0.04882812 15.84960938 C-0.03779788 10.56638226 -0.02105886 5.28319615 0 0 Z " fill="#0A5FDA" transform="translate(10,61)"/>
<path d="M0 0 C1.00208496 -0.0038269 2.00416992 -0.00765381 3.03662109 -0.01159668 C5.15137743 -0.01431382 7.26616749 -0.00696657 9.38085938 0.00976562 C12.61404494 0.03117745 15.84500838 0.00995657 19.078125 -0.015625 C21.13542156 -0.01298169 23.19271674 -0.00785665 25.25 0 C26.21470215 -0.00809692 27.1794043 -0.01619385 28.17333984 -0.02453613 C32.48815556 0.03561607 34.98344425 0.1505279 38.7565918 2.38964844 C40.625 4.53125 40.625 4.53125 40.89453125 7.328125 C40.74371094 8.30265625 40.59289062 9.2771875 40.4375 10.28125 C40.29957031 11.26609375 40.16164062 12.2509375 40.01953125 13.265625 C39.88933594 14.01328125 39.75914063 14.7609375 39.625 15.53125 C36.985 15.53125 34.345 15.53125 31.625 15.53125 C31.53412109 17.02978516 31.53412109 17.02978516 31.44140625 18.55859375 C31.35761719 19.84894531 31.27382813 21.13929687 31.1875 22.46875 C31.10628906 23.75652344 31.02507813 25.04429688 30.94140625 26.37109375 C30.625 29.53125 30.625 29.53125 29.625 30.53125 C27.62700428 30.62998816 25.62542842 30.66096799 23.625 30.65625 C22.531875 30.65882812 21.43875 30.66140625 20.3125 30.6640625 C17.625 30.53125 17.625 30.53125 16.625 29.53125 C16.39018307 27.34832226 16.21136677 25.15921826 16.0625 22.96875 C15.93681641 21.17244141 15.93681641 21.17244141 15.80859375 19.33984375 C15.74800781 18.41300781 15.68742187 17.48617187 15.625 16.53125 C13.15 16.03625 13.15 16.03625 10.625 15.53125 C10.60518066 16.30839355 10.58536133 17.08553711 10.56494141 17.88623047 C10.46992991 21.39325691 10.36015441 24.89966794 10.25 28.40625 C10.2190625 29.62957031 10.188125 30.85289063 10.15625 32.11328125 C10.11757813 33.27988281 10.07890625 34.44648437 10.0390625 35.6484375 C10.0076416 36.72722168 9.9762207 37.80600586 9.94384766 38.91748047 C9.625 41.53125 9.625 41.53125 7.625 43.53125 C4.83984375 43.76171875 4.83984375 43.76171875 1.5625 43.71875 C-0.06365234 43.70908203 -0.06365234 43.70908203 -1.72265625 43.69921875 C-4.375 43.53125 -4.375 43.53125 -5.375 42.53125 C-5.53325258 40.53342874 -5.62619171 38.53036166 -5.69140625 36.52734375 C-5.73330078 35.31240234 -5.77519531 34.09746094 -5.81835938 32.84570312 C-5.85767578 31.56630859 -5.89699219 30.28691406 -5.9375 28.96875 C-6.00227539 27.04385742 -6.00227539 27.04385742 -6.06835938 25.08007812 C-6.174848 21.89725147 -6.27685962 18.71434326 -6.375 15.53125 C-9.015 15.53125 -11.655 15.53125 -14.375 15.53125 C-14.67879747 13.78667045 -14.94188772 12.03496757 -15.1875 10.28125 C-15.33832031 9.30671875 -15.48914062 8.3321875 -15.64453125 7.328125 C-15.375 4.53125 -15.375 4.53125 -13.5065918 2.38964844 C-9.01570717 -0.27540292 -5.13336361 -0.04308527 0 0 Z " fill="#2982F8" transform="translate(25.375,54.46875)"/>
<path d="M0 0 C4.96421024 4.96421024 6.29881393 9.90242311 6.375 16.8125 C6.25648142 24.35818266 4.97986154 29.09654517 -0.4375 34.375 C-6.54266901 38.24657059 -12.1050708 39.04203323 -19.18359375 37.53515625 C-24.40858737 35.86592388 -26.93021904 33.51438377 -30 29 C-33.10518835 22.71281652 -32.70183254 15.81573459 -32 9 C-29.99718067 3.24081996 -26.36615221 -0.14566372 -21 -3 C-13.74628692 -5.90148523 -6.3912888 -3.88267643 0 0 Z " fill="#273755" transform="translate(283,74)"/>
<path d="M0 0 C4.05949084 2.27234447 6.60375757 5.14501515 8.6875 9.3125 C8.77113487 12.40699004 8.47615237 15.3177525 7.6875 18.3125 C4.78652195 21.3661611 2.09400558 23.16879574 -2.21362305 23.42602539 C-2.91011963 23.42078857 -3.60661621 23.41555176 -4.32421875 23.41015625 C-5.46020508 23.40532227 -5.46020508 23.40532227 -6.61914062 23.40039062 C-7.40482422 23.39201172 -8.19050781 23.38363281 -9 23.375 C-9.79728516 23.37048828 -10.59457031 23.36597656 -11.41601562 23.36132812 C-13.38154257 23.3495585 -15.34703085 23.33162348 -17.3125 23.3125 C-16.53119929 25.80802484 -16.53119929 25.80802484 -15.3125 28.3125 C-12.48838235 29.25387255 -10.78331968 29.42975382 -7.86328125 29.41015625 C-7.01572266 29.40693359 -6.16816406 29.40371094 -5.29492188 29.40039062 C-3.97331055 29.38782227 -3.97331055 29.38782227 -2.625 29.375 C-1.73232422 29.37048828 -0.83964844 29.36597656 0.08007812 29.36132812 C2.28258073 29.34955004 4.48504885 29.33161481 6.6875 29.3125 C6.6875 32.2825 6.6875 35.2525 6.6875 38.3125 C-1.60347187 41.44045757 -10.73903013 41.94782617 -18.9375 38.25 C-24.44813846 35.07391774 -26.32391851 31.27824448 -28.3125 25.3125 C-29.04591205 17.37190418 -27.77706076 11.32882124 -23.625 4.5625 C-16.91577267 -1.96539686 -8.64496785 -3.92953084 0 0 Z " fill="#293957" transform="translate(186.3125,71.6875)"/>
<path d="M0 0 C12.54 0 25.08 0 38 0 C38 3.3 38 6.6 38 10 C33.71 10 29.42 10 25 10 C25 23.53 25 37.06 25 51 C21.04 51 17.08 51 13 51 C13 37.47 13 23.94 13 10 C8.71 10 4.42 10 0 10 C0 6.7 0 3.4 0 0 Z " fill="#223353" transform="translate(88,60)"/>
<path d="M0 0 C3.63 0 7.26 0 11 0 C11.33 14.19 11.66 28.38 12 43 C13.65 43.66 15.3 44.32 17 45 C17 48.3 17 51.6 17 55 C7.05873294 55.78346238 7.05873294 55.78346238 2.875 52.6875 C0.3826241 49.11509454 -0.1249107 46.59169243 -0.11352539 42.3449707 C-0.11344986 41.40422195 -0.11337433 40.46347321 -0.11329651 39.49421692 C-0.10813522 38.48163315 -0.10297394 37.46904938 -0.09765625 36.42578125 C-0.0962413 35.38681198 -0.09482635 34.34784271 -0.09336853 33.27738953 C-0.08776656 29.95573052 -0.07521372 26.63413867 -0.0625 23.3125 C-0.05748525 21.06184993 -0.0529223 18.81119881 -0.04882812 16.56054688 C-0.03779648 11.04033867 -0.02053051 5.52018072 0 0 Z " fill="#253554" transform="translate(204,56)"/>
<path d="M0 0 C3.63 0 7.26 0 11 0 C11.33 14.19 11.66 28.38 12 43 C13.65 43.66 15.3 44.32 17 45 C17 48.3 17 51.6 17 55 C7.05873294 55.78346238 7.05873294 55.78346238 2.875 52.6875 C0.3826241 49.11509454 -0.1249107 46.59169243 -0.11352539 42.3449707 C-0.11344986 41.40422195 -0.11337433 40.46347321 -0.11329651 39.49421692 C-0.10813522 38.48163315 -0.10297394 37.46904938 -0.09765625 36.42578125 C-0.0962413 35.38681198 -0.09482635 34.34784271 -0.09336853 33.27738953 C-0.08776656 29.95573052 -0.07521372 26.63413867 -0.0625 23.3125 C-0.05748525 21.06184993 -0.0529223 18.81119881 -0.04882812 16.56054688 C-0.03779648 11.04033867 -0.02053051 5.52018072 0 0 Z " fill="#253554" transform="translate(228,56)"/>
<path d="M0 0 C0.33 0 0.66 0 1 0 C1.11618764 3.91641711 1.18724654 7.83239101 1.25 11.75 C1.28351563 12.86117187 1.31703125 13.97234375 1.3515625 15.1171875 C1.36445312 16.18710938 1.37734375 17.25703125 1.390625 18.359375 C1.41157227 19.34389648 1.43251953 20.32841797 1.45410156 21.34277344 C1 24 1 24 -0.3503418 26.32373047 C-4.5995914 29.01195933 -8.86215115 28.53030675 -13.78515625 28.4609375 C-14.8377916 28.46002106 -15.89042694 28.45910461 -16.97496033 28.4581604 C-19.19827794 28.45212261 -21.42158735 28.4363714 -23.64477539 28.41162109 C-27.05320093 28.37509964 -30.4605398 28.37060185 -33.86914062 28.37109375 C-36.02865525 28.36126317 -38.18816251 28.34960643 -40.34765625 28.3359375 C-41.36956558 28.33371185 -42.39147491 28.33148621 -43.4443512 28.32919312 C-44.8661393 28.31005356 -44.8661393 28.31005356 -46.31665039 28.29052734 C-47.15063858 28.28290375 -47.98462677 28.27528015 -48.84388733 28.26742554 C-51 28 -51 28 -54 26 C-55.2062252 22.38132441 -55.10816918 19.07493749 -55.0625 15.3125 C-55.05798828 14.61060547 -55.05347656 13.90871094 -55.04882812 13.18554688 C-55.03706927 11.45699462 -55.01913454 9.72848635 -55 8 C-54.67 8 -54.34 8 -54 8 C-54 11.3 -54 14.6 -54 18 C-36.18 18 -18.36 18 0 18 C0 12.06 0 6.12 0 0 Z " fill="#0455D1" transform="translate(65,83)"/>
<path d="M0 0 C0 3.96 0 7.92 0 12 C-3.63 12.66 -7.26 13.32 -11 14 C-11.33 22.91 -11.66 31.82 -12 41 C-15.63 41 -19.26 41 -23 41 C-23 27.8 -23 14.6 -23 1 C-19.37 1 -15.74 1 -12 1 C-11.67 2.65 -11.34 4.3 -11 6 C-10.21625 5.195625 -9.4325 4.39125 -8.625 3.5625 C-5.19929198 0.21835645 -4.86313592 0 0 0 Z " fill="#293957" transform="translate(154,70)"/>
<path d="M0 0 C1.79244141 0.01740234 1.79244141 0.01740234 3.62109375 0.03515625 C5.41740234 0.04869141 5.41740234 0.04869141 7.25 0.0625 C8.17683594 0.07410156 9.10367188 0.08570312 10.05859375 0.09765625 C10.08324879 4.49421798 10.10143217 8.89074345 10.11352539 13.28735352 C10.11856496 14.78410543 10.12539662 16.28085241 10.1340332 17.77758789 C10.14611534 19.92465432 10.15182566 22.07165587 10.15625 24.21875 C10.16148682 25.51224365 10.16672363 26.8057373 10.17211914 28.13842773 C10.05859375 31.09765625 10.05859375 31.09765625 9.05859375 32.09765625 C7.06059803 32.19639441 5.05902217 32.22737424 3.05859375 32.22265625 C1.96546875 32.22523437 0.87234375 32.2278125 -0.25390625 32.23046875 C-2.94140625 32.09765625 -2.94140625 32.09765625 -3.94140625 31.09765625 C-4.04153026 28.89114969 -4.07221805 26.68143239 -4.07421875 24.47265625 C-4.07517548 23.81056152 -4.0761322 23.1484668 -4.07711792 22.46630859 C-4.07779951 21.06412664 -4.07594667 19.66194155 -4.07177734 18.25976562 C-4.06642871 16.10669912 -4.07172295 13.95384123 -4.078125 11.80078125 C-4.07746421 10.44140579 -4.07618304 9.08203045 -4.07421875 7.72265625 C-4.07309082 6.47742188 -4.07196289 5.2321875 -4.07080078 3.94921875 C-3.89746988 0.12939807 -3.89746988 0.12939807 0 0 Z " fill="#F8FAFE" transform="translate(23.94140625,65.90234375)"/>
<path d="M0 0 C0.33 0 0.66 0 1 0 C1.02913821 3.5624827 1.04684529 7.12493454 1.0625 10.6875 C1.07087891 11.69490234 1.07925781 12.70230469 1.08789062 13.74023438 C1.09272461 15.20493164 1.09272461 15.20493164 1.09765625 16.69921875 C1.10551147 18.04246216 1.10551147 18.04246216 1.11352539 19.4128418 C1 22 1 22 0 27 C-9.9 27 -19.8 27 -30 27 C-30 20.4 -30 13.8 -30 7 C-29.67 7.66 -29.34 8.32 -29 9 C-27.35 8.67 -25.7 8.34 -24 8 C-22.58365167 10.83269666 -22.6536995 13.47466438 -22.4375 16.625 C-22.35371094 17.81351563 -22.26992188 19.00203125 -22.18359375 20.2265625 C-22.12300781 21.14179687 -22.06242187 22.05703125 -22 23 C-18.04 23 -14.08 23 -10 23 C-9.67 17.39 -9.34 11.78 -9 6 C-8.67 6.99 -8.34 7.98 -8 9 C-5.36 9 -2.72 9 0 9 C0 6.03 0 3.06 0 0 Z " fill="#0C68E5" transform="translate(65,61)"/>
<path d="M0 0 C3.07653907 2.60837008 4.66442403 4.22398001 5.4140625 8.19140625 C5.59844683 13.14463975 4.74826961 16.7718929 2 21 C-0.88861709 22.44430855 -2.79647701 22.37688506 -6 22 C-8.94898999 19.96847356 -10.59420519 18.35430907 -11.63671875 14.875 C-12.43967081 9.7637353 -11.99792665 6.38982116 -9 2 C-5.47427193 -0.35048538 -4.14986355 -0.66397817 0 0 Z " fill="#F7F7F8" transform="translate(273,80)"/>
<path d="M0 0 C2.14576637 -0.02685938 4.29162645 -0.04633088 6.4375 -0.0625 C7.63246094 -0.07410156 8.82742187 -0.08570312 10.05859375 -0.09765625 C13 0 13 0 14 1 C14.09986975 3.84335048 14.13877881 6.65697163 14.125 9.5 C14.12886719 10.29792969 14.13273437 11.09585938 14.13671875 11.91796875 C14.12660767 17.87339233 14.12660767 17.87339233 13 19 C11.00200428 19.09873816 9.00042842 19.12971799 7 19.125 C5.906875 19.12757812 4.81375 19.13015625 3.6875 19.1328125 C1 19 1 19 0 18 C-0.08631874 16.65732587 -0.10706473 15.31025678 -0.09765625 13.96484375 C-0.09443359 13.15595703 -0.09121094 12.34707031 -0.08789062 11.51367188 C-0.07951172 10.66353516 -0.07113281 9.81339844 -0.0625 8.9375 C-0.05798828 8.08349609 -0.05347656 7.22949219 -0.04882812 6.34960938 C-0.03700373 4.23304337 -0.01906769 2.11651315 0 0 Z " fill="#FBFCFE" transform="translate(42,66)"/>
<path d="M0 0 C0.33 0 0.66 0 1 0 C1 2.97 1 5.94 1 9 C3.64 9 6.28 9 9 9 C9.33 8.01 9.66 7.02 10 6 C10 13.92 10 21.84 10 30 C9.67 29.01 9.34 28.02 9 27 C6.36 27 3.72 27 1 27 C0.67 27.99 0.34 28.98 0 30 C0 20.1 0 10.2 0 0 Z " fill="#0968E8" transform="translate(10,61)"/>
<path d="M0 0 C2 1.1875 2 1.1875 3 3 C2.9375 5.5625 2.9375 5.5625 2 8 C-1.10086297 10.05090937 -3.58702983 10.22139395 -7.25 10.125 C-8.14203125 10.10695313 -9.0340625 10.08890625 -9.953125 10.0703125 C-10.96632812 10.03550781 -10.96632812 10.03550781 -12 10 C-11.69393785 6.6333163 -11.2999963 4.43845613 -9.375 1.625 C-6.08182112 -0.62822766 -3.90533049 -0.49704206 0 0 Z " fill="#F7F8F9" transform="translate(181,79)"/>
<path d="M0 0 C2.64 0 5.28 0 8 0 C8 3.3 8 6.6 8 10 C5.13822943 11.43088528 3.06624227 10.59991697 0 10 C0 6.7 0 3.4 0 0 Z " fill="#1872ED" transform="translate(57,70)"/>
<path d="M0 0 C2.64 0 5.28 0 8 0 C8 3.3 8 6.6 8 10 C5.36 10 2.72 10 0 10 C0 6.7 0 3.4 0 0 Z " fill="#1872ED" transform="translate(11,70)"/>
<path d="M0 0 C0.33 0.66 0.66 1.32 1 2 C2.65 1.67 4.3 1.34 6 1 C7.4807848 3.9615696 7.35314037 6.83506295 7.5625 10.125 C7.64628906 11.40632813 7.73007812 12.68765625 7.81640625 14.0078125 C7.90728516 15.48894531 7.90728516 15.48894531 8 17 C7.34 17 6.68 17 6 17 C5.67 15.35 5.34 13.7 5 12 C3.68 12 2.36 12 1 12 C0.03929566 9.11788698 -0.10581883 7.30149956 -0.0625 4.3125 C-0.05347656 3.50425781 -0.04445312 2.69601563 -0.03515625 1.86328125 C-0.02355469 1.24839844 -0.01195312 0.63351563 0 0 Z " fill="#1972ED" transform="translate(35,68)"/>
<path d="M0 0 C0.33 0 0.66 0 1 0 C1.33 2.64 1.66 5.28 2 8 C1.01 8 0.02 8 -1 8 C-1.04241723 5.66705225 -1.04092937 3.33297433 -1 1 C-0.67 0.67 -0.34 0.34 0 0 Z " fill="#3B4963" transform="translate(141,71)"/>
<path d="M0 0 C0.99 0.33 1.98 0.66 3 1 C0.36 2.98 -2.28 4.96 -5 7 C-3.75023244 3.34683329 -3.32901247 2.21934164 0 0 Z " fill="#1F3152" transform="translate(148,71)"/>
</svg>
