<svg version="1.1" id="Layer_1" xmlns="http://www.w3.org/2000/svg" xmlns:xlink="http://www.w3.org/1999/xlink" x="0px" y="0px"
	 width="100%" viewBox="0 0 156 148" enable-background="new 0 0 156 148" xml:space="preserve">
<path fill="#3178C6" opacity="1.000000" stroke="none" 
	d="
M1.000000,144.000000 
	C1.000000,98.312439 1.000000,52.624878 1.323771,6.403574 
	C2.765028,4.246556 3.882514,2.623278 5.000000,1.000000 
	C54.020893,1.000000 103.041786,1.000000 152.696915,1.289113 
	C154.554092,3.052150 155.777054,4.526074 157.000000,6.000000 
	C157.000000,51.687561 157.000000,97.375122 156.676224,143.596436 
	C155.234970,145.753448 154.117477,147.376724 153.000000,149.000000 
	C103.979103,149.000000 54.958210,149.000000 5.303076,148.710876 
	C3.445891,146.947845 2.222945,145.473923 1.000000,144.000000 
M57.179348,139.979767 
	C61.952854,139.979767 66.726357,139.979767 71.997650,139.979767 
	C71.997650,121.095482 71.997650,102.729881 71.997650,84.846542 
	C77.981628,84.846542 83.462997,84.974533 88.927094,84.724724 
	C89.874130,84.681419 91.445259,83.100761 91.531036,82.124985 
	C91.845795,78.544464 91.655792,74.919586 91.655792,71.326653 
	C73.065094,71.326653 55.179253,71.326653 37.331657,71.326653 
	C37.331657,75.928009 37.331657,80.173149 37.331657,85.079262 
	C43.450787,85.079262 49.233974,85.079262 55.008862,86.006470 
	C55.005844,101.923141 54.956627,117.840103 55.056591,133.756134 
	C55.069508,135.811935 55.854465,137.862885 57.179348,139.979767 
M135.947571,70.456421 
	C126.978172,68.969810 118.034554,68.507210 109.413589,72.076447 
	C98.366547,76.650124 93.530273,88.502922 99.530029,98.795494 
	C102.077988,103.166504 107.287186,106.164330 111.673637,109.233543 
	C115.752762,112.087723 120.580315,113.873604 124.653229,116.734955 
	C129.689774,120.273293 129.002945,125.360916 123.244659,127.409599 
	C120.378189,128.429443 116.906601,129.014938 114.005424,128.399155 
	C108.477768,127.225891 103.162949,125.049835 97.437927,123.185326 
	C97.437927,126.749481 97.177673,130.728912 97.579842,134.640228 
	C97.719604,135.999481 99.258636,137.903564 100.567749,138.344742 
	C110.902298,141.827621 121.411270,142.328766 131.794632,138.646790 
	C139.881317,135.779221 144.072113,129.236862 144.249908,120.642944 
	C144.435150,111.690002 139.656204,105.994164 132.288254,102.039673 
	C128.047882,99.763794 123.545448,97.979401 119.277374,95.750870 
	C115.941559,94.009117 112.671432,91.748886 113.963501,87.282967 
	C115.161606,83.141823 118.800430,81.839333 122.655983,82.189194 
	C128.739456,82.741226 134.776840,83.800949 141.105286,84.683655 
	C141.105286,82.480537 140.871964,79.153900 141.169174,75.875351 
	C141.482910,72.414452 139.917740,70.995232 135.947571,70.456421 
z"/>
<path fill="#F2F5FB" opacity="1.000000" stroke="none" 
	d="
M4.500001,1.000000 
	C3.882514,2.623278 2.765028,4.246556 1.323771,5.934917 
	C1.630141,4.111417 -1.031379,0.247837 4.500001,1.000000 
z"/>
<path fill="#F2F5FB" opacity="1.000000" stroke="none" 
	d="
M157.000000,5.500088 
	C155.777054,4.526074 154.554092,3.052150 153.165573,1.289113 
	C154.254929,1.000000 155.509857,1.000000 157.000000,1.000000 
	C157.000000,2.330422 157.000000,3.665298 157.000000,5.500088 
z"/>
<path fill="#F2F5FB" opacity="1.000000" stroke="none" 
	d="
M1.000000,144.499908 
	C2.222945,145.473923 3.445891,146.947845 4.834418,148.710876 
	C3.745069,149.000000 2.490139,149.000000 1.000000,149.000000 
	C1.000000,147.669571 1.000000,146.334702 1.000000,144.499908 
z"/>
<path fill="#F2F5FB" opacity="1.000000" stroke="none" 
	d="
M153.500000,149.000000 
	C154.117477,147.376724 155.234970,145.753448 156.676224,144.065094 
	C156.329926,145.864624 159.024826,149.748230 153.500000,149.000000 
z"/>
<path fill="#FAFCFE" opacity="1.000000" stroke="none" 
	d="
M136.360321,70.574615 
	C139.917740,70.995232 141.482910,72.414452 141.169174,75.875351 
	C140.871964,79.153900 141.105286,82.480537 141.105286,84.683655 
	C134.776840,83.800949 128.739456,82.741226 122.655983,82.189194 
	C118.800430,81.839333 115.161606,83.141823 113.963501,87.282967 
	C112.671432,91.748886 115.941559,94.009117 119.277374,95.750870 
	C123.545448,97.979401 128.047882,99.763794 132.288254,102.039673 
	C139.656204,105.994164 144.435150,111.690002 144.249908,120.642944 
	C144.072113,129.236862 139.881317,135.779221 131.794632,138.646790 
	C121.411270,142.328766 110.902298,141.827621 100.567749,138.344742 
	C99.258636,137.903564 97.719604,135.999481 97.579842,134.640228 
	C97.177673,130.728912 97.437927,126.749481 97.437927,123.185326 
	C103.162949,125.049835 108.477768,127.225891 114.005424,128.399155 
	C116.906601,129.014938 120.378189,128.429443 123.244659,127.409599 
	C129.002945,125.360916 129.689774,120.273293 124.653229,116.734955 
	C120.580315,113.873604 115.752762,112.087723 111.673637,109.233543 
	C107.287186,106.164330 102.077988,103.166504 99.530029,98.795494 
	C93.530273,88.502922 98.366547,76.650124 109.413589,72.076447 
	C118.034554,68.507210 126.978172,68.969810 136.360321,70.574615 
z"/>
<path fill="#F8FAFD" opacity="1.000000" stroke="none" 
	d="
M55.017159,85.079262 
	C49.233974,85.079262 43.450787,85.079262 37.331657,85.079262 
	C37.331657,80.173149 37.331657,75.928009 37.331657,71.326653 
	C55.179253,71.326653 73.065094,71.326653 91.655792,71.326653 
	C91.655792,74.919586 91.845795,78.544464 91.531036,82.124985 
	C91.445259,83.100761 89.874130,84.681419 88.927094,84.724724 
	C83.462997,84.974533 77.981628,84.846542 71.997650,84.846542 
	C71.997650,102.729881 71.997650,121.095482 71.997650,139.979767 
	C66.726357,139.979767 61.952854,139.979767 56.716118,139.486053 
	C56.250206,122.612579 56.281281,106.232620 56.191311,89.853325 
	C56.182564,88.259865 55.426384,86.670517 55.017159,85.079262 
z"/>
<path fill="#156FC3" opacity="1.000000" stroke="none" 
	d="
M55.013008,85.542862 
	C55.426384,86.670517 56.182564,88.259865 56.191311,89.853325 
	C56.281281,106.232620 56.250206,122.612579 56.267342,139.454224 
	C55.854465,137.862885 55.069508,135.811935 55.056591,133.756134 
	C54.956627,117.840103 55.005844,101.923141 55.013008,85.542862 
z"/>
</svg>